<svg width="116" height="56" viewBox="0 0 116 56" fill="none" xmlns="http://www.w3.org/2000/svg">
<path d="M107.237 5.56283C103.257 5.49347 100.054 5.52119 96.9311 5.33812C95.0839 5.2244 92.9872 5.05246 93.0926 1.75754C99.3995 1.31103 105.507 0.334766 111.742 0.825701C114.318 1.01708 115.322 2.39554 115.408 5.02482C115.411 5.99046 115.324 6.95423 115.147 7.90369C114.384 12.8109 113.601 17.7173 112.798 22.6227C112.532 24.2479 112.121 26.0174 109.994 25.8371C108.089 25.6846 107.304 24.1037 107.279 22.3924C107.309 20.476 107.449 18.5628 107.698 16.6624C107.955 15.2452 107.941 13.792 107.656 12.3801C107.318 12.8876 106.979 13.3952 106.636 13.9111C102.908 19.5024 100.218 20.6174 93.65 19.2916C88.4224 18.3021 83.5127 16.0599 79.3415 12.7572C78.3375 11.9556 77.3446 11.1375 76.2934 10.3886C72.0139 7.30723 69.3542 8.06994 67.7095 13.0789C66.9642 15.6952 66.3934 18.358 66.001 21.0499C64.4755 29.1069 60.7645 32.0413 52.5661 31.3229C46.4592 30.8617 40.5332 29.0383 35.2234 25.9866C33.5988 24.9592 31.8875 24.0757 30.1091 23.3462C27.2135 22.2812 25.7491 23.0716 25.358 26.128C25.0665 29.3216 24.9664 32.5298 25.0585 35.7354C25.039 37.9819 25.3469 40.2424 25.15 42.4667C24.7256 47.1234 22.5955 50.8233 18.022 52.4374C14.5545 53.6653 10.9964 54.6204 7.38009 55.2941C6.13005 55.6134 4.80828 55.4937 3.63596 54.955C2.46364 54.4162 1.51191 53.4912 0.940036 52.3347C2.14096 52.0296 3.11168 51.7995 4.07963 51.5554C7.79058 50.6041 11.5542 49.8081 15.2042 48.6599C18.8541 47.5117 20.1382 44.7382 20.0162 41.1715C19.9192 38.1262 19.542 35.0864 19.5392 32.0439C19.4509 29.327 19.6517 26.6085 20.1383 23.9342C21.3781 18.2707 26.0653 15.7829 31.5152 17.8297C34.0387 18.8611 36.4689 20.1073 38.779 21.5546C43.3861 24.1858 48.5419 25.7098 53.8391 26.0061C58.2518 26.3278 59.5525 25.1879 60.4928 20.9112C61.2389 17.4665 61.6688 13.9192 62.842 10.6271C63.7116 8.40737 65.0979 6.4269 66.8858 4.84988C69.9366 2.07639 73.6087 1.97655 77.0839 4.20924C78.9723 5.4277 80.7479 6.81258 82.3896 8.34732C86.1921 11.8919 90.8626 13.4312 95.78 14.474C98.1236 14.9788 100.062 14.6127 101.557 12.3163C103.052 10.0198 104.958 8.18932 107.237 5.56283Z" fill="white"/>
</svg>
