<svg width="40" height="120" viewBox="0 0 40 120" fill="none" xmlns="http://www.w3.org/2000/svg">
<path d="M13.3008 112.658L25.3008 109.978C25.2377 111.046 24.8509 112.07 24.1918 112.913C23.5326 113.756 22.6324 114.379 21.6108 114.698C16.1858 116.576 10.6606 118.152 5.06078 119.418C1.85078 120.098 0.170778 117.858 1.14078 114.748C2.75078 109.548 4.64078 104.428 6.41078 99.2777C6.52078 98.9777 6.60078 98.5777 6.83078 98.4277C7.55078 97.9777 8.34078 97.6177 9.11078 97.2277C9.43078 97.8877 10.1108 98.5877 10.0208 99.2277C9.75078 101.288 9.22079 103.308 8.79079 105.338C8.45956 106.552 8.45956 107.833 8.79079 109.048C10.0108 107.928 11.2908 106.868 12.4608 105.698C24.0054 94.2541 31.4904 79.3487 33.7743 63.2547C36.0583 47.1607 33.0157 30.7613 25.1108 16.5577C23.0408 12.7677 20.5008 9.23766 18.2008 5.55766C17.4008 4.27766 16.6708 2.95766 15.9008 1.65766L16.6208 0.847656C17.5308 1.18766 18.6908 1.26766 19.3008 1.84766C21.4618 3.99188 23.4669 6.28772 25.3008 8.71766C43.3008 33.5577 44.0108 68.0577 26.8508 94.7177C23.5708 99.8077 19.3608 104.298 15.5508 109.038C14.7708 110.038 13.8408 110.878 12.9808 111.788C13.0308 112.118 13.1708 112.388 13.3008 112.658Z" fill="#012515"/>
</svg>
