<svg width="40" height="120" viewBox="0 0 40 120" fill="none" xmlns="http://www.w3.org/2000/svg">
<path d="M13.3008 112.657L25.3008 109.977C25.2377 111.046 24.8509 112.069 24.1918 112.913C23.5326 113.756 22.6324 114.378 21.6108 114.697C16.1858 116.576 10.6606 118.152 5.06078 119.417C1.85078 120.097 0.170778 117.857 1.14078 114.747C2.75078 109.547 4.64078 104.427 6.41078 99.2772C6.52078 98.9772 6.60078 98.5772 6.83078 98.4272C7.55078 97.9772 8.34078 97.6172 9.11078 97.2272C9.43078 97.8872 10.1108 98.5872 10.0208 99.2272C9.75078 101.287 9.22079 103.307 8.79079 105.337C8.45956 106.552 8.45956 107.833 8.79079 109.047C10.0108 107.927 11.2908 106.867 12.4608 105.697C24.0054 94.2536 31.4904 79.3482 33.7743 63.2542C36.0583 47.1602 33.0157 30.7609 25.1108 16.5572C23.0408 12.7672 20.5008 9.23717 18.2008 5.55717C17.4008 4.27717 16.6708 2.95717 15.9008 1.65717L16.6208 0.847168C17.5308 1.18717 18.6908 1.26717 19.3008 1.84717C21.4618 3.99139 23.4669 6.28723 25.3008 8.71717C43.3008 33.5572 44.0108 68.0572 26.8508 94.7172C23.5708 99.8072 19.3608 104.297 15.5508 109.037C14.7708 110.037 13.8408 110.877 12.9808 111.787C13.0308 112.117 13.1708 112.387 13.3008 112.657Z" fill="white"/>
</svg>
