<svg width="375" height="115" viewBox="0 0 375 115" fill="none" xmlns="http://www.w3.org/2000/svg">
<g clip-path="url(#clip0_253_285)">
<path d="M325.469 83.1532C386.368 72.9254 461.02 47.0621 461.02 47.0621V99.1723H194.246C194.246 99.1723 264.606 93.393 325.469 83.1532Z" fill="#101714"/>
<path d="M266.751 85.6233C271.547 82.6736 277.35 81.1748 282.806 80.0957C279.4 79.1844 269.089 77.266 266.019 79.724C271.727 75.1197 279.964 76.019 287.206 77.17C281.88 72.9811 275.912 69.6811 269.532 67.3979C274.065 66.1764 278.891 66.7118 283.046 68.8967C287.156 71.0813 290.776 74.0847 293.681 77.7216C293.18 71.8422 294.633 65.9617 297.813 60.9912C300.993 56.0207 305.723 52.2375 311.271 50.2277C304.496 56.1559 300.352 64.531 299.748 73.513C302.993 70.9123 307.083 69.6014 311.235 69.8319C307.326 71.1269 302.842 73.0933 302.062 77.1341C305.407 75.6418 309.089 75.0663 312.731 75.4667C316.372 75.867 319.841 77.2288 322.782 79.4123C315.719 78.441 307.997 77.6137 301.954 81.3787C304.915 81.4068 307.851 81.917 310.647 82.8895C312.378 83.5948 313.824 84.8577 314.756 86.4781C315.688 88.0984 316.052 89.9834 315.791 91.8343C310.287 88.3303 303.75 86.8155 297.266 87.5417C297.631 90.3653 297.392 93.2342 296.565 95.9585C295.739 98.6829 294.343 101.201 292.47 103.345C292.878 98.9686 293.201 94.1964 290.743 90.5513C287.85 90.747 285.025 91.5193 282.435 92.8228C279.844 94.1262 277.541 95.9345 275.659 98.1412C275.575 96.805 275.802 95.4674 276.322 94.2336C276.842 92.9999 277.642 91.9036 278.657 91.0309C280.696 89.38 282.936 87.994 285.324 86.9062C282.926 82.9494 275.18 84.3403 271.571 85.5513C267.424 87.125 263.527 89.2897 260 91.9782C261.768 89.4003 264.071 87.233 266.751 85.6233Z" fill="#101714"/>
<path d="M198.128 103.369C201.621 99.9886 205.679 97.2455 210.118 95.2636C207.109 95.2636 198.2 95.971 196.233 98.6688C199.915 93.6089 206.893 92.5297 213.128 91.8703C207.792 89.5885 202.124 88.1796 196.341 87.6976C199.8 85.6892 203.891 85.0638 207.792 85.947C211.664 86.8337 215.313 88.507 218.512 90.8631C216.798 86.1327 216.692 80.9695 218.209 76.1727C219.727 71.3759 222.783 67.2129 226.905 64.3284C222.661 70.7285 221.126 78.5495 222.636 86.0789C224.742 83.2256 227.823 81.2456 231.293 80.5154C228.356 82.4458 225.07 85.0597 225.298 88.5489C227.727 86.5828 230.633 85.296 233.721 84.8199C236.809 84.3439 239.968 84.6956 242.876 85.8391C236.881 86.6065 230.298 87.6257 226.149 92.0741C228.593 91.4338 231.125 91.2069 233.643 91.4027C235.221 91.6072 236.686 92.329 237.81 93.455C238.934 94.5809 239.653 96.0476 239.854 97.6257C234.545 95.9642 228.828 96.1587 223.643 98.1772C224.567 100.425 225.001 102.844 224.919 105.273C224.836 107.702 224.238 110.086 223.164 112.266C222.528 108.573 221.737 104.568 218.919 102.11C216.573 102.911 214.41 104.172 212.557 105.819C210.704 107.466 209.199 109.466 208.128 111.702C207.766 110.619 207.659 109.467 207.815 108.336C207.971 107.204 208.386 106.124 209.027 105.18C210.341 103.369 211.88 101.733 213.608 100.311C210.742 97.5897 204.675 100.443 201.977 102.23C198.913 104.455 196.18 107.103 193.859 110.096C194.788 107.576 196.244 105.283 198.128 103.369Z" fill="#101714"/>
<path d="M354.531 76.4506C358.72 74.134 363.281 72.5638 368.008 71.8104C365.155 71.043 356.498 69.4123 353.944 71.4986C358.74 67.6377 365.646 68.3931 371.737 69.3523C367.259 65.821 362.238 63.0391 356.869 61.1149C360.666 60.0732 364.717 60.5014 368.212 62.314C371.661 64.1585 374.7 66.6834 377.145 69.736C376.72 64.8003 377.937 59.8624 380.606 55.6889C383.274 51.5153 387.247 48.3395 391.905 46.6545C386.216 51.6289 382.736 58.6589 382.229 66.1989C384.937 64.0244 388.353 62.927 391.821 63.1173C388.536 64.1965 384.747 65.8511 384.111 69.2444C386.921 67.9882 390.015 67.5027 393.075 67.8377C396.134 68.1728 399.05 69.3163 401.521 71.1509C395.526 70.3356 389.099 69.6401 384.027 72.8056C386.515 72.8278 388.981 73.2571 391.33 74.0766C392.78 74.6712 393.992 75.7315 394.773 77.0904C395.555 78.4494 395.862 80.0298 395.646 81.5825C391.011 78.6456 385.512 77.3767 380.059 77.9854C380.38 80.3567 380.195 82.7693 379.515 85.0636C378.835 87.358 377.676 89.4818 376.114 91.2947C376.461 87.6137 376.725 83.6089 374.675 80.5034C372.244 80.6679 369.87 81.317 367.694 82.4125C365.517 83.508 363.582 85.0277 362.001 86.8823C361.928 85.7563 362.118 84.6287 362.555 83.5884C362.992 82.5481 363.664 81.6234 364.519 80.8871C366.229 79.4963 368.111 78.3316 370.119 77.4219C368.092 74.1005 361.593 75.2636 358.572 76.2828C355.09 77.6082 351.815 79.4252 348.848 81.6785C350.356 79.5579 352.292 77.777 354.531 76.4506Z" fill="#101714"/>
<path d="M359.726 84.5082C359.462 77.8895 359.726 71.1149 358.347 64.5801C358.096 63.3811 357.508 61.9303 356.285 61.8823C355.748 61.9156 355.228 62.0847 354.774 62.3739C353.107 63.2219 351.306 63.7775 349.45 64.0166C348.7 64.1495 347.93 64.1127 347.196 63.9087C346.238 63.4216 345.344 62.8175 344.534 62.1101C343.831 61.6555 343.03 61.373 342.196 61.2856C341.363 61.1981 340.521 61.308 339.738 61.6065C341.992 58.0094 346.489 56.1509 350.793 56.079C353.719 56.079 357.028 56.9543 358.359 59.5562C359.558 61.8104 358.839 64.6401 359.906 66.9303C359.33 63.9235 359.511 60.8206 360.434 57.9015C361.417 54.808 362.016 52.29 360.362 49.3404L357.964 45.0838C358.647 44.6761 359.51 45.0838 360.194 45.4915L362.868 47.0742C363.965 47.6552 364.967 48.3991 365.841 49.2804C366.658 50.2243 367.174 51.3912 367.321 52.6308C367.469 53.8704 367.241 55.1257 366.669 56.2348C365.398 58.3811 363.072 59.8319 361.932 62.1701C361.105 64.1503 360.788 66.3064 361.009 68.441C361.849 65.6713 365.362 64.3883 368.131 65.2276C370.901 66.0669 372.928 68.441 374.331 70.983C372.398 69.9008 370.235 69.2929 368.021 69.2096C365.808 69.1262 363.606 69.5696 361.597 70.5034C361.283 70.6271 361.006 70.8294 360.793 71.0909C360.612 71.4165 360.525 71.7859 360.542 72.1581C360.279 77.2079 360.504 82.2713 361.213 87.2779C360.134 87.182 359.774 85.6712 359.726 84.5082Z" fill="#101714"/>
<path d="M375.598 63.8967C377.368 64.3368 378.994 65.2245 380.322 66.4746C380.598 66.7264 380.874 67.1101 380.67 67.4338C380.594 67.5388 380.496 67.625 380.382 67.6856C375.838 70.5154 369.723 73.1053 370.43 79.676C374.95 76.4406 379.887 73.831 385.106 71.9182C386.661 71.1075 388.459 70.8928 390.162 71.3146C391.864 71.7363 393.354 72.7654 394.351 74.2084C396.65 76.4949 398.76 78.9651 400.658 81.5945C401.015 79.2801 400.841 76.9149 400.149 74.6776C399.457 72.4404 398.266 70.3898 396.665 68.6808C404.343 67.3177 412.244 67.9578 419.603 70.5393C418.046 67.1522 415.259 64.4842 411.808 63.0769C408.356 61.6695 404.498 61.6282 401.017 62.9614C403.679 55.4794 410.61 50.5154 417.228 46.055C412.877 45.792 408.525 46.5408 404.512 48.2425C400.499 49.9442 396.935 52.5526 394.099 55.8631C393.152 51.8823 394.722 47.7816 396.269 43.9926L400.25 34.2085C396.296 36.1042 393.101 39.2853 391.189 43.2318C389.277 47.1783 388.76 51.6567 389.722 55.9351C388.703 52.1461 387.324 48.3212 384.663 45.4435C379.435 39.784 370.862 39.1845 363.176 38.9567C364.778 41.9361 367.14 44.4388 370.022 46.2109C372.049 47.4099 374.291 48.3092 376.377 49.4483C380.987 51.9981 384.719 55.8806 387.085 60.5873C383.394 58.8097 379.3 58.0345 375.215 58.3397C371.13 58.6449 367.197 60.0196 363.811 62.3259C365.286 61.2948 371.593 63.1293 373.404 63.4291C374.159 63.5609 374.914 63.7048 375.598 63.8967Z" fill="#101714"/>
<path d="M308.311 80.4074C309.392 80.6716 310.387 81.2082 311.201 81.9662C311.357 82.122 311.525 82.3618 311.405 82.5537C311.358 82.6146 311.301 82.6673 311.237 82.7096C308.467 84.4362 304.726 86.0189 305.17 90.0117C307.925 88.041 310.934 86.4519 314.115 85.2875C315.061 84.7881 316.158 84.6539 317.197 84.9103C318.236 85.1667 319.145 85.796 319.75 86.6784C321.15 88.0694 322.434 89.5733 323.587 91.1748C323.808 89.7677 323.707 88.3289 323.291 86.9666C322.876 85.6042 322.157 84.3538 321.189 83.3091C325.869 82.4714 330.687 82.8639 335.17 84.4482C334.223 82.3812 332.525 80.7523 330.42 79.8926C328.315 79.0329 325.962 79.0069 323.839 79.8199C325.458 75.2516 329.702 72.23 333.719 69.5202C331.071 69.3632 328.422 69.823 325.982 70.8633C323.541 71.9036 321.375 73.4961 319.654 75.5153C319.067 73.1173 320.026 70.5873 320.973 68.3211L323.371 62.3259C320.974 63.4813 319.036 65.412 317.872 67.8057C316.707 70.1993 316.385 72.9157 316.957 75.5153C316.456 73.1691 315.399 70.9774 313.875 69.1245C310.686 65.6712 305.482 65.2995 300.77 65.1676C301.748 66.9834 303.187 68.5094 304.942 69.5921C306.141 70.3475 307.544 70.8751 308.815 71.5705C311.628 73.1223 313.905 75.4879 315.35 78.3571C313.098 77.2747 310.602 76.8025 308.111 76.9877C305.619 77.1729 303.22 78.0089 301.153 79.4122C302.052 78.7887 305.949 79.9038 306.969 80.0837C307.436 80.1916 307.892 80.2875 308.311 80.4074Z" fill="#101714"/>
<path d="M321.68 77.9254C323.976 76.5897 326.501 75.6951 329.126 75.2876C330.848 75.128 332.585 75.3588 334.206 75.9629C335.828 76.567 337.292 77.5288 338.49 78.7768C337.699 77.9374 337.711 76.9303 337.291 75.983C336.694 75.0387 335.949 74.1966 335.085 73.489C334.254 72.6589 333.648 71.6317 333.322 70.5034C332.435 67.4578 333.586 63.8727 331.883 61.1869C332.231 61.7265 334.282 62.3859 334.857 62.7336C335.876 63.4051 336.692 64.2924 337.675 64.9998C339.521 66.3427 340.96 67.5178 340.984 70.0957C341.008 72.6737 339.234 75.2036 340.049 77.6377C341.771 75.6623 344.039 74.2413 346.568 73.5542C349.097 72.867 351.773 72.9445 354.258 73.7768L350.361 75.4435C348.857 75.9145 347.529 76.8249 346.548 78.0573C345.539 79.6361 345.158 81.5355 345.481 83.3811C345.612 84.1377 345.684 84.9034 345.696 85.6712C345.698 86.0546 345.614 86.4334 345.45 86.7799C345.286 87.1264 345.047 87.4318 344.749 87.6736C344.169 88.0028 343.51 88.1686 342.843 88.1532C341.98 88.2353 341.111 88.2151 340.253 88.0933C338.532 87.6267 336.993 86.6482 335.84 85.2875C333.358 82.7336 331.416 80.7192 327.795 79.9518C325.756 79.5202 323.262 79.5202 321.68 77.9254Z" fill="#101714"/>
<path d="M237.688 94.0884C239.535 92.1827 241.717 90.634 244.126 89.5201C245.742 88.9015 247.477 88.6537 249.201 88.7948C250.926 88.9359 252.596 89.4624 254.09 90.3354C253.107 89.7479 252.891 88.7647 252.136 87.9374C251.308 87.1909 250.364 86.5836 249.342 86.1388C248.32 85.5602 247.459 84.736 246.836 83.7407C245.146 81.0549 245.289 77.2899 242.915 75.1676C243.395 75.5993 245.493 75.6232 246.201 75.8511C247.4 76.2108 248.395 76.8463 249.522 77.2659C251.668 78.0573 253.371 78.7887 254.102 81.2707C254.834 83.7527 253.803 86.6664 255.301 88.7767C256.421 86.4061 258.218 84.4201 260.465 83.0694C262.712 81.7186 265.308 81.0635 267.927 81.1868L264.606 83.9086C263.288 84.7919 262.258 86.0427 261.644 87.5057C261.108 89.2989 261.262 91.228 262.076 92.9134C262.411 93.6043 262.688 94.3223 262.903 95.0597C263.009 95.4273 263.032 95.8139 262.969 96.1913C262.907 96.5688 262.762 96.9276 262.544 97.2419C262.069 97.716 261.478 98.0554 260.829 98.2251C260.026 98.5357 259.189 98.749 258.335 98.8606C256.551 98.8902 254.802 98.3712 253.323 97.3738C250.241 95.5872 247.819 94.1843 244.126 94.4242C241.992 94.5321 239.642 95.1915 237.688 94.0884Z" fill="#101714"/>
<path d="M79.3759 99.556C83.5696 97.2515 88.1353 95.7011 92.8651 94.9757C90.0114 94.2083 81.3543 92.5776 78.8004 94.664C83.5965 90.7911 90.503 91.5584 96.5941 92.5177C92.1173 88.9536 87.092 86.1393 81.7141 84.1844C85.5107 83.1366 89.5633 83.565 93.057 85.3834C96.5112 87.2197 99.5548 89.7411 102.002 92.7934C101.598 87.8717 102.825 82.954 105.492 78.7981C108.159 74.6422 112.119 71.4789 116.762 69.7959C111.08 74.7759 107.602 81.8027 107.086 89.3402C109.817 87.1648 113.252 86.0682 116.738 86.2587C113.453 87.3498 109.664 88.9925 109.028 92.3858C111.839 91.1345 114.932 90.6517 117.991 90.9866C121.049 91.3216 123.964 92.4623 126.438 94.2922C120.443 93.4889 114.016 92.7815 108.944 95.9589C111.427 95.9705 113.891 96.3959 116.234 97.2179C117.686 97.8108 118.899 98.8708 119.681 100.23C120.462 101.59 120.769 103.171 120.551 104.724C115.92 101.776 110.418 100.506 104.963 101.127C105.266 103.498 105.061 105.907 104.363 108.193C103.664 110.479 102.487 112.591 100.911 114.388C101.258 110.719 101.522 106.714 99.4598 103.597C97.0315 103.766 94.6612 104.418 92.4873 105.513C90.3134 106.608 88.3793 108.125 86.798 109.976C86.726 108.85 86.9159 107.723 87.3528 106.682C87.7897 105.642 88.4616 104.717 89.316 103.98C91.0262 102.593 92.9083 101.433 94.9155 100.527C92.8771 97.1939 86.3903 98.369 83.3687 99.3881C79.8825 100.705 76.6067 102.523 73.6445 104.784C75.1657 102.657 77.1188 100.876 79.3759 99.556Z" fill="#101714"/>
<path d="M8.29739 68.7888C14.2926 69.8439 20.1199 72.7935 25.3357 75.8391C23.2254 72.6497 16.211 63.6929 11.9665 63.501C19.9281 63.8487 25.9712 70.5034 31.0431 76.6904C29.7315 69.4352 27.2491 62.4415 23.693 55.983C28.2549 58.2469 31.7957 62.1473 33.6091 66.9063C35.3801 71.6374 36.1636 76.681 35.9112 81.7264C39.7287 76.5874 45.1341 72.8506 51.2903 71.0947C57.4466 69.3389 64.01 69.6621 69.9639 72.0142C60.2004 71.97 50.8177 75.7989 43.8729 82.6616C48.383 82.8836 52.6526 84.7622 55.8632 87.9374C51.7625 86.1748 46.6786 84.5321 43.1534 87.2779C46.9534 88.4722 50.3668 90.6566 53.043 93.6068C55.7192 96.557 57.5617 100.166 58.3812 104.064C53.3333 98.2012 47.5899 91.9782 40.0239 90.6952C42.418 92.8446 44.4432 95.3722 46.0191 98.1772C46.9146 99.9937 47.1803 102.057 46.7743 104.041C46.3684 106.025 45.3139 107.818 43.7769 109.136C41.8009 102.342 37.5725 96.4225 31.7866 92.3499C30.0457 94.9044 27.7831 97.0609 25.148 98.6772C22.5128 100.293 19.565 101.333 16.4988 101.726C19.976 98.465 23.693 94.8079 24.2926 90.0837C21.7973 88.1667 18.9446 86.7668 15.9016 85.9659C12.8587 85.165 9.68646 84.9792 6.57078 85.4194C7.46485 84.2783 8.61103 83.3596 9.91951 82.7356C11.228 82.1115 12.6632 81.7989 14.1127 81.8223C17.0024 81.7264 19.7362 82.6257 22.506 83.2492C23.3933 78.2971 16.1031 73.8727 12.3022 72.266C7.7978 70.5697 3.07349 69.5279 -1.72656 69.1725C1.55086 68.3429 4.96615 68.2122 8.29739 68.7888Z" fill="#101714"/>
<path d="M7.07635 72.3499C9.47442 63.537 12.7478 54.7481 13.695 45.5874C13.8629 43.9087 13.695 41.7625 12.1243 41.175C11.4014 40.9833 10.641 40.9833 9.91807 41.175C7.36867 41.5769 4.76934 41.5404 2.23223 41.067C1.19462 40.9287 0.202221 40.5556 -0.669439 39.9759C-1.86848 39.0886 -2.468 37.6378 -3.40325 36.4987C-4.1312 35.6246 -5.05061 34.9299 -6.09026 34.4683C-7.1299 34.0067 -8.26186 33.7906 -9.39844 33.8368C-4.87806 29.9879 1.78859 29.5203 7.46004 31.2469C11.3329 32.446 15.2778 35.0239 15.9252 39.0167C16.4888 42.4579 14.4025 45.8872 14.8461 49.3524C15.3591 45.1611 16.9086 41.1637 19.3545 37.7217C21.9564 34.1246 23.8029 31.0191 22.8797 26.4388L21.5487 19.8561C22.6159 19.6043 23.5751 20.5035 24.3065 21.3309L27.1482 24.5443C28.3546 25.7623 29.3621 27.1622 30.1339 28.693C30.8019 30.2833 30.9795 32.0369 30.6441 33.7289C30.3087 35.4209 29.4755 36.9741 28.2514 38.1893C25.6734 40.4675 21.9924 41.3308 19.5224 43.9807C17.5979 46.2247 16.27 48.9175 15.6615 51.8104C17.9276 48.525 23.0835 48.3212 26.3809 50.6114C29.6782 52.9015 31.3449 56.8584 32.0883 60.7912C30.0052 58.5522 27.4194 56.8408 24.5443 55.7984C21.6693 54.756 18.5876 54.4124 15.5535 54.796C15.0932 54.8234 14.6475 54.9679 14.2586 55.2157C13.877 55.5681 13.6027 56.0211 13.4672 56.5226C10.9943 63.0422 9.15133 69.7836 7.96363 76.6545C6.47683 76.019 6.66867 73.8967 7.07635 72.3499Z" fill="#101714"/>
<path d="M-7.57564 77.2899C-6.09131 77.6526 -4.7274 78.3966 -3.61881 79.4481C-3.39099 79.652 -3.16318 79.9877 -3.33104 80.2395C-3.38976 80.332 -3.47269 80.4067 -3.57085 80.4553C-7.3718 82.8534 -12.5037 84.9997 -11.9042 90.4913C-8.13586 87.7818 -4.01763 85.5956 0.338015 83.9925C1.4281 83.5136 2.61378 83.2921 3.80323 83.345C5.4741 83.7046 6.97911 84.6068 8.0838 85.911C10.0077 87.8264 11.7722 89.8956 13.3596 92.098C13.6544 90.1634 13.5066 88.1871 12.9271 86.3179C12.3477 84.4487 11.3517 82.7353 10.0143 81.3067C16.4368 80.1689 23.0442 80.7058 29.1989 82.8654C27.8949 80.0238 25.5569 77.786 22.661 76.6076C19.7651 75.4292 16.5289 75.3988 13.6114 76.5225C15.8416 70.2515 21.6809 66.0909 27.1845 62.3619C23.5493 62.1476 19.9138 62.7776 16.5627 64.2025C13.2116 65.6274 10.2357 67.8086 7.86798 70.5753C7.06462 67.2539 8.38356 63.8127 9.67852 60.6472L13.0118 52.4458C9.70146 54.0332 7.02737 56.6964 5.42659 60.0003C3.82581 63.3043 3.39301 67.0535 4.19892 70.6352C3.51168 67.4104 2.0555 64.3993 -0.0456772 61.8583C-4.41018 57.0621 -11.5924 56.6065 -18.0312 56.4266C-16.6872 58.9175 -14.7103 61.0102 -12.2998 62.4937C-10.5972 63.5369 -8.70273 64.2563 -6.96413 65.2155C-3.1006 67.3403 0.0300312 70.5838 2.01667 74.5201C-1.07434 73.0289 -4.50351 72.3779 -7.92596 72.6326C-11.3484 72.8873 -14.6434 74.0386 -17.4797 75.9709C-16.2807 75.1076 -10.9689 76.6424 -9.4941 76.8942C-8.77468 76.9901 -8.21113 77.134 -7.57564 77.2899Z" fill="#101714"/>
<path d="M58.1562 82.6497C60.8094 82.5388 63.4602 82.9209 65.974 83.7768C67.5738 84.4409 69.0031 85.4576 70.1553 86.751C71.3075 88.0444 72.153 89.5812 72.6286 91.2468C72.3169 90.1317 72.7965 89.2324 72.8325 88.1892C72.7556 87.0767 72.4879 85.9856 72.0411 84.9638C71.7073 83.8387 71.6538 82.6491 71.8852 81.4986C72.5207 78.3811 75.2186 75.7432 74.9548 72.5778C74.9548 73.2252 76.5135 74.6881 76.8612 75.3355C77.4608 76.4027 77.7605 77.5777 78.3001 78.6569C79.3073 80.7072 80.0387 82.4219 78.8516 84.712C77.6646 87.0022 74.9188 88.417 74.5111 90.947C76.9569 89.9957 79.6301 89.7921 82.1917 90.3621C84.7533 90.9321 87.0879 92.2499 88.8996 94.1484L84.655 93.7767C83.1044 93.5041 81.5079 93.6917 80.0627 94.3163C78.426 95.2546 77.2019 96.774 76.6334 98.5729C76.4019 99.3037 76.109 100.014 75.7581 100.695C75.5791 101.038 75.3238 101.335 75.012 101.564C74.7002 101.792 74.3402 101.946 73.9596 102.014C73.293 102.038 72.6329 101.876 72.0531 101.547C71.2551 101.241 70.4979 100.839 69.7989 100.347C68.4873 99.1393 67.5789 97.557 67.197 95.8151C66.2018 92.3978 65.4104 89.712 62.5687 87.3379C60.974 85.935 58.8157 84.7959 58.1562 82.6497Z" fill="#101714"/>
<path d="M-1.58203 76.7983V99.1244H103.346C103.346 99.1244 89.5449 94.7359 76.5593 94.4841C63.5737 94.2324 39.4491 90.887 33.0582 87.2899C26.6673 83.6928 11.4755 85.6712 7.24289 82.4938C4.4381 80.3912 1.48921 78.488 -1.58203 76.7983H-1.58203Z" fill="#101714"/>
</g>
<defs>
<clipPath id="clip0_253_285">
<rect width="507.996" height="114.388" fill="white" transform="translate(-17.9961)"/>
</clipPath>
</defs>
</svg>
