<svg width="1440" height="315" viewBox="0 0 1440 315" fill="none" xmlns="http://www.w3.org/2000/svg">
<g clip-path="url(#clip0_930_1685)">
<path d="M1005.16 265.042C1199.27 232.442 1437.22 150.006 1437.22 150.006V316.101H586.906C586.906 316.101 811.17 297.68 1005.16 265.042Z" fill="#101714"/>
<path d="M818.009 272.915C833.296 263.514 851.794 258.736 869.183 255.297C858.329 252.392 825.461 246.277 815.678 254.112C833.869 239.436 860.125 242.303 883.209 245.972C866.233 232.62 847.21 222.102 826.876 214.824C841.322 210.931 856.705 212.637 869.947 219.601C883.049 226.564 894.586 236.137 903.847 247.73C902.251 228.99 906.88 210.246 917.016 194.403C927.152 178.56 942.229 166.502 959.913 160.096C938.319 178.991 925.109 205.686 923.185 234.315C933.526 226.026 946.565 221.847 959.798 222.582C947.339 226.71 933.045 232.977 930.561 245.857C941.224 241.101 952.96 239.266 964.565 240.542C976.17 241.818 987.227 246.159 996.602 253.118C974.091 250.023 949.479 247.386 930.217 259.386C939.653 259.476 949.012 261.102 957.925 264.202C963.442 266.45 968.051 270.475 971.021 275.64C973.992 280.805 975.153 286.813 974.321 292.712C956.778 281.544 935.941 276.716 915.274 279.03C916.437 288.03 915.676 297.174 913.04 305.858C910.405 314.541 905.956 322.566 899.987 329.402C901.286 315.452 902.318 300.241 894.483 288.623C885.261 289.247 876.257 291.708 868.001 295.863C859.744 300.018 852.401 305.781 846.405 312.815C846.136 308.556 846.86 304.292 848.517 300.36C850.175 296.427 852.723 292.933 855.959 290.152C862.459 284.889 869.599 280.472 877.209 277.005C869.565 264.393 844.876 268.826 833.373 272.686C820.156 277.702 807.735 284.602 796.492 293.171C802.129 284.954 809.467 278.046 818.009 272.915Z" fill="#101714"/>
<path d="M599.287 329.478C610.422 318.703 623.357 309.96 637.505 303.643C627.913 303.643 599.517 305.897 593.249 314.496C604.982 298.368 627.225 294.929 647.098 292.827C630.091 285.554 612.026 281.063 593.593 279.527C604.618 273.125 617.657 271.132 630.091 273.947C642.434 276.773 654.063 282.107 664.258 289.617C658.797 274.539 658.458 258.082 663.295 242.792C668.131 227.503 677.872 214.234 691.011 205.04C677.484 225.44 672.592 250.368 677.405 274.368C684.117 265.273 693.937 258.962 704.998 256.634C695.635 262.787 685.163 271.119 685.889 282.24C693.63 275.974 702.894 271.872 712.737 270.355C722.579 268.837 732.649 269.958 741.917 273.603C722.808 276.049 701.826 279.298 688.603 293.477C696.39 291.436 704.463 290.712 712.489 291.336C717.518 291.988 722.188 294.289 725.77 297.878C729.352 301.467 731.644 306.142 732.286 311.172C715.362 305.876 697.14 306.496 680.615 312.93C683.558 320.095 684.943 327.805 684.679 335.547C684.416 343.289 682.509 350.886 679.087 357.836C677.061 346.065 674.539 333.3 665.557 325.465C658.079 328.019 651.186 332.038 645.28 337.288C639.374 342.537 634.574 348.912 631.161 356.039C630.007 352.587 629.665 348.915 630.163 345.309C630.66 341.703 631.982 338.26 634.027 335.249C638.214 329.477 643.12 324.262 648.627 319.732C639.493 311.057 620.154 320.153 611.555 325.847C601.788 332.939 593.077 341.38 585.682 350.918C588.643 342.886 593.281 335.577 599.287 329.478Z" fill="#101714"/>
<path d="M1097.8 243.678C1111.16 236.294 1125.69 231.289 1140.76 228.887C1131.67 226.442 1104.07 221.244 1095.93 227.894C1111.22 215.588 1133.23 217.995 1152.65 221.053C1138.37 209.797 1122.37 200.93 1105.26 194.797C1117.36 191.477 1130.27 192.841 1141.41 198.619C1152.4 204.498 1162.09 212.546 1169.88 222.276C1168.53 206.544 1172.41 190.805 1180.91 177.502C1189.42 164.199 1202.08 154.077 1216.93 148.706C1198.8 164.561 1187.7 186.969 1186.09 211.001C1194.72 204.071 1205.61 200.573 1216.66 201.179C1206.19 204.619 1194.11 209.893 1192.09 220.709C1201.05 216.705 1210.91 215.157 1220.66 216.225C1230.41 217.293 1239.7 220.938 1247.58 226.786C1228.47 224.187 1207.99 221.97 1191.82 232.06C1199.75 232.13 1207.61 233.499 1215.1 236.111C1219.72 238.006 1223.58 241.386 1226.07 245.717C1228.56 250.049 1229.54 255.086 1228.85 260.035C1214.08 250.674 1196.55 246.63 1179.17 248.57C1180.2 256.128 1179.61 263.818 1177.44 271.131C1175.27 278.444 1171.58 285.213 1166.6 290.992C1167.71 279.259 1168.55 266.494 1162.01 256.596C1154.26 257.12 1146.7 259.189 1139.76 262.681C1132.82 266.172 1126.65 271.016 1121.61 276.928C1121.38 273.339 1121.99 269.745 1123.38 266.429C1124.77 263.113 1126.91 260.165 1129.64 257.819C1135.09 253.386 1141.09 249.673 1147.49 246.774C1141.03 236.187 1120.32 239.894 1110.68 243.143C1099.59 247.368 1089.15 253.159 1079.69 260.341C1084.5 253.582 1090.67 247.905 1097.8 243.678Z" fill="#101714"/>
<path d="M1360.55 152.298C1375.04 143.394 1392.54 138.884 1409.01 135.635C1398.73 132.884 1367.62 127.113 1358.45 134.527C1375.69 120.616 1400.49 123.329 1422.39 126.884C1406.28 114.169 1388.21 104.165 1368.89 97.2645C1382.56 93.5886 1397.12 95.1987 1409.66 101.774C1422.08 108.409 1433 117.513 1441.77 128.527C1440.24 110.791 1444.62 93.0487 1454.21 78.053C1463.8 63.0573 1478.07 51.6472 1494.81 45.5938C1474.48 63.3898 1462.01 88.502 1460.11 115.456C1469.9 107.633 1482.23 103.7 1494.74 104.411C1482.97 108.233 1469.36 114.233 1467.07 126.425C1477.18 121.923 1488.31 120.197 1499.32 121.426C1510.32 122.656 1520.8 126.795 1529.67 133.419C1508.38 130.514 1485.07 127.992 1466.8 139.381C1475.74 139.44 1484.61 140.977 1493.06 143.929C1498.27 146.07 1502.62 149.882 1505.43 154.767C1508.24 159.651 1509.34 165.329 1508.57 170.911C1491.96 160.339 1472.23 155.768 1452.66 157.955C1453.73 166.488 1452.97 175.151 1450.43 183.368C1447.9 191.586 1443.64 199.169 1437.95 205.613C1439.21 192.427 1440.16 178.019 1432.75 167.012C1424.02 167.613 1415.5 169.95 1407.69 173.888C1399.88 177.826 1392.94 183.285 1387.27 189.943C1387.01 185.91 1387.69 181.872 1389.26 178.145C1390.82 174.419 1393.23 171.106 1396.29 168.465C1402.44 163.493 1409.19 159.32 1416.39 156.044C1409.09 144.082 1385.82 148.4 1374.92 151.955C1362.4 156.692 1350.64 163.218 1339.99 171.331C1345.43 163.609 1352.43 157.123 1360.55 152.298Z" fill="#101714"/>
<path d="M1114.35 269.36C1113.51 248.264 1114.35 226.671 1109.96 205.842C1109.15 202.02 1107.28 197.396 1103.38 197.243C1101.67 197.349 1100.01 197.888 1098.57 198.81C1093.25 201.513 1087.51 203.284 1081.6 204.046C1079.21 204.469 1076.75 204.352 1074.41 203.702C1071.36 202.149 1068.51 200.224 1065.93 197.969C1063.69 196.52 1061.13 195.62 1058.48 195.341C1055.82 195.062 1053.14 195.412 1050.64 196.364C1057.83 184.898 1072.16 178.975 1085.88 178.745C1095.2 178.745 1105.75 181.535 1110 189.829C1113.82 197.014 1111.52 206.033 1114.93 213.333C1113.09 203.749 1113.67 193.859 1116.61 184.554C1119.74 174.694 1121.65 166.668 1116.38 157.267L1108.73 143.699C1110.91 142.4 1113.66 143.699 1115.84 144.999L1124.37 150.044C1127.86 151.896 1131.06 154.266 1133.84 157.076C1136.45 160.084 1138.09 163.804 1138.56 167.755C1139.03 171.706 1138.31 175.707 1136.48 179.242C1132.43 186.083 1125.01 190.708 1121.38 198.16C1118.75 204.472 1117.74 211.344 1118.44 218.148C1121.12 209.32 1132.31 205.23 1141.14 207.906C1149.97 210.581 1156.43 218.148 1160.9 226.25C1154.74 222.801 1147.85 220.863 1140.79 220.598C1133.74 220.332 1126.72 221.745 1120.31 224.722C1119.31 225.116 1118.43 225.761 1117.75 226.594C1117.18 227.632 1116.9 228.809 1116.95 229.996C1116.11 246.091 1116.83 262.23 1119.09 278.189C1115.65 277.883 1114.5 273.067 1114.35 269.36Z" fill="#101714"/>
<path d="M1384.44 167.28C1375.8 139.457 1369.15 110.335 1356.04 84.156C1353.6 79.3405 1349.47 73.8753 1344.23 75.0219C1341.98 75.7672 1339.95 77.0838 1338.35 78.8437C1332.21 84.33 1325.18 88.7249 1317.56 91.8378C1314.53 93.2526 1311.23 93.9584 1307.89 93.9016C1303.15 93.5958 1299.02 90.7295 1294.55 89.2772C1291.08 88.1873 1287.41 87.9134 1283.81 88.4769C1280.22 89.0404 1276.81 90.426 1273.84 92.5257C1279.3 74.4104 1296.38 61.6838 1314.58 56.5244C1326.96 53.0083 1342.06 53.1612 1350.65 62.7539C1358.07 71.009 1358.3 83.812 1365.56 92.3346C1359.77 80.1997 1357.06 66.8221 1357.69 53.3905C1358.37 39.0969 1358.07 27.7462 1347.67 17.0451L1332.77 1.75792C1335.21 -0.726248 1339.34 0.038087 1342.7 0.95532L1355.85 4.77712C1361.22 5.99298 1366.38 8.01608 1371.14 10.7774C1375.69 13.8618 1379.21 18.2353 1381.25 23.3361C1383.29 28.4369 1383.77 34.032 1382.6 39.4027C1379.66 49.9509 1371.14 58.5117 1369.19 69.9771C1367.92 79.3363 1369.03 88.8635 1372.4 97.6852C1372.82 84.9586 1386.27 75.5187 1399.15 75.9391C1412.03 76.3595 1423.27 84.1178 1432.02 93.3665C1422.51 90.8397 1412.53 90.6316 1402.92 92.7596C1393.31 94.8876 1384.35 99.2897 1376.8 105.596C1375.61 106.458 1374.67 107.618 1374.08 108.96C1373.62 110.545 1373.62 112.228 1374.08 113.813C1378.68 135.564 1385.36 156.822 1394.03 177.293C1389.25 178.172 1386.04 172.172 1384.44 167.28Z" fill="#101714"/>
<path d="M1164.95 203.664C1170.59 205.067 1175.78 207.896 1180.01 211.881C1180.89 212.683 1181.77 213.906 1181.12 214.938C1180.88 215.273 1180.57 215.547 1180.2 215.741C1165.72 224.76 1146.23 233.015 1148.48 253.959C1162.89 243.646 1178.62 235.329 1195.26 229.232C1200.22 226.648 1205.95 225.963 1211.37 227.308C1216.8 228.652 1221.55 231.932 1224.73 236.531C1232.06 243.819 1238.78 251.693 1244.83 260.074C1245.97 252.697 1245.41 245.158 1243.21 238.027C1241 230.896 1237.21 224.36 1232.1 218.913C1256.58 214.568 1281.76 216.608 1305.21 224.837C1300.25 214.041 1291.37 205.537 1280.37 201.051C1269.37 196.565 1257.07 196.433 1245.98 200.683C1254.46 176.835 1276.55 161.013 1297.65 146.796C1283.78 145.957 1269.9 148.344 1257.11 153.768C1244.32 159.192 1232.96 167.506 1223.92 178.058C1220.9 165.37 1225.91 152.299 1230.84 140.222L1243.53 109.036C1230.93 115.079 1220.74 125.218 1214.65 137.797C1208.55 150.376 1206.91 164.65 1209.97 178.287C1206.73 166.21 1202.33 154.019 1193.85 144.846C1177.18 126.807 1149.86 124.897 1125.36 124.17C1130.47 133.667 1138 141.644 1147.18 147.292C1153.64 151.114 1160.79 153.981 1167.44 157.611C1182.13 165.739 1194.03 178.114 1201.57 193.116C1189.8 187.45 1176.75 184.979 1163.73 185.952C1150.71 186.924 1138.18 191.306 1127.38 198.657C1132.09 195.371 1152.19 201.218 1157.96 202.173C1160.37 202.594 1162.77 203.052 1164.95 203.664Z" fill="#101714"/>
<path d="M950.475 256.29C953.919 257.132 957.09 258.843 959.685 261.258C960.182 261.755 960.717 262.52 960.335 263.131C960.185 263.325 960.005 263.493 959.8 263.628C950.972 269.131 939.047 274.176 940.462 286.903C949.243 280.621 958.833 275.556 968.972 271.845C971.989 270.253 975.486 269.825 978.797 270.642C982.109 271.46 985.005 273.465 986.935 276.278C991.397 280.712 995.488 285.505 999.164 290.61C999.868 286.125 999.545 281.539 998.221 277.197C996.897 272.854 994.607 268.869 991.521 265.539C1006.44 262.869 1021.79 264.12 1036.08 269.169C1033.07 262.581 1027.65 257.389 1020.94 254.649C1014.23 251.909 1006.73 251.826 999.967 254.417C1005.13 239.856 1018.66 230.225 1031.46 221.588C1023.02 221.088 1014.58 222.553 1006.8 225.869C999.017 229.185 992.114 234.261 986.629 240.697C984.756 233.053 987.814 224.989 990.833 217.766L998.477 198.657C990.834 202.34 984.657 208.494 980.946 216.123C977.236 223.753 976.208 232.411 978.03 240.697C976.433 233.219 973.065 226.233 968.208 220.327C958.042 209.32 941.455 208.135 926.436 207.715C929.553 213.502 934.14 218.367 939.735 221.817C943.557 224.225 948.029 225.907 952.08 228.123C961.044 233.07 968.305 240.61 972.909 249.755C965.732 246.305 957.775 244.8 949.834 245.39C941.893 245.98 934.246 248.645 927.658 253.118C930.525 251.131 942.946 254.685 946.194 255.258C947.685 255.602 949.137 255.908 950.475 256.29Z" fill="#101714"/>
<path d="M993.086 248.379C1000.4 244.121 1008.45 241.27 1016.82 239.971C1022.31 239.462 1027.85 240.198 1033.01 242.123C1038.18 244.049 1042.85 247.114 1046.67 251.092C1044.15 248.417 1044.18 245.207 1042.85 242.187C1040.94 239.177 1038.57 236.493 1035.81 234.238C1033.17 231.592 1031.23 228.318 1030.2 224.722C1027.37 215.014 1031.04 203.587 1025.61 195.026C1026.72 196.746 1033.25 198.848 1035.09 199.956C1038.34 202.097 1040.93 204.925 1044.07 207.18C1049.95 211.46 1054.54 215.205 1054.62 223.422C1054.69 231.639 1049.04 239.703 1051.64 247.461C1057.12 241.165 1064.35 236.636 1072.42 234.446C1080.48 232.255 1089 232.502 1096.92 235.155L1084.5 240.468C1079.71 241.969 1075.48 244.871 1072.35 248.799C1069.14 253.831 1067.92 259.885 1068.95 265.768C1069.37 268.18 1069.6 270.62 1069.64 273.068C1069.64 274.289 1069.37 275.497 1068.85 276.601C1068.33 277.706 1067.57 278.679 1066.62 279.45C1064.77 280.499 1062.67 281.027 1060.54 280.979C1057.79 281.24 1055.02 281.176 1052.29 280.788C1046.8 279.3 1041.9 276.182 1038.22 271.845C1030.31 263.704 1024.12 257.284 1012.58 254.838C1006.08 253.462 998.131 253.462 993.086 248.379Z" fill="#101714"/>
<path d="M1273.61 176.834C1283.51 170.299 1293.86 163.84 1305.52 161.547C1313.13 159.976 1320.99 160.146 1328.52 162.046C1336.05 163.945 1343.06 167.525 1349.01 172.516C1345.19 169.153 1344.62 164.643 1342.09 160.668C1338.99 156.731 1335.26 153.335 1331.05 150.617C1326.95 147.305 1323.75 143.022 1321.72 138.158C1316.26 125.011 1319.62 108.424 1310.72 97.3027C1312.51 99.5576 1321.76 101.125 1324.74 102.73C1329.6 105.214 1333.69 108.768 1338.39 111.482C1347.29 116.565 1354.32 121.074 1355.7 132.578C1357.08 144.082 1350.43 156.235 1355.24 166.668C1361.94 156.939 1371.38 149.419 1382.37 145.064C1393.35 140.709 1405.38 139.716 1416.93 142.209L1400.34 151.572C1394.22 155.012 1387.73 158.834 1384.59 165.14C1380.89 172.696 1380.14 181.366 1382.49 189.446C1383.42 192.748 1384.08 196.124 1384.44 199.536C1384.64 201.246 1384.45 202.98 1383.89 204.607C1383.33 206.235 1382.4 207.715 1381.19 208.938C1378.78 210.71 1375.92 211.769 1372.94 211.995C1369.17 212.807 1365.32 213.154 1361.47 213.027C1353.56 211.802 1346.2 208.204 1340.37 202.708C1328.07 192.504 1318.4 184.516 1301.85 182.873C1292.49 181.956 1281.59 183.179 1273.61 176.834Z" fill="#101714"/>
<path d="M725.369 299.897C731.257 293.823 738.214 288.886 745.892 285.336C751.043 283.364 756.571 282.574 762.067 283.024C767.564 283.474 772.89 285.152 777.651 287.935C774.517 286.062 773.83 282.928 771.422 280.291C768.783 277.912 765.775 275.976 762.517 274.558C759.261 272.714 756.515 270.087 754.529 266.915C749.141 258.354 749.599 246.353 742.032 239.589C743.561 240.965 750.249 241.041 752.504 241.767C756.326 242.914 759.498 244.939 763.09 246.277C769.931 248.799 775.358 251.131 777.69 259.042C780.021 266.953 776.734 276.24 781.511 282.966C785.08 275.41 790.807 269.08 797.969 264.775C805.131 260.469 813.408 258.382 821.755 258.774L811.169 267.45C806.968 270.265 803.685 274.252 801.729 278.915C800.019 284.631 800.51 290.78 803.105 296.152C804.174 298.354 805.056 300.642 805.742 302.993C806.079 304.164 806.151 305.397 805.952 306.6C805.754 307.803 805.29 308.947 804.595 309.948C803.084 311.459 801.198 312.541 799.13 313.082C796.57 314.072 793.902 314.752 791.181 315.108C785.496 315.202 779.919 313.548 775.205 310.369C765.383 304.674 757.663 300.203 745.892 300.967C739.089 301.311 731.599 303.413 725.369 299.897Z" fill="#101714"/>
<path d="M220.776 317.324C234.143 309.978 248.695 305.037 263.771 302.725C254.675 300.279 227.082 295.081 218.942 301.731C234.229 289.387 256.242 291.833 275.657 294.89C261.388 283.53 245.37 274.559 228.229 268.328C240.33 264.989 253.247 266.354 264.383 272.15C275.393 278.003 285.094 286.04 292.893 295.769C291.607 280.082 295.516 264.407 304.018 251.16C312.52 237.914 325.142 227.831 339.94 222.467C321.831 238.34 310.742 260.737 309.098 284.762C317.803 277.828 328.751 274.333 339.863 274.94C329.392 278.418 317.315 283.654 315.289 294.47C324.249 290.481 334.107 288.942 343.857 290.01C353.606 291.078 362.897 294.713 370.782 300.546C351.673 297.986 331.188 295.731 315.022 305.859C322.936 305.895 330.79 307.252 338.258 309.871C342.886 311.761 346.751 315.14 349.243 319.473C351.735 323.806 352.711 328.846 352.017 333.796C337.256 324.4 319.719 320.353 302.333 322.331C303.298 329.889 302.645 337.566 300.418 344.854C298.191 352.141 294.441 358.872 289.416 364.6C290.524 352.905 291.365 340.14 284.791 330.203C277.051 330.743 269.496 332.819 262.567 336.31C255.638 339.801 249.473 344.637 244.433 350.535C244.204 346.947 244.809 343.354 246.201 340.038C247.594 336.723 249.736 333.775 252.459 331.426C257.91 327.005 263.909 323.306 270.307 320.42C263.81 309.795 243.134 313.54 233.503 316.789C222.391 320.986 211.949 326.78 202.508 333.987C207.356 327.209 213.582 321.531 220.776 317.324Z" fill="#101714"/>
<path d="M-5.7802 219.257C13.3288 222.621 31.9028 232.022 48.5276 241.729C41.8013 231.563 19.4437 203.015 5.91452 202.403C31.2913 203.511 50.5532 224.722 66.7194 244.443C62.5388 221.318 54.6264 199.026 43.2918 178.44C57.8323 185.656 69.1181 198.088 74.8981 213.257C80.5429 228.337 83.0401 244.413 82.2359 260.495C94.4035 244.115 111.633 232.204 131.255 226.607C150.877 221.011 171.798 222.041 190.775 229.538C159.655 229.397 129.749 241.601 107.613 263.476C121.988 264.183 135.597 270.171 145.831 280.292C132.76 274.673 116.556 269.438 105.32 278.19C117.431 281.996 128.311 288.959 136.842 298.362C145.372 307.765 151.245 319.27 153.856 331.695C137.767 313.006 119.46 293.171 95.3447 289.082C102.975 295.933 109.431 303.989 114.454 312.93C117.308 318.72 118.155 325.295 116.861 331.619C115.567 337.943 112.206 343.657 107.307 347.861C101.009 326.206 87.531 307.337 69.0889 294.356C63.5403 302.498 56.3285 309.372 47.9292 314.523C39.5299 319.675 30.134 322.987 20.3609 324.242C31.4442 313.847 43.2918 302.19 45.2027 287.133C37.2492 281.022 28.1567 276.56 18.4575 274.008C8.75831 271.455 -1.35271 270.863 -11.2836 272.266C-8.43386 268.628 -4.78052 265.7 -0.609867 263.711C3.56078 261.722 8.13542 260.726 12.7555 260.8C21.9661 260.495 30.6798 263.361 39.5082 265.348C42.3363 249.564 19.0997 235.462 6.98462 230.341C-7.37262 224.934 -22.4308 221.613 -37.7305 220.48C-27.284 217.836 -16.3982 217.42 -5.7802 219.257Z" fill="#101714"/>
<path d="M-9.67788 230.608C-2.03428 202.518 8.39925 174.504 11.4185 145.305C11.9535 139.955 11.4185 133.114 6.4119 131.241C4.10767 130.63 1.68403 130.63 -0.620205 131.241C-8.74614 132.522 -17.0312 132.406 -25.118 130.897C-28.4253 130.456 -31.5884 129.267 -34.3667 127.419C-38.1885 124.591 -40.0994 119.967 -43.0804 116.336C-45.4007 113.55 -48.3312 111.336 -51.645 109.864C-54.9587 108.393 -58.5667 107.704 -62.1895 107.852C-47.7813 95.5838 -26.532 94.0934 -8.45491 99.5968C3.88952 103.419 16.4632 111.635 18.527 124.362C20.3233 135.331 13.6733 146.261 15.0874 157.306C16.7225 143.947 21.6613 131.206 29.4574 120.234C37.7507 108.769 43.6363 98.8706 40.6935 84.2713L36.4513 63.2896C39.8527 62.487 42.9101 65.3534 45.2414 67.9904L54.2991 78.2328C58.1441 82.1151 61.3554 86.5773 63.8154 91.4563C65.9446 96.5253 66.5109 102.115 65.4419 107.508C64.3728 112.901 61.717 117.852 57.8152 121.725C49.5983 128.986 37.8653 131.738 29.9924 140.184C23.8584 147.337 19.626 155.92 17.6862 165.141C24.9094 154.669 41.3432 154.019 51.8531 161.319C62.3631 168.618 67.6754 181.23 70.0449 193.766C63.4053 186.629 55.1633 181.174 45.9995 177.852C36.8356 174.529 27.0129 173.434 17.3423 174.657C15.875 174.744 14.4543 175.205 13.2147 175.995C11.9984 177.118 11.124 178.562 10.6923 180.16C2.81007 200.941 -3.06409 222.428 -6.84975 244.328C-11.5888 242.303 -10.9773 235.538 -9.67788 230.608Z" fill="#101714"/>
<path d="M-56.3809 246.354C-51.6498 247.51 -47.3025 249.881 -43.769 253.233C-43.0428 253.883 -42.3167 254.953 -42.8517 255.755C-43.0389 256.05 -43.3032 256.288 -43.6161 256.443C-55.7312 264.087 -72.0885 270.928 -70.1776 288.432C-58.1665 279.796 -45.0402 272.827 -31.157 267.718C-27.6825 266.191 -23.9033 265.485 -20.112 265.654C-14.7863 266.8 -9.98923 269.676 -6.46815 273.833C-0.335892 279.938 5.28807 286.533 10.3478 293.553C11.2876 287.387 10.8163 281.087 8.96935 275.129C7.12241 269.172 3.94794 263.71 -0.315056 259.157C20.1562 255.53 41.2165 257.242 60.8338 264.125C56.6775 255.068 49.2255 247.935 39.9951 244.179C30.7647 240.423 20.4498 240.326 11.1504 243.908C18.2589 223.92 36.8711 210.658 54.4132 198.772C42.8264 198.089 31.2388 200.097 20.5574 204.639C9.87601 209.181 0.390694 216.133 -7.15608 224.952C-9.71669 214.365 -5.51271 203.397 -1.38516 193.307L9.23945 167.166C-1.31205 172.226 -9.83543 180.714 -14.9377 191.245C-20.04 201.776 -21.4195 213.726 -18.8508 225.143C-21.0413 214.864 -25.6827 205.267 -32.38 197.167C-46.2913 181.88 -69.1839 180.428 -89.707 179.854C-85.423 187.794 -79.1219 194.464 -71.4388 199.193C-66.0119 202.518 -59.9734 204.811 -54.4318 207.868C-42.1172 214.641 -32.1387 224.979 -25.8065 237.525C-35.6587 232.772 -46.5888 230.697 -57.4975 231.509C-68.4062 232.321 -78.9088 235.991 -87.949 242.15C-84.1272 239.398 -67.1966 244.29 -62.4958 245.093C-60.2027 245.398 -58.4065 245.857 -56.3809 246.354Z" fill="#101714"/>
<path d="M153.131 263.437C161.588 263.084 170.037 264.302 178.049 267.03C183.148 269.147 187.704 272.387 191.376 276.51C195.049 280.632 197.744 285.531 199.26 290.839C198.266 287.285 199.795 284.419 199.91 281.094C199.665 277.548 198.811 274.07 197.387 270.813C196.323 267.227 196.153 263.435 196.891 259.768C198.916 249.831 207.515 241.424 206.674 231.334C206.674 233.398 211.643 238.06 212.751 240.124C214.662 243.525 215.617 247.271 217.337 250.71C220.547 257.246 222.879 262.711 219.095 270.011C215.312 277.31 206.56 281.82 205.26 289.884C213.056 286.852 221.576 286.203 229.741 288.02C237.906 289.836 245.347 294.037 251.122 300.088L237.593 298.903C232.65 298.034 227.562 298.632 222.955 300.623C217.738 303.614 213.837 308.457 212.025 314.191C211.287 316.52 210.353 318.783 209.235 320.955C208.664 322.047 207.851 322.994 206.857 323.723C205.863 324.452 204.715 324.943 203.502 325.159C201.378 325.235 199.274 324.719 197.426 323.669C194.882 322.696 192.469 321.413 190.241 319.847C186.06 315.996 183.164 310.953 181.947 305.4C178.775 294.508 176.253 285.948 167.195 278.38C162.112 273.909 155.233 270.278 153.131 263.437Z" fill="#101714"/>
<path d="M-37.2715 244.786V315.948H297.174C297.174 315.948 253.186 301.96 211.795 301.158C170.405 300.355 93.5106 289.692 73.1404 278.227C52.7702 266.761 4.34795 273.067 -9.14301 262.94C-18.083 256.238 -27.4822 250.172 -37.2715 244.786H-37.2715Z" fill="#101714"/>
</g>
<defs>
<clipPath id="clip0_930_1685">
<rect width="1619.18" height="364.6" fill="white" transform="translate(-89.5918)"/>
</clipPath>
</defs>
</svg>
