<svg width="62" height="65" viewBox="0 0 62 65" fill="none" xmlns="http://www.w3.org/2000/svg">
<g opacity="0.5" clip-path="url(#clip0_262_539)">
<path d="M20.8654 9.74487L20.8109 9.77274C19.0295 10.7076 17.4281 11.9514 16.0806 13.4466C13.4857 16.2664 11.6133 20.1322 10.6649 24.5662C9.76427 28.9255 9.74507 33.4245 10.6084 37.7973C11.0103 39.8984 11.6421 41.9493 12.4925 43.9128C13.3182 45.8783 14.3965 47.7278 15.7002 49.4143C16.3579 50.2596 17.0784 51.054 17.8554 51.7907C18.6377 52.5146 19.4763 53.1749 20.3631 53.7653C22.1291 54.9371 24.0886 55.784 26.1493 56.2661C27.6185 56.5938 29.1146 56.7833 30.618 56.832C32.3287 56.9024 34.0417 56.8084 35.7335 56.5511C37.4497 56.3051 39.142 55.9154 40.7924 55.3863C42.436 54.8503 44.0373 54.193 45.5833 53.42L46.089 53.1618C48.3383 52.0027 50.477 50.6403 52.4785 49.0916C53.5774 48.2504 54.6669 47.334 55.7184 46.3788C56.7432 45.4867 57.6826 44.5005 58.5242 43.4331C58.65 43.2976 58.7401 43.1329 58.7865 42.9537C58.8211 42.8142 58.8272 42.669 58.8044 42.5269C58.7816 42.3848 58.7304 42.2486 58.6539 42.1266C58.6445 42.1012 58.6322 42.077 58.6171 42.0545C58.8087 41.9596 58.9664 41.808 59.069 41.6201C59.1783 41.4199 59.2259 41.1915 59.2056 40.9637C59.1853 40.736 59.0981 40.5192 58.955 40.3407C58.8119 40.1622 58.6194 40.0301 58.4017 39.9612C58.1841 39.8922 57.9512 39.8894 57.7324 39.9531C56.8263 40.1576 55.8899 40.3666 54.9385 40.5178C52.9851 40.7802 51.0063 40.8039 49.0455 40.5883C46.9053 40.3044 44.8058 39.7647 42.7919 38.9808C38.2996 37.1994 34.3326 34.2971 31.2684 30.55C29.8818 28.8399 28.7106 26.9655 27.7813 24.9694C27.0095 23.2034 26.4592 21.3489 26.1428 19.4485C25.9049 17.7386 25.8719 16.007 26.0444 14.2907C26.2124 12.9558 26.5016 11.6394 26.9083 10.358C26.9466 10.2329 26.9619 10.1019 26.9535 9.97121L27.017 9.96788L27.0819 9.9602C27.2464 9.9466 27.407 9.90283 27.5556 9.83105C27.6545 9.78284 27.7434 9.71645 27.8178 9.63532C27.9109 9.53725 27.9837 9.42164 28.032 9.29514C28.0803 9.16864 28.1031 9.03375 28.0991 8.8982C28.0952 8.76264 28.0646 8.62911 28.0091 8.50528C27.9536 8.38145 27.8742 8.26976 27.7756 8.17662C27.6806 8.08267 27.5676 8.0089 27.4436 7.95975C27.3195 7.91059 27.1869 7.88707 27.0537 7.8906C25.942 8.01901 24.8432 8.23951 23.7684 8.54982C22.7707 8.85546 21.8024 9.25005 20.8754 9.72888L20.8654 9.74487ZM23.2718 15.6773L23.1624 15.5623C22.7666 15.1602 22.332 14.7986 21.865 14.4827C21.1875 13.9957 20.3724 13.7399 19.5402 13.7531C19.1895 13.7674 18.8441 13.8417 18.5188 13.9728C18.8149 13.7016 19.0867 13.4536 19.3587 13.2274C20.217 12.5434 21.1427 11.9489 22.1216 11.4529C22.314 11.3547 22.5065 11.2564 22.6961 11.1596C23.1447 10.9669 23.5977 10.7974 24.0453 10.6525C23.5974 12.2927 23.3383 13.9796 23.2733 15.6802L23.2718 15.6773ZM21.2342 19.4892L21.082 19.5669C20.8298 19.6694 20.5693 19.7501 20.3033 19.8081C20.1843 19.8183 20.0647 19.821 19.9453 19.8164C19.8867 19.8055 19.8287 19.7914 19.7716 19.7741L19.6613 19.7141C19.6169 19.6761 19.5746 19.6358 19.5344 19.5934C19.4858 19.4982 19.42 19.4118 19.367 19.3152C19.3015 19.1315 19.248 18.9438 19.2068 18.7532C19.1787 18.4737 19.1744 18.1924 19.194 17.9124C19.2286 17.6946 19.2815 17.4802 19.3521 17.2715C19.4032 17.1605 19.4604 17.0523 19.5235 16.9476L19.6306 16.8311L19.6708 16.8105L19.7516 16.8056C19.8182 16.8226 19.8877 16.838 19.9544 16.8622C20.1283 16.9411 20.2962 17.0328 20.4567 17.1366C20.899 17.4954 21.3046 17.8975 21.6672 18.337C21.7389 18.4277 21.8106 18.5184 21.872 18.5961C21.9608 18.7155 22.06 18.8267 22.1685 18.9285C21.8428 19.1348 21.5357 19.3134 21.2283 19.4704L21.2342 19.4892ZM22.5783 21.9015C22.6559 21.8619 22.7363 21.8208 22.8139 21.7812C23.1364 21.5802 23.4452 21.3581 23.7384 21.1164C23.8282 21.5688 23.9368 22.0226 24.064 22.4631C23.5945 22.1991 23.0831 22.0184 22.5526 21.9292L22.59 21.9101L22.5783 21.9015ZM21.8506 30.8674C21.7138 30.9183 21.5733 30.9585 21.4302 30.9875C21.2657 31.0042 21.1001 31.0073 20.9351 30.9966C20.7466 30.9652 20.5611 30.9175 20.3806 30.8542C20.1545 30.7579 19.9386 30.6391 19.736 30.4996C19.514 30.3234 19.3077 30.1282 19.1193 29.9162C18.6874 29.3902 18.4064 28.7566 18.3066 28.0835C18.2652 27.7454 18.2584 27.404 18.2862 27.0647C18.34 26.6768 18.4344 26.2958 18.5678 25.928L18.5916 25.8613C18.7774 25.8307 18.9571 25.7708 19.1241 25.6839L19.6814 25.3994C20.0939 25.2326 20.5214 25.1056 20.9582 25.0201C21.2472 24.9893 21.5384 24.9829 21.8287 25.0012C22.041 25.038 22.2505 25.0903 22.4554 25.1576C22.6071 25.2268 22.7541 25.306 22.8953 25.3949C23.006 25.4911 23.1124 25.5931 23.2175 25.6995C23.3155 25.8412 23.4052 25.9885 23.4862 26.1406C23.5546 26.3244 23.6087 26.5133 23.6478 26.7054C23.6786 27.0104 23.6827 27.3175 23.66 27.623C23.5797 28.128 23.4538 28.6244 23.2838 29.1062C23.1412 29.4448 22.9691 29.77 22.7695 30.0781C22.6275 30.2583 22.4714 30.4268 22.3025 30.582C22.1614 30.6876 22.0116 30.7811 21.8549 30.8615L21.8506 30.8674ZM15.9995 42.6239C15.9306 42.6591 15.8498 42.6713 15.7749 42.6877C15.6741 42.6956 15.5727 42.6963 15.4717 42.6897L15.4168 42.6814L15.3575 42.6717C15.0897 42.6117 14.8107 42.6281 14.5523 42.7192C14.0348 41.4755 13.6017 40.1984 13.256 38.8967C13.5599 38.9749 13.8819 38.9306 14.1528 38.7734L14.2304 38.7338C14.6035 38.5793 14.9905 38.4609 15.3862 38.38C15.5813 38.3593 15.7778 38.3551 15.9737 38.3673C16.0822 38.3883 16.1936 38.415 16.3037 38.4461C16.4137 38.4772 16.4445 38.5233 16.5128 38.5648C16.5843 38.6257 16.6524 38.6905 16.7169 38.7588C16.7931 38.8656 16.8613 38.9778 16.921 39.0947C16.997 39.2959 17.0556 39.5032 17.0962 39.7144C17.1297 40.0202 17.1343 40.3284 17.1099 40.6349C17.0633 40.9376 16.99 41.2355 16.8908 41.5251C16.7983 41.7361 16.6888 41.9392 16.5634 42.1323C16.471 42.2447 16.3718 42.3512 16.2663 42.4513C16.1773 42.4968 16.0985 42.5624 16.0109 42.6108L15.9995 42.6239ZM18.6607 49.0554C18.3294 48.7045 18.0081 48.3449 17.7143 47.9893C17.0615 47.1659 16.4661 46.2985 15.9323 45.3933C16.2387 45.3761 16.5405 45.3116 16.827 45.2019C16.9681 45.4705 17.1974 45.6821 17.476 45.8011C17.7546 45.92 18.0652 45.9388 18.3554 45.8544C18.787 45.7271 19.2256 45.6246 19.6691 45.5473C20.0762 45.4951 20.4874 45.4812 20.8973 45.5057C21.0667 45.5288 21.2341 45.5649 21.398 45.6137C21.4619 45.6466 21.5214 45.678 21.5838 45.7152C21.6038 45.7323 21.6228 45.7505 21.6407 45.7698L21.6643 45.816C21.6692 45.8402 21.6709 45.865 21.6693 45.8897C21.6561 45.9667 21.6381 46.0427 21.6153 46.1174C21.5551 46.2453 21.4864 46.3691 21.4097 46.4878C21.2268 46.7134 21.0245 46.9225 20.8053 47.1129C20.3954 47.4203 19.9589 47.6907 19.5011 47.9207L19.2741 48.0366C19.0824 48.1541 18.9248 48.3198 18.817 48.5174C18.7271 48.6834 18.6738 48.8668 18.6607 49.0554V49.0554ZM30.4393 54.1628C29.7921 54.1295 29.1392 54.0992 28.4757 54.0198C27.091 53.8497 25.7301 53.5195 24.4201 53.0357C23.2088 52.5399 22.0573 51.9078 20.9878 51.1514C20.6997 50.9348 20.4059 50.7211 20.1231 50.4581C20.1895 50.457 20.255 50.4433 20.3162 50.4178C20.6469 50.2852 20.9631 50.1456 21.2562 49.996L21.3596 49.9431C21.3808 50.1958 21.4609 50.4402 21.5935 50.6566C21.8232 51.0231 22.1839 51.2879 22.6016 51.3966L23.028 51.4443C23.2833 51.4419 23.5343 51.3797 23.7611 51.2628L23.8358 51.2246C24.4089 50.9993 25.0023 50.829 25.608 50.7161C26.1946 50.6509 26.7865 50.6434 27.375 50.6939C27.8408 50.7648 28.2992 50.879 28.7443 51.0349C29.0561 51.1717 29.3566 51.3332 29.6429 51.518C29.8314 51.6719 30.0087 51.839 30.1736 52.0181C30.2709 52.1551 30.3596 52.2981 30.4392 52.4461C30.4907 52.596 30.5347 52.7484 30.5709 52.9026C30.5848 53.1133 30.585 53.3246 30.5716 53.5351C30.5391 53.7481 30.4921 53.9612 30.4452 54.1743L30.4393 54.1628ZM44.0973 45.1263C43.8028 45.2422 43.4989 45.3329 43.189 45.3974C42.9013 45.4263 42.6115 45.4307 42.3228 45.4105C41.8757 45.3654 41.4486 45.2003 41.0864 44.9326C40.9135 44.7941 40.7521 44.6418 40.6039 44.477C40.4448 44.2602 40.3052 44.0296 40.1868 43.788C40.06 43.4563 39.9628 43.114 39.8964 42.7652C39.8374 42.2198 39.8333 41.6699 39.8841 41.124C39.8988 41.011 39.9179 40.8994 39.9355 40.7849C40.1343 40.8834 40.3374 40.9761 40.5448 41.0703C40.5458 41.0942 40.5494 41.118 40.5556 41.1411C40.7429 41.9946 41.1755 42.7752 41.7999 43.3862C42.077 43.646 42.4004 43.8511 42.7532 43.9906C43.2256 44.2092 43.7479 44.2957 44.2645 44.2408C44.4666 44.2358 44.6649 44.1855 44.8449 44.0936L44.9368 44.0466C45.2279 43.8641 45.4374 43.5761 45.522 43.2422C45.5607 43.0876 45.5708 42.9272 45.5519 42.7687C45.8544 42.8434 46.1641 42.9107 46.4751 42.9738L46.3143 43.1978C45.9709 43.6597 45.5814 44.0852 45.1519 44.4678C44.8468 44.7012 44.5212 44.9064 44.1792 45.0809L44.0973 45.1263Z" fill="white"/>
</g>
<defs>
<clipPath id="clip0_262_539">
<rect width="43.0787" height="50.1513" fill="white" transform="translate(0.332031 20.2307) rotate(-27.0505)"/>
</clipPath>
</defs>
</svg>
