<svg width="104" height="69" viewBox="0 0 104 69" fill="none" xmlns="http://www.w3.org/2000/svg">
<g clip-path="url(#clip0_262_518)">
<path d="M86.5578 17.9122C85.7279 17.9762 84.91 18.1475 84.1248 18.4219C83.2458 18.7048 82.4047 19.093 81.6202 19.5781C81.3763 19.6957 81.1845 19.8984 81.0814 20.1476C80.988 20.4037 81.0004 20.6861 81.1158 20.9332C81.2312 21.1802 81.4404 21.3718 81.6975 21.4661C81.9557 21.5557 82.2384 21.5445 82.4885 21.4348C82.8926 21.281 83.2966 21.15 83.7093 21.0076C84.4418 20.7868 85.1959 20.6445 85.9589 20.5833C86.4221 20.5671 86.8857 20.5967 87.343 20.6716C87.539 20.7244 87.7306 20.792 87.9162 20.8738C88.035 20.946 88.1489 21.0259 88.2572 21.113C88.3393 21.2032 88.4159 21.2983 88.4865 21.3977C88.5647 21.5419 88.6327 21.6913 88.6899 21.8448C88.7632 22.1307 88.8121 22.4222 88.8361 22.7162C88.8376 23.0156 88.8146 23.3147 88.7673 23.6104C88.6629 23.9724 88.5278 24.3249 88.3632 24.664C87.968 25.3282 87.5041 25.9495 86.9791 26.5179C85.4317 28.0424 83.709 29.3806 81.8466 30.5047C78.7962 32.345 75.6155 33.9629 72.3295 35.3457C68.8913 36.8076 65.38 38.0936 61.8094 39.1987C56.2064 40.9579 50.5067 42.3974 44.7383 43.5101C41.8726 44.0796 39.0069 44.5381 36.0982 44.9026C33.7225 45.2016 31.3267 45.4721 28.9338 45.5803C26.8963 45.6686 24.8559 45.6458 22.8213 45.5462C20.5393 45.4645 18.2678 45.1978 16.0295 44.7488C15.1213 44.5661 14.2376 44.2794 13.3959 43.8945C13.1516 43.763 12.9212 43.6075 12.7081 43.4303C12.6405 43.3612 12.5773 43.288 12.519 43.211C12.4989 43.1712 12.4789 43.1313 12.4617 43.0886C12.4445 43.0459 12.4616 43.0146 12.4416 42.9776C12.4215 42.9405 12.4416 42.8722 12.4416 42.8181C12.474 42.715 12.5133 42.6142 12.5591 42.5162C12.6953 42.2954 12.8507 42.0867 13.0233 41.8926C13.6841 41.2395 14.4199 40.666 15.2156 40.184C16.0753 39.6457 16.9895 39.1616 17.9094 38.7003C18.1254 38.5944 18.2912 38.4087 18.3713 38.1829C18.4514 37.9572 18.4394 37.7092 18.338 37.4921C18.2366 37.2749 18.0538 37.1058 17.8286 37.0208C17.6034 36.9358 17.3537 36.9418 17.1328 37.0373C15.9923 37.5979 14.8845 38.2215 13.8143 38.9053C13.0894 39.351 12.4166 39.8754 11.8083 40.4687C11.3223 40.9268 10.9394 41.4819 10.6849 42.0976C10.48 42.6548 10.48 43.2661 10.6849 43.8233C11.0689 44.914 12.2095 45.5576 13.2096 45.9932C14.6191 46.5457 16.0902 46.9282 17.5913 47.1323C19.2903 47.4089 21.0024 47.599 22.7209 47.7019C24.3171 47.8072 25.922 47.8585 27.5239 47.8556C29.656 47.8556 31.7852 47.6933 33.9059 47.5111C37.2731 47.2263 40.626 46.802 43.9617 46.2695C50.6969 45.1834 57.3481 43.6333 63.867 41.6306C66.2857 40.8902 68.7015 40.1128 71.0715 39.2186C72.745 38.5883 74.3985 37.9077 76.032 37.1768C78.038 36.2741 80.044 35.2916 81.9669 34.2038C83.9675 33.1097 85.8662 31.8413 87.6411 30.4135C88.4638 29.7342 89.2304 28.9905 89.9336 28.1895C90.5568 27.4719 91.081 26.6752 91.4926 25.8202C91.6517 25.4987 91.7802 25.1631 91.8766 24.8178C92.1978 23.7562 92.2275 22.6284 91.9626 21.5515C91.7965 20.8545 91.4872 20.1991 91.0541 19.6265C90.8144 19.3232 90.5349 19.0531 90.2231 18.8234C89.8845 18.5757 89.5133 18.3754 89.1198 18.2283C88.7176 18.0815 88.3006 17.9784 87.8761 17.9207C87.6362 17.8837 87.3937 17.8666 87.151 17.8695C86.9504 17.8695 86.7527 17.8695 86.5549 17.8866L86.5578 17.9122ZM61.7836 39.193L61.5974 39.2528L61.7836 39.193Z" fill="white"/>
<path d="M83.2791 12.0203C82.2814 12.1478 81.2913 12.3284 80.3131 12.5613C79.8832 12.6639 79.4533 12.8034 79.0407 12.9202C78.628 13.0369 78.2698 13.1508 77.8944 13.2904C77.7529 13.3362 77.6222 13.4097 77.5097 13.5066C77.3973 13.6035 77.3055 13.7217 77.2399 13.8544C77.1742 13.987 77.1359 14.1314 77.1272 14.279C77.1186 14.4266 77.1397 14.5745 77.1894 14.7138C77.2392 14.8532 77.3165 14.9812 77.4168 15.0904C77.5172 15.1996 77.6384 15.2877 77.7736 15.3496C77.9087 15.4115 78.055 15.4458 78.2037 15.4506C78.3524 15.4555 78.5005 15.4307 78.6395 15.3777C79.0746 15.2113 79.5196 15.0715 79.972 14.9591C81.1667 14.7143 82.3755 14.5431 83.5914 14.4465C85.0218 14.3389 86.4576 14.3228 87.89 14.3981C90.1107 14.5084 92.3092 14.891 94.4354 15.5372C95.5826 15.923 96.6809 16.4399 97.708 17.0778C98.3205 17.4907 98.8865 17.9681 99.3959 18.5016C99.7452 18.9157 100.052 19.3631 100.313 19.8372C100.531 20.3017 100.703 20.7862 100.826 21.2838C100.94 21.9217 100.986 22.5699 100.963 23.2174C100.907 24.6852 100.429 26.1063 99.5851 27.3124C98.8805 28.2991 98.0652 29.2028 97.1549 30.0063C94.9397 31.9199 92.3892 33.4235 89.7843 34.7477L89.9562 34.6594L89.7527 34.7619L89.6095 34.8331L89.7413 34.7676C85.672 36.7923 81.4164 38.4184 77.1321 39.9504C75.3582 40.5855 73.5786 41.2034 71.8076 41.847C70.8819 42.183 69.9649 42.5418 69.045 42.8949C67.5166 43.4797 65.9882 44.0492 64.4598 44.6036C57.7013 47.0921 50.7798 49.1196 43.7435 50.672L44.053 50.6065C36.9374 52.1101 29.647 53.0071 22.3652 52.6454C20.3289 52.5508 18.3013 52.3215 16.2956 51.9591C14.7708 51.6642 13.2662 51.2743 11.7907 50.7916C9.65781 50.114 7.61872 49.1736 5.72109 47.9923C4.87331 47.4355 4.09424 46.7818 3.39986 46.0445C3.02894 45.6183 2.70427 45.1544 2.43125 44.6605C2.23828 44.2646 2.0884 43.8493 1.98418 43.4218C1.88924 42.9293 1.84986 42.4279 1.86671 41.9267C1.90893 41.4319 2.00501 40.943 2.15328 40.4687C2.37457 39.8807 2.66303 39.3198 3.013 38.7971C3.57234 38.014 4.22042 37.2974 4.94449 36.6613C6.61145 35.2804 8.43606 34.099 10.3808 33.1416C11.8451 32.4012 13.3439 31.7377 14.8542 31.097C16.1065 30.5673 17.3731 30.0661 18.614 29.5137C18.8359 29.4314 19.0167 29.2663 19.1178 29.0535C19.219 28.8407 19.2326 28.5971 19.1556 28.3746C19.1165 28.264 19.0557 28.1623 18.9767 28.0753C18.8977 27.9883 18.8022 27.9176 18.6956 27.8676C18.5889 27.8175 18.4734 27.789 18.3556 27.7836C18.2378 27.7783 18.1201 27.7962 18.0093 27.8364C16.3501 28.5768 14.6593 29.2374 12.9943 29.9636C10.9233 30.8439 8.91291 31.8589 6.97628 33.0021C5.15081 34.1013 3.38552 35.4169 2.02717 37.0686C1.39737 37.823 0.889771 38.6704 0.522663 39.5802C0.151678 40.5243 -0.0294097 41.5314 -0.0103574 42.5447C0.00521968 43.5504 0.243996 44.5402 0.688898 45.4436C1.18385 46.4091 1.8398 47.2844 2.62896 48.0322C3.46378 48.8195 4.38354 49.5129 5.37148 50.0996C6.38009 50.7171 7.4338 51.2587 8.52378 51.7199C10.6408 52.6316 12.8375 53.3484 15.0863 53.8614C17.7136 54.4281 20.3864 54.7617 23.0731 54.8581C29.8878 55.2169 36.7197 54.505 43.4197 53.2121C50.2131 51.8569 56.9087 50.0561 63.4626 47.8215C65.033 47.2956 66.5958 46.7517 68.1509 46.1897C69.3946 45.7426 70.6326 45.2728 71.8763 44.8257C73.5471 44.2191 75.2407 43.6695 76.9229 43.0943C81.2444 41.622 85.5516 40.0757 89.6868 38.1365C91.8495 37.1414 93.9407 35.9997 95.9456 34.7192C97.7495 33.586 99.3985 32.2259 100.852 30.6726C101.52 29.9329 102.11 29.1277 102.614 28.2692C103.085 27.4511 103.442 26.5737 103.677 25.6607C103.93 24.6365 104.038 23.5822 103.998 22.5283C103.972 21.5574 103.793 20.5967 103.468 19.6806C102.842 17.9613 101.728 16.459 100.261 15.3549C98.6995 14.1418 96.8913 13.3616 95.0056 12.792C93.1401 12.2456 91.2164 11.9187 89.2742 11.8181C88.5635 11.7754 87.8413 11.7526 87.1449 11.7526C85.8554 11.7504 84.5671 11.8293 83.2877 11.989L83.2791 12.0203ZM10.6014 33.0049L10.4725 33.0733L10.6014 33.0049ZM11.5729 50.7147L11.7219 50.7631L11.5729 50.7147ZM89.7384 34.7676H89.77L89.727 34.7876" fill="white"/>
<path d="M48.6533 1.24746C45.2062 1.73389 41.829 2.62283 38.5917 3.89583C32.181 6.42458 26.2461 10.4 22.1281 15.9643C20.6699 17.9163 19.4841 20.0553 18.6032 22.3232C18.0775 23.6743 17.7 25.0778 17.477 26.5093C17.277 27.8753 17.2271 29.2589 17.328 30.6356C17.5028 33.1985 18.2364 35.7131 19.0474 38.1478C19.9072 40.7734 20.893 43.3676 21.5722 46.053C21.7097 46.5998 22.4061 46.8561 22.899 46.6824C23.1488 46.5874 23.3535 46.4023 23.4721 46.1641C23.588 45.9117 23.6053 45.6255 23.5208 45.361C23.0136 43.4161 22.4204 41.4967 21.8014 39.5831C21.2283 37.7862 20.6551 35.9893 20.2482 34.1497C19.8799 32.4666 19.7163 30.7457 19.761 29.0238C19.8614 27.5854 20.1336 26.1639 20.572 24.7893C21.2258 22.9656 22.0995 21.2272 23.1741 19.6122C24.5364 17.6493 26.1295 15.8549 27.9197 14.2671C30.2156 12.3027 32.739 10.6173 35.4365 9.24662C38.5215 7.72709 41.7808 6.58537 45.1427 5.84649C48.3105 5.16839 51.5503 4.88145 54.7887 4.99218C57.3214 5.16367 59.8236 5.64182 62.2396 6.41603C64.7393 7.27837 67.1247 8.43822 69.3438 9.87028C71.4244 11.2828 73.3299 12.9345 75.0208 14.7911C76.5313 16.52 77.8353 18.4168 78.9067 20.4438C79.5622 21.7683 80.1364 23.131 80.6261 24.5245C80.884 25.2677 81.1391 26.011 81.3798 26.7599C81.6377 27.5687 81.8498 28.3916 82.0876 29.2089C82.1665 29.4305 82.317 29.6199 82.5155 29.7477C82.714 29.8754 82.9495 29.9343 83.1852 29.9152C83.4176 29.895 83.6372 29.801 83.8117 29.6472C83.9861 29.4933 84.1061 29.2877 84.1538 29.0609C84.3084 28.2234 84.3947 27.3749 84.4117 26.5236C84.4449 25.6673 84.4037 24.8098 84.2885 23.9606C84.1494 23.0854 83.958 22.2191 83.7154 21.3664C83.4978 20.5482 83.2229 19.746 82.8929 18.9658C82.2127 17.3602 81.3778 15.8239 80.3997 14.3782C79.4037 12.9284 78.2766 11.572 77.0325 10.3259C75.8777 9.15568 74.6225 8.08757 73.2813 7.13365C71.8339 6.08849 70.3067 5.1573 68.7133 4.3486C67.1025 3.55721 65.4325 2.89076 63.7184 2.35522C62.1293 1.84086 60.4997 1.45983 58.8466 1.21614C57.2948 0.984126 55.7275 0.869867 54.1583 0.874397C52.3084 0.880841 50.4612 1.01597 48.6303 1.27878L48.6533 1.24746ZM23.1254 19.6863L22.9907 19.8827L23.1254 19.6863Z" fill="white"/>
<path d="M84.9355 40.0415C84.712 41.3259 84.5716 42.6216 84.285 43.8973C83.9984 45.1275 83.6574 46.3492 83.2619 47.5509C82.4466 49.9342 81.3408 52.2093 79.9692 54.3256C77.6406 57.8514 74.4025 60.6916 70.5925 62.5497C68.2833 63.6882 65.8454 64.5486 63.3308 65.1126C60.6584 65.6481 57.9295 65.8528 55.2065 65.722C51.8909 65.4933 48.6174 64.8514 45.463 63.8112C41.3897 62.4138 37.5104 60.5107 33.917 58.1472C31.7018 56.6671 29.5889 55.0412 27.5923 53.2805C27.3241 53.0478 26.9738 52.9307 26.6185 52.9547C26.2633 52.9787 25.9322 53.142 25.6981 53.4086C25.464 53.6752 25.3461 54.0233 25.3703 54.3763C25.3945 54.7293 25.5588 55.0583 25.8271 55.2909C28.7636 57.8653 31.9289 60.1699 35.284 62.1766C38.6589 64.2031 42.2619 65.828 46.019 67.0177C49.7366 68.1985 53.6134 68.8101 57.5162 68.8317C61.5025 68.8387 65.4565 68.1206 69.1826 66.713C70.6317 66.1556 72.0419 65.503 73.4038 64.7595C74.6732 64.0799 75.8813 63.293 77.0146 62.4073C79.3081 60.6019 81.2887 58.4356 82.8779 55.9943C83.598 54.9025 84.2378 53.7605 84.7922 52.5771C85.3985 51.2547 85.9006 49.8875 86.2939 48.4878C86.6689 47.1556 86.9165 45.7912 87.0332 44.4127C87.201 42.9941 87.2077 41.5613 87.0533 40.1412C87.0317 39.9117 86.9365 39.6951 86.7817 39.5234C86.6269 39.3516 86.4208 39.2338 86.1936 39.1872C86.1312 39.1759 86.0679 39.1702 86.0044 39.1702C85.7564 39.1698 85.5159 39.2546 85.3237 39.4103C85.1315 39.566 84.9994 39.783 84.9498 40.0245L84.9355 40.0415ZM83.2304 47.6449L83.153 47.8812L83.2304 47.6449Z" fill="white"/>
<path d="M46.1625 36.8436C45.6281 36.8811 45.1029 37.0022 44.6064 37.2024C43.6596 37.5859 42.8313 38.2106 42.205 39.0136C41.4983 39.9304 41.0493 41.0173 40.9039 42.1631C40.8641 42.3897 40.9145 42.6226 41.0444 42.8129C41.1744 43.0032 41.3737 43.1357 41.6003 43.1826C41.8289 43.2244 42.0649 43.1748 42.257 43.0447C42.4491 42.9146 42.5818 42.7145 42.6262 42.4877C42.6734 42.1993 42.7385 41.9139 42.8211 41.6334C42.9606 41.2503 43.1402 40.8829 43.357 40.5371C43.5563 40.2626 43.7808 40.0072 44.0276 39.7739C44.2595 39.5844 44.5078 39.4157 44.7698 39.2699C45.0188 39.1525 45.2777 39.0572 45.5435 38.9851C46.0191 38.879 46.515 38.9057 46.9764 39.062C47.2254 39.1601 47.466 39.2782 47.6957 39.4151C48.0069 39.6396 48.2949 39.8943 48.5554 40.1754L48.6213 40.2523C48.8109 40.5125 49.0905 40.694 49.4065 40.7621C49.5646 40.7926 49.7273 40.7917 49.885 40.7595C50.0428 40.7273 50.1926 40.6643 50.3258 40.5743C50.459 40.4843 50.5729 40.3691 50.6611 40.2351C50.7492 40.1011 50.8098 39.9512 50.8394 39.7938C50.8715 39.637 50.871 39.4752 50.838 39.3185C50.805 39.1618 50.7401 39.0135 50.6474 38.8826C50.4374 38.6188 50.2085 38.3704 49.9625 38.1393C49.7227 37.9263 49.4637 37.7357 49.1887 37.5698C48.7267 37.2828 48.2218 37.0704 47.6928 36.9404C47.3185 36.8446 46.9329 36.7996 46.5465 36.8066C46.4176 36.8066 46.2857 36.8066 46.1597 36.8066" fill="white"/>
<path d="M47.437 39.9049C47.024 39.9568 46.6211 40.0701 46.242 40.241C45.8121 40.409 45.3823 40.5969 44.9696 40.7877C44.1099 41.1807 43.2501 41.6078 42.3904 42.0492C42.2661 42.1293 42.1598 42.2342 42.0784 42.3572C41.997 42.4803 41.9423 42.6188 41.9176 42.764C41.8871 42.9107 41.8868 43.0621 41.9169 43.209C41.9469 43.3558 42.0066 43.4951 42.0924 43.6183C42.2618 43.8635 42.521 44.0332 42.8146 44.091C43.1082 44.1363 43.4085 44.0746 43.66 43.9173L44.0239 43.7265C44.6448 43.4171 45.2724 43.1181 45.9067 42.8295C46.2678 42.6672 46.6289 42.5048 46.9928 42.3482C47.3842 42.2053 47.7558 42.014 48.099 41.7787C48.2452 41.6807 48.3628 41.5461 48.44 41.3885C48.5178 41.2333 48.5542 41.0608 48.5459 40.8876C48.5376 40.7143 48.4849 40.546 48.3927 40.3988C48.3005 40.2515 48.1719 40.1301 48.0192 40.0461C47.8664 39.9622 47.6946 39.9185 47.5201 39.9192H47.4398L47.437 39.9049ZM44.1959 43.6297L44.0411 43.7094L44.1959 43.6297ZM44.0182 43.7208L43.9379 43.7607L44.0182 43.7208Z" fill="white"/>
<path d="M49.1218 39.9134C46.7747 40.93 44.4506 41.9893 42.095 42.9889C41.8411 43.0844 41.6317 43.2701 41.5075 43.51C41.419 43.6948 41.3875 43.9015 41.417 44.104C41.4465 44.3066 41.5356 44.4959 41.6732 44.6482C41.8108 44.8004 41.9907 44.9088 42.1902 44.9597C42.3897 45.0105 42.5999 45.0015 42.7942 44.9339C45.2215 43.8916 47.6373 42.8038 49.9586 41.5337C50.1297 41.4204 50.2577 41.2534 50.3221 41.0593C50.3865 40.8652 50.3836 40.6552 50.3139 40.463C50.2451 40.2841 50.1245 40.1295 49.9675 40.0186C49.8104 39.9076 49.6239 39.8453 49.4313 39.8394C49.3267 39.839 49.2232 39.8603 49.1275 39.902" fill="white"/>
<path d="M46.8216 38.3727C45.2814 38.7254 43.8364 39.4054 42.586 40.3661C42.3512 40.5314 42.1875 40.7784 42.1275 41.0581C42.0756 41.3411 42.1362 41.6331 42.2966 41.8725C42.4613 42.1088 42.7129 42.2712 42.9972 42.3245C43.2814 42.3778 43.5754 42.3177 43.8154 42.1573C44.3717 41.7172 44.9685 41.3301 45.5979 41.0011C46.2115 40.7086 46.8478 40.4658 47.5007 40.275C47.7545 40.1847 47.9621 39.9986 48.0786 39.757C48.195 39.5155 48.2108 39.238 48.1226 38.985C48.0315 38.7376 47.8492 38.534 47.6125 38.4154C47.4832 38.3526 47.3409 38.3204 47.1969 38.3214C47.0704 38.3242 46.9446 38.3405 46.8216 38.3699" fill="white"/>
<path d="M46.2971 56.6579C45.5866 57.4258 44.9487 58.2571 44.3914 59.1411C44.2462 59.3736 44.1244 59.6197 44.0275 59.8758C43.8833 60.2304 43.8103 60.6096 43.8125 60.9921C43.8237 61.306 43.9241 61.6103 44.1021 61.8698C44.2801 62.1294 44.5285 62.3335 44.8184 62.4586C45.1274 62.5802 45.4576 62.6393 45.7899 62.6324C46.0653 62.6236 46.3386 62.5815 46.6038 62.5071C47.0262 62.4089 47.4358 62.2627 47.8246 62.0714C48.3003 61.8541 48.7533 61.5908 49.1772 61.2854C49.5982 61.0014 49.9513 60.6291 50.2117 60.1947C50.3728 59.8935 50.4274 59.5473 50.3666 59.2116C50.3057 58.8759 50.1331 58.5702 49.8764 58.3437C49.4408 57.9593 48.8648 57.9109 48.3146 57.8824C48.4069 57.6551 48.4261 57.405 48.3697 57.1663C48.3132 56.9277 48.1839 56.7123 47.9994 56.5497C47.7857 56.3649 47.5117 56.2637 47.2285 56.2649C47.0578 56.2646 46.8891 56.3 46.7331 56.3686C46.577 56.4373 46.4373 56.5378 46.3229 56.6636" fill="white"/>
<path d="M56.9675 32.7485C56.8543 32.8773 56.7679 33.027 56.713 33.1891C56.6581 33.3511 56.6359 33.5223 56.6476 33.6929C56.6593 33.8634 56.7047 34.0301 56.7812 34.1832C56.8577 34.3363 56.9639 34.4729 57.0936 34.5853C57.3642 34.8093 57.7106 34.9223 58.0622 34.9014C58.2311 34.8901 58.396 34.8452 58.5472 34.7694C58.6983 34.6936 58.8325 34.5884 58.942 34.46C59.0576 34.3292 59.1454 34.1765 59.2001 34.011C59.2548 33.8456 59.2751 33.6709 59.2601 33.4975C59.2319 33.1598 59.0726 32.8463 58.8159 32.6232C58.5463 32.3994 58.2008 32.2863 57.8501 32.3071C57.6809 32.3186 57.5156 32.3636 57.364 32.4394C57.2125 32.5152 57.0777 32.6203 56.9675 32.7485Z" fill="white"/>
<path d="M59.4023 25.6009C59.424 25.8105 59.5267 26.0035 59.6889 26.1392C59.8556 26.277 60.0685 26.3472 60.285 26.3356C60.4436 26.3235 60.5951 26.2651 60.7203 26.1675C60.8455 26.07 60.9388 25.9378 60.9885 25.7876C61.0381 25.6374 61.0419 25.476 60.9993 25.3236C60.9568 25.1713 60.8697 25.035 60.7493 24.9317C60.5826 24.7939 60.3697 24.7237 60.1532 24.7352C59.9417 24.7527 59.7457 24.8521 59.6074 25.0119C59.4691 25.1717 59.3995 25.3792 59.4138 25.5895" fill="white"/>
<path d="M62.5169 14.6487C62.2952 14.9011 62.1834 15.2305 62.206 15.5647C62.2285 15.899 62.3837 16.2106 62.6373 16.4313C62.8987 16.649 63.234 16.759 63.5744 16.7389C63.7392 16.7289 63.9004 16.6859 64.0481 16.6125C64.1958 16.5391 64.3271 16.4368 64.4341 16.3117C64.6576 16.0534 64.7689 15.7175 64.7436 15.3777C64.7166 15.0479 64.5614 14.7414 64.3109 14.5234C64.0492 14.3062 63.7141 14.1963 63.3738 14.2158C63.209 14.2262 63.048 14.2693 62.9003 14.3427C62.7526 14.4161 62.6213 14.5182 62.5141 14.643" fill="white"/>
<path d="M71.7451 26.9052C71.7508 27.0183 71.779 27.1292 71.8282 27.2314C71.8774 27.3336 71.9466 27.425 72.0317 27.5003C72.2141 27.654 72.4492 27.7316 72.6879 27.7168C72.9225 27.6971 73.1397 27.5862 73.2921 27.408C73.4446 27.2298 73.52 26.9988 73.5018 26.7656C73.4961 26.6525 73.4678 26.5416 73.4186 26.4395C73.3694 26.3373 73.3003 26.2459 73.2152 26.1705C73.0325 26.0173 72.7975 25.9398 72.5589 25.9541C72.4426 25.9634 72.3294 25.9954 72.2255 26.0483C72.1217 26.1011 72.0294 26.1738 71.9538 26.2621C71.8782 26.3504 71.8209 26.4527 71.7851 26.563C71.7493 26.6733 71.7357 26.7896 71.7451 26.9052Z" fill="white"/>
<path d="M65.5793 56.8857C65.3678 57.1283 65.2617 57.4444 65.2842 57.7647C65.3068 58.085 65.4562 58.3833 65.6997 58.5943C65.9518 58.7984 66.2722 58.9002 66.5967 58.8791C66.9086 58.8593 67.2 58.7181 67.4077 58.4861C67.6188 58.2435 67.725 57.9277 67.703 57.6077C67.681 57.2877 67.5326 56.9893 67.2902 56.7775C67.037 56.5734 66.7156 56.4717 66.3903 56.4927C66.2332 56.5039 66.0799 56.5459 65.9392 56.6162C65.7986 56.6866 65.6733 56.784 65.5707 56.9027" fill="white"/>
<path d="M55.5144 56.8857C55.534 57.1174 55.6428 57.3326 55.8182 57.4866C56.0041 57.64 56.2418 57.7174 56.483 57.703C56.7198 57.6834 56.9392 57.5715 57.0933 57.3917C57.2474 57.2119 57.3237 56.9788 57.3054 56.7433C57.2858 56.5116 57.177 56.2964 57.0017 56.1424C56.8158 55.989 56.5781 55.9116 56.3368 55.926C56.1 55.9456 55.8806 56.0575 55.7265 56.2373C55.5724 56.4171 55.4961 56.6502 55.5144 56.8857Z" fill="white"/>
<path d="M48.2054 14.1646C47.9626 14.2398 47.7447 14.3786 47.5748 14.5666C47.4048 14.7545 47.289 14.9846 47.2397 15.2325C47.1705 15.6764 47.2468 16.1307 47.4575 16.5282C47.6958 17.0165 47.9911 17.4753 48.3372 17.8951C48.1648 17.8941 47.9961 17.9447 47.8529 18.0403C47.6563 18.1743 47.5189 18.3782 47.4689 18.6098C47.4262 18.8448 47.4776 19.087 47.6122 19.2847C47.6764 19.3837 47.7604 19.4684 47.859 19.5336C47.9576 19.5988 48.0687 19.643 48.1854 19.6635C49.06 19.7432 49.9393 19.7575 50.8161 19.7062C51.3649 19.6846 51.9059 19.569 52.4152 19.3645C52.8706 19.1943 53.2429 18.8569 53.4554 18.4219C53.5453 18.2111 53.5916 17.9845 53.5916 17.7555C53.5916 17.5266 53.5453 17.3 53.4554 17.0892C53.093 16.3408 52.5234 15.7105 51.8134 15.2724C51.0928 14.7466 50.2791 14.3602 49.4147 14.1333C49.227 14.0886 49.0347 14.0656 48.8416 14.0649C48.627 14.0648 48.4133 14.0916 48.2054 14.1447V14.1646ZM50.1427 17.1091C49.9277 16.8243 49.7157 16.5225 49.5265 16.2121C49.9361 16.3802 50.3294 16.5852 50.7015 16.8243C50.9958 17.0225 51.2695 17.2496 51.5182 17.5021C51.5654 17.5595 51.6094 17.6194 51.65 17.6815C51.5173 17.7322 51.3814 17.7741 51.2431 17.8068C50.9183 17.8647 50.5899 17.8999 50.2602 17.9122C50.3059 17.7786 50.3191 17.6362 50.2987 17.4966C50.2783 17.357 50.2248 17.2242 50.1427 17.1091Z" fill="white"/>
<path d="M34.0037 21.1814C33.8997 21.3001 33.8202 21.4381 33.7697 21.5873C33.7193 21.7366 33.699 21.8943 33.7099 22.0513C33.7208 22.2084 33.7628 22.3618 33.8333 22.5028C33.9039 22.6438 34.0017 22.7695 34.1212 22.8729C34.3706 23.0757 34.6879 23.1774 35.0096 23.1577C35.1652 23.1467 35.3171 23.1051 35.4563 23.0351C35.5955 22.9652 35.7194 22.8684 35.8206 22.7505C36.0302 22.5112 36.1359 22.1991 36.1144 21.8826C36.0929 21.5661 35.946 21.2709 35.706 21.0618C35.4558 20.8583 35.1374 20.7565 34.8147 20.777C34.6591 20.788 34.5073 20.8297 34.368 20.8996C34.2288 20.9695 34.1049 21.0663 34.0037 21.1842" fill="white"/>
<path d="M30.5095 38.0994C30.4055 38.2199 30.3266 38.3597 30.2774 38.5108C30.2282 38.6618 30.2097 38.8211 30.2229 38.9793C30.2493 39.2899 30.395 39.5785 30.6298 39.7852C30.8797 39.9873 31.1967 40.0889 31.5182 40.07C31.6737 40.0595 31.8254 40.0183 31.9647 39.9489C32.1039 39.8795 32.2279 39.7832 32.3292 39.6656C32.5378 39.4202 32.6408 39.1031 32.6158 38.7828C32.5895 38.4716 32.4426 38.1826 32.206 37.9769C31.9575 37.7745 31.6412 37.6728 31.3205 37.6921C31.1647 37.7025 31.0127 37.7439 30.8733 37.8138C30.734 37.8838 30.6103 37.9809 30.5095 38.0994Z" fill="white"/>
<path d="M27.4291 24.291C27.0308 24.3536 26.6353 24.4333 26.2399 24.5245C25.9714 24.5814 25.71 24.6674 25.4604 24.7808C25.1638 24.9063 24.8973 25.0927 24.6781 25.3275C24.4256 25.629 24.293 26.0119 24.3055 26.4039C24.3288 26.835 24.5055 27.2438 24.8041 27.5573C25.105 27.9132 25.4461 28.2379 25.7642 28.5796L25.8358 28.6622L25.8903 28.7277L25.6839 29.1491C25.5619 29.3961 25.5437 29.6811 25.6332 29.9414C25.7226 30.2018 25.9125 30.4162 26.161 30.5374C26.4096 30.6586 26.6964 30.6767 26.9584 30.5878C27.2204 30.4989 27.4361 30.3102 27.5581 30.0632C27.7415 29.7016 27.9192 29.3399 28.0883 28.9697C28.2501 28.5982 28.3907 28.2179 28.5095 27.8306C28.7535 27.0188 28.8016 26.1613 28.6499 25.3275C28.6196 25.0368 28.483 24.7673 28.2659 24.57C28.0674 24.3957 27.8143 24.2951 27.5495 24.2853C27.5094 24.2823 27.4692 24.2823 27.4291 24.2853" fill="white"/>
<path d="M91.5927 18.6953C91.4648 18.784 91.377 18.9189 91.3481 19.0712C91.3191 19.2234 91.3514 19.3809 91.4379 19.5097C91.7496 19.94 92.0311 20.391 92.2805 20.8595C92.5683 21.4337 92.7866 22.0398 92.931 22.665C93.0378 23.2078 93.082 23.761 93.0628 24.3138C93.0203 24.9296 92.9019 25.5378 92.7103 26.1249C92.4244 26.9284 92.0394 27.6936 91.5641 28.4031C90.7306 29.5916 89.7548 30.675 88.6582 31.6295C87.2803 32.8217 85.8115 33.9062 84.265 34.873C82.623 35.921 80.915 36.8664 79.1784 37.7435L79.2242 37.7207L79.1497 37.7577H79.1239C76.2152 39.2186 73.2205 40.5058 70.1829 41.679C67.3993 42.7554 64.5813 43.7407 61.729 44.6349C59.9092 45.2044 58.0781 45.7512 56.2354 46.241C55.6336 46.4005 55.0318 46.5543 54.4271 46.6966C52.0849 47.2491 49.7369 47.7778 47.3832 48.2828H47.4147C39.6772 49.9231 31.7593 51.196 23.8212 50.7916C22.5574 50.7204 21.2965 50.6065 20.0442 50.4414C18.8979 50.2904 17.7516 50.0769 16.6053 49.8718C14.9597 49.5988 13.3327 49.2251 11.7336 48.7527C10.9156 48.4876 10.1324 48.1262 9.40086 47.6763C9.0085 47.4124 8.64708 47.1058 8.32334 46.7621C8.08439 46.4809 7.87597 46.1755 7.7015 45.8509C7.53396 45.498 7.4043 45.1287 7.31464 44.7488C7.22218 44.2551 7.18374 43.7529 7.2 43.2509C7.2365 42.8509 7.31525 42.4557 7.43497 42.072C7.6483 41.4901 7.92913 40.9348 8.27178 40.4175C8.82642 39.6307 9.47176 38.911 10.1947 38.2732C11.1338 37.4625 12.1659 36.7647 13.2696 36.1944C14.1149 35.7681 15.0074 35.4413 15.929 35.2205C16.4423 35.1133 16.9664 35.0656 17.4908 35.0781H17.6198C17.7314 35.0685 17.8387 35.0313 17.9321 34.9699C18.0738 34.873 18.1716 34.7247 18.2044 34.5569C18.2314 34.4179 18.2114 34.2739 18.1477 34.1473C18.084 34.0206 17.98 33.9184 17.8519 33.8564C17.7468 33.806 17.6301 33.7844 17.5137 33.7938C16.6398 33.7714 15.7682 33.8936 14.9346 34.1554C13.9617 34.4506 13.0254 34.8537 12.1434 35.3571C11.2126 35.8738 10.3386 36.4856 9.53557 37.1825C8.73615 37.8522 8.02292 38.6174 7.41206 39.4606C7.1344 39.8495 6.88539 40.2578 6.66698 40.6823C6.44647 41.1239 6.2717 41.5867 6.1454 42.0634C5.90861 42.9908 5.89487 43.9605 6.10527 44.8941C6.27851 45.777 6.66172 46.6059 7.22291 47.3117C7.78584 47.9855 8.47241 48.547 9.24613 48.9662C10.064 49.4083 10.9291 49.7579 11.8253 50.0085C12.7566 50.2933 13.7109 50.4955 14.6652 50.6834C15.693 50.8903 16.7237 51.0802 17.7573 51.2529C19.1902 51.5092 20.6488 51.6858 22.1046 51.8054C28.0252 52.2924 33.9859 51.7456 39.8291 50.7916C42.7608 50.3104 45.6695 49.7152 48.5696 49.083C50.0025 48.7698 51.4353 48.4394 52.8682 48.1063C53.6562 47.924 54.4472 47.7418 55.2353 47.5367C57.1639 47.0583 59.0725 46.4944 60.9667 45.9107C63.735 45.0583 66.4746 44.1214 69.1856 43.1C72.2519 41.9609 75.2753 40.6852 78.227 39.2642C81.0971 37.9188 83.8533 36.3456 86.4688 34.5598C87.6351 33.7496 88.7456 32.8629 89.793 31.9058C90.7157 31.0689 91.5467 30.1372 92.2719 29.1264C92.8021 28.3899 93.2409 27.5925 93.5786 26.7514C93.9103 25.9145 94.1038 25.0298 94.1518 24.1315C94.2435 22.2236 93.5356 20.364 92.4323 18.8234C92.3764 18.7444 92.3021 18.6799 92.2159 18.6353C92.1296 18.5907 92.0338 18.5673 91.9366 18.5671C91.82 18.5666 91.706 18.6014 91.6099 18.6668L91.5927 18.6953ZM92.7419 26.0708V26.105C92.7406 26.0936 92.7406 26.0822 92.7419 26.0708ZM92.7419 26.1107C92.7419 26.142 92.7218 26.1705 92.7132 26.2018C92.7132 26.1733 92.7304 26.142 92.7419 26.1107ZM88.6123 31.6836L88.5694 31.7206L88.6123 31.6836ZM17.3705 35.0667H17.4765H17.3705ZM15.9032 35.2261H15.8487H15.9032ZM13.2725 36.1972L13.1636 36.2542L13.2725 36.1972ZM7.7445 45.9022L7.76454 45.942L7.7445 45.9022ZM47.3574 48.3084H47.4004H47.3574Z" fill="white"/>
</g>
<defs>
<clipPath id="clip0_262_518">
<rect width="104" height="68" fill="white" transform="translate(0 0.837402)"/>
</clipPath>
</defs>
</svg>
