<svg width="279" height="104" viewBox="0 0 279 104" fill="none" xmlns="http://www.w3.org/2000/svg">
<path opacity="0.05" d="M39.3087 103.152C60.0447 103.152 78.0447 91.056 78.0447 71.472C78.0447 61.104 72.4287 52.464 62.9247 48.72C69.8367 44.544 73.8687 36.768 73.8687 27.84C73.8687 13.008 58.4607 0.0479994 38.1567 0.0479994C19.7247 0.0479994 1.43669 12 1.43669 32.88H25.6287C25.4847 24.816 30.9567 21.936 37.5807 21.936C44.4927 21.936 49.2447 25.536 49.2447 30.864C49.2447 36.192 44.9247 39.936 38.7327 39.936H29.0847V60.528H39.3087C47.5167 60.528 52.8447 64.56 52.8447 70.752C52.8447 77.088 47.5167 81.264 39.3087 81.264C31.8207 81.264 25.1967 78.096 25.1967 70.032H0.572688C0.572688 91.344 17.9967 103.152 39.3087 103.152ZM126.047 103.152H132.383C158.159 103.152 171.263 85.152 171.263 54.48V48.72C171.263 18.048 158.159 0.0479994 132.383 0.0479994H126.047C100.415 0.0479994 87.3113 17.904 87.3113 48.72V54.48C87.3113 85.296 100.415 103.152 126.047 103.152ZM127.487 81.264C120.431 81.264 113.087 75.36 113.087 63.12V40.08C113.087 27.84 120.431 21.936 127.487 21.936H131.087C138.143 21.936 145.487 27.84 145.487 40.08V63.12C145.487 75.36 138.143 81.264 131.087 81.264H127.487ZM206.274 46.128C219.522 46.128 228.306 36.048 228.306 23.088C228.306 10.128 219.522 0.0479994 206.274 0.0479994C193.026 0.0479994 184.098 10.128 184.098 23.088C184.098 36.048 193.026 46.128 206.274 46.128ZM184.674 102H205.41L278.562 1.19999H257.826L184.674 102ZM206.274 31.584C202.53 31.584 199.794 28.128 199.794 23.088C199.794 18.048 202.53 14.592 206.274 14.592C210.162 14.592 213.042 18.048 213.042 23.088C213.042 28.128 210.162 31.584 206.274 31.584ZM256.962 103.152C270.21 103.152 278.994 93.072 278.994 80.112C278.994 67.152 270.21 57.072 256.962 57.072C243.714 57.072 234.786 67.152 234.786 80.112C234.786 93.072 243.714 103.152 256.962 103.152ZM256.962 88.608C253.218 88.608 250.482 85.152 250.482 80.112C250.482 75.072 253.218 71.616 256.962 71.616C260.85 71.616 263.73 75.072 263.73 80.112C263.73 85.152 260.85 88.608 256.962 88.608Z" fill="#FAFFF2"/>
</svg>
