<svg width="253" height="104" viewBox="0 0 253 104" fill="none" xmlns="http://www.w3.org/2000/svg">
<path opacity="0.05" d="M46.9247 1.19999H22.8767C21.1487 12.576 15.6767 16.032 6.46069 16.032H0.268688V37.92H6.46069C10.9247 37.92 19.2767 36.48 21.2927 33.6V102H46.9247V1.19999ZM99.9223 103.152H106.258C132.034 103.152 145.138 85.152 145.138 54.48V48.72C145.138 18.048 132.034 0.0479994 106.258 0.0479994H99.9223C74.2903 0.0479994 61.1863 17.904 61.1863 48.72V54.48C61.1863 85.296 74.2903 103.152 99.9223 103.152ZM101.362 81.264C94.3063 81.264 86.9623 75.36 86.9623 63.12V40.08C86.9623 27.84 94.3063 21.936 101.362 21.936H104.962C112.018 21.936 119.362 27.84 119.362 40.08V63.12C119.362 75.36 112.018 81.264 104.962 81.264H101.362ZM180.149 46.128C193.397 46.128 202.181 36.048 202.181 23.088C202.181 10.128 193.397 0.0479994 180.149 0.0479994C166.901 0.0479994 157.973 10.128 157.973 23.088C157.973 36.048 166.901 46.128 180.149 46.128ZM158.549 102H179.285L252.437 1.19999H231.701L158.549 102ZM180.149 31.584C176.405 31.584 173.669 28.128 173.669 23.088C173.669 18.048 176.405 14.592 180.149 14.592C184.037 14.592 186.917 18.048 186.917 23.088C186.917 28.128 184.037 31.584 180.149 31.584ZM230.837 103.152C244.085 103.152 252.869 93.072 252.869 80.112C252.869 67.152 244.085 57.072 230.837 57.072C217.589 57.072 208.661 67.152 208.661 80.112C208.661 93.072 217.589 103.152 230.837 103.152ZM230.837 88.608C227.093 88.608 224.357 85.152 224.357 80.112C224.357 75.072 227.093 71.616 230.837 71.616C234.725 71.616 237.605 75.072 237.605 80.112C237.605 85.152 234.725 88.608 230.837 88.608Z" fill="#FAFFF2"/>
</svg>
