<svg width="280" height="104" viewBox="0 0 280 104" fill="none" xmlns="http://www.w3.org/2000/svg">
<path opacity="0.05" d="M37.7247 103.152C59.6127 103.152 76.8927 88.032 76.8927 68.016C76.8927 49.008 62.3487 33.744 43.4847 33.744C34.8447 33.744 30.5247 35.76 27.5007 38.064L30.0927 23.088H70.2687V1.19999H11.0847L2.44469 60.672H25.1967C28.2207 56.496 31.8207 54.624 37.8687 54.624C45.7887 54.624 51.2607 60.096 51.2607 68.016C51.2607 75.936 45.7887 81.264 37.7247 81.264C30.3807 81.264 25.9167 77.52 24.9087 71.184H0.860688C1.29269 89.184 17.2767 103.152 37.7247 103.152ZM126.891 103.152H133.227C159.003 103.152 172.107 85.152 172.107 54.48V48.72C172.107 18.048 159.003 0.0479994 133.227 0.0479994H126.891C101.259 0.0479994 88.1551 17.904 88.1551 48.72V54.48C88.1551 85.296 101.259 103.152 126.891 103.152ZM128.331 81.264C121.275 81.264 113.931 75.36 113.931 63.12V40.08C113.931 27.84 121.275 21.936 128.331 21.936H131.931C138.987 21.936 146.331 27.84 146.331 40.08V63.12C146.331 75.36 138.987 81.264 131.931 81.264H128.331ZM207.118 46.128C220.366 46.128 229.15 36.048 229.15 23.088C229.15 10.128 220.366 0.0479994 207.118 0.0479994C193.87 0.0479994 184.942 10.128 184.942 23.088C184.942 36.048 193.87 46.128 207.118 46.128ZM185.518 102H206.254L279.406 1.19999H258.67L185.518 102ZM207.118 31.584C203.374 31.584 200.638 28.128 200.638 23.088C200.638 18.048 203.374 14.592 207.118 14.592C211.006 14.592 213.886 18.048 213.886 23.088C213.886 28.128 211.006 31.584 207.118 31.584ZM257.806 103.152C271.054 103.152 279.838 93.072 279.838 80.112C279.838 67.152 271.054 57.072 257.806 57.072C244.558 57.072 235.63 67.152 235.63 80.112C235.63 93.072 244.558 103.152 257.806 103.152ZM257.806 88.608C254.062 88.608 251.326 85.152 251.326 80.112C251.326 75.072 254.062 71.616 257.806 71.616C261.694 71.616 264.574 75.072 264.574 80.112C264.574 85.152 261.694 88.608 257.806 88.608Z" fill="#FAFFF2"/>
</svg>
