<svg width="349" height="104" viewBox="0 0 349 104" fill="none" xmlns="http://www.w3.org/2000/svg">
<path opacity="0.05" d="M46.9247 1.19999H22.8767C21.1487 12.576 15.6767 16.032 6.46069 16.032H0.268688V37.92H6.46069C10.9247 37.92 19.2767 36.48 21.2927 33.6V102H46.9247V1.19999ZM99.9223 103.152H106.258C132.034 103.152 145.138 85.152 145.138 54.48V48.72C145.138 18.048 132.034 0.0479994 106.258 0.0479994H99.9223C74.2903 0.0479994 61.1863 17.904 61.1863 48.72V54.48C61.1863 85.296 74.2903 103.152 99.9223 103.152ZM101.362 81.264C94.3063 81.264 86.9623 75.36 86.9623 63.12V40.08C86.9623 27.84 94.3063 21.936 101.362 21.936H104.962C112.018 21.936 119.362 27.84 119.362 40.08V63.12C119.362 75.36 112.018 81.264 104.962 81.264H101.362ZM195.125 103.152H201.461C227.237 103.152 240.341 85.152 240.341 54.48V48.72C240.341 18.048 227.237 0.0479994 201.461 0.0479994H195.125C169.493 0.0479994 156.389 17.904 156.389 48.72V54.48C156.389 85.296 169.493 103.152 195.125 103.152ZM196.565 81.264C189.509 81.264 182.165 75.36 182.165 63.12V40.08C182.165 27.84 189.509 21.936 196.565 21.936H200.165C207.221 21.936 214.565 27.84 214.565 40.08V63.12C214.565 75.36 207.221 81.264 200.165 81.264H196.565ZM275.353 46.128C288.601 46.128 297.385 36.048 297.385 23.088C297.385 10.128 288.601 0.0479994 275.353 0.0479994C262.105 0.0479994 253.177 10.128 253.177 23.088C253.177 36.048 262.105 46.128 275.353 46.128ZM253.753 102H274.489L347.641 1.19999H326.905L253.753 102ZM275.353 31.584C271.609 31.584 268.873 28.128 268.873 23.088C268.873 18.048 271.609 14.592 275.353 14.592C279.241 14.592 282.121 18.048 282.121 23.088C282.121 28.128 279.241 31.584 275.353 31.584ZM326.041 103.152C339.289 103.152 348.073 93.072 348.073 80.112C348.073 67.152 339.289 57.072 326.041 57.072C312.793 57.072 303.865 67.152 303.865 80.112C303.865 93.072 312.793 103.152 326.041 103.152ZM326.041 88.608C322.297 88.608 319.561 85.152 319.561 80.112C319.561 75.072 322.297 71.616 326.041 71.616C329.929 71.616 332.809 75.072 332.809 80.112C332.809 85.152 329.929 88.608 326.041 88.608Z" fill="#FAFFF2"/>
</svg>
