<svg width="275" height="104" viewBox="0 0 275 104" fill="none" xmlns="http://www.w3.org/2000/svg">
<path opacity="0.05" d="M15.2447 102H40.8767C40.8767 82.128 43.7567 70.032 51.3887 58.8L76.4447 21.072V1.19999H0.700688V23.088H48.2207L28.6367 53.328C18.9887 68.16 15.2447 81.84 15.2447 102ZM121.719 103.152H128.055C153.831 103.152 166.935 85.152 166.935 54.48V48.72C166.935 18.048 153.831 0.0479994 128.055 0.0479994H121.719C96.0872 0.0479994 82.9832 17.904 82.9832 48.72V54.48C82.9832 85.296 96.0872 103.152 121.719 103.152ZM123.159 81.264C116.103 81.264 108.759 75.36 108.759 63.12V40.08C108.759 27.84 116.103 21.936 123.159 21.936H126.759C133.815 21.936 141.159 27.84 141.159 40.08V63.12C141.159 75.36 133.815 81.264 126.759 81.264H123.159ZM201.946 46.128C215.194 46.128 223.978 36.048 223.978 23.088C223.978 10.128 215.194 0.0479994 201.946 0.0479994C188.698 0.0479994 179.77 10.128 179.77 23.088C179.77 36.048 188.698 46.128 201.946 46.128ZM180.346 102H201.082L274.234 1.19999H253.498L180.346 102ZM201.946 31.584C198.202 31.584 195.466 28.128 195.466 23.088C195.466 18.048 198.202 14.592 201.946 14.592C205.834 14.592 208.714 18.048 208.714 23.088C208.714 28.128 205.834 31.584 201.946 31.584ZM252.634 103.152C265.882 103.152 274.666 93.072 274.666 80.112C274.666 67.152 265.882 57.072 252.634 57.072C239.386 57.072 230.458 67.152 230.458 80.112C230.458 93.072 239.386 103.152 252.634 103.152ZM252.634 88.608C248.89 88.608 246.154 85.152 246.154 80.112C246.154 75.072 248.89 71.616 252.634 71.616C256.522 71.616 259.402 75.072 259.402 80.112C259.402 85.152 256.522 88.608 252.634 88.608Z" fill="#FAFFF2"/>
</svg>
