<svg width="12" height="16" viewBox="0 0 12 16" fill="none" xmlns="http://www.w3.org/2000/svg">
<path d="M11.2401 7.91303C10.4709 7.4357 9.69202 6.96047 8.89231 6.53074C9.04772 4.70593 9.2129 2.87897 9.50597 1.07536C9.62641 0.312277 8.48126 -0.246939 7.98393 0.383269C6.78202 1.8191 5.66785 3.32617 4.64752 4.89623C3.68517 4.70231 2.69627 4.67858 1.72573 4.82611C1.59588 4.85624 1.47459 4.91548 1.37099 4.99934C1.26738 5.08321 1.18418 5.1895 1.12767 5.31023C1.07116 5.43095 1.04281 5.56297 1.04477 5.69625C1.04672 5.82953 1.07891 5.96063 1.13894 6.07965C1.57379 6.85489 2.02391 7.60629 2.4936 8.35349C1.72919 9.54331 1.04894 10.8376 0.340631 12.0971C0.236324 12.2841 0.194766 12.4996 0.22206 12.7119C0.249354 12.9242 0.344067 13.1222 0.492263 13.2767C0.640458 13.4312 0.834309 13.534 1.04532 13.57C1.25633 13.6061 1.47335 13.5736 1.66446 13.4771C2.71031 12.922 3.75276 12.3982 4.80372 11.9136C5.46511 12.9773 6.09931 14.0571 6.66384 15.193C6.72596 15.3109 6.8288 15.4023 6.95322 15.4501C7.07764 15.4979 7.21517 15.4989 7.34027 15.4529C7.46537 15.4069 7.56951 15.317 7.63332 15.2C7.69714 15.083 7.71631 14.9468 7.68723 14.8167C8.7501 14.3397 8.6099 11.3921 8.64911 10.3499C9.40954 10.082 10.1882 9.85106 10.9831 9.64733C11.1511 9.58506 11.2994 9.47883 11.4122 9.33965C11.5251 9.20047 11.5986 9.03352 11.6248 8.85625C11.6511 8.67897 11.6292 8.49788 11.5615 8.33195C11.4939 8.16602 11.3828 8.02134 11.2401 7.91303ZM5.55431 6.89921C6.06689 7.07794 6.56555 7.29437 7.04618 7.54671L7.02418 7.86876C6.90952 7.76986 6.76761 7.70798 6.61711 7.69127C6.44553 7.66759 6.27125 7.70834 6.12798 7.80568C5.98472 7.90303 5.88263 8.05005 5.84146 8.2183C5.75604 8.15502 5.67828 8.07985 5.59499 8.02634C5.46201 7.94278 5.30158 7.91469 5.14812 7.94809C4.99466 7.9815 4.86042 8.07374 4.77421 8.20501C5.02561 7.76139 5.29866 7.3233 5.55431 6.89921ZM6.65705 12.247C6.49254 11.9144 6.31827 11.5839 6.14611 11.2632L6.75782 11.0174L6.65705 12.247ZM7.19093 5.67299L6.51534 5.39024L7.27975 4.20042C7.27437 4.69283 7.23753 5.18184 7.19093 5.67299Z" fill="#FFF500"/>
</svg>
