<svg width="17" height="22" viewBox="0 0 17 22" fill="none" xmlns="http://www.w3.org/2000/svg">
<path d="M15.6767 10.1947C14.6272 9.83983 13.5743 9.51638 12.5159 9.2146C12.0359 6.58656 11.3822 4.00657 10.6579 1.43171C10.6079 1.20088 10.4829 0.993081 10.3024 0.840745C10.1218 0.688409 9.89602 0.60009 9.66006 0.589535C9.42411 0.578981 9.19128 0.646791 8.9979 0.782403C8.80452 0.918015 8.66145 1.11384 8.59099 1.33928L6.02702 7.56715L3.64512 7.06224C3.44749 6.97556 3.22711 6.9551 3.01691 7.00398C2.80671 7.05287 2.61797 7.16849 2.47888 7.33349C2.33978 7.49848 2.25778 7.70406 2.24515 7.9195C2.23251 8.13494 2.2899 8.34864 2.40876 8.52877C2.98646 9.63111 3.63596 10.6872 4.31476 11.7368C3.18157 14.4295 2.02457 17.1068 0.802581 19.7676C0.311765 20.8979 1.86611 21.6443 2.64681 20.9524C3.4275 20.2605 4.19291 19.5925 4.96596 18.9125C5.03335 18.949 5.10897 18.9678 5.18564 18.967C5.26231 18.9661 5.33748 18.9456 5.40403 18.9075C5.47058 18.8695 5.52631 18.8151 5.56592 18.7494C5.60553 18.6838 5.6277 18.6091 5.63034 18.5325C5.61545 18.4641 5.60269 18.4054 5.5878 18.337C6.22578 17.7888 6.86377 17.2406 7.51026 16.7314C8.0845 17.6298 8.6507 18.6323 9.16379 19.6259C9.57571 20.4368 10.7651 19.789 10.4021 18.9674C9.9175 17.8637 9.37547 16.786 8.77818 15.739C9.00671 15.5664 9.24925 15.4113 9.48203 15.2582C9.67134 16.1279 9.86277 17.0073 10.0521 17.8769C10.0805 18.042 10.168 18.1912 10.2982 18.2965C10.4285 18.4018 10.5927 18.4562 10.7601 18.4494C10.7558 18.7373 10.7673 19.0252 10.7943 19.3119C10.8164 19.5283 10.9086 19.7317 11.0567 19.891C11.2048 20.0504 11.4009 20.157 11.6152 20.1949C11.8294 20.2327 12.0501 20.1996 12.2439 20.1007C12.4377 20.0017 12.5939 19.8423 12.6888 19.6465C13.6214 17.9596 13.2471 15.2062 13.0375 13.2561C13.844 12.9108 14.6742 12.624 15.5219 12.3981C15.7854 12.3724 16.0313 12.2543 16.216 12.0646C16.4007 11.8749 16.5122 11.6259 16.5307 11.3619C16.5493 11.0978 16.4737 10.8357 16.3174 10.622C16.161 10.4083 15.9341 10.2569 15.6767 10.1947ZM8.65507 11.6004C8.74866 12.0304 8.84225 12.4603 8.93584 12.8902L8.54972 13.138C8.62137 12.6209 8.64417 12.1145 8.65507 11.6004ZM10.9407 14.2959L11.0775 14.2662C11.1073 14.403 11.1392 14.5495 11.2374 14.6714C11.2382 14.7017 11.2447 14.7316 11.2565 14.7594C11.2987 15.2824 11.3129 15.7705 11.3096 16.2727C11.1901 15.5824 11.0616 14.9451 10.9407 14.2959ZM9.43788 4.90061C9.54423 5.38917 9.65059 5.87772 9.75481 6.3565C9.64406 6.32268 9.52756 6.31183 9.41247 6.32465C9.29739 6.33747 9.18613 6.37369 9.08554 6.43105C8.98494 6.48841 8.89713 6.56574 8.82748 6.65825C8.75784 6.75077 8.70783 6.85649 8.68052 6.96903L8.61677 6.91126C8.88977 6.23778 9.16489 5.57409 9.40857 4.90699L9.43788 4.90061ZM7.31975 10.1206L7.27256 13.0067L6.59842 11.8844L7.31975 10.1206Z" fill="#EDEDED"/>
</svg>
