<svg width="42" height="42" viewBox="0 0 42 42" fill="none" xmlns="http://www.w3.org/2000/svg">
<path d="M39.8305 2.17424C35.5384 4.61641 31.2241 7.01906 26.8875 9.38223C24.5483 6.74771 21.8978 4.40706 18.9942 2.41169C18.9282 2.10878 18.9677 1.7727 18.9506 1.45916C18.8792 0.144243 17.0591 -0.0838004 16.7646 1.05491C16.2636 0.775066 15.7604 0.485452 15.2344 0.231535C15.0659 0.130877 14.8745 0.0746117 14.6783 0.0680662C14.4821 0.0615206 14.2874 0.104894 14.1126 0.194096C13.9377 0.283297 13.7883 0.415449 13.6784 0.578126C13.5685 0.740803 13.5017 0.928697 13.4842 1.12424C13.1042 6.32689 13.0309 11.5474 13.2648 16.7587C9.17483 18.9385 5.08492 21.1184 0.98861 23.2689C0.748752 23.399 0.557614 23.6034 0.44393 23.8515C0.330246 24.0996 0.300156 24.3778 0.358198 24.6445C0.416239 24.9111 0.559271 25.1516 0.765782 25.33C0.972293 25.5084 1.23112 25.6149 1.50336 25.6335C5.62453 25.7598 9.73048 26.1453 13.7914 26.6531C13.9702 29.4491 14.1588 32.2429 14.3257 35.0312L14.2482 35.6621C14.1722 36.1596 14.1189 36.7136 14.0659 37.1755C14.0334 37.3663 14.0571 37.5624 14.1339 37.7401C14.2107 37.9178 14.3374 38.0693 14.4987 38.1763C14.5491 39.066 14.5918 39.9675 14.6227 40.8614C14.6471 41.4906 15.6034 41.5588 15.6551 40.9028C15.6599 40.0318 15.6529 39.1532 15.648 38.2844C15.8646 38.215 16.0563 38.084 16.1996 37.9074C16.3429 37.7308 16.4316 37.5162 16.4549 37.2899C16.8139 33.8092 17.9597 30.4556 19.8055 27.4828C26.6006 28.5622 33.3508 29.9993 40.1341 31.5417C41.0497 31.7518 42.2654 30.8014 41.5994 29.8104C38.35 24.9913 34.9916 19.5307 31.1813 14.4857C34.8712 11.2052 38.3288 7.67232 41.5291 3.9127C42.2091 2.94595 40.8602 1.59189 39.8305 2.17424ZM12.2369 20.6872C12.1338 20.6358 12.0193 20.6114 11.9042 20.6163L11.4747 20.6178C11.3784 20.6287 11.2834 20.6493 11.1913 20.6795L12.4198 20.0231C12.3311 20.2267 12.2997 20.4586 12.2369 20.6872ZM19.1301 5.33979C20.4614 6.38013 21.73 7.4982 22.9293 8.68826C22.7843 8.78262 22.6662 8.91303 22.5866 9.06669C22.5071 9.22034 22.4687 9.39199 22.4754 9.56489C22.4534 10.1223 22.4434 10.6874 22.4215 11.2448C22.2771 11.1851 22.1223 11.1547 21.9661 11.1554C21.8099 11.156 21.6553 11.1876 21.5114 11.2485C21.2598 10.7506 21.0081 10.2527 20.7271 9.76125C20.6378 9.35086 20.5463 8.93073 20.4549 8.51057C20.3797 8.24909 20.2078 8.02601 19.9741 7.88677C19.7404 7.74754 19.4624 7.70261 19.1967 7.76105C19.1883 6.92366 19.1495 6.13385 19.1203 5.34192L19.1301 5.33979ZM15.6388 3.02955C15.9894 3.22956 16.3302 3.4317 16.6633 3.64574C16.5763 7.38311 16.4192 11.1118 16.1919 14.8319L16.0718 15.2675L15.2205 15.7291C15.1879 11.4891 15.3006 7.25826 15.6269 3.0219L15.6388 3.02955ZM7.40467 22.7011C7.43 22.8017 7.48097 22.894 7.55259 22.969C7.62422 23.044 7.71405 23.0991 7.81334 23.1291C7.91263 23.159 8.018 23.1627 8.11914 23.1398C8.22028 23.1169 8.31374 23.0681 8.39043 22.9983C8.90003 22.2051 9.49906 22.136 10.1875 22.7913C10.3079 23.0138 10.5082 23.1824 10.7479 23.2632C10.9877 23.3439 11.2492 23.3308 11.4796 23.2264C11.5137 23.3827 11.6148 23.5654 11.7233 23.8284C9.87804 23.6262 8.02943 23.4555 6.18168 23.3358L7.40467 22.7011ZM19.4442 23.7544L19.2947 23.9609C19.3343 22.5911 19.3662 21.2333 19.3722 19.8504L19.4124 19.3299C19.4158 20.8029 19.4073 22.2682 19.4323 23.7467L19.4442 23.7544ZM21.3093 25.1291C21.4026 25.0375 21.4797 24.9307 21.5374 24.8134C21.6945 24.5949 21.8593 24.3646 22.036 24.142C22.1117 24.3718 22.2575 24.5721 22.4528 24.715C22.6481 24.8578 22.8832 24.936 23.1251 24.9386C23.3671 24.9412 23.6038 24.8681 23.8022 24.7295C24.0005 24.5909 24.1505 24.3937 24.2312 24.1655C24.3586 23.8103 24.4545 23.4517 24.5462 23.0736C24.8275 23.178 25.1349 23.19 25.4235 23.1078C25.5277 23.5865 25.6362 24.0849 25.6916 24.5743C25.7147 24.745 25.7791 24.9075 25.8792 25.0477C25.9793 25.1879 26.112 25.3017 26.2659 25.379C26.4199 25.4564 26.5903 25.4951 26.7626 25.4917C26.9348 25.4884 27.1036 25.4431 27.2544 25.3598C27.3643 25.6015 27.5512 25.7999 27.7859 25.924C28.0206 26.0481 28.2898 26.0909 28.5514 26.0457C28.813 26.0004 29.0522 25.8697 29.2315 25.674C29.4109 25.4783 29.5203 25.2286 29.5426 24.964C29.6215 24.5272 29.7221 24.096 29.8248 23.6745C29.988 24.0484 30.1513 24.4222 30.295 24.8002C30.3319 24.9266 30.395 25.0437 30.4801 25.1442C30.5652 25.2446 30.6704 25.326 30.789 25.3832C30.9076 25.4403 31.0368 25.472 31.1684 25.476C31.2999 25.48 31.4309 25.4564 31.5527 25.4066C31.7135 25.8629 31.8827 26.3582 32.0315 26.8068C32.0913 26.9817 32.1789 27.1458 32.2908 27.2928C28.6619 26.4658 24.9934 25.7394 21.2974 25.1215L21.3093 25.1291ZM30.8527 19.9814L30.6542 19.4924C30.5405 19.2887 30.3703 19.1222 30.1642 19.0129C29.958 18.9037 29.7247 18.8564 29.4923 18.8767C29.2598 18.897 29.0382 18.9841 28.8542 19.1274C28.6701 19.2708 28.5314 19.4643 28.4547 19.6846L28.4008 19.8601C28.276 19.2869 28.1896 18.7018 28.1416 18.1051C28.1206 17.8972 28.0349 17.7011 27.8967 17.5443L27.9651 17.5295C28.2516 17.5266 28.5261 17.4141 28.7321 17.215C28.9382 17.016 29.0601 16.7455 29.0729 16.4593L29.4105 16.13C30.3596 17.3869 31.2738 18.6718 32.1707 19.9708C31.964 19.8685 31.7349 19.8196 31.5045 19.8287C31.274 19.8377 31.0495 19.9044 30.8515 20.0225L30.8527 19.9814ZM32.8197 20.8836C33.3607 21.6767 33.8823 22.474 34.3647 23.2798C34.0411 23.2391 33.7145 23.3286 33.4569 23.5286C33.1688 22.6809 32.9551 21.8096 32.8184 20.9248L32.8197 20.8836ZM34.4197 26.8703L34.4821 26.7339C34.7384 27.1591 34.9603 27.5202 35.1996 27.8672L33.7605 27.5562C34.0463 27.4217 34.2781 27.1944 34.4184 26.9115L34.4197 26.8703ZM32.4155 10.0006C32.4482 9.85734 32.449 9.70862 32.4177 9.56507C32.3865 9.42152 32.324 9.28663 32.2347 9.16997L34.5201 7.91515L32.4155 10.0006Z" fill="#FFF500"/>
</svg>
