<svg width="23" height="26" viewBox="0 0 23 26" fill="none" xmlns="http://www.w3.org/2000/svg">
<path opacity="0.1" d="M21.6705 9.576C19.7102 9.40916 17.7609 9.19899 15.8039 9.00071C15.6017 6.59563 15.1759 4.21464 14.532 1.88853C14.4795 1.66447 14.3627 1.46058 14.1959 1.30206C14.0291 1.14354 13.8196 1.03725 13.5932 0.996275C13.3667 0.955298 13.1333 0.98146 12.9215 1.07147C12.7097 1.16149 12.5289 1.31145 12.4012 1.50292C10.9934 3.73341 9.69062 6.02293 8.42137 8.3256C6.84257 8.21898 5.30709 8.12337 3.68667 8.10768C3.48709 8.09779 3.28842 8.14051 3.11056 8.2316C2.93271 8.32268 2.78191 8.45895 2.6733 8.62668C2.56469 8.79441 2.50207 8.98773 2.49173 9.18728C2.48139 9.38684 2.52369 9.58562 2.61438 9.76368C3.48447 11.1872 4.46354 12.5412 5.54281 13.8135C3.86384 17.0548 2.20866 20.3114 0.493989 23.5297C-0.00792803 24.468 0.964992 25.9755 2.05285 25.2372C4.82792 23.3641 7.48867 21.3418 10.1817 19.374C11.249 20.7112 12.1826 22.1499 12.9692 23.6693C13.0394 23.8097 13.1588 23.9193 13.3046 23.9773C13.4504 24.0354 13.6124 24.0379 13.7599 23.9843C13.9074 23.9307 14.0301 23.8248 14.1046 23.6867C14.1792 23.5486 14.2003 23.3879 14.1642 23.2352C13.9806 22.2403 13.6537 21.2773 13.1938 20.3762C13.3548 20.4789 13.5442 20.5278 13.7348 20.5157C13.9253 20.5037 14.1071 20.4313 14.2538 20.3092C14.2702 21.0425 14.2865 21.7758 14.2986 22.4896C14.3107 23.2033 15.4253 23.8102 15.8963 23.0117C17.1354 20.8998 16.6072 17.6273 16.3244 15.0587C18.2063 13.8312 20.1625 12.7218 22.1818 11.7367C22.3801 11.6009 22.5325 11.4082 22.6192 11.1841C22.7058 10.96 22.7226 10.7149 22.6672 10.481C22.6119 10.2472 22.4871 10.0355 22.3091 9.87399C22.1312 9.71245 21.9086 9.60858 21.6705 9.576ZM9.82144 13.3938C10.3474 14.1182 10.7977 14.8946 11.1651 15.711L10.7484 16.0064C10.3738 15.1602 10.064 14.2868 9.82144 13.3938ZM11.8509 8.61269L11.0789 8.54531L11.5741 7.66996C11.651 7.92953 11.7667 8.27283 11.8705 8.60844L11.8509 8.61269ZM13.1427 6.36647L13.0352 6.38987L12.835 6.03431C12.764 5.91051 12.6639 5.80587 12.5435 5.72935L12.9074 5.09751C13.0248 5.54273 13.0924 5.94758 13.1622 6.36222L13.1427 6.36647ZM6.69367 10.5438C6.56748 10.6312 6.4707 10.7547 6.41607 10.8981C6.36143 11.0415 6.35149 11.1981 6.38756 11.3473C6.1708 11.0568 5.94427 10.7684 5.74492 10.4638L6.69367 10.5438ZM16.0679 12.4229L16.0017 11.4139L17.5835 11.5813C17.0933 11.821 16.5929 12.1551 16.0874 12.4186L16.0679 12.4229Z" fill="#EDEDED"/>
</svg>
