<svg width="23" height="26" viewBox="0 0 23 26" fill="none" xmlns="http://www.w3.org/2000/svg">
<path opacity="0.1" d="M22.0359 12.811C20.1941 12.1544 18.3444 11.4927 16.4867 10.8259C16.8746 7.9066 17.2604 4.97753 17.4835 2.05316C17.5919 0.811688 15.9956 0.483711 15.2867 1.36464C13.5162 3.71504 11.8408 6.12661 10.1297 8.51523C7.89896 7.67039 5.57264 6.85663 3.27436 6.07767C3.0583 6.01255 2.82793 6.01184 2.61149 6.07567C2.39505 6.13951 2.20193 6.26513 2.05579 6.43707C1.90964 6.60901 1.81681 6.81982 1.78868 7.04372C1.76055 7.26762 1.79834 7.49485 1.89742 7.6976C2.95612 10.0076 4.23421 12.2106 5.7141 14.2763C4.1161 16.2275 2.37207 18.0544 0.4971 19.7411C-0.363027 20.4912 0.406038 22.2375 1.58363 21.8174C3.98979 20.9764 6.40573 20.1332 8.81614 19.3117C8.89334 19.4093 8.98973 19.49 9.09936 19.5489C9.20899 19.6078 9.32953 19.6435 9.45353 19.6539C10.4454 21.1302 11.3321 22.6745 12.1072 24.2753C12.1387 24.3401 12.1871 24.3952 12.2473 24.4348C12.3075 24.4744 12.3773 24.4969 12.4493 24.5001C12.5213 24.5033 12.5928 24.487 12.6563 24.4529C12.7198 24.4189 12.7729 24.3683 12.81 24.3065C12.8955 24.5214 13.0443 24.7053 13.2368 24.8337C13.4293 24.962 13.6562 25.0287 13.8875 25.025C14.1188 25.0213 14.3435 24.9473 14.5318 24.8129C14.72 24.6784 14.8629 24.4899 14.9415 24.2724C15.5155 22.7249 15.0869 20.2391 15.3154 18.5621C15.4011 18.0625 15.4672 17.5671 15.5432 17.0695C17.6362 16.3887 19.7259 15.7394 21.8318 15.1172C22.0966 15.0784 22.3406 14.9514 22.5244 14.7568C22.7081 14.5622 22.8209 14.3113 22.8445 14.0447C22.8681 13.7781 22.8012 13.5113 22.6544 13.2875C22.5077 13.0636 22.2898 12.8958 22.0359 12.811ZM12.9249 19.0518C12.8182 18.8908 12.7192 18.7179 12.6222 18.5548C12.5253 18.3917 12.4424 18.246 12.3574 18.0905L12.806 17.9417C12.8824 17.9947 12.9704 18.0282 13.0627 18.0393L12.9249 19.0518ZM8.591 10.4263C8.4787 10.4492 8.37228 10.4948 8.27829 10.5604C8.1843 10.626 8.10474 10.7101 8.04447 10.8076C7.98421 10.9051 7.94452 11.0139 7.92787 11.1273C7.91121 11.2407 7.91795 11.3563 7.94764 11.467L7.84614 11.6119C7.28725 10.925 6.71095 10.2522 6.09769 9.59765C5.99693 9.49572 5.87176 9.42124 5.73409 9.38135C5.59643 9.34145 5.45085 9.33745 5.3112 9.36971C5.29419 9.29154 5.27718 9.21338 5.19177 9.1501C6.32755 9.61925 7.45607 10.0081 8.59737 10.4556L8.591 10.4263Z" fill="#EDEDED"/>
</svg>
