<svg width="42" height="42" viewBox="0 0 42 42" fill="none" xmlns="http://www.w3.org/2000/svg">
<path d="M39.8461 2.45402C35.554 4.8962 31.2397 7.29885 26.9031 9.66201C24.5639 7.02749 21.9134 4.68685 19.0098 2.69147C18.9439 2.38857 18.9833 2.05249 18.9662 1.73895C18.8949 0.424028 17.0747 0.195985 16.7802 1.33469C16.2792 1.05485 15.7761 0.765237 15.25 0.51132C15.0815 0.410663 14.8901 0.354397 14.6939 0.347851C14.4977 0.341306 14.3031 0.38468 14.1282 0.473881C13.9533 0.563082 13.8039 0.695234 13.694 0.857911C13.5841 1.02059 13.5173 1.20848 13.4999 1.40402C13.1199 6.60668 13.0466 11.8272 13.2804 17.0385C9.19046 19.2183 5.10054 21.3981 1.00424 23.5487C0.764377 23.6788 0.573239 23.8832 0.459555 24.1313C0.345871 24.3793 0.315781 24.6576 0.373823 24.9243C0.431864 25.1909 0.574896 25.4314 0.781407 25.6098C0.987918 25.7881 1.24675 25.8946 1.51898 25.9133C5.64015 26.0396 9.74611 26.4251 13.8071 26.9329C13.9859 29.7288 14.1744 32.5226 14.3414 35.3109L14.2638 35.9419C14.1879 36.4394 14.1345 36.9934 14.0815 37.4553C14.0491 37.6461 14.0727 37.8422 14.1495 38.0199C14.2263 38.1975 14.3531 38.3491 14.5143 38.4561C14.5647 39.3458 14.6075 40.2473 14.6383 41.1412C14.6627 41.7704 15.6191 41.8386 15.6707 41.1826C15.6756 40.3116 15.6685 39.433 15.6636 38.5642C15.8802 38.4948 16.0719 38.3638 16.2152 38.1872C16.3585 38.0106 16.4472 37.796 16.4705 37.5697C16.8295 34.0889 17.9753 30.7354 19.8212 27.7626C26.6162 28.8419 33.3664 30.2791 40.1497 31.8215C41.0653 32.0315 42.281 31.0812 41.615 30.0902C38.3656 25.2711 35.0072 19.8105 31.1969 14.7655C34.8868 11.4849 38.3444 7.9521 41.5448 4.19249C42.2247 3.22574 40.8758 1.87167 39.8461 2.45402ZM12.2525 20.967C12.1494 20.9156 12.0349 20.8912 11.9198 20.8961L11.4903 20.8976C11.394 20.9085 11.299 20.9291 11.2069 20.9592L12.4354 20.3029C12.3467 20.5064 12.3153 20.7384 12.2525 20.967ZM19.1457 5.61958C20.477 6.65991 21.7456 7.77799 22.9449 8.96805C22.7999 9.06241 22.6818 9.19282 22.6023 9.34647C22.5227 9.50012 22.4843 9.67177 22.491 9.84467C22.4691 10.4021 22.459 10.9672 22.4371 11.5246C22.2927 11.4649 22.1379 11.4345 21.9817 11.4351C21.8255 11.4358 21.6709 11.4674 21.5271 11.5282C21.2754 11.0304 21.0237 10.5325 20.7428 10.041C20.6534 9.63065 20.562 9.21052 20.4705 8.79036C20.3954 8.52888 20.2234 8.30579 19.9897 8.16656C19.756 8.02732 19.478 7.9824 19.2123 8.04084C19.204 7.20344 19.1651 6.41363 19.136 5.62171L19.1457 5.61958ZM15.6544 3.30934C16.005 3.50934 16.3458 3.71149 16.6789 3.92552C16.5919 7.66289 16.4348 11.3916 16.2075 15.1117L16.0874 15.5473L15.2362 16.0089C15.2035 11.7688 15.3162 7.53805 15.6425 3.30168L15.6544 3.30934ZM7.4203 22.9809C7.44563 23.0815 7.49659 23.1738 7.56822 23.2488C7.63984 23.3238 7.72967 23.3789 7.82896 23.4089C7.92826 23.4388 8.03362 23.4425 8.13476 23.4196C8.2359 23.3966 8.32937 23.3479 8.40605 23.2781C8.91566 22.4848 9.51469 22.4158 10.2031 23.0711C10.3235 23.2936 10.5238 23.4622 10.7636 23.543C11.0033 23.6237 11.2648 23.6106 11.4953 23.5062C11.5293 23.6625 11.6305 23.8452 11.7389 24.1082C9.89367 23.906 8.04505 23.7353 6.1973 23.6156L7.4203 22.9809ZM19.4598 24.0342L19.3103 24.2407C19.3499 22.8709 19.3818 21.5131 19.3878 20.1301L19.428 19.6097C19.4314 21.0827 19.4229 22.548 19.4479 24.0265L19.4598 24.0342ZM21.3249 25.4089C21.4182 25.3173 21.4953 25.2105 21.553 25.0932C21.7101 24.8747 21.8749 24.6444 22.0516 24.4217C22.1274 24.6516 22.2731 24.8519 22.4684 24.9948C22.6637 25.1376 22.8988 25.2158 23.1408 25.2184C23.3827 25.221 23.6195 25.1479 23.8178 25.0093C24.0161 24.8706 24.1661 24.6735 24.2468 24.4453C24.3742 24.0901 24.4701 23.7315 24.5618 23.3533C24.8431 23.4578 25.1505 23.4698 25.4391 23.3875C25.5433 23.8663 25.6518 24.3647 25.7072 24.8541C25.7303 25.0248 25.7947 25.1873 25.8948 25.3275C25.9949 25.4677 26.1276 25.5815 26.2816 25.6588C26.4355 25.7362 26.6059 25.7749 26.7782 25.7715C26.9504 25.7682 27.1193 25.7229 27.2701 25.6396C27.3799 25.8813 27.5668 26.0797 27.8015 26.2038C28.0362 26.3279 28.3054 26.3707 28.567 26.3255C28.8286 26.2802 29.0678 26.1495 29.2472 25.9538C29.4265 25.7581 29.5359 25.5083 29.5582 25.2438C29.6371 24.807 29.7377 24.3758 29.8404 23.9543C30.0037 24.3282 30.1669 24.7019 30.3106 25.08C30.3476 25.2064 30.4106 25.3235 30.4957 25.4239C30.5808 25.5244 30.6861 25.6058 30.8046 25.663C30.9232 25.7201 31.0524 25.7517 31.184 25.7558C31.3156 25.7598 31.4465 25.7362 31.5684 25.6864C31.7291 26.1427 31.8983 26.638 32.0472 27.0866C32.1069 27.2614 32.1945 27.4256 32.3065 27.5726C28.6775 26.7456 25.0091 26.0192 21.313 25.4012L21.3249 25.4089ZM30.8684 20.2611L30.6698 19.7722C30.5561 19.5684 30.386 19.402 30.1798 19.2927C29.9736 19.1835 29.7403 19.1362 29.5079 19.1565C29.2755 19.1768 29.0539 19.2638 28.8698 19.4072C28.6857 19.5505 28.547 19.7441 28.4704 19.9644L28.4165 20.1399C28.2917 19.5666 28.2053 18.9816 28.1572 18.3848C28.1362 18.1769 28.0506 17.9809 27.9123 17.8241L27.9808 17.8092C28.2672 17.8064 28.5417 17.6938 28.7477 17.4948C28.9538 17.2957 29.0757 17.0253 29.0885 16.7391L29.4261 16.4098C30.3752 17.6667 31.2895 18.9516 32.1863 20.2506C31.9796 20.1483 31.7505 20.0994 31.5201 20.1085C31.2896 20.1175 31.0651 20.1842 30.8671 20.3023L30.8684 20.2611ZM32.8353 21.1634C33.3764 21.9565 33.8979 22.7538 34.3803 23.5596C34.0567 23.5188 33.7301 23.6084 33.4725 23.8084C33.1844 22.9607 32.9707 22.0894 32.834 21.2046L32.8353 21.1634ZM34.4353 27.1501L34.4977 27.0137C34.754 27.4389 34.9759 27.8 35.2152 28.147L33.7761 27.836C34.0619 27.7015 34.2937 27.4742 34.434 27.1913L34.4353 27.1501ZM32.4311 10.2803C32.4639 10.1371 32.4646 9.9884 32.4334 9.84486C32.4021 9.70131 32.3396 9.56642 32.2503 9.44976L34.5357 8.19493L32.4311 10.2803Z" fill="#15211C"/>
</svg>
