<svg width="18" height="17" viewBox="0 0 18 17" fill="none" xmlns="http://www.w3.org/2000/svg">
<path d="M14.1426 5.75256C14.7706 4.50033 15.3595 3.25661 15.8983 2.06473C15.9362 1.88797 15.9255 1.70425 15.8673 1.53311C15.809 1.36197 15.7055 1.20985 15.5677 1.09286C15.4299 0.975868 15.2629 0.89837 15.0846 0.868705C14.9063 0.839041 14.7233 0.85827 14.555 0.924343C13.3826 1.65034 12.1962 2.35893 11.0076 3.05773C9.76462 2.04905 8.4303 1.09096 7.11977 0.148142C7.00938 0.0769214 6.88413 0.031943 6.75365 0.0166495C6.62317 0.00135611 6.49092 0.0161297 6.36705 0.0598927C6.24318 0.103656 6.13098 0.175223 6.03907 0.269088C5.94715 0.362953 5.87796 0.47663 5.83681 0.601391C5.32387 2.59919 5.00769 4.6424 4.89281 6.7018C3.49527 7.56891 2.12578 8.47083 0.780954 9.43905C0.656855 9.57403 0.572258 9.74053 0.53641 9.92035C0.500563 10.1002 0.514839 10.2864 0.57769 10.4586C0.640541 10.6309 0.749557 10.7826 0.892789 10.897C1.03602 11.0115 1.20795 11.0844 1.38982 11.1077C2.56794 11.0662 3.7397 10.9953 4.91144 10.9245C5.02277 12.4902 5.23852 14.0467 5.55727 15.5837C5.61129 15.7381 5.71989 15.8674 5.86263 15.9472C6.00537 16.027 6.17237 16.0519 6.33217 16.0171C6.49198 15.9823 6.63355 15.8903 6.73019 15.7583C6.82683 15.6264 6.87188 15.4637 6.85684 15.3008C6.69731 14.568 6.61381 13.8084 6.53457 13.0683C6.62631 13.5546 6.75774 14.0325 6.92755 14.4974C6.94487 14.547 6.97382 14.5918 7.01196 14.628C7.0501 14.6642 7.09634 14.6908 7.14683 14.7055C7.21426 14.7893 7.29832 14.8583 7.3937 14.9081C7.48908 14.9579 7.59372 14.9874 7.70106 14.9948C7.8084 15.0022 7.91611 14.9873 8.01742 14.951C8.11872 14.9148 8.21145 14.858 8.28973 14.7842C9.42746 13.4964 10.4589 12.1184 11.3739 10.6639C13.1612 10.641 14.9484 10.7201 16.7268 10.9007C17.6071 10.9956 17.9305 9.94276 17.4635 9.34851C16.454 8.06337 15.3435 6.86088 14.1426 5.75256ZM8.07065 10.7689C8.16104 10.9072 8.29151 11.0144 8.4446 11.0764C8.21614 11.4843 7.9779 11.8944 7.76134 12.3099C7.77224 11.7959 7.78316 11.2818 7.80596 10.7753L8.07065 10.7689ZM7.15691 2.34037L7.41529 2.53998C7.3674 2.62394 7.33194 2.71444 7.31001 2.80857C7.17301 3.63666 6.99441 4.55566 6.87316 5.50313L6.57411 5.68079C6.70965 4.55375 6.91407 3.43605 7.18623 2.33399L7.15691 2.34037ZM9.58469 8.7916C9.6287 8.1475 9.68036 7.49151 9.73413 6.84528C9.94072 7.23015 10.1354 7.60737 10.3322 7.99436L9.83749 8.77755L9.58469 8.7916ZM13.1153 8.7906C13.2916 8.73194 13.4398 8.60996 13.5313 8.44824C13.6228 8.28652 13.651 8.09657 13.6104 7.91525C13.6048 7.84515 13.5898 7.77616 13.5658 7.71009C13.9427 8.07834 14.3099 8.44868 14.6618 8.84285C14.1435 8.8124 13.6306 8.76029 13.1348 8.78635L13.1153 8.7906Z" fill="#EDEDED"/>
</svg>
