<svg width="151" height="152" viewBox="0 0 151 152" fill="none" xmlns="http://www.w3.org/2000/svg">
<g clip-path="url(#clip0_262_867)">
<path d="M0.585527 -39C0.585527 -39 23.1208 -23.5492 34.5719 -17.0072C46.023 -10.4653 48.8561 -6.09844 52.3866 -3.10018C56.6576 0.536083 75.8343 9.71268 85.1135 11.1672C94.3928 12.6217 109.292 10.4399 116.108 6.89623C122.925 3.35253 150.114 -4.55468 150.114 -4.55468L151.007 1.26003C151.007 1.26003 134.105 4.62522 126.287 8.25817C118.469 11.8911 101.384 17.4381 91.8407 17.5306C82.297 17.6232 61.7584 10.0763 55.0312 5.0781C48.304 0.079895 34.9356 -10.9314 28.0265 -14.7329C21.1175 -18.5345 0.588828 -31.82 0.126023 -32.9142C-0.336782 -34.0084 0.585527 -38.5504 0.585527 -38.5504" fill="#E4DAC0"/>
<path d="M103.675 41.0837C102.875 35.8442 99.1695 32.1352 97.7877 29.927C96.4059 27.7188 93.5596 22.2941 93.4373 21.6198C93.3149 20.4242 93.3662 19.2173 93.5894 18.0364C93.834 16.7141 95.0307 15.2464 95.3976 14.2349C95.7645 13.2233 95.5199 11.8449 95.553 11.5077C95.586 11.1705 94.1117 9.32922 93.3447 9.39203C92.5778 9.45484 92.2406 10.5292 92.2406 10.5292C92.2406 10.5292 91.6588 9.53749 90.71 9.59039C90.4285 9.60533 90.1528 9.67685 89.8995 9.80066C89.6462 9.92448 89.4205 10.098 89.2357 10.311C89.2357 10.311 88.3795 8.9623 87.4605 9.11436C86.8159 9.27838 86.2311 9.62232 85.7746 10.1061C85.708 9.7859 85.5603 9.4882 85.3455 9.2416C85.1307 8.99499 84.8561 8.80775 84.5481 8.69784C83.5068 8.36727 82.1184 10.5391 82.1184 10.5391C82.1184 10.5391 83.2457 12.8134 83.5168 13.3126C83.7878 13.8118 86.1977 14.3043 86.0159 14.9654C85.8341 15.6266 85.1531 14.9654 84.6076 15.058C84.0622 15.1506 83.2853 18.5554 83.4275 19.6033C83.5696 20.6512 84.7002 21.2826 85.3349 22.509C85.9696 23.7354 86.4258 25.8742 87.6985 27.9634C88.9712 30.0526 90.6539 35.1897 90.9249 37.097C91.196 39.0044 91.1067 43.2787 91.1067 43.2787C91.1067 43.2787 88.3795 44.8687 86.6076 45.8671C84.8357 46.8654 80.8821 48.5711 80.8821 48.5711L81.1531 47.7976C81.4275 47.0273 81.8374 44.1183 81.6556 42.9349C81.4738 41.7515 80.9283 41.6126 79.8837 42.1184C78.8391 42.6242 79.4738 41.0275 78.4722 36.2574C77.4705 31.4873 72.5152 30.7204 69.2921 29.8443C66.069 28.9683 64.3864 29.8444 62.7038 30.9352C61.0211 32.0261 56.479 36.2243 56.7071 35.388C56.9352 34.5517 56.0691 28.5287 56.0228 25.4709C55.9765 22.4132 55.841 20.1058 55.6592 18.1521C55.4774 16.1985 56.2046 11.2928 56.4327 10.3837C56.6608 9.47467 57.2526 9.0185 58.2972 8.47306C59.3418 7.92762 61.6029 7.70283 61.8409 6.79376C62.079 5.8847 60.7963 5.52108 60.4327 5.29298C60.0691 5.06489 59.2492 2.48975 59.2922 1.63027C59.3461 0.592575 59.1272 -0.441136 58.6575 -1.36799C58.1121 -2.45887 57.3352 -2.09524 57.3352 -2.09524C57.224 -2.7537 56.9589 -3.37662 56.5617 -3.91337C55.927 -4.72988 54.5187 -4.59434 54.5187 -4.59434C54.5187 -4.59434 54.2443 -6.09513 53.527 -6.54801C53.3081 -6.67757 53.0599 -6.74974 52.8057 -6.75783C52.5514 -6.76592 52.2992 -6.70967 52.0725 -6.59429C52.0725 -6.59429 50.3469 -8.18433 49.6659 -8.13805C48.9849 -8.09177 48.0295 -6.27695 47.9833 -5.68523C47.937 -5.09351 48.5386 0.103044 48.6642 2.22199C48.7899 4.34094 49.1667 7.76564 48.9948 8.65818C48.6643 9.98195 48.406 11.3227 48.2213 12.6746C47.8576 15.22 46.5684 22.5355 45.4048 26.3998C44.2411 30.2642 46.9485 37.1698 48.2675 39.7581C49.5865 42.3465 54.7204 50.5281 55.4014 52.7561C56.0823 54.9841 57.4906 62.4815 57.5831 65.4334C57.6757 68.3854 54.8559 75.5687 54.446 79.476C54.0361 83.3834 57.3088 89.3931 57.3088 91.2013C57.3088 93.0095 50.8559 100.335 49.8113 102.699C48.7667 105.062 52.0824 109.786 52.403 111.832C52.7237 113.878 54.2179 117.33 56.3997 119.604C58.5815 121.878 64.6277 128.86 65.3252 129.871C66.0227 130.883 68.0062 133.871 68.4128 135.418C68.8194 136.965 71.8541 138 72.5152 138C73.1764 138 76.3334 137.547 77.335 136.503C78.3366 135.458 78.016 133.729 78.016 133.729C78.3148 132.758 78.4674 131.747 78.4689 130.731C78.4259 129.276 76.9714 127.141 76.7433 126.321C76.5152 125.501 77.2424 124.731 77.378 123.957C77.5135 123.184 75.3449 119.329 75.3449 119.329C76.0692 118.496 76.9191 117.781 77.8639 117.211C79.1862 116.483 82.287 115.452 83.7415 113.878C85.1961 112.305 86.9547 109.878 88.4688 108.06C89.9828 106.242 90.1646 103.151 88.5878 100.91C87.0109 98.6689 79.6821 94.4277 79.4408 94.2988C79.1994 94.1698 84.2275 89.208 85.6192 84.4842C87.0109 79.7603 85.6489 74.8018 84.882 71.5225C84.1151 68.2433 83.5928 66.4648 84.4523 62.5112C85.3118 58.5576 87.3018 56.0122 89.1431 55.1825C90.9844 54.3528 97.2951 51.5462 100.3 49.6058C103.305 47.6653 104.472 46.3265 103.675 41.0837ZM72.1119 131.101C71.429 130.121 70.8011 129.103 70.2309 128.053C69.6921 126.942 69.2756 126.919 69.2756 126.919C69.9125 126.972 70.5527 126.972 71.1896 126.919C71.581 126.863 71.9784 126.863 72.3698 126.919C72.3315 127.405 72.4398 127.891 72.6805 128.314C73.0937 129.137 73.3416 129.448 73.3416 129.706C73.3416 129.964 72.1119 131.101 72.1119 131.101ZM69.2756 124.083V121.657C69.5983 122.117 69.96 122.548 70.3566 122.946C70.8227 123.359 71.4408 124.133 71.0805 124.288C70.7202 124.443 69.2756 124.083 69.2756 124.083ZM73.0937 110.305C71.7926 110.94 70.5883 111.757 69.5169 112.731C68.6045 113.607 67.8806 114.225 67.8806 114.225C67.8806 114.225 65.5665 112.936 65.0442 113.234C64.5219 113.531 64.7831 114.473 65.1467 114.731C65.4377 114.972 65.6976 115.249 65.9202 115.554C65.9202 115.554 65.6624 117.154 65.3021 116.896C64.9417 116.639 63.3913 114.163 62.4095 112.202C61.4277 110.242 60.9153 109.363 60.9153 109.363C60.9153 109.363 64.3732 107.763 64.5285 105.065C64.5285 105.065 66.2806 106.408 67.2095 106.358C67.6218 106.319 68.0368 106.319 68.4491 106.358C68.4491 106.358 69.7913 106.722 70.3566 106.358C70.9218 105.994 71.6987 106.424 72.0623 106.52C72.426 106.616 71.7516 106.46 72.9384 107.234C74.1251 108.007 74.5086 108.265 74.5086 108.265C74.5086 108.265 74.2805 109.726 73.0937 110.305Z" fill="#E4DAC0"/>
</g>
<defs>
<clipPath id="clip0_262_867">
<rect width="151" height="191" fill="white" transform="translate(0 -39)"/>
</clipPath>
</defs>
</svg>
