<svg width="78" height="78" viewBox="0 0 78 78" fill="none" xmlns="http://www.w3.org/2000/svg">
<g clip-path="url(#clip0_236_172)">
<path d="M0.30074 -20C0.30074 -20 11.7987 -12.1167 17.6412 -8.77888C23.4838 -5.44105 24.9293 -3.21302 26.7306 -1.68325C28.9098 0.172039 38.694 4.8541 43.4285 5.59622C48.1629 6.33834 55.7647 5.22517 59.2425 3.4171C62.7204 1.60904 76.5931 -2.42536 76.5931 -2.42536L77.0485 0.54141C77.0485 0.54141 68.4247 2.25839 64.4357 4.11199C60.4468 5.96559 51.7302 8.79575 46.8608 8.84297C41.9914 8.8902 31.5123 5.03964 28.0799 2.48946C24.6476 -0.0607185 17.8268 -5.67887 14.3016 -7.61848C10.7765 -9.5581 0.302424 -16.3366 0.0662924 -16.8949C-0.169839 -17.4532 0.30074 -19.7706 0.30074 -19.7706" fill="#E4DAC0"/>
<path d="M52.9027 20.8603C52.4946 18.187 50.6038 16.2946 49.8988 15.1679C49.1938 14.0412 47.7416 11.2735 47.6792 10.9294C47.6167 10.3194 47.6429 9.70362 47.7567 9.10111C47.8816 8.42646 48.4921 7.6776 48.6793 7.16149C48.8666 6.64539 48.7417 5.94206 48.7586 5.77003C48.7755 5.59799 48.0232 4.65854 47.6319 4.69058C47.2406 4.72263 47.0686 5.27078 47.0686 5.27078C47.0686 5.27078 46.7717 4.7648 46.2877 4.79179C46.144 4.79941 46.0034 4.8359 45.8741 4.89907C45.7449 4.96225 45.6297 5.05081 45.5354 5.15947C45.5354 5.15947 45.0986 4.47133 44.6297 4.54891C44.3008 4.6326 44.0024 4.80808 43.7695 5.0549C43.7355 4.89154 43.6601 4.73965 43.5506 4.61383C43.441 4.48801 43.3009 4.39247 43.1437 4.3364C42.6125 4.16773 41.9041 5.27585 41.9041 5.27585C41.9041 5.27585 42.4792 6.43625 42.6175 6.69093C42.7558 6.94561 43.9854 7.19692 43.8926 7.53424C43.7999 7.87157 43.4524 7.53424 43.1741 7.58146C42.8958 7.62869 42.4994 9.36591 42.572 9.90057C42.6445 10.4352 43.2213 10.7574 43.5452 11.3831C43.869 12.0088 44.1018 13.1001 44.7511 14.166C45.4005 15.232 46.259 17.853 46.3973 18.8262C46.5356 19.7994 46.4901 21.9802 46.4901 21.9802C46.4901 21.9802 45.0986 22.7914 44.1945 23.3008C43.2905 23.8102 41.2732 24.6805 41.2732 24.6805L41.4116 24.2858C41.5515 23.8928 41.7607 22.4086 41.6679 21.8048C41.5752 21.201 41.2969 21.1301 40.7639 21.3882C40.2309 21.6462 40.5547 20.8316 40.0437 18.3978C39.5326 15.964 37.0043 15.5727 35.3598 15.1257C33.7154 14.6788 32.8568 15.1257 31.9983 15.6823C31.1398 16.2389 28.8224 18.3809 28.9387 17.9542C29.0551 17.5275 28.6132 14.4545 28.5896 12.8943C28.566 11.3342 28.4968 10.1569 28.4041 9.16014C28.3113 8.16334 28.6824 5.66039 28.7988 5.19657C28.9151 4.73275 29.217 4.5 29.75 4.22171C30.283 3.94341 31.4367 3.82872 31.5581 3.3649C31.6796 2.90108 31.0251 2.71555 30.8396 2.59917C30.6541 2.4828 30.2358 1.16891 30.2577 0.730392C30.2852 0.20094 30.1735 -0.326478 29.9339 -0.799379C29.6556 -1.35597 29.2592 -1.17043 29.2592 -1.17043C29.2025 -1.50639 29.0672 -1.82421 28.8645 -2.09808C28.5407 -2.51467 27.8222 -2.44552 27.8222 -2.44552C27.8222 -2.44552 27.6822 -3.21125 27.3162 -3.44232C27.2045 -3.50842 27.0779 -3.54525 26.9482 -3.54937C26.8184 -3.5535 26.6897 -3.5248 26.5741 -3.46593C26.5741 -3.46593 25.6936 -4.2772 25.3462 -4.25358C24.9987 -4.22997 24.5113 -3.30402 24.4877 -3.00211C24.4641 -2.7002 24.771 -0.0488281 24.8351 1.0323C24.8992 2.11343 25.0915 3.86077 25.0038 4.31616C24.8351 4.99157 24.7034 5.67566 24.6091 6.3654C24.4236 7.6641 23.7658 11.3966 23.1721 13.3683C22.5784 15.3399 23.9597 18.8633 24.6327 20.1839C25.3057 21.5046 27.9251 25.6789 28.2725 26.8157C28.62 27.9525 29.3385 31.7778 29.3857 33.2839C29.4329 34.7901 27.9942 38.4551 27.7851 40.4487C27.5759 42.4423 29.2457 45.5086 29.2457 46.4312C29.2457 47.3538 25.9534 51.0913 25.4204 52.2973C24.8874 53.5032 26.5791 55.9134 26.7427 56.9574C26.9063 58.0014 27.6687 59.7623 28.7819 60.9227C29.8951 62.0831 32.98 65.6452 33.3359 66.1613C33.6917 66.6774 34.7037 68.2021 34.9112 68.9915C35.1186 69.7808 36.667 70.3087 37.0043 70.3087C37.3417 70.3087 38.9524 70.0777 39.4635 69.5447C39.9745 69.0117 39.8109 68.1296 39.8109 68.1296C39.9634 67.634 40.0413 67.1184 40.042 66.5998C40.0201 65.8577 39.2779 64.7682 39.1616 64.3499C39.0452 63.9316 39.4162 63.5386 39.4854 63.1439C39.5545 62.7493 38.4481 60.7827 38.4481 60.7827C38.8176 60.3576 39.2513 59.9928 39.7333 59.7015C40.408 59.3305 41.9901 58.8043 42.7322 58.0014C43.4743 57.1986 44.3716 55.9606 45.1441 55.033C45.9166 54.1053 46.0094 52.5283 45.2048 51.3848C44.4003 50.2413 40.661 48.0773 40.5379 48.0116C40.4147 47.9458 42.9801 45.4142 43.6902 43.004C44.4003 40.5938 43.7054 38.0638 43.3141 36.3907C42.9228 34.7176 42.6563 33.8102 43.0948 31.793C43.5334 29.7758 44.5487 28.4771 45.4882 28.0537C46.4277 27.6304 49.6475 26.1984 51.1806 25.2084C52.7138 24.2183 53.3092 23.5352 52.9027 20.8603ZM36.7986 66.7887C36.4501 66.2885 36.1297 65.7694 35.8388 65.2337C35.5639 64.667 35.3514 64.6552 35.3514 64.6552C35.6764 64.6822 36.003 64.6822 36.328 64.6552C36.5277 64.6266 36.7304 64.6266 36.9301 64.6552C36.9106 64.9029 36.9658 65.1508 37.0887 65.3669C37.2995 65.7869 37.426 65.9454 37.426 66.077C37.426 66.2085 36.7986 66.7887 36.7986 66.7887ZM35.3514 63.208V61.9701C35.5161 62.2047 35.7006 62.4248 35.9029 62.6278C36.1408 62.8387 36.4562 63.2333 36.2723 63.3126C36.0885 63.3919 35.3514 63.208 35.3514 63.208ZM37.2995 56.1782C36.6356 56.5023 36.0212 56.9192 35.4745 57.4162C35.009 57.8631 34.6396 58.1785 34.6396 58.1785C34.6396 58.1785 33.459 57.5207 33.1925 57.6725C32.926 57.8243 33.0592 58.305 33.2448 58.4366C33.3933 58.5596 33.5258 58.7007 33.6394 58.8565C33.6394 58.8565 33.5079 59.6729 33.324 59.5413C33.1402 59.4098 32.3492 58.1465 31.8482 57.1463C31.3473 56.1461 31.0859 55.6975 31.0859 55.6975C31.0859 55.6975 32.8501 54.8812 32.9294 53.5049C32.9294 53.5049 33.8233 54.1897 34.2972 54.1644C34.5076 54.1446 34.7194 54.1446 34.9297 54.1644C34.9297 54.1644 35.6145 54.3499 35.9029 54.1644C36.1914 53.9788 36.5877 54.1981 36.7733 54.247C36.9588 54.2959 36.6147 54.2166 37.2202 54.6113C37.8257 55.006 38.0214 55.1375 38.0214 55.1375C38.0214 55.1375 37.905 55.883 37.2995 56.1782Z" fill="#E4DAC0"/>
</g>
<defs>
<clipPath id="clip0_236_172">
<rect width="77.043" height="97.4517" fill="white" transform="translate(0 -20)"/>
</clipPath>
</defs>
</svg>
