<svg width="55" height="54" viewBox="0 0 55 54" fill="none" xmlns="http://www.w3.org/2000/svg">
<g clip-path="url(#clip0_236_253)">
<path d="M27.4964 42.5467C27.4964 42.5467 28.3131 38.6793 28.9802 37.4818C29.8015 35.9042 30.4809 34.2573 31.0104 32.5603C31.0104 32.5603 30.2915 33.9009 29.331 34.2218C29.331 34.2218 31.2865 31.4144 31.5453 29.1741C31.2436 29.4634 30.8564 29.6482 30.4411 29.7013C30.4411 29.7013 31.9594 27.4095 32.0284 25.2667C31.7284 25.756 31.319 26.1697 30.8321 26.4756C31.7949 24.9229 32.3268 23.1435 32.3735 21.3191C32.1989 21.7656 31.868 22.134 31.4418 22.3561C32.0627 20.7759 32.2992 19.0717 32.132 17.383C31.9466 17.7039 31.7005 17.9861 31.4073 18.2137C31.7869 16.5622 31.8609 14.8555 31.6258 13.1775C31.5391 13.6852 31.3166 14.1603 30.9817 14.5526C31.221 12.9843 31.1821 11.3864 30.8667 9.83155C30.7494 10.2834 30.5177 10.6976 30.1937 11.0347C30.3182 9.42339 30.241 7.80287 29.9637 6.21054C29.9637 6.21054 29.6704 8.10699 29.1355 8.10699C29.3586 7.62071 29.46 7.08778 29.4309 6.55391C29.4019 6.02003 29.2433 5.50114 28.9687 5.04173C28.1003 3.56354 27.5826 0.675899 27.5251 0.0055542C27.4734 0.675899 26.95 3.56354 26.0873 5.04173C25.8128 5.50114 25.6542 6.02003 25.6251 6.55391C25.5961 7.08778 25.6974 7.62071 25.9205 8.10699C25.3856 8.10699 25.0923 6.21054 25.0923 6.21054C24.8151 7.80287 24.7378 9.42339 24.8623 11.0347C24.5383 10.6976 24.3066 10.2834 24.1894 9.83155C23.8739 11.3864 23.835 12.9843 24.0743 14.5526C23.7291 14.1635 23.4965 13.6882 23.4014 13.1775C23.1541 14.8613 23.2184 16.576 23.5912 18.2366C23.298 18.009 23.0519 17.7269 22.8666 17.4059C22.6993 19.0946 22.9358 20.7988 23.5567 22.379C23.1305 22.1569 22.7996 21.7885 22.625 21.342C22.6717 23.1664 23.2036 24.9458 24.1664 26.4985C23.6874 26.1827 23.2878 25.7612 22.9988 25.2667C23.0678 27.3808 24.5862 29.7013 24.5862 29.7013C24.1708 29.6482 23.7837 29.4634 23.4819 29.1741C23.7408 31.4144 25.6962 34.2218 25.6962 34.2218C24.73 33.9009 24.0168 32.5603 24.0168 32.5603C24.5464 34.2573 25.2258 35.9042 26.047 37.4818C26.6854 38.6793 27.4964 42.5467 27.4964 42.5467Z" fill="#008B00"/>
<path d="M27.4973 42.5468C27.4973 42.5468 25.5246 39.5389 25.1968 38.3414C24.7056 36.7976 24.0782 35.3002 23.3219 33.8667C23.3219 33.8667 23.7245 35.1902 23.3219 36.0095C23.3219 36.0095 22.7467 32.95 21.4814 31.3457C21.4748 31.7238 21.3457 32.0896 21.1134 32.3885C21.1134 32.3885 20.5957 29.9248 19.2729 28.5211C19.3919 29.028 19.3919 29.5554 19.2729 30.0624C18.8904 28.4492 18.0846 26.9663 16.9379 25.7653C17.1179 26.1639 17.1445 26.6146 17.0127 27.0315C16.3889 25.6167 15.4392 24.3683 14.2405 23.3875C14.3305 23.7118 14.3559 24.0505 14.3153 24.3845C13.478 23.0792 12.4101 21.9358 11.1636 21.0098C11.438 21.3901 11.6031 21.8378 11.6409 22.3047C10.7803 21.1423 9.72128 20.1397 8.51219 19.3426C8.72984 19.7074 8.85058 20.1215 8.86302 20.5457C7.90087 19.4296 6.8036 18.4366 5.59627 17.5894C5.59627 17.5894 6.63151 18.9988 6.28643 19.3426C6.1152 18.8857 5.83525 18.4771 5.47062 18.1518C5.10598 17.8265 4.66754 17.5941 4.19294 17.4748C2.68034 17.0794 0.483328 15.5554 0.0117188 15.183C0.414312 15.6528 1.94417 17.8414 2.31225 19.3483C2.43209 19.8211 2.6653 20.2579 2.99187 20.6211C3.31844 20.9844 3.72861 21.2632 4.18719 21.4338C3.84211 21.7776 2.42728 20.7405 2.42728 20.7405C3.27674 21.9458 4.27365 23.0409 5.39497 24.0006C4.96911 23.9882 4.55344 23.8679 4.18719 23.6511C4.98734 24.8556 5.9938 25.9106 7.16063 26.7679C6.69199 26.7302 6.24256 26.5658 5.86082 26.2924C6.79035 27.5342 7.93807 28.598 9.24836 29.4321C8.9131 29.4726 8.57314 29.4473 8.24763 29.3576C9.24238 30.5422 10.5034 31.4766 11.9285 32.0848C11.5081 32.2165 11.0538 32.19 10.6517 32.0104C11.8573 33.1527 13.3459 33.9555 14.9652 34.3365C14.4563 34.455 13.9269 34.455 13.4181 34.3365C14.8272 35.6543 17.3002 36.1699 17.3002 36.1699C17.0001 36.4014 16.633 36.53 16.2535 36.5366C17.8639 37.8143 20.9351 38.37 20.9351 38.37C20.1126 38.7768 18.7841 38.37 18.7841 38.37C20.2231 39.1235 21.7262 39.7485 23.2759 40.2379C24.4779 40.5816 27.4973 42.5468 27.4973 42.5468Z" fill="#008B00"/>
<path d="M27.4961 42.5469C27.4961 42.5469 30.5213 40.5817 31.7233 40.2551C33.2769 39.7664 34.7839 39.1414 36.2266 38.3873C36.2266 38.3873 34.8981 38.7884 34.0756 38.3873C34.0756 38.3873 37.1468 37.8144 38.7572 36.5539C38.376 36.5469 38.0072 36.4184 37.7047 36.1872C37.7047 36.1872 40.1835 35.6716 41.5926 34.3538C41.0834 34.4695 40.5547 34.4695 40.0455 34.3538C41.6637 33.9699 43.1516 33.1675 44.359 32.0276C43.9569 32.2073 43.5026 32.2338 43.0822 32.1021C44.5046 31.4817 45.7598 30.5355 46.7458 29.3405C46.4203 29.4302 46.0803 29.4555 45.7451 29.415C47.0554 28.5809 48.2031 27.5171 49.1326 26.2753C48.7509 26.5487 48.3014 26.7131 47.8328 26.7508C48.9996 25.8935 50.0061 24.8385 50.8062 23.634C50.4377 23.8504 50.0203 23.9706 49.5927 23.9835C50.715 23.0231 51.7138 21.9281 52.5662 20.7235C52.5662 20.7235 51.1513 21.7605 50.8062 21.4167C51.2648 21.2461 51.675 20.9673 52.0016 20.604C52.3281 20.2408 52.5613 19.804 52.6812 19.3312C53.078 17.8244 54.6079 15.6357 54.9817 15.1659C54.5101 15.5612 52.3131 17.091 50.8005 17.4577C50.3259 17.577 49.8875 17.8094 49.5228 18.1347C49.1582 18.46 48.8782 18.8686 48.707 19.3255C48.3619 18.9817 49.3972 17.5723 49.3972 17.5723C48.1898 18.4195 47.0926 19.4125 46.1304 20.5287C46.1429 20.1044 46.2636 19.6903 46.4812 19.3255C45.2722 20.1226 44.2131 21.1252 43.3525 22.2876C43.3903 21.8207 43.5554 21.373 43.8299 20.9927C42.5814 21.9166 41.5132 23.0603 40.6781 24.3674C40.6375 24.0334 40.6629 23.6947 40.7529 23.3705C39.5543 24.3512 38.6045 25.5996 37.9808 27.0144C37.8489 26.5975 37.8756 26.1468 38.0555 25.7482C36.9088 26.9492 36.103 28.4321 35.7205 30.0453C35.6016 29.5383 35.6016 29.0109 35.7205 28.504C34.3977 29.9077 33.8801 32.3714 33.8801 32.3714C33.6475 32.0722 33.5165 31.707 33.5062 31.3286C32.2237 32.9329 31.6716 35.9924 31.6716 35.9924C31.2632 35.1731 31.6716 33.8496 31.6716 33.8496C30.9152 35.2831 30.2878 36.7805 29.7966 38.3243C29.4746 39.5332 27.4961 42.5469 27.4961 42.5469Z" fill="#008B00"/>
<path d="M27.4961 42.5469C28.6152 42.7655 29.7124 43.0838 30.7744 43.498C31.7937 44.0246 32.8581 44.4599 33.9548 44.7986C33.9548 44.7986 33.0864 44.3402 32.8793 43.7272C32.8793 43.7272 34.6968 44.9762 36.1403 45.1423C35.953 44.9484 35.8339 44.6991 35.801 44.4319C36.668 44.9888 37.6519 45.3397 38.6767 45.4575C38.3635 45.2626 38.0981 45.0003 37.9003 44.6897C38.8996 45.3044 40.0446 45.6445 41.2188 45.6752C40.9331 45.5702 40.6944 45.367 40.5459 45.1022C41.5669 45.5026 42.6688 45.6558 43.7609 45.5491C43.5545 45.4299 43.3729 45.2723 43.226 45.085C44.2983 45.3241 45.4056 45.3649 46.4927 45.2054C46.1655 45.1502 45.8594 45.0076 45.607 44.7928C46.6216 44.9455 47.6551 44.9203 48.661 44.7184C48.3669 44.646 48.0972 44.4978 47.8788 44.2886C48.9201 44.3691 49.9673 44.3191 50.996 44.1397C50.996 44.1397 49.771 43.9506 49.771 43.6068C50.0856 43.7503 50.4303 43.8159 50.7758 43.7979C51.1213 43.78 51.4573 43.679 51.7552 43.5037C52.7834 43.0227 53.8825 42.7094 55.0105 42.5755C53.8805 42.438 52.7808 42.1167 51.7552 41.6245C51.4573 41.4491 51.1213 41.3482 50.7758 41.3303C50.4303 41.3123 50.0856 41.3779 49.771 41.5213C49.771 41.1718 50.996 40.9885 50.996 40.9885C49.9673 40.8091 48.9201 40.7591 47.8788 40.8395C48.0972 40.6304 48.3669 40.4822 48.661 40.4098C47.6556 40.2042 46.6214 40.179 45.607 40.3353C45.8594 40.1205 46.1655 39.978 46.4927 39.9228C45.4056 39.7633 44.2983 39.8041 43.226 40.0431C43.3709 39.854 43.5529 39.6961 43.7609 39.579C42.6693 39.4725 41.5679 39.6236 40.5459 40.0202C40.6948 39.7557 40.9333 39.5526 41.2188 39.4473C40.0446 39.478 38.8996 39.818 37.9003 40.4327C38.0981 40.1222 38.3635 39.8598 38.6767 39.665C37.6526 39.782 36.6689 40.1308 35.801 40.6848C35.8351 40.4197 35.9541 40.1726 36.1403 39.9801C34.6968 40.1405 32.8793 41.3953 32.8793 41.3953C33.1187 40.935 33.4941 40.5591 33.9548 40.3181C32.8584 40.66 31.7941 41.0972 30.7744 41.6245C29.7108 42.0269 28.6138 42.3356 27.4961 42.5469Z" fill="#008B00"/>
<path d="M27.4961 42.5468C27.8718 43.1032 28.1971 43.6919 28.4681 44.3058C28.6738 44.9516 28.9355 45.5785 29.2502 46.1793C29.1576 45.8865 29.1576 45.5725 29.2502 45.2798C29.3745 45.9746 29.6344 46.6383 30.0152 47.2335C30.0204 47.0741 30.0746 46.9201 30.1705 46.7923C30.3012 47.3838 30.5646 47.9382 30.9411 48.4138C30.8917 48.2008 30.8917 47.9793 30.9411 47.7663C31.1017 48.4416 31.439 49.0624 31.9189 49.5654C31.854 49.3937 31.854 49.2043 31.9189 49.0325C32.1749 49.6246 32.5693 50.1471 33.0691 50.5566C33.0321 50.4204 33.0224 50.2783 33.0404 50.1383C33.3802 50.6872 33.8166 51.1704 34.3287 51.565C34.2093 51.3968 34.1414 51.1978 34.1331 50.992C34.4923 51.4774 34.9342 51.8963 35.4387 52.2296C35.3487 52.0763 35.2992 51.9029 35.2949 51.7254C35.6956 52.1929 36.1536 52.6087 36.658 52.9629C36.658 52.9629 36.2266 52.39 36.3704 52.2296C36.4413 52.4206 36.558 52.5915 36.7104 52.7273C36.8628 52.8631 37.0462 52.9597 37.2446 53.0088C37.868 53.2402 38.4504 53.569 38.97 53.9828C38.5547 53.466 38.2265 52.8855 37.998 52.2639C37.9469 52.0663 37.8485 51.8838 37.7113 51.7322C37.5741 51.5806 37.4022 51.4642 37.2101 51.3931C37.3539 51.2498 37.9463 51.6795 37.9463 51.6795C37.5907 51.1771 37.1733 50.7209 36.704 50.3217C36.8821 50.326 37.0563 50.3752 37.2101 50.4649C36.8755 49.9623 36.4551 49.5221 35.9678 49.1643C36.1645 49.1779 36.3536 49.2453 36.5142 49.3591C36.1248 48.8393 35.6433 48.3946 35.0936 48.0471C35.2344 48.0296 35.3774 48.0413 35.5134 48.0815C35.1024 47.5835 34.5779 47.1906 33.9836 46.9356C34.1554 46.8676 34.3467 46.8676 34.5185 46.9356C34.0135 46.4576 33.3904 46.1215 32.7125 45.9616C32.9264 45.9124 33.1486 45.9124 33.3625 45.9616C32.8851 45.5865 32.3286 45.324 31.7348 45.1938C31.8631 45.0983 32.0176 45.0443 32.1777 45.0391C31.5807 44.6589 30.9142 44.3999 30.2165 44.2771C30.5103 44.1848 30.8256 44.1848 31.1194 44.2771C30.5239 43.9812 29.9044 43.7359 29.2675 43.5437C28.6479 43.2657 28.055 42.932 27.4961 42.5468Z" fill="#008B00"/>
<path d="M27.4953 42.5468C26.3781 42.7656 25.2828 43.0839 24.2228 43.4979C23.2034 44.0245 22.1391 44.4598 21.0423 44.7985C21.0423 44.7985 21.9107 44.3401 22.112 43.727C22.112 43.727 20.3004 44.9761 18.8568 45.1422C19.0441 44.9482 19.1632 44.6989 19.1961 44.4318C18.3291 44.9887 17.3452 45.3396 16.3204 45.4573C16.6337 45.2625 16.899 45.0002 17.0969 44.6896C16.0975 45.3043 14.9525 45.6443 13.7784 45.6751C14.0641 45.5701 14.3027 45.3669 14.4513 45.1021C13.4302 45.5025 12.3283 45.6557 11.2363 45.549C11.4427 45.4297 11.6242 45.2722 11.7711 45.0849C10.6988 45.324 9.59151 45.3648 8.50438 45.2052C8.83164 45.1501 9.13774 45.0075 9.39008 44.7927C8.37552 44.9453 7.34198 44.9201 6.33613 44.7182C6.6302 44.6459 6.89996 44.4977 7.11831 44.2885C6.08183 44.36 5.04045 44.3023 4.01834 44.1166C4.01834 44.1166 5.24338 43.9276 5.24338 43.5838C4.92881 43.7273 4.58406 43.7928 4.23856 43.7749C3.89306 43.7569 3.55704 43.656 3.25916 43.4807C2.23094 42.9997 1.13187 42.6863 0.00390625 42.5525C1.13224 42.424 2.23185 42.1124 3.25916 41.6301C3.55704 41.4548 3.89306 41.3538 4.23856 41.3359C4.58406 41.3179 4.92881 41.3835 5.24338 41.5269C5.24338 41.1774 4.01834 40.9941 4.01834 40.9941C5.04706 40.8147 6.09432 40.7647 7.13556 40.8451C6.91722 40.636 6.64745 40.4878 6.35338 40.4154C7.35881 40.2098 8.39301 40.1846 9.40734 40.3409C9.15499 40.1262 8.84889 39.9836 8.52163 39.9284C9.60876 39.7689 10.7161 39.8097 11.7884 40.0487C11.6434 39.8596 11.4615 39.7017 11.2535 39.5847C12.3451 39.4781 13.4465 39.6293 14.4685 40.0258C14.3196 39.7613 14.0811 39.5583 13.7956 39.4529C14.9697 39.4836 16.1148 39.8236 17.1141 40.4383C16.9162 40.1278 16.6509 39.8654 16.3377 39.6706C17.3618 39.7876 18.3454 40.1365 19.2134 40.6904C19.1792 40.4253 19.0603 40.1782 18.874 39.9857C20.3176 40.1461 22.1293 41.4009 22.1293 41.4009C21.928 40.7878 21.0595 40.3238 21.0595 40.3238C22.156 40.6657 23.2203 41.1028 24.24 41.6301C25.2963 42.0294 26.3855 42.3362 27.4953 42.5468Z" fill="#008B00"/>
<path d="M27.498 42.5468C27.1247 43.1037 26.8013 43.6923 26.5318 44.3058C26.326 44.9516 26.0643 45.5785 25.7496 46.1793C25.8423 45.8865 25.8423 45.5725 25.7496 45.2798C25.6253 45.9746 25.3654 46.6383 24.9847 47.2335C24.9795 47.0741 24.9252 46.9201 24.8294 46.7923C24.6987 47.3838 24.4352 47.9382 24.0587 48.4138C24.1052 48.2004 24.1052 47.9797 24.0587 47.7663C23.8982 48.4416 23.5608 49.0624 23.081 49.5654C23.1552 49.3971 23.1655 49.2077 23.1097 49.0325C22.8537 49.6246 22.4593 50.1471 21.9595 50.5566C21.9869 50.4185 21.9869 50.2764 21.9595 50.1383C21.6282 50.6848 21.2017 51.1679 20.6999 51.565C20.8193 51.3968 20.8872 51.1978 20.8955 50.992C20.5363 51.4774 20.0944 51.8963 19.5899 52.2296C19.6799 52.0763 19.7294 51.9029 19.7337 51.7254C19.333 52.1929 18.875 52.6087 18.3706 52.9629C18.3706 52.9629 18.802 52.39 18.6582 52.2296C18.5873 52.4206 18.4706 52.5915 18.3182 52.7273C18.1658 52.8631 17.9824 52.9597 17.784 53.0088C17.1606 53.2402 16.5782 53.569 16.0586 53.9828C16.4739 53.466 16.8021 52.8855 17.0306 52.2639C17.0817 52.0663 17.1801 51.8838 17.3173 51.7322C17.4545 51.5806 17.6264 51.4642 17.8185 51.3931C17.6747 51.2498 17.0823 51.6795 17.0823 51.6795C17.4361 51.1756 17.8536 50.7192 18.3246 50.3217C18.1465 50.326 17.9723 50.3752 17.8185 50.4649C18.1531 49.9623 18.5735 49.5221 19.0608 49.1643C18.8641 49.1779 18.675 49.2453 18.5144 49.3591C18.9038 48.8393 19.3853 48.3946 19.935 48.0471C19.7942 48.0296 19.6512 48.0413 19.5152 48.0815C19.9262 47.5835 20.4507 47.1906 21.045 46.9356C20.8732 46.8676 20.6819 46.8676 20.5101 46.9356C21.0144 46.4567 21.6378 46.1204 22.316 45.9616C22.1022 45.9124 21.88 45.9124 21.6661 45.9616C22.1426 45.5849 22.6994 45.3223 23.2938 45.1938C23.1655 45.0983 23.011 45.0443 22.8509 45.0391C23.4479 44.6589 24.1144 44.3999 24.8121 44.2771C24.5183 44.1848 24.203 44.1848 23.9092 44.2771C24.5106 43.9643 25.1379 43.7036 25.7841 43.4979C26.3825 43.232 26.9561 42.9137 27.498 42.5468Z" fill="#008B00"/>
<path d="M27.6519 40.5988L27.8877 53.9999H27.1055L27.3413 40.5988H27.6519Z" fill="#008B00"/>
</g>
<defs>
<clipPath id="clip0_236_253">
<rect width="55" height="54" fill="white"/>
</clipPath>
</defs>
</svg>
