<svg width="96" height="74" viewBox="0 0 96 74" fill="none" xmlns="http://www.w3.org/2000/svg">
<g clip-path="url(#clip0_324_546)">
<path d="M47.8098 74.2598C47.8098 74.2598 49.2298 67.5098 50.3898 65.4198C51.8178 62.6662 52.999 59.7917 53.9198 56.8298C53.9198 56.8298 52.6698 59.1698 50.9998 59.7298C50.9998 59.7298 54.3998 54.8298 54.8498 50.9198C54.3252 51.4247 53.652 51.7472 52.9298 51.8398C52.9298 51.8398 55.5698 47.8398 55.6898 44.0998C55.1682 44.9538 54.4564 45.6759 53.6098 46.2098C55.2838 43.4997 56.2086 40.394 56.2898 37.2098C55.9863 37.9891 55.4108 38.632 54.6698 39.0198C55.7494 36.2617 56.1606 33.2873 55.8698 30.3398C55.5475 30.9 55.1196 31.3924 54.6098 31.7898C55.2698 28.9072 55.3986 25.9285 54.9898 22.9998C54.839 23.8859 54.4521 24.715 53.8698 25.3998C54.286 22.6626 54.2183 19.8736 53.6698 17.1598C53.4659 17.9483 53.0631 18.6714 52.4998 19.2598C52.7163 16.4474 52.5819 13.619 52.0998 10.8398C52.0998 10.8398 51.5898 14.1498 50.6598 14.1498C51.0477 13.301 51.224 12.3709 51.1735 11.4391C51.123 10.5073 50.8472 9.6016 50.3698 8.79976C48.8598 6.21976 47.9598 1.17977 47.8598 0.00976562C47.7698 1.17977 46.8598 6.21976 45.3598 8.79976C44.8825 9.6016 44.6067 10.5073 44.5562 11.4391C44.5057 12.3709 44.682 13.301 45.0698 14.1498C44.1398 14.1498 43.6298 10.8398 43.6298 10.8398C43.1477 13.619 43.0134 16.4474 43.2298 19.2598C42.6666 18.6714 42.2638 17.9483 42.0598 17.1598C41.5114 19.8736 41.4437 22.6626 41.8598 25.3998C41.2595 24.7206 40.8551 23.891 40.6898 22.9998C40.2597 25.9386 40.3716 28.9313 41.0198 31.8298C40.5101 31.4324 40.0822 30.94 39.7598 30.3798C39.469 33.3273 39.8803 36.3017 40.9598 39.0598C40.2188 38.672 39.6434 38.0291 39.3398 37.2498C39.4211 40.434 40.3459 43.5397 42.0198 46.2498C41.187 45.6986 40.4923 44.9629 39.9898 44.0998C40.1098 47.7898 42.7498 51.8398 42.7498 51.8398C42.0276 51.7472 41.3544 51.4247 40.8298 50.9198C41.2798 54.8298 44.6798 59.7298 44.6798 59.7298C42.9998 59.1698 41.7598 56.8298 41.7598 56.8298C42.6806 59.7917 43.8619 62.6662 45.2898 65.4198C46.3998 67.5098 47.8098 74.2598 47.8098 74.2598Z" fill="#008B00"/>
<path d="M47.8095 74.26C47.8095 74.26 44.3795 69.01 43.8095 66.92C42.9555 64.2256 41.8645 61.612 40.5495 59.11C40.5495 59.11 41.2495 61.42 40.5495 62.85C40.5495 62.85 39.5495 57.51 37.3495 54.71C37.338 55.3698 37.1135 56.0082 36.7095 56.53C36.7095 56.53 35.8095 52.23 33.5095 49.78C33.7163 50.6647 33.7163 51.5853 33.5095 52.47C32.8444 49.6545 31.4433 47.0662 29.4495 44.97C29.7625 45.6658 29.8087 46.4523 29.5795 47.18C28.495 44.7107 26.8437 42.5318 24.7595 40.82C24.916 41.386 24.9601 41.9771 24.8895 42.56C23.4336 40.2818 21.577 38.2862 19.4095 36.67C19.8868 37.3337 20.1738 38.1152 20.2395 38.93C18.7432 36.9012 16.9018 35.1512 14.7995 33.76C15.178 34.3968 15.3879 35.1195 15.4095 35.86C13.7366 33.912 11.8288 32.1788 9.72954 30.7C9.72954 30.7 11.5295 33.16 10.9295 33.76C10.6318 32.9627 10.1451 32.2495 9.51106 31.6817C8.87706 31.1138 8.11474 30.7084 7.28954 30.5C4.65954 29.81 0.839531 27.15 0.0195312 26.5C0.719531 27.32 3.37953 31.14 4.01953 33.77C4.22789 34.5952 4.63338 35.3575 5.20119 35.9915C5.76901 36.6255 6.4822 37.1123 7.27953 37.41C6.67953 38.01 4.21954 36.2 4.21954 36.2C5.69651 38.3036 7.42986 40.215 9.37953 41.89C8.63908 41.8684 7.91635 41.6584 7.27953 41.28C8.67077 43.3823 10.4207 45.2236 12.4495 46.72C11.6347 46.6542 10.8533 46.3672 10.1895 45.89C11.8057 48.0575 13.8013 49.9141 16.0795 51.37C15.4966 51.4406 14.9055 51.3964 14.3395 51.24C16.0691 53.3076 18.2618 54.9384 20.7395 56C20.0086 56.2299 19.2187 56.1836 18.5195 55.87C20.6158 57.8638 23.204 59.2649 26.0195 59.93C25.1348 60.1368 24.2143 60.1368 23.3295 59.93C25.7795 62.23 30.0795 63.13 30.0795 63.13C29.5577 63.534 28.9193 63.7585 28.2595 63.77C31.0595 66 36.3995 66.97 36.3995 66.97C34.9695 67.68 32.6595 66.97 32.6595 66.97C35.1616 68.285 37.7751 69.3759 40.4695 70.23C42.5595 70.83 47.8095 74.26 47.8095 74.26Z" fill="#008B00"/>
<path d="M47.8086 74.2597C47.8086 74.2597 53.0686 70.8297 55.1586 70.2597C57.8599 69.4068 60.4801 68.3158 62.9886 66.9997C62.9886 66.9997 60.6786 67.6997 59.2486 66.9997C59.2486 66.9997 64.5886 65.9997 67.3886 63.7997C66.7258 63.7875 66.0845 63.5632 65.5586 63.1597C65.5586 63.1597 69.8686 62.2597 72.3186 59.9597C71.4333 60.1616 70.5139 60.1616 69.6286 59.9597C72.4422 59.2897 75.0292 57.8892 77.1286 55.8997C76.4294 56.2133 75.6396 56.2596 74.9086 56.0297C77.3817 54.9468 79.5642 53.2954 81.2786 51.2097C80.7126 51.3662 80.1215 51.4103 79.5386 51.3397C81.8168 49.8838 83.8124 48.0272 85.4286 45.8597C84.7649 46.337 83.9834 46.624 83.1686 46.6897C85.1974 45.1934 86.9474 43.352 88.3386 41.2497C87.6978 41.6274 86.972 41.8372 86.2286 41.8597C88.18 40.1835 89.9165 38.2723 91.3986 36.1697C91.3986 36.1697 88.9386 37.9797 88.3386 37.3797C89.1359 37.082 89.8491 36.5953 90.4169 35.9613C90.9847 35.3273 91.3902 34.5649 91.5986 33.7397C92.2886 31.1097 94.9486 27.2897 95.5986 26.4697C94.7786 27.1597 90.9586 29.8297 88.3286 30.4697C87.5034 30.6781 86.7411 31.0836 86.1071 31.6514C85.4731 32.2192 84.9863 32.9324 84.6886 33.7297C84.0886 33.1297 85.8886 30.6697 85.8886 30.6697C83.7894 32.1485 81.8815 33.8817 80.2086 35.8297C80.2302 35.0893 80.4402 34.3665 80.8186 33.7297C78.7163 35.121 76.875 36.8709 75.3786 38.8997C75.4444 38.0849 75.7313 37.3035 76.2086 36.6397C74.0378 38.2523 72.1806 40.2485 70.7286 42.5297C70.658 41.9468 70.7021 41.3557 70.8586 40.7897C68.7744 42.5015 67.1231 44.6804 66.0386 47.1497C65.8094 46.4221 65.8556 45.6355 66.1686 44.9397C64.1748 47.036 62.7737 49.6242 62.1086 52.4397C61.9018 51.555 61.9018 50.6345 62.1086 49.7497C59.8086 52.1997 58.9086 56.4997 58.9086 56.4997C58.5041 55.9775 58.2765 55.34 58.2586 54.6797C56.0286 57.4797 55.0686 62.8197 55.0686 62.8197C54.3586 61.3897 55.0686 59.0797 55.0686 59.0797C53.7536 61.5818 52.6627 64.1953 51.8086 66.8897C51.2486 68.9997 47.8086 74.2597 47.8086 74.2597Z" fill="#008B00"/>
<path d="M47.8086 74.2596C49.7545 74.6412 51.6621 75.1968 53.5086 75.9196C55.281 76.8388 57.1316 77.5984 59.0386 78.1896C59.0386 78.1896 57.5286 77.3896 57.1686 76.3196C57.1686 76.3196 60.3286 78.4996 62.8386 78.7896C62.5129 78.451 62.3058 78.0159 62.2486 77.5496C63.756 78.5217 65.4667 79.1341 67.2486 79.3396C66.704 78.9996 66.2427 78.5417 65.8986 77.9996C67.6362 79.0725 69.6271 79.666 71.6686 79.7196C71.1718 79.5365 70.7569 79.1818 70.4986 78.7196C72.2739 79.4185 74.1898 79.6858 76.0886 79.4996C75.7297 79.2914 75.414 79.0165 75.1586 78.6896C77.0231 79.1069 78.9484 79.178 80.8386 78.8996C80.2696 78.8033 79.7373 78.5545 79.2986 78.1796C81.0626 78.446 82.8597 78.402 84.6086 78.0496C84.0973 77.9233 83.6282 77.6647 83.2486 77.2996C85.059 77.4401 86.8799 77.3527 88.6686 77.0396C88.6686 77.0396 86.5386 76.7096 86.5386 76.1096C87.0855 76.36 87.6849 76.4745 88.2857 76.4431C88.8864 76.4118 89.4707 76.2356 89.9886 75.9296C91.7764 75.0901 93.6874 74.5432 95.6486 74.3096C93.6838 74.0695 91.7718 73.5087 89.9886 72.6496C89.4707 72.3436 88.8864 72.1675 88.2857 72.1361C87.6849 72.1048 87.0855 72.2192 86.5386 72.4696C86.5386 71.8596 88.6686 71.5396 88.6686 71.5396C86.8799 71.2265 85.059 71.1392 83.2486 71.2796C83.6282 70.9146 84.0973 70.6559 84.6086 70.5296C82.8604 70.1707 81.0622 70.1267 79.2986 70.3996C79.7373 70.0247 80.2696 69.7759 80.8386 69.6796C78.9484 69.4012 77.0231 69.4724 75.1586 69.8896C75.4106 69.5595 75.727 69.2839 76.0886 69.0796C74.1906 68.8937 72.2756 69.1574 70.4986 69.8496C70.7575 69.388 71.1723 69.0335 71.6686 68.8496C69.6271 68.9032 67.6362 69.4967 65.8986 70.5696C66.2427 70.0276 66.704 69.5696 67.2486 69.2296C65.468 69.4338 63.7577 70.0427 62.2486 71.0096C62.3079 70.5468 62.5148 70.1155 62.8386 69.7796C60.3286 70.0596 57.1686 72.2496 57.1686 72.2496C57.5848 71.4463 58.2375 70.7901 59.0386 70.3696C57.1321 70.9664 55.2817 71.7293 53.5086 72.6496C51.6594 73.352 49.752 73.8908 47.8086 74.2596Z" fill="#008B00"/>
<path d="M47.8117 74.2604C45.8692 74.6423 43.9649 75.1979 42.1217 75.9203C40.3494 76.8395 38.4987 77.5992 36.5917 78.1904C36.5917 78.1904 38.1017 77.3904 38.4517 76.3204C38.4517 76.3204 35.3017 78.5004 32.7917 78.7904C33.1174 78.4518 33.3245 78.0167 33.3817 77.5504C31.8743 78.5224 30.1636 79.1348 28.3817 79.3403C28.9263 79.0003 29.3877 78.5424 29.7317 78.0004C27.9941 79.0733 26.0032 79.6668 23.9617 79.7204C24.4585 79.5372 24.8734 79.1825 25.1317 78.7204C23.3564 79.4192 21.4405 79.6866 19.5417 79.5004C19.9006 79.2922 20.2163 79.0172 20.4717 78.6904C18.6072 79.1076 16.6819 79.1788 14.7917 78.9004C15.3607 78.8041 15.893 78.5552 16.3317 78.1804C14.5677 78.4467 12.7706 78.4027 11.0217 78.0504C11.533 77.9241 12.0021 77.6654 12.3817 77.3004C10.5796 77.4251 8.7689 77.3243 6.99172 77.0004C6.99172 77.0004 9.12173 76.6704 9.12173 76.0704C8.57477 76.3208 7.97536 76.4352 7.37463 76.4038C6.77389 76.3725 6.18965 76.1963 5.67172 75.8904C3.88393 75.0509 1.97293 74.5039 0.0117188 74.2703C1.97358 74.046 3.88551 73.5022 5.67172 72.6604C6.18965 72.3544 6.77389 72.1782 7.37463 72.1469C7.97536 72.1155 8.57477 72.2299 9.12173 72.4804C9.12173 71.8704 6.99172 71.5504 6.99172 71.5504C8.78039 71.2373 10.6013 71.1499 12.4117 71.2904C12.0321 70.9253 11.563 70.6666 11.0517 70.5404C12.7999 70.1815 14.5981 70.1375 16.3617 70.4104C15.923 70.0355 15.3907 69.7866 14.8217 69.6904C16.7119 69.4119 18.6372 69.4831 20.5017 69.9004C20.2497 69.5702 19.9333 69.2947 19.5717 69.0903C21.4697 68.9044 23.3847 69.1682 25.1617 69.8604C24.9028 69.3987 24.488 69.0443 23.9917 68.8604C26.0332 68.914 28.0241 69.5074 29.7617 70.5804C29.4177 70.0383 28.9563 69.5804 28.4117 69.2403C30.1923 69.4446 31.9026 70.0534 33.4117 71.0203C33.3524 70.5576 33.1455 70.1263 32.8217 69.7904C35.3317 70.0704 38.4817 72.2604 38.4817 72.2604C38.1317 71.1904 36.6217 70.3803 36.6217 70.3803C38.5282 70.9771 40.3787 71.74 42.1517 72.6604C43.9882 73.3574 45.8821 73.8927 47.8117 74.2604Z" fill="#008B00"/>
<path d="M48.0789 70.8604L48.4889 94.2504H47.1289L47.5389 70.8604H48.0789Z" fill="#008B00"/>
</g>
<defs>
<clipPath id="clip0_324_546">
<rect width="95.63" height="94.25" fill="white"/>
</clipPath>
</defs>
</svg>
