<svg width="100" height="100" viewBox="0 0 100 100" fill="none" xmlns="http://www.w3.org/2000/svg">
<g clip-path="url(#clip0_466_676)">
<path d="M40.3905 68.7073C40.3905 68.7073 43.7229 64.4461 45.2577 63.3745C47.2096 61.9283 49.0313 60.312 50.7014 58.5445C50.7014 58.5445 49.0171 59.761 47.6569 59.5805C47.6569 59.5805 51.7301 57.3023 53.4003 54.7058C52.8589 54.8805 52.277 54.8759 51.7407 54.6925C51.7407 54.6925 54.9712 52.7862 56.352 50.1957C55.6916 50.6172 54.9442 50.8804 54.168 50.9647C56.2766 49.6337 57.9993 47.7665 59.1604 45.5537C58.6782 45.9977 58.0534 46.2521 57.4016 46.2699C59.1118 44.7006 60.4305 42.749 61.2497 40.5749C60.8303 40.8582 60.3608 41.0574 59.867 41.1616C61.3275 39.3603 62.4505 37.3086 63.1807 35.107C62.7681 35.6786 62.2105 36.1289 61.5664 36.4104C62.8063 34.6275 63.7262 32.6416 64.2844 30.5432C63.8686 31.028 63.3365 31.3981 62.7392 31.6184C63.8657 29.7138 64.7528 27.6773 65.38 25.5557C65.38 25.5557 63.876 27.7094 63.2266 27.3894C63.7918 26.9256 64.2375 26.3317 64.5253 25.6586C64.8132 24.9855 64.9348 24.2533 64.8795 23.5248C64.72 21.1897 65.8395 17.3334 66.1754 16.4757C65.7068 17.2681 63.3235 20.5015 61.3815 21.8009C60.7701 22.2009 60.2635 22.7433 59.905 23.3816C59.5466 24.0199 59.3471 24.7351 59.3236 25.4658C58.6743 25.1458 59.4661 22.6411 59.4661 22.6411C58.1656 24.4309 57.0909 26.375 56.2667 28.4285C56.0775 27.8207 56.047 27.1732 56.1781 26.5482C54.854 28.2691 53.8395 30.2084 53.1808 32.2777C52.9972 31.5932 53.0025 30.8703 53.1962 30.1863C51.8767 32.1063 50.9169 34.2507 50.3644 36.5134C50.1462 36.0584 50.0183 35.5646 49.9875 35.0595C48.7622 37.0335 48.0178 39.2681 47.8151 41.5804C47.4322 41.0526 47.2534 40.4021 47.3117 39.7493C46.2641 42.018 45.8328 44.5217 46.0617 47.0047C45.6714 46.3302 45.4415 45.5735 45.39 44.7932C44.1941 47.4311 44.6328 51.1895 44.6328 51.1895C44.1607 50.8759 43.8025 50.4172 43.6113 49.8814C42.5695 52.7877 43.2441 57.4057 43.2441 57.4057C42.2653 56.4336 42.211 54.3602 42.211 54.3602C41.8268 56.7613 41.6547 59.1906 41.6967 61.6196C41.747 63.4723 40.3905 68.7073 40.3905 68.7073Z" fill="#008B00"/>
<path d="M40.3907 68.7075C40.3907 68.7075 39.8165 63.8328 40.1433 62.166C40.4814 59.9761 40.6261 57.7615 40.5756 55.5484C40.5756 55.5484 40.2632 57.4148 39.2786 58.1802C39.2786 58.1802 40.4323 54.0784 39.8672 51.351C39.6304 51.8114 39.2522 52.1834 38.7892 52.4115C38.7892 52.4115 39.652 49.076 38.8958 46.5605C38.7333 47.2542 38.4141 47.902 37.9629 48.4534C38.4749 46.2433 38.3943 43.9398 37.7291 41.7787C37.7063 42.376 37.4659 42.9454 37.0535 43.3786C37.1526 41.2677 36.7552 39.1662 35.8937 37.2445C35.8067 37.6966 35.6325 38.1278 35.381 38.5137C35.1546 36.4095 34.5503 34.3664 33.5975 32.4833C33.7005 33.1145 33.6299 33.7632 33.3932 34.3592C33.052 32.4166 32.3732 30.5516 31.3878 28.8492C31.4312 29.4275 31.3272 30.0083 31.0855 30.5368C30.593 28.5904 29.862 26.7142 28.9091 24.9513C28.9091 24.9513 29.3128 27.3018 28.6857 27.5175C28.7544 26.854 28.6619 26.1846 28.4161 25.5669C28.1704 24.9492 27.7787 24.4015 27.2748 23.9709C25.6778 22.5804 23.9331 19.3941 23.5859 18.6545C23.7903 19.4724 24.3228 23.0758 23.8576 25.1468C23.7169 25.7992 23.7356 26.4751 23.9122 27.1167C24.0888 27.7582 24.4179 28.3461 24.8714 28.83C24.2444 29.0457 23.1545 26.9256 23.1545 26.9256C23.4562 28.9141 24.0036 30.8556 24.784 32.7051C24.2745 32.4351 23.8427 32.0387 23.5293 31.5533C23.7716 33.5113 24.3549 35.4093 25.2525 37.1603C24.7064 36.8337 24.2603 36.3628 23.9624 35.7986C24.3392 37.88 25.0886 39.8732 26.1744 41.6816C25.7429 41.5307 25.3455 41.2962 25.0046 40.9914C25.4952 43.0415 26.4606 44.9435 27.8224 46.5432C27.2323 46.4534 26.6969 46.1491 26.3175 45.6878C27.0896 47.8121 28.4109 49.6887 30.1461 51.1256C29.4566 50.9666 28.8139 50.6499 28.2679 50.1999C29.1809 52.6615 31.8711 54.7744 31.8711 54.7744C31.3667 54.8792 30.8431 54.8175 30.3784 54.5985C31.5601 57.1312 34.9521 59.6514 34.9521 59.6514C33.7075 59.6589 32.3408 58.3644 32.3408 58.3644C33.6317 60.1507 35.0782 61.8177 36.6633 63.3459C37.9145 64.4873 40.3907 68.7075 40.3907 68.7075Z" fill="#008B00"/>
<path d="M40.3912 68.7076C40.3912 68.7076 45.2534 68.104 46.9104 68.422C49.0922 68.7513 51.3001 68.8853 53.508 68.8224C53.508 68.8224 51.6523 68.52 50.8966 67.5354C50.8966 67.5354 54.9719 68.6692 57.6899 68.0846C57.2314 67.848 56.8614 67.4694 56.6341 67.0045C56.6341 67.0045 59.9556 67.8543 62.4638 67.0789C61.7757 66.9163 61.1338 66.5999 60.5856 66.1532C62.7825 66.6499 65.0745 66.5547 67.2303 65.8771C66.6334 65.8572 66.0658 65.6179 65.6352 65.2046C67.7375 65.2936 69.8341 64.8825 71.7544 64.0048C71.305 63.9201 70.8769 63.7478 70.4944 63.4975C72.59 63.257 74.6273 62.6372 76.5074 61.6681C75.8785 61.7756 75.2333 61.7086 74.6416 61.4745C76.577 61.1196 78.4375 60.4261 80.138 59.4255C79.5596 59.4707 78.9801 59.3686 78.4532 59.1287C80.397 58.6206 82.2722 57.8733 84.0363 56.9037C84.0363 56.9037 81.6909 57.3309 81.4801 56.7022C82.14 56.7671 82.8068 56.6699 83.4231 56.4192C84.0395 56.1684 84.587 55.7715 85.0186 55.2626C86.4125 53.6493 89.5945 51.8765 90.3327 51.5232C89.5209 51.7265 85.9277 52.2909 83.8695 51.8363C83.221 51.6989 82.5482 51.7219 81.9086 51.9033C81.269 52.0847 80.6818 52.4191 80.1974 52.8777C79.9865 52.2491 82.0965 51.1374 82.0965 51.1374C80.1179 51.4556 78.1847 52.0187 76.3411 52.8139C76.613 52.3003 77.0102 51.864 77.4953 51.5461C75.545 51.8016 73.6524 52.3995 71.904 53.3122C72.2325 52.7614 72.7039 52.3103 73.2673 52.0075C71.1924 52.3952 69.2034 53.1608 67.3984 54.2665C67.5513 53.832 67.7871 53.4312 68.0926 53.0868C66.0438 53.5742 64.1352 54.5392 62.5215 55.9037C62.6139 55.3127 62.9189 54.7752 63.3787 54.3933C61.2597 55.1823 59.3838 56.5215 57.943 58.2738C58.1054 57.5801 58.4247 56.9324 58.8759 56.3809C56.4203 57.3135 54.3007 60.0297 54.3007 60.0297C54.1994 59.523 54.2615 58.9961 54.478 58.5253C51.9499 59.7283 49.4277 63.1556 49.4277 63.1556C49.4279 61.905 50.7247 60.5238 50.7247 60.5238C48.9389 61.832 47.2708 63.2957 45.74 64.8979C44.6173 66.1899 40.3912 68.7076 40.3912 68.7076Z" fill="#008B00"/>
<path d="M40.3894 68.7076C41.6157 69.6457 42.755 70.6931 43.7936 71.8371C44.7123 73.0938 45.741 74.2652 46.8675 75.3374C46.8675 75.3374 46.0906 74.2548 46.2103 73.378C46.2103 73.378 47.6607 75.9994 49.3127 77.0672C49.2027 76.7169 49.209 76.3394 49.3307 75.9916C50.0461 77.1943 51.0282 78.214 52.2011 78.9717C51.9387 78.5451 51.7754 78.0641 51.7232 77.5642C52.5643 78.9172 53.7486 80.0199 55.1554 80.7601C54.8721 80.4603 54.7053 80.0679 54.6853 79.6538C55.6825 80.7565 56.9275 81.6039 58.3178 82.1262C58.1395 81.8562 58.0144 81.5541 57.9494 81.2362C59.1065 82.1714 60.4261 82.884 61.8425 83.3385C61.4786 83.075 61.1932 82.7167 61.0169 82.3019C62.1562 83.0964 63.4262 83.6838 64.7695 84.0376C64.4563 83.7728 64.2185 83.4294 64.08 83.0419C65.2954 83.7637 66.5971 84.3288 67.9546 84.724C67.9546 84.724 66.5818 83.7588 66.7899 83.3366C67.0849 83.701 67.4638 83.9878 67.8941 84.1725C68.3244 84.3571 68.7934 84.4342 69.2612 84.3971C70.8006 84.4216 72.3246 84.6943 73.7749 85.2048C72.4864 84.3597 71.3458 83.3072 70.3987 82.089C70.1432 81.6955 69.7963 81.3705 69.3877 81.1417C68.9792 80.9129 68.521 80.7872 68.0522 80.7752C68.2638 80.3459 69.862 80.8537 69.862 80.8537C68.7217 80.0179 67.4806 79.3298 66.1678 78.8057C66.5595 78.6794 66.9767 78.6588 67.3775 78.7459C66.2813 77.8918 65.0411 77.2421 63.715 76.8272C64.1514 76.7144 64.6093 76.7225 65.04 76.8505C63.8167 76.0041 62.4478 75.3917 61.0012 75.0438C61.2917 74.8982 61.6082 74.8131 61.9315 74.7938C60.6708 74.0098 59.2422 73.5365 57.7614 73.4121C58.1023 73.1763 58.5148 73.0696 58.9251 73.111C57.4811 72.4462 55.8853 72.1788 54.2999 72.3358C54.7281 72.0728 55.209 71.9093 55.7072 71.8574C54.3931 71.3884 52.9878 71.2284 51.5988 71.3895C51.8007 71.0843 52.0948 70.8519 52.4373 70.727C50.5877 70.0603 47.6218 70.514 47.6218 70.514C48.191 70.092 48.8743 69.8548 49.5795 69.8345C48.0414 69.5984 46.4848 69.4986 44.9276 69.5361C43.3929 69.394 41.8743 69.1168 40.3894 68.7076Z" fill="#008B00"/>
<path d="M40.3906 68.7074C40.51 69.6156 40.5486 70.5332 40.5059 71.4493C40.3648 72.3657 40.3031 73.2922 40.3215 74.2183C40.3862 73.8033 40.5763 73.4176 40.8659 73.1135C40.5963 74.0412 40.51 75.012 40.612 75.9707C40.7148 75.7781 40.8738 75.6214 41.0676 75.5218C40.8682 76.3265 40.8525 77.165 41.0217 77.9744C41.0907 77.6832 41.2247 77.4112 41.4136 77.1792C41.1998 78.1046 41.2336 79.0688 41.5116 79.9737C41.5368 79.724 41.6514 79.4914 41.8341 79.3193C41.7866 80.1997 41.9491 81.0774 42.3081 81.8793C42.3456 81.6899 42.4198 81.5096 42.5264 81.3484C42.6067 82.2259 42.844 83.0805 43.2268 83.8714C43.1837 83.5935 43.2217 83.3084 43.3362 83.0507C43.4785 83.8618 43.7614 84.6406 44.1721 85.3518C44.1556 85.1098 44.2005 84.8671 44.3027 84.6466C44.5062 85.4606 44.8105 86.2452 45.2084 86.982C45.2084 86.982 45.0316 86.0203 45.3032 85.9093C45.2737 86.1863 45.3119 86.466 45.4147 86.724C45.5175 86.982 45.6816 87.2104 45.8929 87.3893C46.5096 88.0465 47.0176 88.7988 47.398 89.6179C47.2066 88.7348 47.1595 87.8254 47.2584 86.9253C47.316 86.6519 47.307 86.369 47.2322 86.1007C47.1574 85.8324 47.0191 85.5866 46.829 85.3843C47.0902 85.2944 47.5493 86.1766 47.5493 86.1766C47.4217 85.3467 47.1912 84.5367 46.863 83.7656C47.0767 83.8774 47.2583 84.0422 47.3908 84.2443C47.2888 83.4269 47.0448 82.6347 46.6699 81.9037C46.9004 82.038 47.0892 82.2339 47.2152 82.4698C47.0571 81.5984 46.7418 80.7642 46.2848 80.0084C46.4664 80.0712 46.6328 80.1711 46.7737 80.3019C46.5762 79.4444 46.1772 78.648 45.6101 77.9792C45.8597 77.9985 46.092 78.113 46.2594 78.2992C45.9357 77.41 45.3826 76.6244 44.6565 76.0224C44.9459 76.0899 45.2157 76.2229 45.4455 76.4113C45.093 75.665 44.5763 75.0097 43.9343 74.4945C44.1478 74.4539 44.3681 74.4801 44.5656 74.5695C44.071 73.7453 43.4186 73.0285 42.6459 72.4602C43.0585 72.5226 43.4412 72.7112 43.7421 73.0004C43.1982 72.2807 42.5946 71.6087 41.9377 70.9917C41.3538 70.2794 40.8359 69.5149 40.3906 68.7074Z" fill="#008B00"/>
<path d="M40.3889 68.7074C38.9001 68.3077 37.3778 68.0434 35.8403 67.9175C34.2841 67.9545 32.7285 67.8522 31.1919 67.612C31.1919 67.612 32.5237 67.5687 33.1391 66.9362C33.1391 66.9362 30.1837 67.3863 28.3306 66.7266C28.6755 66.6005 28.9709 66.3655 29.1726 66.0571C27.783 66.2224 26.3761 66.0647 25.0607 65.5962C25.5589 65.5443 26.0398 65.3808 26.468 65.1178C24.8827 65.2748 23.2868 65.0074 21.8428 64.3426C22.2532 64.3847 22.6659 64.2779 23.0065 64.0415C21.5246 63.9224 20.0942 63.4513 18.833 62.6669C19.1557 62.6439 19.4715 62.559 19.7632 62.4169C18.3167 62.0689 16.9478 61.4565 15.7245 60.6101C16.1552 60.7382 16.6131 60.7462 17.0495 60.6334C15.7254 60.2138 14.4859 59.5645 13.387 58.7147C13.7878 58.8018 14.205 58.7812 14.5967 58.6549C13.2951 58.1226 12.0658 57.4286 10.9373 56.5891C10.9373 56.5891 12.539 57.0898 12.7471 56.6676C12.2783 56.6556 11.8201 56.5299 11.4116 56.3011C11.003 56.0723 10.6561 55.7473 10.4006 55.3538C9.44349 54.1479 8.29889 53.1054 7.01053 52.2662C8.45813 52.7834 9.98169 53.0586 11.5208 53.0809C11.9885 53.0438 12.4576 53.1209 12.8879 53.3055C13.3182 53.4902 13.697 53.777 13.9921 54.1414C14.2036 53.7121 12.8274 52.754 12.8274 52.754C14.1849 53.1492 15.4865 53.7143 16.7019 54.4361C16.5634 54.0486 16.3256 53.7052 16.0124 53.4403C17.3575 53.7894 18.6283 54.3772 19.7651 55.1761C19.5887 54.7613 19.3034 54.403 18.9395 54.1395C20.3558 54.594 21.6754 55.3066 22.8326 56.2418C22.7711 55.9228 22.6458 55.62 22.4641 55.3518C23.8538 55.874 25.0994 56.7186 26.1001 57.8172C26.0794 57.4032 25.9128 57.0111 25.63 56.7109C27.0368 57.4511 28.2211 58.5538 29.0623 59.9067C29.01 59.4069 28.8467 58.9259 28.5844 58.4992C29.7568 59.2557 30.7398 60.2726 31.4582 61.4723C31.5772 61.1263 31.5823 60.7516 31.4728 60.4038C33.1282 61.4645 34.5681 64.0895 34.5681 64.0895C34.6948 63.2161 33.9214 62.1265 33.9214 62.1265C35.0456 63.2025 36.073 64.3761 36.9918 65.6339C38.0324 66.7563 39.1691 67.7847 40.3889 68.7074Z" fill="#008B00"/>
<path d="M40.3915 68.7074C39.6012 69.168 38.8524 69.6975 38.1538 70.2896C37.513 70.9598 36.8159 71.5731 36.0702 72.1227C36.3599 71.8186 36.55 71.4329 36.6147 71.0179C36.0432 71.7969 35.3259 72.4567 34.5034 72.9598C34.5936 72.7609 34.621 72.5394 34.582 72.3251C34.0653 72.9734 33.4098 73.4966 32.6649 73.8554C32.8505 73.6213 32.9842 73.3501 33.0568 73.0603C32.4532 73.7936 31.6679 74.3541 30.7809 74.6849C30.9728 74.5227 31.0999 74.2962 31.1383 74.0476C30.4691 74.6216 29.674 75.0274 28.8194 75.2312C28.9363 75.0781 29.0223 74.9035 29.0725 74.7175C28.3396 75.1905 27.5294 75.5286 26.6799 75.7161C26.9266 75.5811 27.1295 75.3773 27.2641 75.1294C26.5342 75.5107 25.7442 75.7608 24.9301 75.8683C25.1321 75.734 25.2971 75.5505 25.4098 75.3351C24.6403 75.6696 23.8327 75.9062 23.0059 76.0395C23.0059 76.0395 23.8764 75.5939 23.7989 75.3108C23.5972 75.5031 23.3521 75.6431 23.0849 75.7187C22.8177 75.7944 22.5366 75.8033 22.266 75.7448C21.3691 75.6561 20.4631 75.7114 19.5818 75.9088C20.3987 75.5226 21.1486 75.006 21.8022 74.3792C21.9839 74.167 22.2137 74.0018 22.4721 73.8977C22.7304 73.7935 23.0096 73.7535 23.2859 73.7811C23.198 73.5191 22.2187 73.6925 22.2187 73.6925C22.9533 73.2851 23.7364 72.9744 24.5488 72.768C24.3299 72.6667 24.0887 72.623 23.8477 72.6411C24.5581 72.224 25.3349 71.9349 26.1431 71.787C25.8961 71.6859 25.6258 71.6556 25.3618 71.6993C26.1493 71.2939 27.0028 71.0358 27.8806 70.9378C27.7202 70.8321 27.5396 70.7609 27.3501 70.7289C28.1505 70.3632 29.0251 70.1945 29.901 70.2368C29.7336 70.0506 29.5013 69.9361 29.2516 69.9168C30.1537 69.6303 31.1141 69.5904 32.0336 69.801C31.8038 69.6126 31.534 69.4797 31.2446 69.4122C32.051 69.2347 32.886 69.2452 33.6853 69.443C33.5874 69.249 33.4324 69.0902 33.2413 68.9881C34.1962 68.8782 35.1621 68.9589 36.0835 69.2256C35.7826 68.9364 35.3999 68.7478 34.9873 68.6853C35.9067 68.661 36.826 68.7161 37.7351 68.8501C38.6225 68.8816 39.5115 68.8338 40.3915 68.7074Z" fill="#008B00"/>
<path d="M41.7571 66.4078L33.9317 83.0082L32.9821 82.5402L41.38 66.222L41.7571 66.4078Z" fill="#008B00"/>
</g>
<defs>
<clipPath id="clip0_466_676">
<rect width="74.4391" height="73.9396" fill="white" transform="translate(32.7617) rotate(26.2356)"/>
</clipPath>
</defs>
</svg>
