<svg width="37" height="41" viewBox="0 0 37 41" fill="none" xmlns="http://www.w3.org/2000/svg">
<path d="M21.9219 19.7754C21.9219 19.0254 21.3594 18.416 20.7031 18.416C20 18.416 19.4375 19.0254 19.4375 19.7754C19.4375 20.4785 20 21.0879 20.7031 21.0879C21.3594 21.0879 21.9219 20.4785 21.9219 19.7754ZM16.2969 18.416C15.6406 18.416 15.0781 19.0254 15.0781 19.7754C15.0781 20.4785 15.6406 21.0879 16.2969 21.0879C17 21.0879 17.5156 20.4785 17.5156 19.7754C17.5625 19.0254 17 18.416 16.2969 18.416ZM29 10.8223C29 9.46289 27.875 8.33789 26.5156 8.33789H10.4375C9.07812 8.33789 8 9.46289 8 10.8223V27.041C8 28.4473 9.07812 29.5254 10.4375 29.5254H24.0312L23.4219 27.3223C26.9375 30.5566 25.9531 29.7129 29 32.3379V10.8223ZM25.5781 22.2129C25.5781 22.2129 24.5469 23.9473 21.875 24.041C21.875 24.041 21.4531 23.5254 21.0781 23.0566C22.6719 22.6348 23.2812 21.6504 23.2812 21.6504C22.7656 21.9785 22.2969 22.166 21.875 22.3535C19.2969 23.4316 16.4375 23.0566 14.375 21.9316C14.375 21.8848 14.0938 21.7441 13.9062 21.6035C13.9062 21.6035 14.4688 22.5879 16.0156 23.0566C15.6406 23.4785 15.2188 24.041 15.2188 24.041C12.5469 23.9473 11.5625 22.2129 11.5625 22.2129C11.5625 18.3223 13.25 15.2285 13.25 15.2285C14.9844 13.916 16.625 13.9629 16.625 13.9629L16.7656 14.1035C14.6094 14.7129 13.625 15.6504 13.625 15.6504C13.625 15.6504 13.8594 15.5098 14.3281 15.3223C17.0938 14.1035 20.4219 14.1035 23.2812 15.6504C23.2812 15.6504 22.3438 14.7598 20.2812 14.1504L20.4688 13.9629C20.4688 13.9629 22.1094 13.916 23.8438 15.2285C23.8438 15.2285 25.5781 18.3223 25.5781 22.2129Z" fill="white"/>
</svg>
