<svg width="24" height="27" viewBox="0 0 24 27" fill="none" xmlns="http://www.w3.org/2000/svg">
<g clip-path="url(#clip0_898_222)">
<path d="M20.5742 0.205811H3.42795C1.98196 0.205811 0.804688 1.42703 0.804688 2.94034V20.8873C0.804688 22.4006 1.98188 23.6218 3.42787 23.6218H17.9383L17.2601 21.166L18.898 22.7457L20.4462 24.2324L23.1974 26.7545V2.94034C23.1974 1.42703 22.0202 0.205811 20.5742 0.205811ZM15.635 17.5422C15.635 17.5422 15.1744 16.9714 14.7905 16.4669C16.4668 15.9757 17.1065 14.8873 17.1065 14.8873C16.5819 15.2457 16.0829 15.498 15.635 15.6704C14.9953 15.9492 14.381 16.135 13.7797 16.2412C12.5512 16.4802 11.4252 16.4138 10.4655 16.228C9.73612 16.0819 9.10913 15.8696 8.58456 15.6572C8.29022 15.5377 7.97034 15.3917 7.65037 15.2059C7.61206 15.1793 7.57366 15.166 7.53526 15.1394C7.50972 15.1262 7.49686 15.1129 7.48409 15.0997C7.25377 14.9669 7.1258 14.874 7.1258 14.874C7.1258 14.874 7.74003 15.936 9.36507 16.4403C8.98125 16.9449 8.50776 17.5421 8.50776 17.5421C5.67982 17.4492 4.60505 15.5245 4.60505 15.5245C4.60505 11.2501 6.44764 7.78546 6.44764 7.78546C8.29022 6.35182 10.0432 6.39165 10.0432 6.39165L10.1712 6.551C7.868 7.2411 6.80592 8.2899 6.80592 8.2899C6.80592 8.2899 7.0874 8.13065 7.5608 7.90497C8.92999 7.28102 10.0177 7.10852 10.4655 7.06869C10.5423 7.05535 10.6063 7.0421 10.6831 7.0421C11.5406 6.92622 12.4083 6.91732 13.2679 7.0156C14.4834 7.16161 15.7886 7.53329 17.1193 8.2899C17.1193 8.2899 16.1085 7.29436 13.9332 6.60408L14.1123 6.39174C14.1123 6.39174 15.8653 6.35182 17.7079 7.78555C17.7079 7.78555 19.5506 11.2501 19.5506 15.5245C19.5506 15.5245 18.4629 17.4492 15.635 17.5421V17.5422ZM9.68495 11.343C8.95562 11.343 8.37988 12.0067 8.37988 12.8164C8.37988 13.6262 8.96839 14.2899 9.68495 14.2899C10.4144 14.2899 10.9901 13.6262 10.9901 12.8164C11.003 12.0067 10.4144 11.343 9.68504 11.343H9.68495ZM14.3555 11.343C13.6261 11.343 13.0502 12.0067 13.0502 12.8164C13.0502 13.6262 13.6389 14.2899 14.3555 14.2899C15.0848 14.2899 15.6606 13.6262 15.6606 12.8164C15.6606 12.0067 15.0848 11.343 14.3555 11.343Z" fill="#012515"/>
</g>
<defs>
<clipPath id="clip0_898_222">
<rect width="22.3927" height="26.5913" fill="white" transform="translate(0.804688 0.204346)"/>
</clipPath>
</defs>
</svg>
