<svg width="37" height="41" viewBox="0 0 37 41" fill="none" xmlns="http://www.w3.org/2000/svg">
<path d="M18.5 14.9473C15.5 14.9473 13.1094 17.3848 13.1094 20.3379C13.1094 23.3379 15.5 25.7285 18.5 25.7285C21.4531 25.7285 23.8906 23.3379 23.8906 20.3379C23.8906 17.3848 21.4531 14.9473 18.5 14.9473ZM18.5 23.8535C16.5781 23.8535 14.9844 22.3066 14.9844 20.3379C14.9844 18.416 16.5312 16.8691 18.5 16.8691C20.4219 16.8691 21.9688 18.416 21.9688 20.3379C21.9688 22.3066 20.4219 23.8535 18.5 23.8535ZM25.3438 14.7598C25.3438 14.0566 24.7812 13.4941 24.0781 13.4941C23.375 13.4941 22.8125 14.0566 22.8125 14.7598C22.8125 15.4629 23.375 16.0254 24.0781 16.0254C24.7812 16.0254 25.3438 15.4629 25.3438 14.7598ZM28.9062 16.0254C28.8125 14.3379 28.4375 12.8379 27.2188 11.6191C26 10.4004 24.5 10.0254 22.8125 9.93164C21.0781 9.83789 15.875 9.83789 14.1406 9.93164C12.4531 10.0254 11 10.4004 9.73438 11.6191C8.51562 12.8379 8.14062 14.3379 8.04688 16.0254C7.95312 17.7598 7.95312 22.9629 8.04688 24.6973C8.14062 26.3848 8.51562 27.8379 9.73438 29.1035C11 30.3223 12.4531 30.6973 14.1406 30.791C15.875 30.8848 21.0781 30.8848 22.8125 30.791C24.5 30.6973 26 30.3223 27.2188 29.1035C28.4375 27.8379 28.8125 26.3848 28.9062 24.6973C29 22.9629 29 17.7598 28.9062 16.0254ZM26.6562 26.5254C26.3281 27.4629 25.5781 28.166 24.6875 28.541C23.2812 29.1035 20 28.9629 18.5 28.9629C16.9531 28.9629 13.6719 29.1035 12.3125 28.541C11.375 28.166 10.6719 27.4629 10.2969 26.5254C9.73438 25.166 9.875 21.8848 9.875 20.3379C9.875 18.8379 9.73438 15.5566 10.2969 14.1504C10.6719 13.2598 11.375 12.5566 12.3125 12.1816C13.6719 11.6191 16.9531 11.7598 18.5 11.7598C20 11.7598 23.2812 11.6191 24.6875 12.1816C25.5781 12.5098 26.2812 13.2598 26.6562 14.1504C27.2188 15.5566 27.0781 18.8379 27.0781 20.3379C27.0781 21.8848 27.2188 25.166 26.6562 26.5254Z" fill="white"/>
</svg>
