<svg width="21" height="17" viewBox="0 0 21 17" fill="none" xmlns="http://www.w3.org/2000/svg">
<path d="M18.4297 4.02344C19.2109 3.4375 19.9141 2.73438 20.4609 1.91406C19.7578 2.22656 18.9375 2.46094 18.1172 2.53906C18.9766 2.03125 19.6016 1.25 19.9141 0.273438C19.1328 0.742188 18.2344 1.09375 17.3359 1.28906C16.5547 0.46875 15.5 0 14.3281 0C12.0625 0 10.2266 1.83594 10.2266 4.10156C10.2266 4.41406 10.2656 4.72656 10.3438 5.03906C6.94531 4.84375 3.89844 3.20312 1.86719 0.742188C1.51562 1.32812 1.32031 2.03125 1.32031 2.8125C1.32031 4.21875 2.02344 5.46875 3.15625 6.21094C2.49219 6.17188 1.82812 6.01562 1.28125 5.70312V5.74219C1.28125 7.73438 2.6875 9.375 4.5625 9.76562C4.25 9.84375 3.85938 9.92188 3.50781 9.92188C3.23438 9.92188 3 9.88281 2.72656 9.84375C3.23438 11.4844 4.75781 12.6562 6.55469 12.6953C5.14844 13.7891 3.39062 14.4531 1.47656 14.4531C1.125 14.4531 0.8125 14.4141 0.5 14.375C2.29688 15.5469 4.44531 16.2109 6.78906 16.2109C14.3281 16.2109 18.4297 10 18.4297 4.57031C18.4297 4.375 18.4297 4.21875 18.4297 4.02344Z" fill="#012515"/>
</svg>
