<svg width="40" height="41" viewBox="0 0 40 41" fill="none" xmlns="http://www.w3.org/2000/svg">
<path d="M29.5156 15.4629C30.4531 14.7598 31.2969 13.916 31.9531 12.9316C31.1094 13.3066 30.125 13.5879 29.1406 13.6816C30.1719 13.0723 30.9219 12.1348 31.2969 10.9629C30.3594 11.5254 29.2812 11.9473 28.2031 12.1816C27.2656 11.1973 26 10.6348 24.5938 10.6348C21.875 10.6348 19.6719 12.8379 19.6719 15.5566C19.6719 15.9316 19.7188 16.3066 19.8125 16.6816C15.7344 16.4473 12.0781 14.4785 9.64062 11.5254C9.21875 12.2285 8.98438 13.0723 8.98438 14.0098C8.98438 15.6973 9.82812 17.1973 11.1875 18.0879C10.3906 18.041 9.59375 17.8535 8.9375 17.4785V17.5254C8.9375 19.916 10.625 21.8848 12.875 22.3535C12.5 22.4473 12.0312 22.541 11.6094 22.541C11.2812 22.541 11 22.4941 10.6719 22.4473C11.2812 24.416 13.1094 25.8223 15.2656 25.8691C13.5781 27.1816 11.4688 27.9785 9.17188 27.9785C8.75 27.9785 8.375 27.9316 8 27.8848C10.1562 29.291 12.7344 30.0879 15.5469 30.0879C24.5938 30.0879 29.5156 22.6348 29.5156 16.1191C29.5156 15.8848 29.5156 15.6973 29.5156 15.4629Z" fill="white"/>
</svg>
