<svg width="21" height="18" viewBox="0 0 21 18" fill="none" xmlns="http://www.w3.org/2000/svg">
<path d="M18.4297 4.86133C19.2109 4.27539 19.9141 3.57227 20.4609 2.75195C19.7578 3.06445 18.9375 3.29883 18.1172 3.37695C18.9766 2.86914 19.6016 2.08789 19.9141 1.11133C19.1328 1.58008 18.2344 1.93164 17.3359 2.12695C16.5547 1.30664 15.5 0.837891 14.3281 0.837891C12.0625 0.837891 10.2266 2.67383 10.2266 4.93945C10.2266 5.25195 10.2656 5.56445 10.3438 5.87695C6.94531 5.68164 3.89844 4.04102 1.86719 1.58008C1.51562 2.16602 1.32031 2.86914 1.32031 3.65039C1.32031 5.05664 2.02344 6.30664 3.15625 7.04883C2.49219 7.00977 1.82812 6.85352 1.28125 6.54102V6.58008C1.28125 8.57227 2.6875 10.2129 4.5625 10.6035C4.25 10.6816 3.85938 10.7598 3.50781 10.7598C3.23438 10.7598 3 10.7207 2.72656 10.6816C3.23438 12.3223 4.75781 13.4941 6.55469 13.5332C5.14844 14.627 3.39062 15.291 1.47656 15.291C1.125 15.291 0.8125 15.252 0.5 15.2129C2.29688 16.3848 4.44531 17.0488 6.78906 17.0488C14.3281 17.0488 18.4297 10.8379 18.4297 5.4082C18.4297 5.21289 18.4297 5.05664 18.4297 4.86133Z" fill="#012515"/>
</svg>
