<svg width="241" height="284" viewBox="0 0 241 284" fill="none" xmlns="http://www.w3.org/2000/svg">
<path d="M161.499 205.163C135.758 235.969 40.9275 272.904 3.72119 283.873C22.9348 284.223 42.1468 283.093 61.1869 280.493C63.6901 273.305 67.8621 265.583 69.9231 262.295C71.9382 259.087 75.3218 269.855 77.9877 277.786C95.3977 274.548 113.688 269.704 131.323 262.574C130.943 254.272 128.365 241.193 123.893 237.354C118.319 232.573 141.415 247.668 151.462 253.208C155.03 251.306 158.536 249.288 161.979 247.155C182.072 234.638 198.364 211.813 210.792 184.912C203.883 174.67 188.03 164.135 183.44 161.619C179.297 159.346 204.192 167.969 215.945 172.959C225.586 149.082 232.403 122.895 236.3 98.2795C232.199 91.1161 221.569 86.6645 215.665 85.3044C210.02 84.0027 227.656 86.7813 237.873 87.2986C243.338 43.8844 239.341 7.49997 225.545 0.995758C221.836 17.4461 213.671 54.0892 203.516 92.2175C191.004 139.07 175.659 188.041 161.499 205.163Z" fill="#007843"/>
<path d="M159.939 203.845C173.565 187.524 189.144 138.415 201.543 91.6835C211.731 53.4092 219.9 16.666 223.609 0.315746C223.238 0.228133 222.866 0.132179 222.495 0.0779424C208.79 -1.89126 189.603 33.6879 169.289 80.1812C179.172 87.0984 195.047 96.8151 197.888 98.7926C200.658 100.716 177.228 91.721 165.918 87.9453C157.265 108.109 148.445 129.958 139.813 151.473C133.751 166.584 122.232 182.096 107.05 197.841C113.308 206.978 127.714 217.942 130.163 219.164C133.063 220.625 110.592 210.528 99.0901 205.814C81.2421 223.065 59.3931 240.55 35.7876 258.044C43.435 259.22 52.793 260.422 55.6633 261.511C60.1775 263.209 37.8653 264.535 26.5174 264.848C18.5446 270.639 10.4217 276.438 2.23193 282.229C38.366 271.72 134.907 234.104 159.939 203.845Z" fill="#56A830"/>
<path d="M3.72153 283.873C40.9278 272.904 135.758 235.969 161.5 205.163C175.66 188.058 191.004 139.069 203.508 92.2133C213.663 54.085 221.828 17.4419 225.536 0.991541C224.911 0.7022 224.26 0.47039 223.592 0.298981C219.896 16.6659 211.714 53.4091 201.526 91.6667C189.11 138.394 173.549 187.507 159.923 203.828C134.891 234.088 38.3661 271.703 2.21956 282.187C1.47693 282.7 0.738452 283.234 0 283.756C1.15983 283.81 2.41568 283.848 3.72153 283.873Z" fill="#00AB82"/>
</svg>
