<svg width="448" height="95" viewBox="0 0 448 95" fill="none" xmlns="http://www.w3.org/2000/svg">
<path d="M440.846 20.3262C414.716 39.5593 388.87 54.0446 363.392 64.8669C353.738 54.5411 339.328 40.9611 328.284 30.3099C329.536 34.8991 333.866 62.8101 331.805 76.5194C306.172 84.6132 280.944 89.361 256.195 91.8684C250.843 81.1879 239.007 53.3771 227.383 36.7223C227.412 44.2946 233.049 78.2049 231.455 93.679C201.98 95.0391 173.255 93.7082 145.403 91.6347C144.272 80.7874 145.44 59.485 145.136 53.594C141.318 59.7812 128.255 77.7043 122.344 89.7615C82.0293 86.3279 43.7049 82.4813 7.80859 84.5506C180.089 8.88642 358.99 -7.5097 447.475 7.58058C447.934 11.9696 446.032 16.5129 440.846 20.3262Z" fill="#007843"/>
<path d="M2.73561 83.4626C125.811 28.788 252.42 4.33979 347.864 0.126025C386.322 -0.199394 420.457 0.0467565 446.658 4.36482C447.066 5.3967 447.334 6.47851 447.455 7.58147C358.991 -7.50881 180.089 8.88732 7.80878 84.5515C5.43072 84.6933 3.05265 84.856 0.716309 85.048C1.37966 84.5014 2.05974 83.9924 2.73561 83.4626Z" fill="#00AB82"/>
<path d="M110.683 33.4055C104.008 30.2598 98.0248 26.7636 93.9112 23.8098C61.7249 40.8059 31.1998 60.7769 2.73535 83.4617C126.879 28.2948 254.627 3.92171 350.354 0.0250244H195.596C196.877 4.85208 198.016 8.42335 198.016 8.42335C198.016 8.42335 194.649 4.7436 190.265 0.0250244H145.594C131.448 5.63225 117.302 11.9696 103.156 19.037C104.466 24.5817 109.248 31.0609 110.683 33.4055Z" fill="#56A830"/>
<path d="M444.554 4.03019V0.52567C444.433 0.354616 444.304 0.191906 444.175 0.0250244H402.872C416.828 0.602251 430.743 1.93929 444.554 4.03019V4.03019Z" fill="#008C57"/>
</svg>
