<svg width="241" height="284" viewBox="0 0 241 284" fill="none" xmlns="http://www.w3.org/2000/svg">
<path d="M161.654 205.188C135.913 235.994 41.0823 272.929 3.87598 283.898C23.0896 284.248 42.3015 283.118 61.3417 280.518C63.8449 273.33 68.0169 265.608 70.0779 262.32C72.093 259.112 75.4766 269.88 78.1425 277.811C95.5524 274.573 113.843 269.73 131.478 262.599C131.098 254.297 128.52 241.218 124.048 237.38C118.474 232.598 141.57 247.693 151.616 253.233C155.185 251.331 158.691 249.313 162.134 247.18C182.227 234.663 198.518 211.838 210.947 184.937C204.038 174.695 188.184 164.16 183.595 161.644C179.452 159.371 204.347 167.994 216.099 172.984C225.741 149.107 232.558 122.92 236.455 98.3045C232.354 91.1411 221.723 86.6895 215.82 85.3294C210.175 84.0277 227.81 86.8063 238.028 87.3237C243.493 43.9094 239.496 7.525 225.699 1.02078C221.99 17.4711 213.826 54.1142 203.671 92.2425C191.159 139.095 175.814 188.066 161.654 205.188Z" fill="#007843"/>
<path d="M160.094 203.87C173.72 187.549 189.298 138.44 201.698 91.7085C211.886 53.4342 220.055 16.691 223.764 0.34077C223.392 0.253157 223.021 0.157203 222.65 0.102967C208.945 -1.86624 189.757 33.7129 169.444 80.2062C179.327 87.1234 195.202 96.8401 198.043 98.8177C200.813 100.741 177.383 91.746 166.073 87.9703C157.42 108.134 148.6 129.983 139.968 151.498C133.906 166.609 122.387 182.121 107.205 197.866C113.463 207.003 127.869 217.967 130.318 219.189C133.218 220.65 110.747 210.553 99.2448 205.839C81.3968 223.09 59.5479 240.575 35.9424 258.069C43.5898 259.245 52.9477 260.447 55.8181 261.536C60.3323 263.234 38.0201 264.56 26.6722 264.873C18.6994 270.664 10.5764 276.463 2.38672 282.254C38.5208 271.745 135.062 234.13 160.094 203.87Z" fill="#56A830"/>
<path d="M3.87632 283.898C41.0826 272.929 135.913 235.994 161.655 205.188C175.815 188.083 191.159 139.094 203.663 92.2383C213.818 54.11 221.982 17.4669 225.691 1.01657C225.066 0.727224 224.415 0.495414 223.747 0.324005C220.051 16.6909 211.869 53.4341 201.681 91.6917C189.265 138.419 173.703 187.532 160.078 203.853C135.045 234.113 38.5209 271.728 2.37434 282.212C1.63172 282.725 0.893237 283.259 0.154785 283.781C1.31461 283.835 2.57047 283.873 3.87632 283.898Z" fill="#00AB82"/>
</svg>
