<svg width="216" height="39" viewBox="0 0 216 39" fill="none" xmlns="http://www.w3.org/2000/svg">
<path d="M215.891 0C215.891 0 210.802 0 206.438 0.0250323H176.491C191.669 4.56839 204.952 9.53312 215.891 14.6272V0Z" fill="#008C57"/>
<path d="M26.869 0.0250244H0.873047C6.74311 2.42812 12.6841 4.91049 18.7085 7.4012C21.2945 4.79798 24.0186 2.33571 26.869 0.0250244Z" fill="#00785B"/>
<path d="M95.5281 33.101C110.789 36.3518 126.347 38.0114 141.95 38.0533C145.647 30.4935 148.275 13.5634 148.388 10.6847C152.802 18.8577 158.622 29.3504 162.298 37.0895C178.986 35.5 196.537 31.8494 215.132 25.4996C215.403 25.4078 215.641 25.2993 215.892 25.195V16.6882C203.484 10.8223 187.914 5.12333 169.874 0.0292664H90.1504C93.0416 11.5733 94.5226 26.7303 95.5281 33.101Z" fill="#00785B"/>
<path d="M31.6714 12.7039C47.3416 18.9995 63.671 25.0323 80.9224 29.6215C83.9638 22.6166 86.4838 7.75999 88.065 0.0250244H35.4179C33.9368 4.43905 32.3598 9.33285 31.6714 12.7039Z" fill="#00785B"/>
<path d="M176.491 0.0250244H169.874C187.914 5.11909 203.484 10.8181 215.892 16.6882V14.6439C204.953 9.53311 191.669 4.58924 176.491 0.0250244Z" fill="#00AB82"/>
</svg>
