<svg width="331" height="288" viewBox="0 0 331 288" fill="none" xmlns="http://www.w3.org/2000/svg">
<path d="M47.1045 192.08C53.2353 192.493 59.3901 192.389 65.5033 191.767C63.1836 190.545 56.1078 187.553 52.3279 183.644C66.2993 161.662 81.9865 140.819 99.2426 121.31C110.09 124.28 124.755 128.723 124.755 128.723C124.755 128.723 114.024 119.219 108.208 111.51C132.949 85.2257 159.579 63.1806 187.143 45.8124C198.579 50.5184 214.554 56.8224 214.554 56.8224C214.554 56.8224 205.688 47.2643 197.828 39.3499C234.871 17.7846 273.342 4.55505 310.828 0.54989C316.877 -0.0884323 322.459 1.27583 326.168 4.24215C244.868 36.1124 105.768 137.885 1.6543 285.421C13.8603 252.958 29.0767 221.708 47.1045 192.08V192.08Z" fill="#56A830"/>
<path d="M329.214 20.1877C317.236 48.6869 303.172 73.1727 287.619 94.4501C274.661 90.6952 256.245 86.5607 242.014 83.2106C245.285 86.3521 262.457 107.154 267.464 119.399C250.45 138.528 232.127 154.715 213.111 168.825C203.515 162.671 180.231 145.629 162.595 137.627C166.313 143.826 187.498 168.892 193.748 182.363C170.301 197.846 146.158 210.733 122.356 222.611C116.14 214.267 106.677 196.219 103.548 191.538C103.452 198.472 101.521 219.54 102.576 232.315C67.9193 249.137 34.693 264.657 6.33984 283.844C110.303 137.823 248.656 37.2305 328.388 6.49924C330.929 9.87025 331.601 14.5262 329.214 20.1877Z" fill="#007843"/>
<path d="M1.6533 285.421C105.746 137.885 244.883 36.1124 326.167 4.25049C327.002 4.90292 327.75 5.66011 328.391 6.50339C248.659 37.243 110.306 137.843 6.34267 283.848C4.4569 285.119 2.59483 286.41 0.756348 287.72C1.04839 286.94 1.35708 286.189 1.6533 285.421Z" fill="#00AB82"/>
</svg>
