<svg width="71" height="462" viewBox="0 0 71 462" fill="none" xmlns="http://www.w3.org/2000/svg">
<path d="M59.4275 8.26664C41.7714 36.3195 28.9465 63.7548 19.8223 90.5143C31.0868 99.5635 46.0519 113.21 57.7545 123.644C52.99 122.697 24.1612 120.428 10.3058 123.565C3.98519 150.266 1.04386 176.325 0.355469 201.716C11.67 206.364 40.9578 216.289 58.8475 226.869C51.1084 227.42 16.0674 224.249 0.384702 227.049C1.21911 257.158 4.76122 286.292 8.9875 314.511C20.1227 314.841 41.8089 312.041 47.8459 311.891C41.8131 316.247 24.4824 330.916 12.6421 337.845C19.2047 378.631 26.0219 417.369 26.6226 454.087C47.3243 395.678 61.6678 337.069 70.8922 281.448V0.615112C66.7202 0.832059 62.665 3.14337 59.4275 8.26664Z" fill="#007843"/>
<path d="M28.1328 459.168C44.082 435.803 58.3702 411.346 70.8921 385.978V299.659C61.3965 351.405 47.4535 405.399 28.1328 459.168Z" fill="#56A830"/>
<path d="M26.6221 454.087C26.6596 456.519 26.6805 458.947 26.6555 461.35C27.1645 460.633 27.6359 459.89 28.1324 459.168C47.4531 405.399 61.3961 351.405 70.8917 299.659V281.448C61.6756 337.069 47.3237 395.708 26.6221 454.087Z" fill="#00AB82"/>
</svg>
