<svg width="448" height="540" viewBox="0 0 448 540" fill="none" xmlns="http://www.w3.org/2000/svg">
<g clip-path="url(#clip0_448_198)">
<path d="M120.152 360.757C100.99 284.646 90.4766 181.492 90.4683 72.7855C90.4677 72.5563 90.5124 72.3293 90.5999 72.1174C90.6873 71.9056 90.8158 71.7131 90.9779 71.5511C91.1399 71.389 91.3323 71.2606 91.5442 71.1732C91.756 71.0857 91.983 71.041 92.2122 71.0415C92.4413 71.041 92.6684 71.0857 92.8802 71.1732C93.0921 71.2606 93.2845 71.389 93.4466 71.5511C93.6086 71.7131 93.737 71.9056 93.8244 72.1174C93.9119 72.3293 93.9566 72.5563 93.956 72.7855C93.956 181.259 104.474 284.216 123.536 359.905C142.494 435.762 170.521 483.627 203.022 483.239C228.212 483.523 250.516 450.547 265.869 393.177C281.272 335.97 290.021 255.104 290.021 161.087C290.021 155.34 289.991 149.552 289.929 143.723C289.926 143.493 289.968 143.266 290.053 143.052C290.138 142.839 290.264 142.645 290.424 142.481C290.584 142.316 290.775 142.185 290.986 142.095C291.197 142.004 291.423 141.956 291.652 141.954C292.115 141.952 292.559 142.132 292.888 142.457C293.217 142.781 293.405 143.223 293.409 143.685C293.48 149.526 293.505 155.325 293.517 161.087C293.517 255.329 284.756 336.417 269.24 394.087C253.662 451.611 231.6 486.46 203.022 486.744C166.787 486.356 139.406 436.709 120.144 360.748L120.152 360.757Z" fill="#CCA749"/>
<path d="M398.908 472.296C418.663 427.839 431.146 361.816 431.158 274.504C431.158 272.835 431.147 271.156 431.125 269.468C431.122 269.124 431.051 268.785 430.917 268.469C430.783 268.153 430.587 267.866 430.342 267.626C430.096 267.385 429.806 267.196 429.487 267.068C429.168 266.94 428.827 266.877 428.484 266.881C428.14 266.885 427.801 266.955 427.485 267.09C427.169 267.225 426.883 267.42 426.643 267.665C426.403 267.911 426.213 268.201 426.085 268.52C425.957 268.838 425.893 269.179 425.897 269.522C425.897 271.191 425.897 272.86 425.897 274.504C425.897 361.282 413.427 426.712 394.098 470.172C374.723 513.708 348.839 534.81 322.163 534.768C287.49 534.956 248.439 498.697 218.43 423.287C188.391 348.007 167.376 234.214 167.381 81.1211C167.381 80.777 167.314 80.4362 167.183 80.1181C167.052 79.8 166.859 79.5109 166.616 79.2672C166.373 79.0235 166.085 78.8301 165.767 78.6979C165.449 78.5657 165.109 78.4974 164.765 78.4969C164.069 78.4969 163.401 78.7733 162.909 79.2655C162.417 79.7576 162.141 80.4251 162.141 81.1211C162.141 234.702 183.201 349.045 213.561 425.227C243.942 501.279 283.585 539.816 322.163 540C351.902 539.966 379.187 516.674 398.887 472.296H398.908Z" fill="#CCA749"/>
<path d="M447.891 0C447.891 0 442.802 0 438.438 0.0250323H408.491C423.669 4.56839 436.952 9.53312 447.891 14.6272V0Z" fill="#008C57"/>
<path d="M258.869 0.0250244H232.873C238.743 2.42812 244.684 4.91049 250.709 7.4012C253.295 4.79798 256.019 2.33571 258.869 0.0250244Z" fill="#00785B"/>
<path d="M327.528 33.101C342.789 36.3518 358.347 38.0114 373.95 38.0533C377.647 30.4935 380.275 13.5634 380.388 10.6847C384.802 18.8577 390.622 29.3504 394.298 37.0895C410.986 35.5 428.537 31.8494 447.132 25.4996C447.403 25.4078 447.641 25.2993 447.892 25.195V16.6882C435.484 10.8223 419.914 5.12333 401.874 0.0292664H322.15C325.042 11.5733 326.523 26.7303 327.528 33.101Z" fill="#00785B"/>
<path d="M263.671 12.7039C279.342 18.9995 295.671 25.0323 312.922 29.6215C315.964 22.6166 318.484 7.75999 320.065 0.0250244H267.418C265.937 4.43905 264.36 9.33285 263.671 12.7039Z" fill="#00785B"/>
<path d="M408.491 0.0250244H401.874C419.914 5.11909 435.484 10.8181 447.892 16.6882V14.6439C436.953 9.53311 423.669 4.58924 408.491 0.0250244Z" fill="#00AB82"/>
<path d="M440.846 20.3262C414.716 39.5593 388.87 54.0446 363.392 64.8669C353.738 54.5411 339.328 40.9611 328.284 30.3099C329.536 34.8991 333.866 62.8101 331.805 76.5194C306.172 84.6132 280.944 89.361 256.195 91.8684C250.843 81.1879 239.007 53.3771 227.383 36.7223C227.412 44.2946 233.049 78.2049 231.455 93.679C201.98 95.0391 173.255 93.7082 145.403 91.6347C144.272 80.7874 145.44 59.485 145.136 53.594C141.318 59.7812 128.255 77.7043 122.344 89.7615C82.0293 86.3279 43.7049 82.4813 7.80859 84.5506C180.089 8.88643 358.99 -7.5097 447.475 7.58058C447.934 11.9696 446.032 16.5129 440.846 20.3262Z" fill="#007843"/>
<path d="M2.73561 83.4626C125.811 28.788 252.42 4.33979 347.864 0.126025C386.322 -0.199394 420.457 0.0467565 446.658 4.36482C447.066 5.3967 447.334 6.47851 447.454 7.58147C358.991 -7.50881 180.089 8.88732 7.80878 84.5515C5.43072 84.6933 3.05265 84.856 0.716309 85.048C1.37966 84.5014 2.05974 83.9924 2.73561 83.4626Z" fill="#00AB82"/>
<path d="M110.683 33.4055C104.008 30.2598 98.0248 26.7636 93.9112 23.8098C61.7249 40.8059 31.1998 60.7769 2.73535 83.4617C126.879 28.2948 254.627 3.92171 350.354 0.0250244H195.596C196.877 4.85208 198.016 8.42335 198.016 8.42335C198.016 8.42335 194.649 4.7436 190.265 0.0250244H145.594C131.448 5.63225 117.302 11.9696 103.156 19.037C104.466 24.5817 109.248 31.0609 110.683 33.4055Z" fill="#56A830"/>
<path d="M444.554 4.03019V0.52567C444.433 0.354616 444.304 0.191906 444.175 0.0250244H402.872C416.828 0.602251 430.743 1.93929 444.554 4.03019Z" fill="#008C57"/>
<path d="M163.105 214.08C169.235 214.493 175.39 214.389 181.503 213.767C179.184 212.545 172.108 209.553 168.328 205.644C182.299 183.662 197.986 162.819 215.243 143.31C226.09 146.28 240.755 150.723 240.755 150.723C240.755 150.723 230.024 141.219 224.208 133.51C248.949 107.226 275.579 85.1806 303.143 67.8124C314.579 72.5184 330.554 78.8224 330.554 78.8224C330.554 78.8224 321.688 69.2643 313.828 61.3499C350.871 39.7846 389.342 26.5551 426.828 22.5499C432.877 21.9116 438.459 23.2758 442.168 26.2421C360.868 58.1124 221.768 159.885 117.654 307.421C129.86 274.958 145.077 243.708 163.105 214.08Z" fill="#56A830"/>
<path d="M445.214 42.1877C433.236 70.6869 419.172 95.1727 403.619 116.45C390.661 112.695 372.245 108.561 358.014 105.211C361.285 108.352 378.457 129.154 383.464 141.399C366.45 160.528 348.127 176.715 329.111 190.825C319.515 184.671 296.231 167.629 278.595 159.627C282.313 165.826 303.498 190.892 309.748 204.363C286.301 219.846 262.158 232.733 238.356 244.611C232.14 236.267 222.677 218.219 219.548 213.538C219.452 220.472 217.521 241.54 218.576 254.315C183.919 271.137 150.693 286.657 122.34 305.844C226.303 159.823 364.656 59.2305 444.388 28.4992C446.929 31.8702 447.601 36.5262 445.214 42.1877Z" fill="#007843"/>
<path d="M117.653 307.421C221.746 159.885 360.883 58.1124 442.167 26.2505C443.002 26.9029 443.75 27.6601 444.391 28.5034C364.659 59.243 226.306 159.843 122.343 305.848C120.457 307.119 118.595 308.41 116.756 309.72C117.048 308.94 117.357 308.189 117.653 307.421Z" fill="#00AB82"/>
<path d="M347.654 288.188C321.913 318.994 227.082 355.929 189.876 366.898C209.09 367.248 228.302 366.118 247.342 363.518C249.845 356.33 254.017 348.608 256.078 345.32C258.093 342.112 261.477 352.88 264.143 360.811C281.552 357.573 299.843 352.73 317.478 345.599C317.098 337.297 314.52 324.218 310.048 320.38C304.474 315.598 327.57 330.693 337.616 336.233C341.185 334.331 344.691 332.313 348.134 330.18C368.227 317.663 384.518 294.838 396.947 267.937C390.038 257.695 374.184 247.16 369.595 244.644C365.452 242.371 390.347 250.994 402.099 255.984C411.741 232.107 418.558 205.92 422.455 181.304C418.354 174.141 407.723 169.69 401.82 168.329C396.175 167.028 413.81 169.806 424.028 170.324C429.493 126.909 425.496 90.525 411.699 84.0208C407.99 100.471 399.826 137.114 389.671 175.243C377.159 222.095 361.814 271.066 347.654 288.188Z" fill="#007843"/>
<path d="M346.094 286.87C359.72 270.549 375.298 221.44 387.698 174.709C397.886 136.434 406.055 99.691 409.764 83.3408C409.392 83.2532 409.021 83.1572 408.65 83.103C394.945 81.1338 375.757 116.713 355.444 163.206C365.327 170.123 381.202 179.84 384.043 181.818C386.813 183.741 363.383 174.746 352.073 170.97C343.42 191.134 334.6 212.983 325.968 234.498C319.906 249.609 308.387 265.121 293.205 280.866C299.463 290.003 313.869 300.967 316.318 302.189C319.218 303.65 296.747 293.553 285.245 288.839C267.397 306.09 245.548 323.575 221.942 341.069C229.59 342.245 238.948 343.447 241.818 344.536C246.332 346.234 224.02 347.56 212.672 347.873C204.699 353.664 196.576 359.463 188.387 365.254C224.521 354.745 321.062 317.13 346.094 286.87Z" fill="#56A830"/>
<path d="M189.876 366.898C227.083 355.929 321.913 318.994 347.655 288.188C361.815 271.083 377.159 222.094 389.663 175.238C399.818 137.11 407.982 100.467 411.691 84.0166C411.066 83.7272 410.415 83.4954 409.747 83.324C406.051 99.6909 397.869 136.434 387.681 174.692C375.265 221.419 359.703 270.532 346.078 286.853C321.045 317.113 224.521 354.728 188.374 365.212C187.632 365.725 186.893 366.259 186.155 366.781C187.315 366.835 188.57 366.873 189.876 366.898Z" fill="#00AB82"/>
<path d="M436.428 32.2666C418.772 60.3195 405.947 87.7548 396.823 114.514C408.087 123.563 423.052 137.21 434.755 147.644C429.99 146.697 401.162 144.428 387.306 147.565C380.986 174.266 378.044 200.325 377.356 225.716C388.671 230.364 417.958 240.289 435.848 250.869C428.109 251.42 393.068 248.249 377.385 251.049C378.22 281.158 381.762 310.292 385.988 338.511C397.123 338.841 418.809 336.041 424.846 335.891C418.814 340.247 401.483 354.916 389.643 361.845C396.205 402.631 403.022 441.369 403.623 478.087C424.325 419.678 438.668 361.069 447.893 305.448V24.6151C443.721 24.8321 439.665 27.1434 436.428 32.2666Z" fill="#007843"/>
<path d="M405.133 483.168C421.082 459.803 435.37 435.346 447.892 409.978V323.659C438.397 375.405 424.454 429.399 405.133 483.168Z" fill="#56A830"/>
<path d="M403.622 478.087C403.66 480.519 403.681 482.947 403.655 485.35C404.164 484.633 404.636 483.89 405.132 483.168C424.453 429.399 438.396 375.405 447.892 323.659V305.448C438.676 361.069 424.324 419.708 403.622 478.087Z" fill="#00AB82"/>
</g>
<defs>
<clipPath id="clip0_448_198">
<rect width="447.197" height="540" fill="white" transform="translate(0.695312)"/>
</clipPath>
</defs>
</svg>
