<svg width="204" height="416" viewBox="0 0 204 416" fill="none" xmlns="http://www.w3.org/2000/svg">
<path d="M30.1523 289.757C10.9901 213.646 0.476611 110.492 0.468267 1.78546C0.467717 1.55629 0.51242 1.32927 0.599865 1.11744C0.68731 0.905607 0.815808 0.713143 0.977855 0.551096C1.1399 0.389049 1.33235 0.260615 1.54418 0.17317C1.75601 0.0857249 1.98298 0.0409892 2.21215 0.0415394C2.44132 0.0409892 2.6684 0.0857249 2.88023 0.17317C3.09206 0.260615 3.2845 0.389049 3.44655 0.551096C3.6086 0.713143 3.73699 0.905607 3.82444 1.11744C3.91188 1.32927 3.95659 1.55629 3.95604 1.78546C3.95604 110.259 14.4738 213.216 33.5359 288.905C52.4936 364.762 80.5214 412.627 113.022 412.239C138.212 412.523 160.516 379.547 175.869 322.177C191.272 264.97 200.021 184.104 200.021 90.0867C200.021 84.3404 199.991 78.5524 199.929 72.7227C199.926 72.4933 199.968 72.2656 200.053 72.0524C200.138 71.8393 200.264 71.645 200.424 71.4807C200.584 71.3164 200.775 71.1853 200.986 71.0948C201.197 71.0044 201.423 70.9565 201.652 70.9538C202.115 70.9515 202.559 71.1324 202.888 71.4569C203.217 71.7814 203.405 72.223 203.409 72.6851C203.48 78.526 203.505 84.3251 203.517 90.0867C203.517 184.329 194.756 265.417 179.24 323.087C163.662 380.611 141.6 415.46 113.022 415.744C76.7875 415.356 49.4063 365.709 30.144 289.748L30.1523 289.757Z" fill="#CCA749"/>
</svg>
