<svg width="270" height="462" viewBox="0 0 270 462" fill="none" xmlns="http://www.w3.org/2000/svg">
<path d="M236.908 394.296C256.663 349.839 269.146 283.816 269.158 196.504C269.158 194.835 269.147 193.156 269.125 191.468C269.122 191.124 269.051 190.785 268.917 190.469C268.783 190.153 268.587 189.866 268.342 189.626C268.096 189.385 267.806 189.196 267.487 189.068C267.168 188.94 266.827 188.877 266.484 188.881C266.14 188.885 265.801 188.955 265.485 189.09C265.169 189.225 264.883 189.42 264.643 189.665C264.403 189.911 264.213 190.201 264.085 190.52C263.957 190.838 263.893 191.179 263.897 191.522C263.897 193.191 263.897 194.86 263.897 196.504C263.897 283.282 251.427 348.712 232.098 392.172C212.723 435.708 186.839 456.81 160.163 456.768C125.49 456.956 86.4393 420.697 56.4298 345.287C26.3911 270.007 5.37646 156.214 5.38063 3.12108C5.38118 2.77701 5.31399 2.43619 5.18283 2.11811C5.05166 1.80002 4.85911 1.51088 4.6162 1.2672C4.37329 1.02352 4.08479 0.830071 3.76712 0.697896C3.44946 0.56572 3.10893 0.497404 2.76486 0.496857C2.06887 0.496857 1.40137 0.773337 0.909234 1.26547C0.417098 1.75761 0.140625 2.42509 0.140625 3.12108C0.140625 156.702 21.2011 271.045 51.5611 347.227C81.9419 423.279 121.585 461.816 160.163 462C189.902 461.966 217.187 438.674 236.887 394.296H236.908Z" fill="#CCA749"/>
</svg>
