<svg width="216" height="30" viewBox="0 0 216 30" fill="none" xmlns="http://www.w3.org/2000/svg">
<g clip-path="url(#clip0_262_816)">
<path d="M7.51263 22.9914C6.5987 22.9914 5.70706 22.8588 4.83771 22.5717C3.96836 22.2846 3.23275 21.887 2.58631 21.3569C1.93988 20.8268 1.49405 20.1863 1.22656 19.4575L2.83152 18.8611C3.00984 19.3691 3.34421 19.8108 3.83461 20.1642C4.32501 20.5176 4.88229 20.8048 5.52873 21.0035C6.17517 21.2023 6.8439 21.2907 7.51263 21.2907C8.29282 21.2907 9.02842 21.1581 9.71944 20.8931C10.4105 20.6281 10.9454 20.2747 11.369 19.7888C11.7925 19.3249 11.9931 18.7728 11.9931 18.1323C11.9931 17.4917 11.7702 16.9616 11.3467 16.542C10.9009 16.1223 10.3436 15.791 9.65257 15.5481C8.96155 15.3051 8.24823 15.1284 7.49034 14.9959C6.30891 14.7971 5.26124 14.51 4.32501 14.1566C3.38879 13.8032 2.65319 13.3173 2.1182 12.6768C1.58322 12.0363 1.29344 11.197 1.29344 10.1368C1.29344 9.14291 1.58322 8.30361 2.16279 7.57475C2.74235 6.84588 3.50025 6.29371 4.43647 5.89615C5.37269 5.49859 6.39808 5.2998 7.49034 5.2998C8.38198 5.2998 9.25133 5.43233 10.1207 5.71945C10.9677 6.00658 11.7256 6.40415 12.3944 6.93423C13.0631 7.46431 13.5089 8.10483 13.7987 8.87787L12.1715 9.45213C11.9931 8.94413 11.6588 8.50239 11.1684 8.149C10.678 7.79562 10.1207 7.50849 9.47424 7.30971C8.8278 7.11092 8.18136 7.02258 7.49034 7.02258C6.71015 7.02258 5.97455 7.13301 5.30582 7.39805C4.63709 7.66309 4.07981 8.03857 3.65628 8.50239C3.23275 8.96622 3.03214 9.51839 3.03214 10.1368C3.03214 10.8657 3.23275 11.4399 3.6117 11.8375C4.01294 12.2351 4.52563 12.5222 5.21666 12.721C5.88539 12.9198 6.64328 13.0965 7.49034 13.2511C8.5826 13.4278 9.60799 13.737 10.5665 14.1345C11.5027 14.5321 12.2829 15.0622 12.8402 15.7027C13.4198 16.3653 13.7095 17.1604 13.7095 18.1323C13.7095 19.1041 13.4198 19.9655 12.8402 20.6943C12.2606 21.4232 11.5027 21.9974 10.5665 22.395C9.65257 22.7926 8.62718 22.9914 7.51263 22.9914Z" fill="#012515"/>
<path d="M22.7383 12.1473H19.7959L19.7736 22.6606H18.0572L18.0795 12.1473H15.8281V10.4466H18.0572V6.60352H19.7736L19.7959 10.4466H22.7383V12.1473Z" fill="#012515"/>
<path d="M30.0039 22.9909C28.867 22.9909 27.8417 22.7037 26.9054 22.1295C25.9692 21.5552 25.2336 20.7822 24.6763 19.8104C24.1191 18.8386 23.8516 17.7563 23.8516 16.5857C23.8516 15.6801 24.0076 14.8629 24.342 14.0678C24.6763 13.2727 25.0999 12.6101 25.6571 12.0137C26.2144 11.4174 26.8831 10.9536 27.6187 10.6223C28.3766 10.291 29.1568 10.1143 30.0039 10.1143C31.1407 10.1143 32.1661 10.4014 33.1023 10.9756C34.0386 11.5499 34.7742 12.3229 35.3314 13.3168C35.8887 14.3108 36.1562 15.3709 36.1562 16.5636C36.1562 17.4471 36.0002 18.2864 35.6658 19.0594C35.3537 19.8325 34.9079 20.5172 34.3506 21.1135C33.7934 21.7098 33.1246 22.1737 32.389 22.505C31.6534 22.8142 30.8732 22.9909 30.0039 22.9909ZM30.0039 21.2681C30.8509 21.2681 31.5866 21.0472 32.2776 20.6055C32.9463 20.1638 33.4813 19.5895 33.8602 18.8827C34.2615 18.1759 34.4398 17.3808 34.4398 16.5415C34.4398 15.6801 34.2392 14.9071 33.8379 14.1782C33.4367 13.4494 32.9017 12.8751 32.233 12.4555C31.5643 12.0137 30.8064 11.8149 29.9816 11.8149C29.1345 11.8149 28.3989 12.0358 27.7079 12.4775C27.0392 12.9193 26.5042 13.4935 26.1252 14.2003C25.724 14.9071 25.5457 15.7022 25.5457 16.5636C25.5457 17.4471 25.7463 18.2422 26.1475 18.949C26.5488 19.6558 27.0838 20.23 27.7525 20.6497C28.4658 21.0693 29.2014 21.2681 30.0039 21.2681Z" fill="#012515"/>
<path d="M49.0848 16.0998V22.6817H47.3684V16.144C47.3684 15.3267 47.1901 14.5979 46.8557 13.9353C46.5214 13.2727 46.0533 12.7426 45.4737 12.345C44.8941 11.9475 44.2477 11.7487 43.5121 11.7487C42.7988 11.7487 42.1523 11.9475 41.5951 12.345C41.0378 12.7426 40.5697 13.2727 40.2576 13.9353C39.9232 14.5979 39.7672 15.3267 39.7672 16.144V22.6596H38.0508V10.4456H39.7672V12.4775C40.2353 11.7266 40.7926 11.1523 41.4836 10.7327C42.1746 10.313 42.9325 10.1143 43.7573 10.1143C44.805 10.1143 45.7412 10.3793 46.5214 10.9315C47.3238 11.4836 47.948 12.2125 48.3938 13.1181C48.8396 14.0236 49.0848 15.0175 49.0848 16.0998Z" fill="#012515"/>
<path d="M56.8867 22.9909C55.7499 22.9909 54.7245 22.7037 53.7882 22.1295C52.852 21.5552 52.1164 20.7822 51.5591 19.8104C51.0019 18.8386 50.7344 17.7563 50.7344 16.5857C50.7344 15.6801 50.8904 14.8629 51.2248 14.0678C51.5591 13.2727 51.9827 12.6101 52.5399 12.0137C53.0972 11.4174 53.766 10.9536 54.5016 10.6223C55.2595 10.291 56.0396 10.1143 56.8867 10.1143C57.8006 10.1143 58.6477 10.291 59.4056 10.6443C60.1635 10.9977 60.8322 11.5057 61.3895 12.1462C61.9468 12.7868 62.3703 13.5377 62.6378 14.3991C62.9276 15.2605 63.039 16.1881 62.9944 17.2041H52.5399C52.6291 17.9772 52.8966 18.6619 53.2756 19.2803C53.6545 19.8987 54.1895 20.3846 54.8136 20.738C55.4378 21.0914 56.1288 21.2681 56.8867 21.2902C57.7115 21.2902 58.4471 21.0693 59.1158 20.6497C59.7845 20.23 60.3195 19.6337 60.7207 18.9048L62.4817 19.3024C61.9913 20.3846 61.2334 21.2681 60.2526 21.9528C59.2718 22.6375 58.135 22.9909 56.8867 22.9909ZM52.4954 15.8127H61.2557C61.1889 15.0617 60.966 14.3549 60.5647 13.7365C60.1635 13.096 59.6285 12.6101 58.9821 12.2125C58.3356 11.837 57.6446 11.6382 56.8644 11.6382C56.0842 11.6382 55.3932 11.8149 54.769 12.1904C54.1449 12.5659 53.6099 13.0518 53.2087 13.6923C52.8297 14.3549 52.5845 15.0396 52.4954 15.8127Z" fill="#012515"/>
<path d="M75.1648 4.32812H76.8812V22.6602H75.1648V20.3852C74.7412 21.1583 74.1617 21.7988 73.4038 22.2626C72.6682 22.7485 71.7765 22.9694 70.7512 22.9694C69.8595 22.9694 69.0125 22.7927 68.2323 22.4614C67.4521 22.1301 66.7611 21.6663 66.1592 21.0699C65.5574 20.4736 65.0892 19.7889 64.7549 19.0159C64.4205 18.2428 64.2422 17.4035 64.2422 16.5201C64.2422 15.6366 64.4205 14.7973 64.7549 14.0242C65.0892 13.2512 65.5574 12.5665 66.1592 11.9702C66.7611 11.3738 67.4521 10.91 68.2323 10.5787C69.0125 10.2474 69.8595 10.0707 70.7512 10.0707C71.7765 10.0707 72.6459 10.3137 73.4038 10.7775C74.1394 11.2634 74.7412 11.8818 75.1648 12.6549V4.32812ZM70.7734 21.3129C71.6428 21.3129 72.4007 21.092 73.0471 20.6724C73.6713 20.2527 74.1617 19.6785 74.5183 18.9496C74.8527 18.2207 75.031 17.4256 75.031 16.5642C75.031 15.6587 74.8527 14.8635 74.5183 14.1347C74.184 13.4058 73.6936 12.8316 73.0471 12.4119C72.423 11.9923 71.6651 11.7714 70.7957 11.7714C69.9264 11.7714 69.1239 11.9923 68.4106 12.4119C67.6973 12.8316 67.1177 13.4058 66.6942 14.1347C66.2707 14.8635 66.0478 15.6587 66.0478 16.5421C66.0478 17.4256 66.2707 18.2428 66.6942 18.9496C67.14 19.6785 67.6973 20.2527 68.4329 20.6724C69.1462 21.1141 69.9264 21.3129 70.7734 21.3129Z" fill="#012515"/>
<path d="M121.465 22.6603L124.808 5.54297H126.057L130.894 18.1325L135.709 5.54297H136.957L140.301 22.6603H138.54L135.976 9.56277L131.407 21.5338H130.292L125.722 9.56277L123.159 22.6603H121.465Z" fill="#012515"/>
<path d="M147.723 22.9909C146.586 22.9909 145.56 22.7037 144.624 22.1295C143.688 21.5552 142.952 20.7822 142.395 19.8104C141.838 18.8386 141.57 17.7563 141.57 16.5857C141.57 15.6801 141.726 14.8629 142.061 14.0678C142.395 13.2727 142.819 12.6101 143.376 12.0137C143.933 11.4174 144.602 10.9536 145.337 10.6223C146.073 10.291 146.876 10.1143 147.723 10.1143C148.859 10.1143 149.885 10.4014 150.821 10.9756C151.757 11.5499 152.493 12.3229 153.05 13.3168C153.607 14.2887 153.875 15.3709 153.875 16.5636C153.875 17.4471 153.719 18.2864 153.385 19.0594C153.072 19.8325 152.627 20.5172 152.069 21.1135C151.512 21.7098 150.843 22.1737 150.108 22.505C149.372 22.8142 148.57 22.9909 147.723 22.9909ZM147.723 21.2681C148.57 21.2681 149.305 21.0472 149.996 20.6055C150.665 20.1638 151.2 19.5895 151.579 18.8827C151.958 18.1759 152.159 17.3808 152.159 16.5415C152.159 15.6801 151.958 14.9071 151.557 14.1782C151.155 13.4494 150.62 12.8751 149.952 12.4555C149.283 12.0137 148.525 11.8149 147.7 11.8149C146.853 11.8149 146.118 12.0358 145.427 12.4775C144.758 12.9193 144.223 13.4935 143.844 14.2003C143.443 14.9071 143.264 15.7022 143.264 16.5636C143.264 17.4471 143.465 18.2422 143.866 18.949C144.268 19.6558 144.803 20.23 145.471 20.6497C146.162 21.0693 146.898 21.2681 147.723 21.2681Z" fill="#012515"/>
<path d="M166.78 16.0998V22.6817H165.064V16.144C165.064 15.3267 164.885 14.5979 164.551 13.9353C164.217 13.2727 163.749 12.7426 163.169 12.345C162.589 11.9475 161.943 11.7487 161.207 11.7487C160.494 11.7487 159.848 11.9475 159.29 12.345C158.733 12.7426 158.265 13.2727 157.953 13.9353C157.619 14.5979 157.463 15.3267 157.463 16.144V22.6596H155.746V10.4456H157.463V12.4775C157.931 11.7266 158.488 11.1523 159.179 10.7327C159.87 10.313 160.628 10.1143 161.453 10.1143C162.5 10.1143 163.436 10.3793 164.217 10.9315C165.019 11.4836 165.643 12.2125 166.089 13.1181C166.557 14.0236 166.78 15.0175 166.78 16.0998Z" fill="#012515"/>
<path d="M179.376 22.6602H177.392L173.937 16.763L171.463 19.6785V22.6602H169.746V4.32812H171.463V17.006L177.035 10.4241H179.287L175.096 15.3494L179.376 22.6602Z" fill="#012515"/>
<path d="M186.508 22.9909C185.371 22.9909 184.346 22.7037 183.409 22.1295C182.473 21.5552 181.738 20.7822 181.18 19.8104C180.623 18.8386 180.355 17.7563 180.355 16.5857C180.355 15.6801 180.512 14.8629 180.846 14.0678C181.158 13.2948 181.604 12.6101 182.161 12.0137C182.718 11.4174 183.387 10.9536 184.123 10.6223C184.858 10.291 185.661 10.1143 186.508 10.1143C187.422 10.1143 188.269 10.291 189.027 10.6443C189.785 10.9977 190.453 11.5057 191.011 12.1462C191.568 12.7868 191.991 13.5377 192.259 14.3991C192.549 15.2605 192.66 16.1881 192.616 17.2041H182.161C182.25 17.9772 182.518 18.6619 182.897 19.2803C183.276 19.8987 183.811 20.3846 184.435 20.738C185.059 21.0914 185.75 21.2681 186.508 21.2902C187.333 21.2902 188.068 21.0693 188.737 20.6497C189.406 20.23 189.941 19.6337 190.342 18.9048L192.103 19.3024C191.612 20.3846 190.855 21.2681 189.874 21.9528C188.893 22.6375 187.734 22.9909 186.508 22.9909ZM182.116 15.8127H190.877C190.81 15.0617 190.587 14.3549 190.186 13.7365C189.785 13.096 189.25 12.6101 188.603 12.2125C187.957 11.837 187.266 11.6382 186.486 11.6382C185.728 11.6382 185.014 11.8149 184.39 12.1904C183.766 12.5659 183.231 13.0518 182.83 13.6923C182.451 14.3549 182.206 15.0396 182.116 15.8127Z" fill="#012515"/>
<path d="M202.603 10.4463H204.431L197.676 28.7784H195.849L198.1 22.6603L193.664 10.4463H195.559L198.969 20.3191L202.603 10.4463Z" fill="#012515"/>
<path d="M210.583 22.903C209.915 22.8809 209.246 22.7705 208.6 22.5275C207.953 22.3066 207.396 21.9974 206.928 21.5999C206.46 21.2023 206.103 20.7606 205.902 20.2747L207.396 19.6341C207.53 19.9434 207.775 20.2526 208.131 20.5176C208.488 20.7827 208.889 21.0035 209.357 21.1581C209.826 21.3127 210.271 21.4011 210.717 21.4011C211.208 21.4011 211.698 21.3127 212.122 21.1581C212.567 21.0035 212.902 20.7606 213.192 20.4514C213.459 20.1421 213.615 19.7887 213.615 19.3691C213.615 18.9274 213.459 18.574 213.169 18.3089C212.879 18.0439 212.5 17.8451 212.055 17.6905C211.609 17.5359 211.141 17.4034 210.65 17.2488C209.781 17.0058 209.001 16.7629 208.354 16.4757C207.686 16.1886 207.173 15.8352 206.794 15.3714C206.415 14.9076 206.237 14.3554 206.237 13.6486C206.237 12.8977 206.437 12.2571 206.861 11.7271C207.284 11.1749 207.842 10.7552 208.533 10.4681C209.224 10.181 209.959 10.0264 210.74 10.0264C211.743 10.0264 212.657 10.2472 213.481 10.6669C214.306 11.0865 214.908 11.6829 215.287 12.3897L213.883 13.2069C213.727 12.8756 213.504 12.5884 213.169 12.3455C212.835 12.1025 212.478 11.9037 212.077 11.7712C211.676 11.6387 211.252 11.5504 210.829 11.5504C210.294 11.5504 209.803 11.6166 209.357 11.7712C208.912 11.9258 208.533 12.1688 208.265 12.478C207.998 12.7872 207.842 13.1627 207.842 13.6044C207.842 14.0462 207.975 14.3996 208.243 14.6204C208.51 14.8634 208.889 15.0401 209.357 15.1726C209.826 15.3051 210.338 15.4818 210.94 15.6585C211.698 15.9015 212.389 16.1665 213.058 16.4757C213.727 16.7849 214.239 17.1604 214.64 17.6021C215.042 18.0439 215.242 18.6181 215.242 19.3028C215.242 20.0317 215.019 20.6722 214.574 21.2244C214.128 21.7766 213.548 22.1962 212.857 22.4833C212.144 22.7926 211.386 22.9251 210.583 22.903Z" fill="#012515"/>
<path d="M104.413 29.705C104.346 29.705 102.719 29.705 101.002 29.5504C97.6585 29.2412 96.9675 28.6449 96.7 28.0927C96.6554 28.0043 96.6331 27.916 96.6554 27.8056L96.856 22.8802C96.1427 23.2557 95.2288 23.6974 94.7607 23.7858C94.1365 23.8962 93.022 23.344 92.1972 22.7477C91.1941 22.0409 89.4777 20.4948 89.0765 18.0211C89.0542 17.8444 89.0988 17.6677 89.2102 17.5352L90.2356 16.2542L90.1687 16.0996C89.9235 16.2762 89.6114 16.4529 89.2771 16.6517C87.9396 17.4248 87.2486 17.6015 86.7582 17.3143C86.0672 16.8947 86.0895 15.9008 86.2455 15.194C83.9718 14.0897 84.1279 13.405 84.1724 13.1178C84.2616 12.654 84.8635 12.0798 85.9557 11.4392C85.1755 10.7766 84.4845 10.0257 84.4399 9.45142C84.4176 9.20846 84.5068 8.96551 84.6851 8.78881C84.8412 8.63421 85.3093 8.17038 88.809 8.45751C89.3217 6.84517 91.3947 1.9419 96.3879 1.21303C99.308 0.793385 101.827 0.903819 103.855 1.54434C105.817 2.16277 107.288 3.26711 108.224 4.83527C108.403 4.76901 108.581 4.74693 108.759 4.74693C109.094 4.76901 109.428 4.94571 109.629 5.21075C110.565 6.38135 111.011 7.06604 111.122 7.50778C111.189 7.77282 111.323 8.28082 109.651 9.29681C110.342 9.78272 111.033 10.4012 111.122 10.9754C111.167 11.2846 111.791 12.4773 112.437 13.5596L113.597 13.3166C113.864 13.2504 114.154 13.3829 114.288 13.6258C114.8 14.5976 115.135 15.6357 115.268 16.718C115.58 19.0813 114.845 21.1133 113.128 22.6152C110.03 25.3098 106.865 25.6411 105.55 25.6411L105.059 29.1749C104.992 29.4621 104.725 29.705 104.413 29.705ZM97.9037 27.6068C98.1043 27.7393 98.8399 28.0927 101.225 28.3136C102.25 28.4019 103.254 28.4461 103.833 28.4461L104.324 24.8901C104.368 24.5588 104.68 24.3158 105.015 24.36C105.059 24.36 108.715 24.7355 112.237 21.6654C115.001 19.258 113.842 15.8124 113.329 14.6418L112.215 14.8848C111.947 14.9289 111.68 14.8185 111.546 14.5976C111.189 13.9792 109.985 11.9693 109.852 11.1963C109.74 10.9312 108.915 10.2686 108.091 9.80481C107.779 9.62811 107.689 9.25264 107.845 8.94342C107.912 8.83299 108.002 8.74464 108.113 8.70047C108.715 8.41334 109.272 8.03786 109.785 7.6403C109.45 7.06604 109.049 6.53596 108.626 6.02796C108.537 6.07213 108.47 6.11631 108.403 6.18257C108.158 6.42552 107.756 6.42552 107.511 6.18257C107.467 6.1384 107.422 6.07213 107.4 6.00587C105.483 2.07442 100.445 1.91981 96.5662 2.47198C91.5062 3.20085 89.8344 9.25264 89.8121 9.3189C89.7229 9.60603 89.4554 9.80481 89.1433 9.78272C88.0511 9.67229 86.9588 9.6502 85.8666 9.69437C86.3347 10.2024 86.8474 10.6441 87.4046 11.0638C87.6944 11.2625 87.739 11.6601 87.5384 11.9472C87.4715 12.0135 87.4046 12.0798 87.3378 12.1239C86.669 12.4552 86.0449 12.8528 85.4653 13.3166C86.0003 13.7142 86.5799 14.0455 87.1817 14.2884C87.4715 14.421 87.6053 14.7302 87.5384 15.0394C87.4269 15.4149 87.3823 15.7903 87.4046 16.1879C87.895 16.0333 89.0096 15.4149 90.035 14.7081C90.3248 14.5093 90.726 14.5756 90.9266 14.8406C90.9489 14.8627 90.9489 14.8848 90.9712 14.9069L91.5508 16.0554C91.6622 16.2762 91.6399 16.5192 91.4839 16.718L90.3916 18.0874C91.0158 20.9807 93.9805 22.5047 94.5823 22.5489C94.9613 22.4606 96.2319 21.82 97.235 21.2679C97.5471 21.0912 97.926 21.2016 98.1043 21.4887C98.1712 21.5992 98.1935 21.7096 98.1935 21.82L97.9037 27.6068Z" fill="#87C81D"/>
<path d="M97.9691 12.9415H97.0551C96.8768 12.9415 96.6985 12.8089 96.6539 12.6322C96.6316 12.566 96.2973 11.1303 96.1858 10.4457C96.0298 9.56218 96.2973 7.70689 99.6855 5.1669C103.163 2.53857 107.331 4.30552 107.51 4.37178C107.71 4.48221 107.777 4.72517 107.688 4.90186C107.599 5.07856 107.376 5.1669 107.198 5.10064C107.153 5.07855 103.274 3.46622 100.176 5.78533C97.0106 8.17071 96.8991 9.73887 96.9883 10.3131C97.0774 10.799 97.2558 11.6825 97.3672 12.1463H97.9691C98.192 12.1243 98.3926 12.3009 98.3926 12.5218C98.4149 12.7427 98.2366 12.9415 98.0137 12.9415C97.9914 12.9415 97.9914 12.9415 97.9691 12.9415Z" fill="#87C81D"/>
<path d="M99.934 15.9233C99.8894 15.9233 99.8671 15.9233 99.8225 15.9012C99.1761 15.7466 97.7717 13.4496 97.5488 12.9416C97.4374 12.7649 97.4151 12.544 97.5042 12.3452C97.6157 12.1244 99.2652 10.0261 99.9563 9.12056C100.09 8.94387 100.335 8.92178 100.514 9.0543C100.692 9.18682 100.714 9.42978 100.58 9.60647C99.8002 10.6004 98.5965 12.1685 98.2844 12.6103C98.5073 13.1404 99.555 14.7085 99.9785 15.0619C100.826 14.6202 104.749 11.6385 108.182 8.92178C108.36 8.78926 108.605 8.83343 108.739 9.01013C108.85 9.16474 108.828 9.40769 108.672 9.54021C108.65 9.5623 106.644 11.1525 104.593 12.7207C100.87 15.5699 100.201 15.9233 99.934 15.9233Z" fill="#87C81D"/>
<path d="M110.299 20.8704C109.318 20.8704 108.36 20.6937 107.468 20.3182C104.815 19.2359 104.615 16.5855 104.704 15.2161L101.605 16.9831C101.405 17.0935 101.16 17.0273 101.048 16.8285C101.026 16.7843 101.026 16.7622 101.004 16.718L100.602 15.0836C100.558 14.8627 100.692 14.664 100.892 14.5977C101.115 14.5535 101.316 14.6861 101.383 14.8848L101.65 16.0113L104.971 14.1118C105.172 14.0014 105.417 14.0676 105.529 14.2664C105.573 14.3547 105.596 14.4652 105.573 14.5535C105.551 14.7081 104.771 18.3525 107.758 19.5672C110.879 20.8483 114.111 19.1476 114.133 19.1255C114.334 19.0372 114.579 19.1255 114.668 19.3243C114.757 19.501 114.69 19.7218 114.512 19.8323C113.219 20.517 111.77 20.8483 110.299 20.8704Z" fill="#87C81D"/>
<path d="M109.229 17.1597C109.006 17.1597 108.828 16.983 108.828 16.7622C108.828 16.6517 108.873 16.5413 108.962 16.4751L111.837 13.9792C111.993 13.8246 112.261 13.8246 112.417 13.9792C112.573 14.1338 112.573 14.3989 112.417 14.5535C112.395 14.5756 112.395 14.5756 112.372 14.5756L109.497 17.0714C109.43 17.1377 109.319 17.1597 109.229 17.1597Z" fill="#87C81D"/>
<path d="M108.493 13.0071C108.293 13.0071 108.114 12.8525 108.092 12.6316L107.98 11.2622C107.98 11.218 107.98 11.196 107.98 11.1518C108.137 10.4229 109.05 10.3125 109.563 10.3787C109.786 10.3787 109.964 10.5775 109.942 10.7984C109.942 11.0193 109.741 11.196 109.519 11.1739C109.496 11.1739 109.474 11.1739 109.452 11.1739C109.162 11.1518 108.828 11.196 108.761 11.2843L108.828 12.1015L109.073 12.0353L109.229 11.5493C109.318 11.3506 109.541 11.2401 109.741 11.3064C109.942 11.3726 110.054 11.5935 109.987 11.7923L109.764 12.477C109.719 12.6095 109.608 12.6979 109.474 12.742L108.56 12.9629C108.56 12.985 108.515 13.0071 108.493 13.0071Z" fill="#87C81D"/>
<path d="M97.5045 22.1733C97.2816 22.1733 97.1033 21.9966 97.1033 21.7758C97.1033 21.7095 97.1256 21.6432 97.1479 21.5991C97.5937 20.7818 98.0618 19.7659 98.1287 19.4346C97.7051 18.6836 94.0271 15.216 93.403 14.9951C93.1355 14.973 92.2884 15.6798 91.5974 16.4528C91.4414 16.6074 91.1962 16.6074 91.0178 16.4528C90.8618 16.3203 90.8618 16.0774 90.9733 15.9228C91.4637 15.3485 92.712 14.0675 93.5367 14.2C94.0494 14.2883 95.4537 15.5252 96.546 16.5633C98.9534 18.8382 98.9534 19.2358 98.9534 19.3683C98.9534 19.8763 98.1955 21.334 97.8612 21.9524C97.7943 22.085 97.6606 22.1733 97.5045 22.1733Z" fill="#87C81D"/>
</g>
<defs>
<clipPath id="clip0_262_816">
<rect width="216" height="29" fill="white" transform="translate(0 0.837891)"/>
</clipPath>
</defs>
</svg>
