<svg width="115" height="103" viewBox="0 0 115 103" fill="none" xmlns="http://www.w3.org/2000/svg">
<g clip-path="url(#clip0_931_2204)">
<path d="M28.23 86.8936L29.0748 87.9106C29.0564 87.9517 29.0468 87.9962 29.0468 88.0413C29.0468 88.0863 29.0564 88.1309 29.0748 88.172C29.123 88.3175 29.1906 88.4558 29.2757 88.5832C29.3903 88.7611 29.5149 88.9325 29.6487 89.0965C29.7697 89.2455 29.8985 89.388 30.0344 89.5237C30.1045 89.6 30.189 89.6618 30.2831 89.7054C30.3126 89.7156 30.3442 89.718 30.3749 89.7124C30.4056 89.7068 30.4344 89.6934 30.4584 89.6735C30.5062 89.6352 30.5126 89.5683 30.4775 89.4758C30.4085 89.3215 30.3195 89.1768 30.2129 89.0455C30.0695 88.8542 29.8591 88.5896 29.5753 88.2581C29.3951 88.0441 29.228 87.8195 29.0748 87.5854C28.9659 87.4177 28.8791 87.2366 28.8166 87.0467C28.7773 86.9113 28.7773 86.7676 28.8166 86.6322C28.8518 86.5058 28.9267 86.394 29.0302 86.3134C29.1159 86.2365 29.2174 86.1793 29.3275 86.1457C29.4376 86.1121 29.5538 86.103 29.6678 86.119C29.9485 86.1657 30.2116 86.2868 30.4297 86.4696C30.7633 86.7344 31.0659 87.036 31.3319 87.3686C31.7313 87.7987 32.0202 88.3195 32.1735 88.8861C32.2262 89.0726 32.2242 89.2703 32.1677 89.4557C32.1112 89.6411 32.0025 89.8063 31.8547 89.9317L31.0513 88.9753C31.1215 88.8956 31.1215 88.7681 31.0513 88.5896C30.9379 88.35 30.7909 88.1277 30.6146 87.9297C30.4599 87.7321 30.2846 87.5515 30.0918 87.3909C29.9579 87.2921 29.8527 87.2698 29.773 87.3304C29.7543 87.3454 29.7401 87.3652 29.7317 87.3876C29.7232 87.41 29.721 87.4343 29.7252 87.4579C29.7427 87.5386 29.7751 87.6154 29.8208 87.6842C29.9048 87.8179 29.9963 87.9467 30.095 88.07C30.2225 88.2294 30.3851 88.4302 30.5859 88.6725C30.7763 88.8979 30.952 89.1354 31.1119 89.3834C31.2228 89.5546 31.3097 89.7401 31.3701 89.9349C31.4114 90.0711 31.4114 90.2164 31.3701 90.3525C31.3316 90.479 31.2548 90.5904 31.1502 90.6713C31.0674 90.7454 30.9705 90.8019 30.8653 90.8375C30.7601 90.8732 30.6488 90.8871 30.5381 90.8785C30.2656 90.8316 30.0111 90.7115 29.8017 90.531C29.4599 90.2455 29.149 89.925 28.874 89.5747C28.6913 89.3582 28.5241 89.1292 28.3735 88.8893C28.2473 88.6873 28.1406 88.4738 28.0547 88.2517C27.9848 88.0742 27.9418 87.8872 27.9272 87.697C27.9151 87.5393 27.9357 87.3809 27.9878 87.2315C28.0382 87.1 28.1217 86.9837 28.23 86.8936Z" fill="white"/>
<path d="M37.2356 96.9622C36.7447 96.6664 36.2973 96.3037 35.9062 95.8847C35.648 95.6236 35.4757 95.29 35.4121 94.9283C35.3958 94.6023 35.4821 94.2794 35.6588 94.005C35.8355 93.7305 36.0937 93.5183 36.3972 93.3981C36.7552 93.3002 37.1347 93.3147 37.4842 93.4396C38.0275 93.6229 38.5434 93.8792 39.0176 94.2015C39.508 94.4995 39.9562 94.8619 40.3502 95.279C40.6106 95.5444 40.7821 95.8842 40.8411 96.2513C40.8716 96.5784 40.7858 96.9058 40.5988 97.1758C40.4298 97.4579 40.1685 97.673 39.8592 97.7847C39.5012 97.8827 39.1217 97.8682 38.7722 97.7433C38.2266 97.5545 37.7096 97.2917 37.2356 96.9622ZM37.7361 96.1876C37.9769 96.3468 38.2307 96.4854 38.4948 96.602C38.6781 96.6914 38.8809 96.733 39.0846 96.7231C39.1682 96.7096 39.248 96.6786 39.3188 96.6322C39.3897 96.5858 39.4499 96.5249 39.4956 96.4536C39.5413 96.3823 39.5715 96.3022 39.5842 96.2184C39.5969 96.1347 39.5917 96.0492 39.5691 95.9676C39.4937 95.7781 39.372 95.6104 39.2153 95.4799C38.9987 95.2883 38.7662 95.1156 38.5203 94.9634C38.276 94.8018 38.019 94.66 37.752 94.5394C37.561 94.4486 37.3514 94.4038 37.1399 94.4087C37.0533 94.419 36.9701 94.4486 36.8966 94.4954C36.823 94.5423 36.7609 94.6051 36.715 94.6792C36.669 94.7534 36.6404 94.8369 36.6311 94.9236C36.6219 95.0104 36.6324 95.0981 36.6618 95.1802C36.7455 95.3746 36.8745 95.5462 37.0379 95.6807C37.2567 95.868 37.4902 96.0375 37.7361 96.1876Z" fill="white"/>
<path d="M51.3254 101.028C51.2466 101.308 51.0642 101.547 50.8154 101.697C50.5075 101.86 50.1625 101.94 49.8143 101.93C49.3016 101.919 48.7921 101.847 48.2969 101.713C47.8876 101.614 47.4851 101.488 47.0919 101.337C46.7807 101.22 46.4885 101.058 46.2248 100.856C46.0042 100.694 45.8398 100.468 45.7546 100.208C45.6694 99.9488 45.6677 99.669 45.7498 99.4084C45.8091 99.1323 45.9463 98.879 46.1451 98.6783C46.3439 98.4975 46.5888 98.375 46.8528 98.3245C47.1795 98.2621 47.5137 98.2492 47.8442 98.2862C48.2633 98.3321 48.6787 98.4067 49.0875 98.5094C49.5901 98.623 50.0756 98.802 50.5316 99.0418C50.8469 99.2009 51.1134 99.4421 51.3031 99.7399C51.4495 99.9969 51.4971 100.298 51.437 100.588L50.2128 100.285C50.197 100.167 50.1472 100.056 50.0694 99.9663C49.9573 99.8403 49.8191 99.7402 49.6645 99.673C49.4072 99.5576 49.1392 99.4679 48.8643 99.4052C48.5377 99.318 48.2037 99.2615 47.8665 99.2362C47.6586 99.211 47.4478 99.2441 47.2576 99.3319C47.187 99.3716 47.1257 99.4261 47.0779 99.4915C47.03 99.5569 46.9967 99.6319 46.9803 99.7112C46.9594 99.7846 46.9554 99.8617 46.9687 99.9368C46.9819 100.012 47.0121 100.083 47.0568 100.145C47.1897 100.305 47.3607 100.429 47.5541 100.505C47.8628 100.64 48.1828 100.746 48.5105 100.824C48.7816 100.897 49.0592 100.944 49.3393 100.964C49.505 100.978 49.6717 100.96 49.8303 100.91C49.9322 100.874 50.0232 100.812 50.0949 100.731L51.3254 101.028Z" fill="white"/>
<path d="M57.0645 99.5653L58.2759 99.543L58.3332 102.648L57.1218 102.67L57.0645 99.5653Z" fill="white"/>
<path d="M65.225 100.424L65.3271 100.797L68.8816 99.8249L69.127 100.714L64.3962 102.005L63.5801 99.0056L68.295 97.7305L68.5405 98.6199L64.9923 99.5763L65.0943 99.9524L67.9953 99.1587L68.126 99.6273L65.225 100.424Z" fill="white"/>
<path d="M72.8691 95.7046L77.1282 92.998L77.6223 93.7759L73.3633 96.4824L72.8691 95.7046ZM74.9477 95.4017L75.971 94.7642L77.176 96.6769L76.1527 97.3145L74.9477 95.4017Z" fill="white"/>
<path d="M84.1101 85.9844L84.5787 88.9842L85.1748 89.5006L84.3842 90.4188L83.7849 89.9023L80.75 89.8768L81.6841 88.7961L84.2344 88.9013L83.6478 89.5803L83.1601 87.0683L84.1101 85.9844Z" fill="white"/>
<path d="M24.6621 16.8545L25.4463 15.9268L27.815 17.9352L27.0307 18.8597L24.6621 16.8545ZM26.1413 16.7589L28.3728 14.148L29.0774 14.7441L26.8713 17.3487L26.1413 16.7589ZM27.442 13.571L28.2262 12.6465L30.6044 14.6389L29.8202 15.5666L27.442 13.571Z" fill="white"/>
<path d="M31.4769 13.7805L31.123 10.0633L32.1655 9.20898L35.7583 10.2801L34.7254 11.1249L31.5598 10.1112L32.1177 9.6521L32.5162 12.9325L31.4769 13.7805ZM32.022 12.7284L31.5598 12.1642L34.1292 10.0633L34.5883 10.6276L32.022 12.7284Z" fill="white"/>
<path d="M35.2734 6.87628L39.7652 4.37695L40.2147 5.1835L37.8365 8.17695L37.7058 8.02074L40.8268 6.28651L41.2763 7.08987L36.7813 9.59238L36.3414 8.78903L38.7291 5.7892L38.8598 5.94222L35.7261 7.68601L35.2734 6.87628Z" fill="white"/>
<path d="M43.388 4.8678L43.5123 5.23441L47.0031 4.04213L47.2996 4.91243L42.6644 6.50639L41.6602 3.56075L46.2858 1.9668L46.5855 2.8371L43.1043 4.02938L43.2318 4.39599L46.0754 3.42049L46.2348 3.87954L43.388 4.8678Z" fill="white"/>
<path d="M54.9062 3.42332L54.1953 3.46795L56.6563 0.573322L57.8677 0.5L58.0558 3.59865L56.8476 3.67197L56.7169 1.56158L57.0899 1.68909L55.2983 3.76761L53.8446 3.85687L51.8075 2.02063L52.1646 1.84849L52.2953 3.95251L51.0839 4.02902L50.8926 0.930368L52.104 0.853858L54.9062 3.42332Z" fill="white"/>
<path d="M62.3885 4.25511C61.8195 4.18483 61.2628 4.03681 60.734 3.81518C60.3879 3.67858 60.0928 3.43799 59.8892 3.12659C59.7244 2.83676 59.6689 2.49743 59.733 2.17021C59.7721 1.84453 59.9231 1.54254 60.1602 1.31585C60.4474 1.08025 60.8003 0.938884 61.1707 0.910987C62.3167 0.832314 63.4659 1.00644 64.5372 1.42105C64.8839 1.55642 65.1801 1.79586 65.3852 2.10645C65.547 2.39733 65.6012 2.73596 65.5382 3.06283C65.4999 3.38874 65.3487 3.69099 65.111 3.91719C64.824 4.15376 64.4712 4.29623 64.1004 4.32524C63.5292 4.37899 62.9534 4.3554 62.3885 4.25511ZM62.5256 3.34337C62.8112 3.3903 63.1001 3.41376 63.3895 3.4135C63.5943 3.42015 63.7974 3.37405 63.9793 3.27961C64.053 3.23719 64.1156 3.17772 64.1616 3.10616C64.2076 3.03461 64.2359 2.95307 64.2439 2.86837C64.2609 2.78449 64.258 2.69778 64.2353 2.61526C64.2125 2.53274 64.1707 2.45672 64.1132 2.39337C63.9668 2.25126 63.787 2.14821 63.5904 2.0937C63.3145 2.00752 63.0319 1.94461 62.7456 1.90562C62.4558 1.85737 62.1626 1.83285 61.8689 1.83229C61.6577 1.82602 61.4479 1.86971 61.2568 1.95981C61.1807 2.00117 61.1159 2.06059 61.0681 2.13285C61.0203 2.20511 60.9909 2.288 60.9826 2.37424C60.9644 2.45883 60.9676 2.54665 60.9921 2.62965C61.0166 2.71265 61.0616 2.78816 61.1229 2.84924C61.2773 2.99819 61.4654 3.10756 61.6712 3.16803C61.9512 3.24772 62.2368 3.30633 62.5256 3.34337Z" fill="white"/>
<path d="M71.6166 5.73138L71.1034 5.81746L71.9258 3.55085L73.0639 3.96528L72.0087 6.87585L70.8675 6.46142L68.1545 3.23844L68.6678 3.14599L67.8581 5.37753L66.7168 4.9631L67.7752 2.04297L68.9133 2.45421L71.6166 5.73138Z" fill="white"/>
<path d="M74.9533 4.88086L75.9958 5.5025L74.4018 8.17079L73.3594 7.54914L74.9533 4.88086ZM76.3688 7.55871L76.509 7.32599L77.9946 10.3035L76.4421 9.37901L75.2339 6.74579L77.8607 6.61827L79.3558 7.51408L76.3688 7.55871Z" fill="white"/>
<path d="M80.8426 10.9214L80.5876 11.2147L83.3738 13.6279L82.7713 14.3229L79.0605 11.1158L81.0944 8.76953L84.7988 11.9766L84.1963 12.6747L81.4164 10.2679L81.1614 10.5611L83.4344 12.5281L83.1156 12.8947L80.8426 10.9214Z" fill="white"/>
<path d="M89.2622 17.1467L86.2273 17.0989L85.6152 17.6026L84.8438 16.6685L85.4367 16.1648L85.9723 13.1777L86.8808 14.2808L86.3421 16.7928L85.7714 16.1011L88.3218 16.0405L89.2622 17.1467Z" fill="white"/>
<path d="M105.987 56.8814C106.094 56.3374 106.248 55.804 106.45 55.2875C106.707 54.7919 106.921 54.2745 107.087 53.7413C107.087 53.7413 106.864 54.1621 106.564 54.261C106.897 53.7801 107.132 53.2385 107.256 52.667C107.161 52.7582 107.039 52.8163 106.909 52.8328C107.178 52.4135 107.348 51.938 107.406 51.4428C107.313 51.5963 107.185 51.7262 107.033 51.8222C107.333 51.3363 107.499 50.7798 107.514 50.2091C107.459 50.3474 107.354 50.4607 107.221 50.5279C107.416 50.0329 107.49 49.4985 107.438 48.969C107.381 49.0699 107.304 49.1579 107.212 49.2272C107.33 48.7042 107.351 48.1638 107.272 47.6333C107.244 47.7919 107.175 47.9404 107.071 48.0637C107.146 47.5711 107.133 47.0693 107.033 46.5813C106.998 46.7235 106.927 46.8542 106.826 46.9606C106.864 46.4548 106.839 45.9462 106.753 45.4464C106.753 45.4464 106.66 46.0425 106.494 46.0425C106.563 45.8905 106.594 45.7242 106.584 45.5577C106.575 45.3912 106.525 45.2294 106.44 45.0861C106.205 44.5827 106.053 44.0444 105.991 43.4922C105.93 44.0447 105.778 44.5833 105.541 45.0861C105.457 45.2299 105.408 45.3917 105.399 45.5581C105.39 45.7245 105.422 45.8906 105.49 46.0425C105.321 46.0425 105.229 45.4464 105.229 45.4464C105.142 45.9462 105.119 46.4549 105.159 46.9606C105.056 46.8549 104.984 46.7241 104.948 46.5813C104.849 47.0693 104.836 47.5711 104.91 48.0637C104.806 47.9404 104.737 47.7919 104.709 47.6333C104.631 48.1638 104.651 48.7042 104.77 49.2272C104.678 49.1569 104.601 49.0691 104.543 48.969C104.491 49.4985 104.565 50.0329 104.76 50.5279C104.628 50.4591 104.524 50.3464 104.467 50.2091C104.482 50.7798 104.648 51.3363 104.948 51.8222C104.797 51.7253 104.67 51.5956 104.575 51.4428C104.633 51.938 104.803 52.4135 105.072 52.8328C104.943 52.8157 104.822 52.7576 104.728 52.667C104.85 53.2386 105.084 53.7803 105.417 54.261C105.117 54.1621 104.894 53.7413 104.894 53.7413C105.061 54.2745 105.274 54.7919 105.532 55.2875C105.731 55.8042 105.883 56.3376 105.987 56.8814Z" fill="#008B00"/>
<path d="M105.988 56.8824C105.707 56.4655 105.465 56.0237 105.264 55.5626C105.11 55.0789 104.914 54.6095 104.678 54.16C104.748 54.3786 104.748 54.6139 104.678 54.8326C104.585 54.3117 104.39 53.8144 104.104 53.3694C104.1 53.485 104.06 53.5965 103.989 53.6882C103.892 53.2445 103.695 52.8291 103.412 52.4736C103.451 52.6328 103.451 52.7989 103.412 52.9581C103.294 52.453 103.043 51.9886 102.685 51.6128C102.741 51.7374 102.749 51.8781 102.708 52.0081C102.512 51.5648 102.215 51.1738 101.84 50.8669C101.871 50.9703 101.878 51.079 101.863 51.1856C101.604 50.7753 101.271 50.4165 100.881 50.1273C100.966 50.2461 101.017 50.3862 101.028 50.5321C100.76 50.1673 100.43 49.8532 100.052 49.6044C100.12 49.7184 100.157 49.848 100.16 49.9806C99.8601 49.6303 99.5174 49.3187 99.1403 49.0529C99.1403 49.0529 99.4591 49.496 99.3571 49.6044C99.3029 49.4616 99.2153 49.3338 99.1016 49.2317C98.9879 49.1296 98.8514 49.0563 98.7035 49.0179C98.2312 48.8484 97.7897 48.6029 97.3965 48.291C97.7083 48.6842 97.9539 49.1257 98.1233 49.5981C98.164 49.743 98.2384 49.8763 98.3403 49.9871C98.4422 50.0979 98.5689 50.183 98.7099 50.2356C98.6015 50.344 98.1584 50.0221 98.1584 50.0221C98.4252 50.3984 98.7367 50.7409 99.0861 51.0422C98.9534 51.0391 98.8238 51.0018 98.7099 50.9338C98.9597 51.3107 99.2737 51.6409 99.6376 51.9093C99.4917 51.8987 99.3516 51.8479 99.2327 51.7627C99.5219 52.1524 99.8808 52.4853 100.291 52.7445C100.184 52.7583 100.076 52.7508 99.9723 52.7222C100.28 53.0975 100.672 53.3946 101.117 53.5893C100.986 53.6307 100.844 53.6227 100.718 53.567C101.095 53.9251 101.561 54.176 102.067 54.2939C101.907 54.3309 101.742 54.3309 101.582 54.2939C101.937 54.577 102.353 54.7744 102.797 54.8709C102.705 54.9407 102.593 54.9807 102.478 54.9856C102.923 55.2718 103.42 55.4668 103.941 55.5595C103.722 55.6282 103.488 55.6282 103.269 55.5595C103.718 55.7955 104.188 55.9918 104.671 56.146C105.132 56.3507 105.573 56.5972 105.988 56.8824Z" fill="#008B00"/>
<path d="M105.988 56.8814C106.405 56.6004 106.847 56.3582 107.308 56.1578C107.792 56.0035 108.261 55.8072 108.711 55.5712C108.492 55.64 108.257 55.64 108.038 55.5712C108.56 55.4782 109.058 55.2832 109.505 54.9974C109.389 54.9925 109.278 54.9524 109.186 54.8826C109.629 54.7855 110.045 54.5881 110.4 54.3056C110.241 54.3425 110.075 54.3425 109.916 54.3056C110.42 54.1869 110.883 53.936 111.258 53.5787C111.133 53.6343 110.993 53.6422 110.863 53.601C111.306 53.4058 111.697 53.1087 112.004 52.7339C111.9 52.7627 111.792 52.7703 111.685 52.7562C112.095 52.4971 112.454 52.1642 112.743 51.7744C112.625 51.8596 112.484 51.9104 112.339 51.921C112.702 51.6526 113.016 51.3224 113.266 50.9455C113.153 51.0142 113.023 51.0516 112.89 51.0539C113.24 50.7536 113.552 50.4109 113.818 50.0338C113.818 50.0338 113.375 50.3526 113.266 50.2474C113.407 50.1948 113.534 50.1096 113.636 49.9988C113.738 49.888 113.812 49.7547 113.853 49.6098C114.022 49.1374 114.268 48.6959 114.58 48.3027C114.187 48.614 113.747 48.8595 113.276 49.0296C113.128 49.068 112.991 49.1414 112.878 49.2434C112.764 49.3455 112.676 49.4733 112.622 49.6162C112.514 49.5078 112.836 49.0646 112.836 49.0646C112.459 49.3304 112.116 49.6421 111.816 49.9923C111.818 49.8596 111.855 49.7298 111.924 49.6162C111.547 49.866 111.217 50.18 110.949 50.5438C110.959 50.3979 111.01 50.2578 111.095 50.139C110.707 50.4293 110.374 50.7879 110.113 51.1974C110.1 51.0907 110.107 50.9823 110.136 50.8786C109.761 51.1855 109.464 51.5765 109.269 52.0198C109.228 51.8898 109.235 51.7491 109.291 51.6245C108.933 52.0003 108.682 52.4647 108.564 52.9698C108.527 52.8104 108.527 52.6447 108.564 52.4853C108.282 52.8406 108.086 53.2563 107.99 53.6999C107.918 53.609 107.876 53.4972 107.872 53.3811C107.586 53.8261 107.391 54.3234 107.299 54.8443C107.23 54.6254 107.23 54.3906 107.299 54.1717C107.062 54.6212 106.866 55.0906 106.712 55.5744C106.511 56.0311 106.269 56.4686 105.988 56.8814Z" fill="#008B00"/>
<path d="M105.988 56.8818C106.338 56.9499 106.68 57.0491 107.012 57.1782C107.33 57.3444 107.663 57.482 108.006 57.5895C108.006 57.5895 107.735 57.4428 107.671 57.2515C107.978 57.465 108.324 57.6156 108.688 57.6947C108.63 57.6335 108.593 57.5553 108.583 57.4715C108.853 57.6457 109.16 57.7548 109.479 57.7903C109.379 57.7301 109.295 57.6471 109.234 57.548C109.545 57.7457 109.904 57.8559 110.273 57.8668C110.182 57.8335 110.107 57.7675 110.062 57.6819C110.382 57.8053 110.726 57.8522 111.067 57.819C111.002 57.7822 110.945 57.7335 110.898 57.6755C111.234 57.7491 111.58 57.762 111.921 57.7138C111.819 57.6952 111.723 57.6501 111.644 57.5831C111.961 57.6312 112.285 57.6225 112.6 57.5576C112.508 57.5348 112.424 57.4887 112.355 57.4237C112.68 57.4497 113.008 57.4347 113.33 57.3791C113.33 57.3791 112.947 57.3185 112.947 57.2101C113.046 57.255 113.153 57.2755 113.261 57.27C113.368 57.2644 113.473 57.2329 113.566 57.1782C113.887 57.0277 114.231 56.9297 114.583 56.8881C114.231 56.8465 113.887 56.7486 113.566 56.598C113.473 56.5433 113.368 56.5118 113.261 56.5063C113.153 56.5007 113.046 56.5213 112.947 56.5661C112.947 56.4578 113.33 56.3972 113.33 56.3972C113.008 56.3416 112.68 56.3266 112.355 56.3526C112.424 56.2873 112.508 56.2402 112.6 56.2155C112.285 56.1526 111.961 56.145 111.644 56.1932C111.723 56.1262 111.819 56.0811 111.921 56.0625C111.58 56.0142 111.234 56.0272 110.898 56.1007C110.945 56.0428 111.002 55.9941 111.067 55.9573C110.726 55.9221 110.381 55.9691 110.062 56.0943C110.108 56.0083 110.182 55.9414 110.273 55.9062C109.904 55.9183 109.546 56.0283 109.234 56.225C109.295 56.126 109.379 56.0429 109.479 55.9828C109.16 56.0188 108.853 56.1279 108.583 56.3015C108.594 56.2189 108.631 56.1419 108.688 56.0816C108.324 56.1606 107.978 56.3112 107.671 56.5247C107.735 56.3334 108.006 56.1868 108.006 56.1868C107.663 56.2942 107.33 56.4318 107.012 56.598C106.68 56.7228 106.337 56.8177 105.988 56.8818Z" fill="#008B00"/>
<path d="M105.988 56.8809C106.105 57.0553 106.207 57.2399 106.291 57.4324C106.355 57.6349 106.437 57.8312 106.537 58.0189C106.507 57.9278 106.507 57.8296 106.537 57.7384C106.576 57.956 106.657 58.1639 106.776 58.3505C106.778 58.3006 106.796 58.2528 106.827 58.2134C106.867 58.3984 106.948 58.5718 107.066 58.7203C107.05 58.6532 107.05 58.5833 107.066 58.5163C107.115 58.7279 107.219 58.9226 107.369 59.0805C107.349 59.0271 107.349 58.9682 107.369 58.9147C107.451 59.1005 107.575 59.2643 107.732 59.3929C107.722 59.3499 107.722 59.3053 107.732 59.2622C107.84 59.4342 107.98 59.5845 108.143 59.7054C108.107 59.655 108.085 59.5954 108.08 59.5332C108.191 59.6861 108.33 59.8178 108.488 59.9221C108.461 59.8743 108.445 59.8208 108.443 59.7659C108.569 59.9111 108.713 60.0406 108.87 60.1517C108.87 60.1517 108.733 59.9668 108.781 59.9221C108.803 59.9818 108.839 60.0353 108.886 60.0781C108.933 60.1208 108.99 60.1515 109.052 60.1676C109.25 60.2439 109.436 60.3515 109.6 60.4864C109.463 60.3244 109.355 60.14 109.281 59.9413C109.265 59.8797 109.235 59.8229 109.192 59.7757C109.149 59.7285 109.096 59.6923 109.036 59.6703C109.084 59.6225 109.265 59.7595 109.265 59.7595C109.155 59.6014 109.026 59.4579 108.88 59.3324C108.935 59.3335 108.989 59.3489 109.036 59.377C108.932 59.219 108.8 59.0808 108.647 58.9689C108.709 58.9739 108.769 58.996 108.819 59.0327C108.698 58.8693 108.548 58.7298 108.376 58.6215C108.419 58.6118 108.464 58.6118 108.507 58.6215C108.378 58.4644 108.214 58.3399 108.029 58.258C108.082 58.2377 108.141 58.2377 108.194 58.258C108.037 58.1092 107.844 58.0047 107.633 57.9552C107.699 57.9392 107.768 57.9392 107.834 57.9552C107.686 57.8379 107.512 57.7561 107.327 57.7161C107.367 57.6854 107.414 57.6676 107.464 57.6651C107.278 57.5465 107.07 57.4653 106.852 57.426C106.943 57.3965 107.042 57.3965 107.133 57.426C106.945 57.3267 106.749 57.2446 106.546 57.1805C106.352 57.0975 106.165 56.9972 105.988 56.8809Z" fill="#008B00"/>
<path d="M105.989 56.8818C105.64 56.9499 105.297 57.0491 104.966 57.1782C104.647 57.3444 104.314 57.482 103.971 57.5895C103.971 57.5895 104.242 57.4428 104.306 57.2515C104 57.465 103.654 57.6156 103.289 57.6947C103.347 57.6335 103.384 57.5553 103.394 57.4715C103.125 57.6452 102.82 57.7543 102.502 57.7903C102.6 57.729 102.683 57.6461 102.744 57.548C102.432 57.7457 102.073 57.8559 101.705 57.8668C101.795 57.8335 101.87 57.7675 101.915 57.6819C101.596 57.8053 101.252 57.8522 100.911 57.819C100.976 57.7831 101.034 57.7343 101.08 57.6755C100.744 57.7491 100.397 57.762 100.056 57.7138C100.159 57.6957 100.255 57.6506 100.334 57.5831C100.016 57.6312 99.6922 57.6225 99.3774 57.5576C99.4696 57.5355 99.5544 57.4893 99.6229 57.4237C99.2971 57.4497 98.9694 57.4347 98.6474 57.3791C98.6474 57.3791 99.0299 57.3185 99.0299 57.2101C98.9319 57.255 98.8245 57.2755 98.7168 57.27C98.6091 57.2644 98.5044 57.2329 98.4115 57.1782C98.0902 57.0277 97.7469 56.9297 97.3945 56.8881C97.7469 56.8465 98.0902 56.7486 98.4115 56.598C98.5044 56.5433 98.6091 56.5118 98.7168 56.5063C98.8245 56.5007 98.9319 56.5213 99.0299 56.5661C99.0299 56.4578 98.6474 56.3972 98.6474 56.3972C98.9694 56.3416 99.2971 56.3266 99.6229 56.3526C99.554 56.2868 99.4695 56.2396 99.3774 56.2155C99.6925 56.1526 100.016 56.145 100.334 56.1932C100.255 56.1256 100.159 56.0805 100.056 56.0625C100.397 56.0142 100.744 56.0272 101.08 56.1007C101.034 56.042 100.976 55.9931 100.911 55.9573C101.252 55.9221 101.596 55.9691 101.915 56.0943C101.87 56.0083 101.795 55.9414 101.705 55.9062C102.073 55.9183 102.432 56.0283 102.744 56.225C102.683 56.1269 102.6 56.0441 102.502 55.9828C102.82 56.0192 103.125 56.1283 103.394 56.3015C103.383 56.2189 103.347 56.1419 103.289 56.0816C103.654 56.1606 104 56.3112 104.306 56.5247C104.242 56.3334 103.971 56.1868 103.971 56.1868C104.314 56.2942 104.647 56.4318 104.966 56.598C105.298 56.7228 105.64 56.8177 105.989 56.8818Z" fill="#008B00"/>
<path d="M105.988 56.8809C105.866 57.0547 105.759 57.2393 105.669 57.4324C105.605 57.6349 105.523 57.8312 105.424 58.0189C105.453 57.9278 105.453 57.8296 105.424 57.7384C105.385 57.956 105.303 58.1639 105.185 58.3505C105.182 58.3006 105.165 58.2528 105.134 58.2134C105.094 58.3984 105.012 58.5718 104.895 58.7203C104.909 58.6531 104.909 58.5835 104.895 58.5163C104.84 58.7292 104.73 58.9238 104.576 59.0805C104.596 59.0271 104.596 58.9682 104.576 58.9147C104.494 59.1005 104.37 59.2643 104.213 59.3929C104.222 59.3499 104.222 59.3053 104.213 59.2622C104.105 59.4337 103.967 59.5839 103.805 59.7054C103.84 59.6545 103.861 59.595 103.865 59.5332C103.753 59.6861 103.615 59.8178 103.457 59.9221C103.485 59.8748 103.501 59.821 103.502 59.7659C103.376 59.912 103.233 60.0416 103.075 60.1517C103.075 60.1517 103.212 59.9668 103.167 59.9221C103.144 59.9818 103.107 60.0351 103.059 60.0778C103.012 60.1205 102.955 60.1512 102.893 60.1676C102.695 60.2429 102.51 60.3507 102.348 60.4864C102.483 60.3236 102.591 60.1394 102.666 59.9413C102.683 59.8797 102.713 59.8229 102.756 59.7757C102.799 59.7285 102.852 59.6923 102.912 59.6703C102.867 59.6225 102.682 59.7595 102.682 59.7595C102.792 59.6014 102.922 59.4579 103.068 59.3324C103.013 59.3348 102.96 59.3501 102.912 59.377C103.016 59.219 103.148 59.0808 103.301 58.9689C103.239 58.9739 103.179 58.996 103.129 59.0327C103.25 58.8693 103.4 58.7298 103.572 58.6215C103.529 58.6118 103.484 58.6118 103.441 58.6215C103.57 58.4644 103.734 58.3399 103.919 58.258C103.866 58.238 103.807 58.238 103.754 58.258C103.911 58.1088 104.106 58.0043 104.318 57.9552C104.251 57.9392 104.181 57.9392 104.114 57.9552C104.262 57.8379 104.436 57.7561 104.621 57.7161C104.582 57.685 104.534 57.6671 104.484 57.6651C104.67 57.5465 104.878 57.4653 105.096 57.426C105.004 57.3965 104.906 57.3965 104.815 57.426C105.003 57.3267 105.199 57.2446 105.402 57.1805C105.606 57.0991 105.802 56.9988 105.988 56.8809Z" fill="#008B00"/>
<path d="M106.036 56.2695L106.109 60.4712H105.867L105.941 56.2695H106.036Z" fill="#008B00"/>
<path d="M8.60657 56.8817C8.71277 56.3373 8.86857 55.8038 9.07201 55.2878C9.32811 54.7914 9.54141 54.2742 9.70959 53.7416C9.59201 53.9649 9.40829 54.1464 9.18358 54.2612C9.51763 53.7811 9.75279 53.2392 9.87536 52.6673C9.78038 52.7585 9.65852 52.8166 9.52788 52.8331C9.79906 52.4145 9.9693 51.9387 10.0252 51.4431C9.93268 51.5974 9.80484 51.7274 9.65221 51.8225C9.94144 51.3412 10.1007 50.7931 10.1145 50.2317C10.0591 50.3693 9.95615 50.4825 9.82436 50.5505C10.0172 50.0549 10.0904 49.5208 10.0379 48.9916C9.9819 49.092 9.90597 49.1799 9.81479 49.2498C9.93124 48.7265 9.95069 48.1862 9.87217 47.6559C9.84578 47.815 9.77633 47.9638 9.67134 48.0863C9.74563 47.5937 9.73268 47.0919 9.63308 46.6039C9.59794 46.7461 9.52655 46.8768 9.42587 46.9832C9.46362 46.4774 9.43899 45.9688 9.35254 45.469C9.35254 45.469 9.26328 46.0651 9.09432 46.0651C9.16293 45.9131 9.19382 45.7468 9.18439 45.5803C9.17495 45.4138 9.12547 45.252 9.04013 45.1087C8.81411 44.6108 8.66781 44.0805 8.60657 43.5371C8.54571 44.0896 8.39383 44.6282 8.15708 45.1311C8.07275 45.2748 8.02412 45.4366 8.01524 45.6031C8.00637 45.7695 8.03751 45.9356 8.10607 46.0874C7.93711 46.0874 7.84785 45.4913 7.84785 45.4913C7.75955 45.9909 7.73491 46.4997 7.77453 47.0056C7.6722 46.8998 7.59962 46.769 7.56412 46.6262C7.46478 47.1144 7.45291 47.6163 7.52906 48.1086C7.42407 47.9862 7.35461 47.8373 7.32822 47.6782C7.24971 48.2086 7.26916 48.7488 7.3856 49.2722C7.29393 49.2018 7.21702 49.114 7.15926 49.0139C7.10865 49.5434 7.1829 50.0773 7.37604 50.5728C7.24424 50.5048 7.14128 50.3917 7.08594 50.254C7.0999 50.825 7.26608 51.3819 7.56731 51.8671C7.41456 51.7711 7.28586 51.6413 7.19114 51.4878C7.24871 51.9829 7.41883 52.4584 7.68845 52.8777C7.55118 52.8563 7.42527 52.7889 7.33141 52.6864C7.45398 53.2584 7.68914 53.8002 8.02318 54.2804C7.79298 54.1615 7.60736 53.9714 7.49399 53.7384C7.6606 54.2716 7.87396 54.789 8.13157 55.2846C8.33891 55.8011 8.49792 56.3358 8.60657 56.8817Z" fill="#008B00"/>
<path d="M8.60737 56.8824C8.32636 56.4655 8.08413 56.0237 7.88371 55.5626C7.72948 55.0789 7.5332 54.6095 7.29713 54.16C7.3676 54.3786 7.3676 54.6139 7.29713 54.8326C7.20449 54.3117 7.00945 53.8144 6.72331 53.3694C6.72103 53.4853 6.6807 53.5973 6.60854 53.6882C6.51165 53.2451 6.31545 52.8298 6.03472 52.4736C6.07162 52.633 6.07162 52.7987 6.03472 52.9581C5.9146 52.453 5.6627 51.9888 5.30469 51.6128C5.36021 51.7374 5.36814 51.8781 5.327 52.0081C5.13328 51.5657 4.83717 51.1756 4.46308 50.87C4.49162 50.9738 4.49921 51.0821 4.48539 51.1888C4.22438 50.7789 3.89052 50.4202 3.50033 50.1304C3.58571 50.2495 3.63746 50.3893 3.65016 50.5353C3.37754 50.1649 3.04066 49.8463 2.65553 49.5949C2.72354 49.7088 2.76088 49.8384 2.76392 49.971C2.46359 49.6208 2.12093 49.3092 1.74379 49.0434C1.74379 49.0434 2.06258 49.4865 1.96057 49.5949C1.90641 49.452 1.81881 49.3242 1.70511 49.2221C1.59141 49.1201 1.45491 49.0468 1.30704 49.0083C0.83565 48.841 0.394308 48.5988 0 48.291C0.311558 48.6832 0.557062 49.1236 0.726844 49.5949C0.767535 49.7398 0.841868 49.8731 0.943796 49.9839C1.04572 50.0947 1.17237 50.1798 1.31342 50.2325C1.20503 50.3408 0.765099 50.0189 0.765099 50.0189C1.0309 50.396 1.34251 50.7387 1.69278 51.039C1.55907 51.0364 1.42834 50.999 1.31342 50.9306C1.55869 51.3126 1.8695 51.6482 2.23154 51.922C2.08472 51.9112 1.94364 51.8605 1.82349 51.7754C2.11269 52.1652 2.47153 52.4981 2.88187 52.7573C2.77518 52.7711 2.66681 52.7635 2.56308 52.735C2.8715 53.1095 3.26349 53.4065 3.70754 53.6021C3.57639 53.6431 3.4348 53.6352 3.30905 53.5798C3.68613 53.9374 4.15154 54.1882 4.65754 54.3066C4.49814 54.3436 4.33238 54.3436 4.17298 54.3066C4.53769 54.593 4.96469 54.7896 5.41945 54.8804C5.32736 54.9503 5.21613 54.9903 5.10066 54.9952C5.54567 55.2813 6.04302 55.4764 6.56391 55.569C6.34497 55.6378 6.11021 55.6378 5.89126 55.569C6.34082 55.8051 6.81017 56.0014 7.29395 56.1556C7.75297 56.3574 8.1926 56.6007 8.60737 56.8824Z" fill="#008B00"/>
<path d="M8.60742 56.8814C9.02551 56.6005 9.46834 56.3583 9.93041 56.1578C10.4139 56.0028 10.8832 55.8066 11.3331 55.5712C11.1141 55.64 10.8794 55.64 10.6604 55.5712C11.1813 55.4785 11.6787 55.2835 12.1237 54.9974C12.0082 54.9925 11.897 54.9524 11.8049 54.8826C12.2487 54.7861 12.6643 54.5887 13.0195 54.3056C12.8601 54.3426 12.6943 54.3426 12.5349 54.3056C13.0409 54.1872 13.5063 53.9363 13.8834 53.5787C13.7577 53.6342 13.6161 53.6421 13.4849 53.601C13.929 53.4055 14.321 53.1085 14.6294 52.7339C14.5256 52.7621 14.4173 52.7697 14.3106 52.7562C14.7216 52.4967 15.0814 52.1639 15.3722 51.7744C15.252 51.8594 15.1109 51.9101 14.9641 51.921C15.3285 51.6522 15.6435 51.3221 15.895 50.9455C15.7801 51.0139 15.6493 51.0513 15.5156 51.0539C15.8659 50.7536 16.1775 50.4109 16.4433 50.0338C16.4433 50.0338 16.0034 50.3526 15.895 50.2474C16.0363 50.1957 16.163 50.1108 16.2646 49.9998C16.3661 49.8889 16.4394 49.7551 16.4784 49.6098C16.6487 49.1372 16.8953 48.6956 17.2084 48.3027C16.8143 48.6132 16.3731 48.8586 15.9014 49.0296C15.7518 49.0626 15.6123 49.1311 15.4947 49.2293C15.377 49.3275 15.2847 49.4525 15.2255 49.5938C15.1171 49.4855 15.4423 49.0423 15.4423 49.0423C15.0638 49.3076 14.72 49.6192 14.419 49.97C14.4233 49.8371 14.4617 49.7076 14.5306 49.5938C14.1522 49.843 13.8209 50.1571 13.5519 50.5215C13.5625 50.3756 13.6133 50.2355 13.6985 50.1167C13.3086 50.4108 12.9758 50.7738 12.7166 51.1878C12.7028 51.0811 12.7104 50.9727 12.739 50.869C12.3645 51.1754 12.0683 51.5667 11.875 52.0103C11.8323 51.8804 11.8403 51.7392 11.8973 51.615C11.5354 51.9908 11.2801 52.4562 11.1578 52.9635C11.1209 52.8041 11.1209 52.6383 11.1578 52.4789C10.877 52.8351 10.6808 53.2504 10.5839 53.6935C10.5114 53.6026 10.4701 53.4909 10.466 53.3747C10.1813 53.8205 9.9864 54.3175 9.89215 54.838C9.82275 54.6191 9.82275 54.3842 9.89215 54.1653C9.6546 54.6142 9.45827 55.0836 9.30558 55.568C9.11193 56.0255 8.8783 56.465 8.60742 56.8814Z" fill="#008B00"/>
<path d="M8.60742 56.8818C8.95668 56.9499 9.29915 57.0491 9.63074 57.1782C9.94949 57.3444 10.2823 57.482 10.6254 57.5895C10.6254 57.5895 10.3544 57.4428 10.2906 57.2515C10.5976 57.464 10.943 57.6145 11.3076 57.6947C11.2494 57.6335 11.2125 57.5553 11.2024 57.4715C11.4723 57.6457 11.7789 57.7548 12.0982 57.7903C11.9991 57.7292 11.9151 57.6463 11.8527 57.548C12.1642 57.7457 12.5232 57.8559 12.892 57.8668C12.8013 57.8335 12.7263 57.7675 12.6816 57.6819C13.0012 57.8048 13.3449 57.8517 13.6858 57.819C13.6216 57.7826 13.5652 57.7339 13.52 57.6755C13.855 57.7492 14.2005 57.7621 14.5401 57.7138C14.4379 57.6952 14.3423 57.6501 14.2628 57.5831C14.5806 57.6312 14.9044 57.6225 15.2192 57.5576C15.128 57.5351 15.0444 57.4889 14.9769 57.4237C15.2963 57.4483 15.6175 57.4333 15.9332 57.3791C15.9332 57.3791 15.5507 57.3185 15.5507 57.2101C15.6493 57.255 15.7572 57.2755 15.8654 57.27C15.9736 57.2644 16.0789 57.233 16.1723 57.1782C16.4933 57.0269 16.8368 56.929 17.1893 56.8881C16.8368 56.8473 16.4933 56.7493 16.1723 56.598C16.0789 56.5433 15.9736 56.5118 15.8654 56.5063C15.7572 56.5007 15.6493 56.5212 15.5507 56.5661C15.5507 56.4578 15.9332 56.3972 15.9332 56.3972C15.6175 56.3429 15.2963 56.3279 14.9769 56.3526C15.0448 56.2871 15.1281 56.24 15.2192 56.2155C14.9041 56.1526 14.5805 56.145 14.2628 56.1932C14.3423 56.1262 14.4379 56.0811 14.5401 56.0625C14.2005 56.0141 13.855 56.0271 13.52 56.1007C13.5652 56.0424 13.6216 55.9936 13.6858 55.9573C13.3449 55.9226 13.0007 55.9696 12.6816 56.0943C12.7267 56.0083 12.8014 55.9414 12.892 55.9062C12.5234 55.9183 12.1647 56.0283 11.8527 56.225C11.9151 56.1267 11.9991 56.0439 12.0982 55.9828C11.7791 56.0188 11.4725 56.1279 11.2024 56.3015C11.2132 56.2189 11.25 56.1419 11.3076 56.0816C10.943 56.1617 10.5976 56.3123 10.2906 56.5247C10.3544 56.3334 10.6254 56.1868 10.6254 56.1868C10.2823 56.2942 9.94949 56.4318 9.63074 56.598C9.29873 56.7228 8.95627 56.8177 8.60742 56.8818Z" fill="#008B00"/>
<path d="M8.60742 56.8809C8.72456 57.0553 8.82592 57.2399 8.91027 57.4324C8.97433 57.6349 9.05648 57.8312 9.15574 58.0189C9.12689 57.9277 9.12689 57.8297 9.15574 57.7384C9.19346 57.9564 9.27478 58.1646 9.39484 58.3505C9.39529 58.3008 9.4121 58.2526 9.44266 58.2134C9.48263 58.3984 9.56442 58.5718 9.68175 58.7203C9.66576 58.6532 9.66576 58.5833 9.68175 58.5163C9.73539 58.7296 9.84551 58.9245 10.0005 59.0805C9.98049 59.0271 9.98049 58.9682 10.0005 58.9147C10.0824 59.1005 10.2069 59.2643 10.364 59.3929C10.3561 59.3497 10.3561 59.3054 10.364 59.2622C10.4723 59.4342 10.6118 59.5845 10.7752 59.7054C10.7398 59.6542 10.7179 59.595 10.7114 59.5332C10.8242 59.6863 10.9635 59.8181 11.1227 59.9221C11.0934 59.8751 11.077 59.8213 11.0749 59.7659C11.2014 59.9111 11.3448 60.0406 11.502 60.1517C11.502 60.1517 11.3682 59.9668 11.4128 59.9221C11.4352 59.9822 11.4718 60.0359 11.5196 60.0787C11.5673 60.1215 11.6248 60.152 11.6869 60.1676C11.8843 60.2445 12.0683 60.3521 12.2321 60.4864C12.0963 60.3236 11.9886 60.1394 11.9133 59.9413C11.898 59.8798 11.868 59.8229 11.8258 59.7757C11.7835 59.7285 11.7304 59.6923 11.671 59.6703C11.7156 59.6225 11.9005 59.7595 11.9005 59.7595C11.7803 59.593 11.6376 59.4439 11.4765 59.3164C11.5325 59.3185 11.5871 59.3338 11.6359 59.3611C11.5304 59.2039 11.3989 59.066 11.247 58.953C11.3081 58.9584 11.3666 58.9804 11.416 59.0168C11.2951 58.8533 11.1448 58.7139 10.9729 58.6055C11.0159 58.5956 11.0606 58.5956 11.1036 58.6055C10.9749 58.4485 10.8111 58.324 10.6254 58.2421C10.6788 58.2218 10.7378 58.2218 10.7911 58.2421C10.6342 58.0932 10.4406 57.9887 10.2301 57.9392C10.2961 57.9233 10.3649 57.9233 10.4309 57.9392C10.2828 57.8213 10.1092 57.7395 9.92403 57.7002C9.96338 57.6694 10.0113 57.6516 10.0611 57.6491C9.87447 57.5306 9.6666 57.4494 9.44903 57.4101C9.54022 57.3806 9.63838 57.3806 9.72957 57.4101C9.5418 57.3108 9.34549 57.2286 9.14299 57.1646C8.95668 57.0855 8.77749 56.9906 8.60742 56.8809Z" fill="#008B00"/>
<path d="M8.60737 56.8803C8.25907 56.9481 7.91763 57.0474 7.58723 57.1768C7.26822 57.3424 6.93543 57.48 6.59261 57.588C6.7304 57.5071 6.84128 57.3873 6.9114 57.2437C6.60375 57.457 6.25711 57.6076 5.89126 57.6869C5.94943 57.6257 5.98632 57.5475 5.99647 57.4637C5.72781 57.638 5.42215 57.7472 5.10385 57.7825C5.20269 57.7221 5.28574 57.639 5.34613 57.5402C5.03564 57.7375 4.67777 57.8476 4.31006 57.859C4.40019 57.8261 4.47431 57.7599 4.51727 57.6741C4.19781 57.7975 3.85392 57.8444 3.51308 57.8112C3.57853 57.7753 3.63601 57.7265 3.68204 57.6677C3.34702 57.7414 3.0015 57.7543 2.66191 57.706C2.76417 57.6873 2.85978 57.6423 2.93926 57.5753C2.62144 57.623 2.2977 57.6144 1.98288 57.5498C2.07512 57.5277 2.15983 57.4815 2.22835 57.4159C1.9026 57.4418 1.57487 57.4269 1.25285 57.3713C1.25285 57.3713 1.6354 57.3107 1.6354 57.2023C1.53737 57.2472 1.42994 57.2677 1.32226 57.2622C1.21459 57.2566 1.10984 57.2251 1.01694 57.1704C0.695824 57.0195 0.352407 56.9215 0 56.8803C0.351505 56.8441 0.694886 56.7516 1.01694 56.6062C1.10984 56.5514 1.21459 56.52 1.32226 56.5144C1.42994 56.5089 1.53737 56.5294 1.6354 56.5743C1.6354 56.4659 1.25285 56.4053 1.25285 56.4053C1.57524 56.3441 1.90406 56.3238 2.23154 56.3447C2.16268 56.279 2.0782 56.2318 1.98607 56.2077C2.30118 56.1451 2.62475 56.1375 2.94244 56.1853C2.86297 56.1183 2.76736 56.0733 2.6651 56.0546C3.00469 56.0063 3.3502 56.0193 3.68523 56.0929C3.6392 56.0341 3.58172 55.9853 3.51627 55.9494C3.85714 55.9143 4.20148 55.9613 4.52046 56.0865C4.47617 56.001 4.40263 55.9343 4.31325 55.8984C4.68077 55.9109 5.03837 56.0209 5.34932 56.2172C5.28793 56.1153 5.20257 56.03 5.10066 55.9686C5.41886 56.0043 5.72442 56.1135 5.99328 56.2874C5.98248 56.2047 5.94563 56.1277 5.88808 56.0674C6.25392 56.1467 6.60057 56.2972 6.90821 56.5105C6.83282 56.367 6.71625 56.2493 6.57348 56.1726C6.9163 56.2806 7.24909 56.4182 7.56811 56.5838C7.90469 56.7144 8.25258 56.8136 8.60737 56.8803Z" fill="#008B00"/>
<path d="M8.60768 56.8809C8.49054 57.0553 8.38919 57.2399 8.30483 57.4324C8.24078 57.6349 8.15862 57.8312 8.05936 58.0189C8.08885 57.9278 8.08885 57.8296 8.05936 57.7384C8.02002 57.956 7.93882 58.1639 7.82027 58.3505C7.81982 58.3008 7.80301 58.2526 7.77245 58.2134C7.73038 58.3983 7.64761 58.5714 7.53017 58.7203C7.54475 58.6531 7.54475 58.5835 7.53017 58.5163C7.47552 58.7292 7.36554 58.9238 7.21138 59.0805C7.23143 59.0271 7.23143 58.9682 7.21138 58.9147C7.13095 59.1005 7.00747 59.2644 6.85114 59.3929C6.85897 59.3497 6.85897 59.3054 6.85114 59.2622C6.7416 59.4333 6.60232 59.5834 6.4399 59.7054C6.47521 59.6545 6.49614 59.595 6.50047 59.5332C6.38864 59.6861 6.25047 59.8178 6.09242 59.9221C6.12054 59.8748 6.13591 59.821 6.13705 59.7659C6.0204 59.9102 5.88658 60.0398 5.73856 60.1517C5.73856 60.1517 5.87564 59.9668 5.83101 59.9221C5.80864 59.9822 5.772 60.0359 5.72424 60.0787C5.67648 60.1215 5.61903 60.152 5.55685 60.1676C5.35873 60.2429 5.17451 60.3507 5.01172 60.4864C5.14745 60.3236 5.25518 60.1394 5.33051 59.9413C5.34658 59.8797 5.3773 59.8229 5.42003 59.7757C5.46277 59.7285 5.51627 59.6923 5.57598 59.6703C5.53135 59.6225 5.34645 59.7595 5.34645 59.7595C5.45703 59.6009 5.58777 59.4573 5.73537 59.3324C5.67946 59.3344 5.62484 59.3497 5.57598 59.377C5.68035 59.219 5.81205 59.0808 5.9649 58.9689C5.90362 58.9735 5.84494 58.9956 5.79595 59.0327C5.91614 58.8698 6.06527 58.7304 6.23588 58.6215C6.19284 58.6118 6.14821 58.6118 6.10517 58.6215C6.23452 58.4652 6.39815 58.3408 6.58336 58.258C6.52992 58.238 6.47103 58.238 6.41759 58.258C6.57547 58.1088 6.77022 58.0043 6.98185 57.9552C6.91478 57.9392 6.84489 57.9392 6.77782 57.9552C6.92731 57.8375 7.10181 57.7557 7.28789 57.7161C7.24854 57.6854 7.20067 57.6676 7.15081 57.6651C7.33641 57.5468 7.54319 57.4656 7.7597 57.426C7.66848 57.3967 7.57038 57.3967 7.47916 57.426C7.66693 57.3267 7.86324 57.2446 8.06574 57.1805C8.25481 57.0967 8.43615 56.9964 8.60768 56.8809Z" fill="#008B00"/>
<path d="M8.64285 56.2695L8.71617 60.4712H8.4707L8.54402 56.2695H8.64285Z" fill="#008B00"/>
<path d="M78.5443 58.3316C78.3277 56.5913 77.7985 54.9044 76.9822 53.3521C76.8784 53.1605 76.7147 53.0081 76.516 52.9183C76.3174 52.8285 76.0949 52.8062 75.8824 52.8548L74.0398 53.2469C73.0037 51.5063 72.0187 49.5936 71.9485 49.0835C71.8083 48.159 70.7084 47.1708 69.6086 46.3802C72.2705 44.7416 72.0569 43.9255 71.9485 43.511C71.7732 42.8001 71.0623 41.6971 69.5735 39.8099C69.4079 39.5965 69.1996 39.4199 68.9619 39.2915C68.7243 39.163 68.4624 39.0855 68.1932 39.0639C67.9031 39.0599 67.6147 39.1085 67.342 39.2074C65.85 36.6793 63.5165 34.9005 60.3923 33.9059C57.1694 32.873 53.1621 32.6976 48.5174 33.3703C40.5763 34.5466 37.28 42.4463 36.4639 45.0412C30.9009 44.579 30.155 45.325 29.9063 45.5736C29.7669 45.7121 29.6598 45.8796 29.5926 46.0642C29.5254 46.2488 29.4997 46.4459 29.5174 46.6416C29.5875 47.5661 30.6874 48.7743 31.9275 49.8295C30.19 50.8624 29.2337 51.7869 29.0934 52.536C29.0201 52.9983 28.7746 54.1013 32.3865 55.8801C32.141 57.015 32.106 58.6154 33.2026 59.2944C33.9837 59.7566 35.0835 59.4729 37.2098 58.2264C37.7422 57.9077 38.2363 57.6207 38.6253 57.337L38.7337 57.5857L37.1046 59.6483C37.0174 59.7569 36.9535 59.8822 36.9167 60.0166C36.88 60.1509 36.8713 60.2914 36.891 60.4293C37.5286 64.4174 40.2575 66.9071 41.8546 68.0452C43.1649 69.0016 44.9373 69.8942 45.932 69.7157C46.6747 69.5754 48.1284 68.8613 49.2633 68.2588L48.9445 76.1935C48.9132 76.35 48.9381 76.5126 49.0147 76.6526C49.4387 77.542 50.5385 78.5048 55.8559 78.9989C58.5848 79.2507 61.1734 79.2507 61.2754 79.2507C61.5172 79.2419 61.7494 79.1533 61.9356 78.9988C62.1219 78.8442 62.2518 78.6324 62.3051 78.3964L63.0861 72.7059C65.1774 72.7059 70.2111 72.1704 75.1364 67.8316C77.8685 65.412 79.0384 62.138 78.5443 58.3316ZM73.721 66.3014C68.123 71.2459 62.3083 70.6402 62.2445 70.6402C61.9857 70.6094 61.7252 70.6818 61.5193 70.8417C61.3135 71.0016 61.1789 71.2361 61.1447 71.4945L60.3636 77.2328C59.4423 77.2328 57.8452 77.1595 56.2194 77.0192C52.4257 76.6621 51.2558 76.0947 50.9402 75.8811L51.3992 66.5597C51.4025 66.3722 51.3528 66.1877 51.2558 66.0273C51.1357 65.8279 50.9508 65.6758 50.7321 65.5964C50.5134 65.5169 50.274 65.5148 50.0539 65.5905C49.9919 65.6111 49.9321 65.6378 49.8754 65.6702C48.2815 66.5596 46.2603 67.583 45.6546 67.736C44.6982 67.6627 39.9865 65.208 38.9919 60.5472L40.7293 58.3412C40.8348 58.2102 40.9051 58.0544 40.9333 57.8885C40.9664 57.6792 40.9318 57.4647 40.8345 57.2764L40.436 56.4795L39.9132 55.4275C39.8781 55.3924 39.8781 55.3573 39.843 55.3223C39.6789 55.1118 39.4402 54.9724 39.1763 54.9326C38.9124 54.8929 38.6433 54.9559 38.4244 55.1087C36.7954 56.2468 35.0229 57.2414 34.2419 57.4932C34.2057 56.8683 34.2768 56.2419 34.4523 55.641C34.5123 55.4055 34.4889 55.1564 34.386 54.9361C34.2832 54.7159 34.1072 54.538 33.888 54.4328C32.915 54.0283 31.9971 53.5023 31.156 52.8676C32.0769 52.1233 33.0764 51.482 34.1367 50.9548C34.2515 50.8692 34.3582 50.7731 34.4555 50.6679C34.616 50.4514 34.6839 50.1801 34.6445 49.9135C34.605 49.6469 34.4614 49.4068 34.2451 49.2461C33.3638 48.5864 32.5453 47.8469 31.7999 47.0369C33.5375 46.9604 35.2783 47.0084 37.009 47.1803C37.245 47.1962 37.4792 47.1308 37.6729 46.9951C37.8666 46.8594 38.0081 46.6615 38.0738 46.4344C38.1088 46.3292 40.7675 36.5805 48.8138 35.4074C53.567 34.722 59.4168 34.7124 63.2455 37.6389C63.8988 38.1386 64.484 38.7216 64.9861 39.3731C65.3968 39.9087 65.7504 40.4856 66.0413 41.0946C66.0801 41.2007 66.141 41.2974 66.2198 41.3783C66.3128 41.4717 66.4234 41.5458 66.5451 41.5964C66.6668 41.647 66.7973 41.673 66.9292 41.673C67.061 41.673 67.1915 41.647 67.3132 41.5964C67.4349 41.5458 67.5455 41.4717 67.6385 41.3783C67.7417 41.2763 67.8613 41.1923 67.9923 41.1297C68.678 41.9427 69.2944 42.8118 69.8349 43.7278C69.0134 44.3898 68.1231 44.9616 67.1794 45.4333C66.9974 45.5157 66.8465 45.6542 66.749 45.8287C66.6745 45.9784 66.6342 46.1428 66.6311 46.31C66.626 46.4926 66.6709 46.673 66.7607 46.832C66.8506 46.991 66.9821 47.1224 67.1411 47.2122L67.3707 47.3493C67.7883 47.5979 68.2027 47.8753 68.5693 48.1463C69.0409 48.4737 69.4693 48.8593 69.8445 49.2939C69.8843 49.3431 69.9165 49.3979 69.9401 49.4565C69.9623 49.5773 69.9921 49.6965 70.0294 49.8135C70.0698 49.9474 70.1208 50.0909 70.1824 50.2439C70.8387 51.7191 71.5839 53.1531 72.414 54.538L72.6403 54.9301C72.7192 55.0593 72.8265 55.1686 72.9542 55.2499C73.0818 55.3311 73.2263 55.382 73.3767 55.3988C73.4824 55.4141 73.5898 55.4141 73.6955 55.3988L75.468 55.0067C76.0354 56.3233 77.1066 59.4219 76.2076 62.4887C76.036 63.0818 75.7941 63.6522 75.4871 64.1878C75.0189 64.9849 74.4222 65.6991 73.721 66.3014Z" fill="white"/>
<path d="M51.0351 52.2489H49.5814C49.4358 52.2453 49.2953 52.195 49.1805 52.1055C49.0657 52.0159 48.9827 51.8919 48.9438 51.7516C48.9055 51.6432 48.3764 49.3319 48.1978 48.2289C47.9492 46.8071 48.3764 43.8168 53.7639 39.7268C59.295 35.4932 65.9226 38.34 66.1968 38.4516C66.3429 38.5322 66.4533 38.6649 66.5059 38.8232C66.5584 38.9816 66.5494 39.154 66.4805 39.3059C66.4115 39.4451 66.2941 39.5543 66.1503 39.613C66.0064 39.6717 65.8461 39.6759 65.6995 39.6247C65.6293 39.5865 59.4607 36.9915 54.5418 40.7278C49.5081 44.5533 49.3327 47.1036 49.473 48.0185C49.6165 48.8027 49.9002 50.2246 50.0755 50.9705H51.0319C51.201 50.9612 51.3668 51.0195 51.493 51.1325C51.6191 51.2455 51.6952 51.4039 51.7045 51.573C51.7138 51.7421 51.6556 51.908 51.5426 52.0341C51.4296 52.1603 51.2711 52.2364 51.102 52.2457L51.0351 52.2489Z" fill="white"/>
<path d="M54.1523 57.0537C54.0913 57.0596 54.03 57.0462 53.977 57.0155C52.9473 56.7668 50.7157 53.0688 50.3587 52.2495C50.2705 52.1077 50.2181 51.9466 50.2059 51.78C50.1937 51.6134 50.222 51.4464 50.2885 51.2932C50.4671 50.9361 53.0907 47.5569 54.1874 46.1001C54.2915 45.9696 54.4426 45.8851 54.6083 45.8648C54.774 45.8446 54.9411 45.8901 55.0736 45.9917C55.205 46.0959 55.2901 46.2477 55.3104 46.4141C55.3307 46.5806 55.2845 46.7484 55.182 46.8811C53.9387 48.4751 52.0259 51.0254 51.5286 51.7204C51.8857 52.5747 53.5498 55.0995 54.2224 55.667C55.5709 54.9561 61.8097 50.1551 67.2674 45.7845C67.4044 45.6857 67.575 45.6453 67.7418 45.6722C67.9085 45.6991 68.0578 45.7911 68.1568 45.9279C68.244 46.0597 68.2811 46.2184 68.2612 46.3752C68.2413 46.532 68.1658 46.6764 68.0484 46.7823C68.0133 46.8173 64.8222 49.3772 61.561 51.9053C55.641 56.4831 54.5795 57.0537 54.1523 57.0537Z" fill="white"/>
<path d="M70.6374 65.0208C69.0921 65.0324 67.5607 64.7298 66.136 64.1314C61.9152 62.3876 61.5964 58.1189 61.7399 55.9161L56.8114 58.7597C56.7373 58.8034 56.6552 58.8317 56.5699 58.8428C56.4847 58.8539 56.398 58.8477 56.3152 58.8244C56.2324 58.8012 56.1552 58.7615 56.0882 58.7076C56.0211 58.6538 55.9657 58.5869 55.9251 58.5111C55.8901 58.4409 55.8901 58.4059 55.855 58.3325L55.2174 55.7025C55.1752 55.5381 55.1999 55.3636 55.2863 55.2174C55.3727 55.0712 55.5136 54.9653 55.6781 54.9231C55.8425 54.8808 56.017 54.9056 56.1632 54.992C56.3094 55.0783 56.4153 55.2193 56.4575 55.3837L56.8815 57.1976L62.1639 54.1372C62.238 54.0936 62.3201 54.0653 62.4054 54.0542C62.4906 54.0431 62.5773 54.0493 62.6601 54.0725C62.7428 54.0958 62.8201 54.1355 62.8871 54.1894C62.9542 54.2432 63.0096 54.3101 63.0501 54.3859C63.1259 54.5273 63.1507 54.6906 63.1203 54.8481C63.0852 55.0968 61.8451 60.9658 66.5951 62.9231C71.5587 64.9857 76.6976 62.2473 76.7327 62.2122C76.8094 62.1766 76.8924 62.1565 76.9769 62.1533C77.0615 62.15 77.1458 62.1637 77.225 62.1933C77.3042 62.223 77.3768 62.2681 77.4384 62.3261C77.5 62.3841 77.5494 62.4537 77.5838 62.531C77.6517 62.6737 77.6642 62.8365 77.6188 62.9879C77.5735 63.1393 77.4735 63.2684 77.3384 63.3503C75.2705 64.4351 72.9725 65.0079 70.6374 65.0208Z" fill="white"/>
<path d="M68.9348 59.0465C68.7657 59.0465 68.6035 58.9793 68.4839 58.8597C68.3643 58.7401 68.2972 58.578 68.2972 58.4089C68.2943 58.3205 68.3121 58.2327 68.3492 58.1525C68.3863 58.0722 68.4416 58.0017 68.5108 57.9466L73.0822 53.9267C73.2048 53.8045 73.3709 53.736 73.544 53.7363C73.7171 53.7366 73.883 53.8057 74.0051 53.9283C74.1273 54.0509 74.1958 54.217 74.1955 54.39C74.1952 54.5631 74.1261 54.729 74.0035 54.8512C73.9685 54.8862 73.9685 54.8862 73.9334 54.8862L69.3619 58.903C69.2418 59.0012 69.0899 59.0522 68.9348 59.0465Z" fill="white"/>
<path d="M67.7653 52.3583C67.6027 52.3548 67.4473 52.2907 67.3294 52.1787C67.2115 52.0667 67.1396 51.9148 67.1277 51.7526L66.9492 49.5466V49.368C67.1979 48.1949 68.6516 48.0164 69.4677 48.1248C69.5514 48.1294 69.6334 48.1504 69.709 48.1867C69.7846 48.223 69.8523 48.2738 69.9082 48.3363C69.9642 48.3988 70.0073 48.4716 70.0351 48.5507C70.0629 48.6299 70.0748 48.7137 70.0702 48.7974C70.0656 48.8811 70.0445 48.9631 70.0082 49.0387C69.9719 49.1143 69.9211 49.182 69.8586 49.238C69.7962 49.2939 69.7233 49.337 69.6442 49.3648C69.5651 49.3926 69.4813 49.4045 69.3975 49.3999H69.2892C68.8301 49.3649 68.2977 49.4382 68.1925 49.5784L68.2977 50.8951L68.6866 50.7898L68.9353 50.0056C68.9998 49.8518 69.1185 49.7269 69.2689 49.6547C69.4193 49.5824 69.5909 49.5678 69.7514 49.6135C69.9041 49.6699 70.0294 49.7825 70.1017 49.9283C70.174 50.0741 70.1878 50.2421 70.1403 50.3977L69.7865 51.5071C69.7485 51.6097 69.6868 51.7018 69.6065 51.7761C69.5262 51.8503 69.4294 51.9045 69.3242 51.9343L67.8705 52.2882C67.8705 52.32 67.8004 52.3583 67.7653 52.3583Z" fill="white"/>
<path d="M50.2891 67.1278C50.12 67.1278 49.9578 67.0606 49.8382 66.9411C49.7187 66.8215 49.6515 66.6593 49.6515 66.4902C49.6535 66.3916 49.6774 66.2947 49.7216 66.2065C50.4325 64.8899 51.1753 63.2513 51.2805 62.7189C50.6079 61.5075 44.7581 55.9255 43.7666 55.5684C43.3426 55.5334 41.9941 56.6714 40.8975 57.9147C40.7746 58.0356 40.6092 58.1034 40.4368 58.1034C40.2645 58.1034 40.099 58.0356 39.9762 57.9147C39.8613 57.8067 39.7905 57.6598 39.7775 57.5026C39.7646 57.3454 39.8104 57.189 39.9061 57.0636C40.6871 56.1359 42.67 54.0733 43.9834 54.2869C44.7995 54.4303 47.031 56.4228 48.7653 58.0933C52.5908 61.7594 52.5908 62.3969 52.5908 62.6105C52.5908 63.4298 51.3857 65.7793 50.8533 66.7739C50.8011 66.8792 50.7207 66.968 50.6211 67.0304C50.5215 67.0929 50.4066 67.1266 50.2891 67.1278Z" fill="white"/>
<path opacity="0.5" d="M75.2726 35.627C75.2185 36.1223 75.2763 36.6234 75.4415 37.0934C76.1971 39.3249 78.3106 40.7531 78.3106 40.7531C77.4435 40.5045 76.9781 40.8488 76.7422 41.1739C76.8857 40.9285 76.9143 40.6989 77.2523 40.4917C77.2427 40.4917 74.5967 38.5981 75.2726 35.627Z" fill="#9E9E9E"/>
<path opacity="0.5" d="M75.5957 34.4161C76.4214 33.0581 77.585 33.0389 77.9197 33.0645L77.3459 32.9975C76.2301 30.8202 77.0048 26.7237 79.5774 25.3848C79.0905 25.6909 78.6539 26.0705 78.2831 26.5101C76.8741 28.2156 77.2534 31.7925 77.5467 32.3408C77.662 32.5144 77.8108 32.6634 77.9843 32.7789C78.1578 32.8943 78.3526 32.9741 78.5573 33.0134C78.3523 33.0156 78.1477 33.0327 77.9452 33.0645H78.0185H77.9452C77.0142 33.187 76.1696 33.6729 75.5957 34.4161Z" fill="#9E9E9E"/>
<path opacity="0.5" d="M79.6976 44.4925C80.2172 44.196 82.5667 44.553 83.335 43.8804C82.6675 44.5358 81.7771 44.915 80.842 44.942C79.1524 45.028 78.6105 46.8228 78.6105 46.8228C78.5003 46.1178 78.1993 45.4563 77.7402 44.9101C76.9783 44.0493 76.1462 42.9304 76.2897 41.9453C76.9273 43.8581 78.6392 45.452 78.6392 45.452C78.9326 45.0722 79.2909 44.7474 79.6976 44.4925Z" fill="#9E9E9E"/>
<path opacity="0.5" d="M87.0897 36.5748C86.3756 39.1538 82.3365 40.9104 82.3365 40.9104C82.7553 41.3748 83.0801 41.9162 83.2928 42.5043C83.3696 42.6872 83.3991 42.8864 83.3785 43.0837C83.3579 43.2809 83.2878 43.4698 83.1749 43.6328C83.1904 43.6025 83.2022 43.5704 83.21 43.5372C83.5287 42.4246 81.2207 40.6139 81.2207 40.6139C81.2207 40.6139 86.3851 37.9584 86.6402 36.323C87.0291 33.9735 84.1249 33.3359 84.1249 33.3359C84.1249 33.3359 85.9356 28.9621 84.2301 26.2045L84.1345 26.0547C86.5063 28.2862 84.9888 32.982 84.9888 32.982C84.9888 32.982 87.8069 33.9958 87.0897 36.5748Z" fill="#9E9E9E"/>
<path opacity="0.5" d="M83.625 34.1366C83.625 34.1366 81.2659 32.7052 78.3203 34.6402C80.0037 33.9673 81.8451 33.7924 83.625 34.1366Z" fill="#9E9E9E"/>
<path opacity="0.5" d="M80.9316 40.313C80.9316 40.313 79.2898 40.3959 77.6895 38.5469C77.6895 38.5469 80.09 40.313 80.9316 40.313Z" fill="#9E9E9E"/>
<path d="M78.0152 33.075C77.6097 33.0988 77.2141 33.2093 76.855 33.399C76.4959 33.5888 76.1816 33.8533 75.9334 34.1748C75.4545 34.8398 75.1598 35.6195 75.0791 36.435C74.9643 38.0035 75.9016 39.4412 77.0301 40.4518C77.1449 40.5602 77.2883 40.6622 77.4095 40.7706L77.2564 40.8662C76.0323 41.6058 76.2841 42.712 76.9823 43.7353C77.2295 44.0942 77.5045 44.4332 77.8048 44.7491C77.9123 44.8592 78.0124 44.9764 78.1044 45.0998C78.4799 45.6044 78.7331 46.1893 78.844 46.8085L78.3818 46.7671C78.3818 46.716 78.4168 46.6587 78.4328 46.6108C78.7739 45.68 79.5645 44.8543 80.5878 44.7268C80.6771 44.7108 80.8014 44.7045 80.9066 44.6981C81.7211 44.6616 82.498 44.3452 83.1063 43.8023C83.2769 43.6587 83.3991 43.4659 83.4562 43.2502C83.5132 43.0345 83.5024 42.8065 83.425 42.5973L83.3708 42.4666C83.1682 41.9545 82.884 41.4787 82.5292 41.0575L82.3252 40.8503L82.5834 40.7387C84.1614 40.0182 85.9499 38.9184 86.8871 37.4265C87.9168 35.7177 87.3207 34.1334 85.5578 33.2822C85.4089 33.2107 85.2555 33.1489 85.0987 33.0973L85.1497 32.9379C85.663 31.0443 85.9116 28.3887 84.7257 26.7119C83.9957 25.6663 82.6854 25.1721 81.439 25.1434C78.64 25.0797 77.1034 28.0126 77.0875 30.4991C77.0443 31.3548 77.2026 32.2087 77.5497 32.9921L77.2501 33.1483C77.0374 32.7399 76.889 32.3012 76.8101 31.8476C76.6515 30.9505 76.6786 30.0304 76.8898 29.1443C77.3616 26.8745 78.9301 24.7322 81.4422 24.7481C85.5418 24.8725 86.4918 28.2548 85.8064 31.7329C85.7272 32.1757 85.6207 32.6133 85.4876 33.0431L85.3824 32.8263C86.766 33.3938 87.9073 34.6211 87.6427 36.2087C87.3239 38.2617 85.0923 39.8238 83.3836 40.761C83.1732 40.8726 82.966 40.9778 82.746 41.0798L82.797 40.761C83.1416 41.1342 83.4256 41.5591 83.6386 42.0203C83.7325 42.2011 83.8156 42.3874 83.8873 42.5781C83.988 42.9099 83.9595 43.2675 83.8076 43.5791C83.3039 44.5993 82.0096 45.0998 80.9385 45.1731C80.5446 45.1905 80.1628 45.314 79.8333 45.5306C79.5039 45.7472 79.2392 46.0489 79.0672 46.4036C78.98 46.5567 78.9054 46.7167 78.844 46.8818L78.4647 47.9179L78.3818 46.8404C78.3829 46.8255 78.3829 46.8106 78.3818 46.7957C78.3447 46.5382 78.2817 46.2851 78.1937 46.0402C78.0663 45.6758 77.8788 45.3353 77.639 45.0328C77.3236 44.6626 77.0319 44.2729 76.7655 43.8661C76.0068 42.6961 75.8091 41.4464 77.1417 40.6239V40.828C76.9703 40.6959 76.8074 40.5532 76.6539 40.4008C75.7326 39.5082 74.9834 38.3542 74.8432 37.0535C74.7806 36.4034 74.8735 35.7478 75.1142 35.1407C75.2655 34.7273 75.4806 34.34 75.7517 33.9931C76.2682 33.3204 77.1927 32.7657 78.0566 33.0654L78.0152 33.075Z" fill="white" stroke="white" stroke-width="0.318791" stroke-linecap="square" stroke-linejoin="round"/>
</g>
<defs>
<clipPath id="clip0_931_2204">
<rect width="114.58" height="102.169" fill="white" transform="translate(0 0.5)"/>
</clipPath>
</defs>
</svg>
