<svg width="73" height="69" viewBox="0 0 73 69" fill="none" xmlns="http://www.w3.org/2000/svg">
<path d="M47.4253 68.1398C47.2687 68.1398 43.4597 68.1398 39.442 67.7732C31.6151 67.0401 29.9976 65.6263 29.3715 64.3172C29.2671 64.1078 29.2149 63.8983 29.2671 63.6365L29.7367 51.9594C28.067 52.8496 25.9277 53.8969 24.8319 54.1063C23.3709 54.3681 20.762 53.0591 18.8314 51.6452C16.4833 49.9696 12.4656 46.3041 11.5264 40.4394C11.4742 40.0205 11.5785 39.6016 11.8394 39.2874L14.2396 36.2503L14.0831 35.8838C13.5091 36.3027 12.7786 36.7216 11.996 37.1929C8.86524 39.0256 7.24771 39.4445 6.09978 38.7638C4.48224 37.7689 4.53441 35.4125 4.89966 33.7369C-0.422564 31.1187 -0.0573076 29.4954 0.0470498 28.8147C0.255764 27.7151 1.66459 26.3536 4.22134 24.8351C2.39509 23.2642 0.777542 21.4838 0.673184 20.1223C0.621006 19.5463 0.829724 18.9703 1.24715 18.5514C1.6124 18.1849 2.70816 17.0853 10.9002 17.766C12.1003 13.9434 16.9529 2.31873 28.641 0.590727C35.4764 -0.404181 41.3726 -0.142364 46.1208 1.37618C50.7125 2.84236 54.1563 5.46054 56.3478 9.17836C56.7653 9.02127 57.1827 8.9689 57.6001 8.9689C58.3828 9.02127 59.1655 9.44017 59.6351 10.0685C61.8266 12.8438 62.8702 14.4671 63.1311 15.5144C63.2876 16.1427 63.6007 17.3471 59.6873 19.7558C61.3048 20.9078 62.9224 22.374 63.1311 23.7354C63.2354 24.4685 64.6964 27.2962 66.2096 29.862L68.9229 29.286C69.549 29.1289 70.2274 29.4431 70.5404 30.0191C71.7405 32.3231 72.5232 34.7842 72.8363 37.35C73.5668 42.9529 71.8449 47.7703 67.8271 51.3311C60.5743 57.7194 53.1649 58.5049 50.0864 58.5049L48.9385 66.883C48.7819 67.5638 48.1558 68.1398 47.4253 68.1398ZM32.1891 63.1652C32.6587 63.4794 34.3806 64.3172 39.9637 64.8409C42.364 65.0503 44.712 65.155 46.0686 65.155L47.2166 56.7245C47.3209 55.9391 48.0514 55.363 48.8341 55.4678C48.9385 55.4678 57.4958 56.358 65.74 49.0794C72.2102 43.3718 69.4969 35.2031 68.2967 32.4278L65.6878 33.0038C65.0617 33.1085 64.4355 32.8467 64.1225 32.3231C63.2876 30.8569 60.4699 26.0918 60.1569 24.2591C59.896 23.6307 57.9654 22.0598 56.0348 20.9602C55.3043 20.5413 55.0955 19.6511 55.4608 18.918C55.6173 18.6562 55.8261 18.4467 56.0869 18.342C57.4958 17.6613 58.8002 16.7711 60.0003 15.8285C59.2177 14.4671 58.2784 13.2104 57.287 12.006C57.0783 12.1107 56.9218 12.2154 56.7653 12.3725C56.1913 12.9485 55.2521 12.9485 54.6781 12.3725C54.5738 12.2678 54.4694 12.1107 54.4172 11.9536C49.9299 2.63291 38.1375 2.26636 29.0584 3.57545C17.2138 5.30345 13.3004 19.6511 13.2482 19.8082C13.0395 20.4889 12.4134 20.9602 11.6829 20.9078C9.12613 20.646 6.56939 20.5936 4.01263 20.6983C5.10838 21.9027 6.30849 22.95 7.61296 23.9449C8.29128 24.4162 8.39564 25.3587 7.92603 26.0394C7.7695 26.1965 7.61295 26.3536 7.45641 26.4583C5.89105 27.2438 4.43005 28.1863 3.07341 29.286C4.32569 30.2285 5.68235 31.014 7.09117 31.59C7.76949 31.9042 8.08257 32.6372 7.92603 33.3703C7.66514 34.2605 7.56078 35.1507 7.61296 36.0932C8.76089 35.7267 11.3698 34.2605 13.77 32.5849C14.4484 32.1136 15.3876 32.2707 15.8572 32.8991C15.9094 32.9514 15.9094 33.0038 15.9615 33.0562L17.3182 35.7791C17.5791 36.3027 17.5269 36.8787 17.1616 37.35L14.6049 40.5965C16.0659 47.4561 23.0057 51.0692 24.4145 51.174C25.3015 50.9645 28.2757 49.446 30.6238 48.1369C31.3543 47.718 32.2413 47.9798 32.6587 48.6605C32.8153 48.9223 32.8674 49.1841 32.8674 49.446L32.1891 63.1652Z" fill="white"/>
<path d="M32.3424 28.3965H30.2031C29.7857 28.3965 29.3683 28.0823 29.2639 27.6634C29.2117 27.5063 28.429 24.1026 28.1682 22.4794C27.8029 20.3848 28.4291 15.9863 36.3602 9.96446C44.5001 3.7332 54.2575 7.92228 54.6749 8.07937C55.1445 8.34119 55.301 8.91719 55.0923 9.3361C54.8836 9.75501 54.3618 9.96446 53.9444 9.80737C53.84 9.75501 44.761 5.93247 37.5081 11.4306C30.0988 17.0859 29.8379 20.8037 30.0466 22.1652C30.2553 23.3172 30.6727 25.4117 30.9336 26.5114H32.3424C32.8642 26.459 33.3338 26.8779 33.3338 27.4015C33.386 27.9252 32.9686 28.3965 32.4468 28.3965C32.3946 28.3965 32.3946 28.3965 32.3424 28.3965Z" fill="white"/>
<path d="M36.9374 35.4655C36.833 35.4655 36.7808 35.4655 36.6765 35.4132C35.1633 35.0466 31.876 29.6008 31.3542 28.3964C31.0933 27.9775 31.0412 27.4539 31.2499 26.9826C31.5108 26.459 35.372 21.4845 36.9895 19.3375C37.3026 18.9186 37.8766 18.8663 38.294 19.1805C38.7114 19.4946 38.7636 20.0706 38.4505 20.4895C36.6243 22.8459 33.8066 26.5637 33.0761 27.611C33.5979 28.8677 36.0503 32.5855 37.0417 33.4233C39.0245 32.3761 48.208 25.307 56.2435 18.8663C56.6609 18.5521 57.2349 18.6568 57.5479 19.0757C57.8088 19.4423 57.7567 20.0183 57.3914 20.3325C57.3392 20.3848 52.6432 24.155 47.8427 27.8728C39.1289 34.6277 37.5635 35.4655 36.9374 35.4655Z" fill="white"/>
<path d="M61.2003 47.1943C58.9044 47.1943 56.6607 46.7754 54.5736 45.8852C48.3643 43.3194 47.8947 37.0358 48.1034 33.7892L40.8506 37.9783C40.381 38.2401 39.807 38.083 39.5461 37.6118C39.4939 37.507 39.4939 37.4547 39.4418 37.35L38.5025 33.475C38.3982 32.9514 38.7113 32.4801 39.1809 32.323C39.7027 32.2183 40.1722 32.5325 40.3288 33.0038L40.9549 35.6743L48.7296 31.171C49.1992 30.9092 49.7731 31.0663 50.034 31.5376C50.1384 31.747 50.1906 32.0089 50.1384 32.2183C50.0862 32.5849 48.26 41.2249 55.2519 44.1049C62.5569 47.142 70.1228 43.11 70.175 43.0576C70.6446 42.8481 71.2186 43.0576 71.4273 43.5289C71.636 43.9478 71.4795 44.4714 71.0621 44.7332C68.0357 46.3565 64.6441 47.1419 61.2003 47.1943Z" fill="white"/>
<path d="M58.697 38.3969C58.1752 38.3969 57.7578 37.978 57.7578 37.4544C57.7578 37.1926 57.8622 36.9308 58.0709 36.7737L64.8016 30.8569C65.1668 30.4904 65.7929 30.4904 66.1581 30.8569C66.5234 31.2235 66.5234 31.8518 66.1581 32.2183C66.1059 32.2707 66.106 32.2707 66.0538 32.2707L59.3231 38.1875C59.1666 38.3445 58.9057 38.3969 58.697 38.3969Z" fill="white"/>
<path d="M56.9735 28.5512C56.5039 28.5512 56.0865 28.1846 56.0343 27.661L55.7734 24.4146C55.7734 24.3099 55.7734 24.2576 55.7734 24.1528C56.1387 22.4249 58.2779 22.1631 59.4779 22.3202C59.9997 22.3202 60.4171 22.7915 60.3649 23.3151C60.3649 23.8387 59.8953 24.2576 59.3736 24.2052C59.3214 24.2052 59.2692 24.2052 59.217 24.2052C58.5387 24.1528 57.7561 24.2576 57.5996 24.467L57.7561 26.4044L58.33 26.2473L58.6953 25.0953C58.904 24.6241 59.4257 24.3623 59.8953 24.5194C60.3649 24.6765 60.6258 25.2001 60.4692 25.6713L59.9475 27.2945C59.8431 27.6087 59.5823 27.8181 59.2692 27.9228L57.13 28.4464C57.13 28.4988 57.0257 28.5512 56.9735 28.5512Z" fill="white"/>
<path d="M31.2519 50.2814C30.7301 50.2814 30.3127 49.8625 30.3127 49.3388C30.3127 49.1817 30.3649 49.0246 30.417 48.9199C31.4606 46.9825 32.5564 44.5737 32.7129 43.7883C31.7215 42.0079 23.112 33.7868 21.651 33.2632C21.0249 33.2108 19.0421 34.8865 17.4246 36.7192C17.0593 37.0857 16.4853 37.0857 16.0679 36.7192C15.7027 36.405 15.7027 35.829 15.9636 35.4625C17.1115 34.101 20.0335 31.0639 21.9641 31.3781C23.1642 31.5876 26.4515 34.5199 29.0082 36.981C34.6435 42.3745 34.6435 43.317 34.6435 43.6312C34.6435 44.8355 32.8695 48.2915 32.0868 49.7577C31.9302 50.0719 31.6172 50.2814 31.2519 50.2814Z" fill="white"/>
</svg>
