<svg width="34" height="31" viewBox="0 0 34 31" fill="none" xmlns="http://www.w3.org/2000/svg">
<path d="M21.7947 31C21.7235 31 19.9906 31 18.1628 30.8332C14.602 30.4997 13.8661 29.8565 13.5812 29.2609C13.5337 29.1657 13.51 29.0704 13.5337 28.9512L13.7474 23.6388C12.9878 24.0438 12.0145 24.5202 11.516 24.6155C10.8513 24.7346 9.66436 24.1391 8.78603 23.4959C7.7178 22.7335 5.88993 21.0659 5.46263 18.3978C5.4389 18.2072 5.48637 18.0166 5.60507 17.8737L6.69703 16.492L6.62582 16.3252C6.3647 16.5158 6.03236 16.7064 5.67628 16.9208C4.25197 17.7546 3.51608 17.9452 2.99383 17.6355C2.25793 17.1828 2.28167 16.1108 2.44784 15.3485C0.0265055 14.1574 0.192678 13.4189 0.240155 13.1092C0.335109 12.6089 0.97605 11.9895 2.13924 11.2986C1.30839 10.584 0.57249 9.774 0.525013 9.15461C0.501275 8.89256 0.59623 8.63051 0.786139 8.43993C0.952309 8.27317 1.45082 7.77289 5.17777 8.08259C5.72376 6.34353 7.93144 1.0549 13.2489 0.26875C16.3586 -0.183881 19.0411 -0.0647679 21.2013 0.62609C23.2903 1.29312 24.857 2.48426 25.854 4.17567C26.0439 4.1042 26.2339 4.08038 26.4238 4.08038C26.7798 4.1042 27.1359 4.29478 27.3496 4.58065C28.3466 5.84326 28.8214 6.58176 28.9401 7.05821C29.0113 7.34408 29.1537 7.892 27.3733 8.98785C28.1092 9.51195 28.8451 10.179 28.9401 10.7984C28.9875 11.1319 29.6522 12.4183 30.3406 13.5856L31.575 13.3236C31.8599 13.2521 32.1685 13.395 32.3109 13.6571C32.8569 14.7053 33.213 15.825 33.3554 16.9923C33.6878 19.5413 32.9044 21.733 31.0765 23.3529C27.7769 26.2593 24.406 26.6166 23.0054 26.6166L22.4832 30.4283C22.4119 30.7379 22.1271 31 21.7947 31ZM14.8631 28.7368C15.0767 28.8798 15.8601 29.2609 18.4001 29.4992C19.4921 29.5945 20.5603 29.6421 21.1775 29.6421L21.6998 25.8067C21.7473 25.4493 22.0796 25.1873 22.4357 25.2349C22.4832 25.2349 26.3763 25.6399 30.127 22.3285C33.0706 19.7319 31.8362 16.0155 31.2902 14.7529L30.1032 15.015C29.8184 15.0626 29.5335 14.9435 29.3911 14.7053C29.0113 14.0383 27.7294 11.8704 27.587 11.0366C27.4683 10.7507 26.5899 10.036 25.7116 9.53577C25.3793 9.34519 25.2843 8.9402 25.4505 8.60669C25.5217 8.48757 25.6167 8.39228 25.7353 8.34464C26.3763 8.03494 26.9698 7.62996 27.5157 7.20115C27.1597 6.58176 26.7324 6.01001 26.2813 5.46209C26.1864 5.50974 26.1152 5.55738 26.0439 5.62885C25.7828 5.8909 25.3555 5.8909 25.0944 5.62885C25.0469 5.58121 24.9995 5.50974 24.9757 5.43827C22.9342 1.19783 17.5693 1.03108 13.4388 1.62664C8.05014 2.41279 6.26974 8.9402 6.246 9.01167C6.15105 9.32137 5.86619 9.53577 5.53385 9.51195C4.37066 9.39283 3.20747 9.36901 2.04429 9.41666C2.5428 9.96458 3.08878 10.441 3.68224 10.8937C3.99084 11.1081 4.03832 11.5369 3.82468 11.8466C3.75346 11.918 3.68224 11.9895 3.61102 12.0371C2.89887 12.3945 2.23419 12.8233 1.61699 13.3236C2.18671 13.7524 2.80392 14.1097 3.44486 14.3718C3.75346 14.5147 3.89589 14.8482 3.82468 15.1817C3.70598 15.5867 3.65851 15.9917 3.68224 16.4205C4.20449 16.2538 5.39142 15.5867 6.48339 14.8244C6.79199 14.61 7.21928 14.6815 7.43293 14.9673C7.45667 14.9912 7.45667 15.015 7.48041 15.0388L8.09761 16.2776C8.21631 16.5158 8.19256 16.7779 8.02639 16.9923L6.86321 18.4693C7.52789 21.59 10.6851 23.2338 11.3261 23.2815C11.7296 23.1862 13.0827 22.4953 14.1509 21.8997C14.4833 21.7092 14.8868 21.8283 15.0767 22.138C15.148 22.2571 15.1717 22.3762 15.1717 22.4953L14.8631 28.7368Z" fill="#012515"/>
<path d="M14.9347 12.9186H13.9614C13.7715 12.9186 13.5816 12.7756 13.5341 12.5851C13.5104 12.5136 13.1543 10.9651 13.0356 10.2266C12.8695 9.2737 13.1543 7.27259 16.7626 4.53298C20.4658 1.69809 24.9049 3.6039 25.0948 3.67537C25.3084 3.79448 25.3797 4.05653 25.2847 4.24711C25.1898 4.43769 24.9524 4.53298 24.7625 4.46152C24.715 4.43769 20.5845 2.69864 17.2848 5.20002C13.914 7.77287 13.7953 9.46428 13.8902 10.0837C13.9852 10.6078 14.1751 11.5607 14.2938 12.061H14.9347C15.1721 12.0371 15.3857 12.2277 15.3857 12.4659C15.4095 12.7042 15.2196 12.9186 14.9822 12.9186C14.9585 12.9186 14.9584 12.9186 14.9347 12.9186Z" fill="#012515"/>
<path d="M17.025 16.1347C16.9775 16.1347 16.9538 16.1347 16.9063 16.1108C16.2179 15.9441 14.7224 13.4665 14.485 12.9186C14.3663 12.728 14.3425 12.4898 14.4375 12.2754C14.5562 12.0372 16.3128 9.774 17.0487 8.79727C17.1912 8.60669 17.4523 8.58287 17.6422 8.7258C17.8321 8.86874 17.8559 9.13079 17.7134 9.32137C16.8826 10.3934 15.6007 12.0848 15.2683 12.5613C15.5057 13.133 16.6214 14.8244 17.0725 15.2056C17.9745 14.7291 22.1525 11.5131 25.8083 8.58287C25.9982 8.43993 26.2593 8.48757 26.4017 8.67816C26.5204 8.84491 26.4967 9.10696 26.3305 9.2499C26.3068 9.27372 24.1703 10.989 21.9864 12.6804C18.022 15.7535 17.3099 16.1347 17.025 16.1347Z" fill="#012515"/>
<path d="M28.0581 21.471C27.0136 21.471 25.9928 21.2804 25.0433 20.8754C22.2184 19.7081 22.0048 16.8494 22.0997 15.3724L18.8 17.2782C18.5864 17.3973 18.3253 17.3258 18.2066 17.1114C18.1828 17.0638 18.1828 17.0399 18.1591 16.9923L17.7318 15.2294C17.6843 14.9912 17.8268 14.7768 18.0404 14.7053C18.2778 14.6577 18.4914 14.8006 18.5627 15.015L18.8475 16.23L22.3846 14.1812C22.5982 14.0621 22.8593 14.1336 22.978 14.348C23.0255 14.4433 23.0492 14.5624 23.0255 14.6577C23.0018 14.8244 22.1709 18.7552 25.3519 20.0654C28.6753 21.4471 32.1174 19.6128 32.1411 19.589C32.3548 19.4937 32.6159 19.589 32.7108 19.8034C32.8058 19.994 32.7346 20.2322 32.5447 20.3513C31.1678 21.0898 29.6248 21.4471 28.0581 21.471Z" fill="#012515"/>
<path d="M26.9234 17.4687C26.686 17.4687 26.4961 17.2781 26.4961 17.0399C26.4961 16.9208 26.5436 16.8016 26.6385 16.7302L29.7008 14.0382C29.867 13.8715 30.1518 13.8715 30.318 14.0382C30.4842 14.205 30.4842 14.4908 30.318 14.6576C30.2942 14.6814 30.2942 14.6814 30.2705 14.6814L27.2082 17.3734C27.137 17.4449 27.0183 17.4687 26.9234 17.4687Z" fill="#012515"/>
<path d="M26.1397 12.9901C25.9261 12.9901 25.7362 12.8233 25.7124 12.5851L25.5938 11.1081C25.5938 11.0604 25.5938 11.0366 25.5938 10.989C25.7599 10.2028 26.7332 10.0837 27.2792 10.1552C27.5166 10.1552 27.7065 10.3696 27.6827 10.6078C27.6827 10.846 27.4691 11.0366 27.2317 11.0128C27.208 11.0128 27.1842 11.0128 27.1605 11.0128C26.8519 10.989 26.4958 11.0366 26.4246 11.1319L26.4958 12.0133L26.7569 11.9419L26.9231 11.4178C27.0181 11.2034 27.2554 11.0843 27.4691 11.1557C27.6827 11.2272 27.8014 11.4654 27.7302 11.6798L27.4928 12.4183C27.4453 12.5613 27.3267 12.6566 27.1842 12.7042L26.2109 12.9424C26.2109 12.9663 26.1635 12.9901 26.1397 12.9901Z" fill="#012515"/>
<path d="M14.4338 22.8765C14.1964 22.8765 14.0065 22.6859 14.0065 22.4477C14.0065 22.3762 14.0302 22.3048 14.0539 22.2571C14.5287 21.3757 15.0272 20.2798 15.0984 19.9225C14.6474 19.1125 10.7305 15.3724 10.0659 15.1342C9.781 15.1103 8.87893 15.8727 8.14304 16.7064C7.97687 16.8732 7.71574 16.8732 7.52584 16.7064C7.35967 16.5635 7.35967 16.3015 7.47836 16.1347C8.00061 15.5153 9.32997 14.1336 10.2083 14.2765C10.7543 14.3718 12.2498 15.7059 13.413 16.8256C15.9768 19.2793 15.9768 19.7081 15.9768 19.851C15.9768 20.399 15.1697 21.9713 14.8136 22.6383C14.7424 22.7812 14.5999 22.8765 14.4338 22.8765Z" fill="#012515"/>
</svg>
