<svg width="60" height="56" viewBox="0 0 60 56" fill="none" xmlns="http://www.w3.org/2000/svg">
<path d="M38.976 56C38.8473 56 35.7169 56 32.415 55.6988C25.9826 55.0963 24.6532 53.9343 24.1386 52.8585C24.0529 52.6863 24.01 52.5142 24.0529 52.299L24.4388 42.7023C23.0666 43.4339 21.3084 44.2946 20.4079 44.4668C19.2072 44.6819 17.063 43.6061 15.4764 42.4441C13.5467 41.067 10.2447 38.0546 9.47282 33.2347C9.42994 32.8905 9.51571 32.5462 9.73012 32.288L11.7027 29.792L11.5741 29.4907C11.1024 29.835 10.502 30.1793 9.85876 30.5666C7.28581 32.0728 5.95646 32.4171 5.01304 31.8576C3.68368 31.04 3.72656 29.1034 4.02674 27.7263C-0.34728 25.5746 -0.0470976 24.2405 0.0386674 23.6811C0.210197 22.7774 1.36803 21.6585 3.46927 20.4105C1.96838 19.1194 0.639015 17.6563 0.55325 16.5374C0.510367 16.064 0.6819 15.5906 1.02496 15.2463C1.32514 14.9451 2.22567 14.0414 8.95823 14.6008C9.94452 11.4593 13.9326 1.90562 23.5383 0.485483C29.1559 -0.332173 34.0016 -0.117 37.9039 1.131C41.6776 2.33597 44.5078 4.48769 46.3089 7.54314C46.652 7.41404 46.995 7.37101 47.3381 7.37101C47.9813 7.41404 48.6246 7.75832 49.0105 8.27473C50.8116 10.5556 51.6692 11.8896 51.8836 12.7503C52.0123 13.2667 52.2696 14.2565 49.0534 16.2361C50.3827 17.1829 51.7121 18.3878 51.8836 19.5067C51.9694 20.1092 53.1701 22.4331 54.4137 24.5418L56.6436 24.0684C57.1582 23.9393 57.7157 24.1975 57.973 24.6709C58.9593 26.5644 59.6025 28.587 59.8598 30.6957C60.4601 35.3004 59.045 39.2596 55.7431 42.1859C49.7824 47.4361 43.6931 48.0816 41.163 48.0816L40.2196 54.9672C40.0909 55.5266 39.5763 56 38.976 56ZM26.4543 51.9117C26.8402 52.1699 28.2554 52.8585 32.8438 53.2888C34.8164 53.461 36.7461 53.547 37.861 53.547L38.8045 46.6185C38.8902 45.973 39.4906 45.4996 40.1338 45.5856C40.2196 45.5856 47.2523 46.3172 54.0278 40.3354C59.3452 35.6447 57.1153 28.9313 56.129 26.6505L53.9849 27.1238C53.4703 27.2099 52.9557 26.9947 52.6984 26.5644C52.0123 25.3594 49.6966 21.4433 49.4393 19.9371C49.2249 19.4207 47.6383 18.1296 46.0516 17.2259C45.4513 16.8816 45.2797 16.15 45.5799 15.5476C45.7085 15.3324 45.8801 15.1602 46.0945 15.0742C47.2523 14.5147 48.3244 13.7831 49.3107 13.0085C48.6674 11.8896 47.8956 10.8568 47.0808 9.86701C46.9093 9.95308 46.7806 10.0391 46.652 10.1682C46.1803 10.6416 45.4084 10.6416 44.9367 10.1682C44.8509 10.0822 44.7651 9.95308 44.7222 9.82397C41.0344 2.16383 31.3429 1.86259 23.8814 2.93845C14.147 4.35859 10.9308 16.15 10.8879 16.2791C10.7164 16.8386 10.2018 17.2259 9.60146 17.1829C7.50022 16.9677 5.39899 16.9247 3.29774 17.0107C4.19827 18.0005 5.18457 18.8612 6.25663 19.6789C6.81411 20.0662 6.89987 20.8408 6.51393 21.4003C6.38528 21.5294 6.25663 21.6585 6.12798 21.7445C4.8415 22.39 3.64079 23.1647 2.52585 24.0684C3.55503 24.843 4.66998 25.4885 5.82781 25.9619C6.38528 26.2201 6.64258 26.8226 6.51393 27.4251C6.29952 28.1567 6.21375 28.8883 6.25663 29.6629C7.20005 29.3616 9.34417 28.1567 11.3168 26.7796C11.8742 26.3923 12.6461 26.5214 13.0321 27.0378C13.0749 27.0808 13.075 27.1238 13.1178 27.1669L14.2328 29.4047C14.4472 29.835 14.4043 30.3084 14.1041 30.6957L12.0029 33.3638C13.2036 39.0014 18.907 41.9707 20.0648 42.0568C20.7938 41.8847 23.2381 40.6367 25.1678 39.5608C25.7682 39.2165 26.4972 39.4317 26.8402 39.9912C26.9689 40.2063 27.0118 40.4215 27.0118 40.6367L26.4543 51.9117Z" fill="#012515"/>
<path d="M26.5829 23.3369H24.8247C24.4816 23.3369 24.1386 23.0787 24.0528 22.7344C24.0099 22.6053 23.3667 19.8081 23.1523 18.474C22.8521 16.7526 23.3667 13.1377 29.8848 8.18875C36.5745 3.06764 44.5935 6.5104 44.9366 6.6395C45.3225 6.85468 45.4512 7.32806 45.2796 7.67233C45.1081 8.01661 44.6793 8.18875 44.3362 8.05964C44.2505 8.01661 36.7889 4.87509 30.8282 9.39371C24.7389 14.0414 24.5245 17.0969 24.696 18.2158C24.8676 19.1625 25.2106 20.8839 25.425 21.7877H26.5829C27.0117 21.7446 27.3976 22.0889 27.3976 22.5192C27.4405 22.9496 27.0975 23.3369 26.6686 23.3369C26.6257 23.3369 26.6257 23.3369 26.5829 23.3369Z" fill="#012515"/>
<path d="M30.3567 29.1465C30.2709 29.1465 30.2281 29.1464 30.1423 29.1034C28.8987 28.8022 26.1971 24.3266 25.7683 23.3368C25.5539 22.9925 25.511 22.5622 25.6825 22.1749C25.8969 21.7445 29.0702 17.6562 30.3996 15.8918C30.6569 15.5475 31.1286 15.5045 31.4716 15.7627C31.8147 16.0209 31.8576 16.4943 31.6003 16.8386C30.0994 18.7751 27.7837 21.8306 27.1834 22.6913C27.6122 23.7241 29.6277 26.7795 30.4425 27.4681C32.072 26.6074 39.6193 20.7977 46.2233 15.5045C46.5663 15.2463 47.038 15.3324 47.2953 15.6766C47.5097 15.9779 47.4669 16.4513 47.1667 16.7095C47.1238 16.7525 43.2644 19.851 39.3192 22.9064C32.1578 28.4579 30.8713 29.1465 30.3567 29.1465Z" fill="#012515"/>
<path d="M50.2969 38.7862C48.4101 38.7862 46.5661 38.4419 44.8508 37.7103C39.7478 35.6016 39.3619 30.4375 39.5334 27.7693L33.5727 31.2121C33.1868 31.4273 32.7151 31.2982 32.5006 30.9109C32.4578 30.8248 32.4578 30.7817 32.4149 30.6957L31.643 27.5111C31.5572 27.0808 31.8145 26.6935 32.2005 26.5644C32.6293 26.4783 33.0152 26.7365 33.1439 27.1238L33.6585 29.3186L40.048 25.6176C40.4339 25.4024 40.9056 25.5315 41.12 25.9188C41.2058 26.091 41.2487 26.3062 41.2058 26.4783C41.1629 26.7795 39.662 33.8802 45.4083 36.2471C51.4119 38.7431 57.6298 35.4295 57.6727 35.3864C58.0587 35.2143 58.5304 35.3864 58.7019 35.7738C58.8735 36.118 58.7448 36.5484 58.4017 36.7636C55.9145 38.0976 53.1272 38.7431 50.2969 38.7862Z" fill="#012515"/>
<path d="M48.2389 31.5565C47.8101 31.5565 47.467 31.2122 47.467 30.7818C47.467 30.5667 47.5528 30.3515 47.7243 30.2224L53.2562 25.3595C53.5563 25.0582 54.0709 25.0582 54.3711 25.3595C54.6713 25.6607 54.6713 26.1771 54.3711 26.4784C54.3282 26.5214 54.3282 26.5214 54.2853 26.5214L48.7535 31.3843C48.6249 31.5134 48.4104 31.5565 48.2389 31.5565Z" fill="#012515"/>
<path d="M46.8232 23.4659C46.4373 23.4659 46.0942 23.1647 46.0513 22.7343L45.8369 20.0662C45.8369 19.9801 45.8369 19.9371 45.8369 19.851C46.1371 18.4309 47.8953 18.2157 48.8816 18.3448C49.3104 18.3448 49.6534 18.7321 49.6106 19.1625C49.6106 19.5928 49.2246 19.9371 48.7958 19.8941C48.7529 19.8941 48.71 19.8941 48.6671 19.8941C48.1097 19.851 47.4664 19.9371 47.3378 20.1092L47.4664 21.7015L47.9381 21.5724L48.2383 20.6257C48.4098 20.2383 48.8387 20.0232 49.2246 20.1523C49.6105 20.2814 49.825 20.7117 49.6963 21.099L49.2675 22.4331C49.1817 22.6913 48.9673 22.8634 48.71 22.9495L46.9519 23.3799C46.9519 23.4229 46.8661 23.4659 46.8232 23.4659Z" fill="#012515"/>
<path d="M25.6823 41.3252C25.2535 41.3252 24.9104 40.9809 24.9104 40.5506C24.9104 40.4215 24.9533 40.2924 24.9962 40.2063C25.8538 38.614 26.7544 36.6344 26.883 35.9889C26.0683 34.5257 18.9927 27.7693 17.7919 27.339C17.2773 27.2959 15.6478 28.673 14.3185 30.1792C14.0183 30.4805 13.5466 30.4805 13.2035 30.1792C12.9033 29.921 12.9033 29.4477 13.1177 29.1464C14.0612 28.0275 16.4626 25.5315 18.0492 25.7897C19.0355 25.9619 21.7371 28.3718 23.8384 30.3944C28.4697 34.827 28.4697 35.6016 28.4697 35.8598C28.4697 36.8496 27.0117 39.6899 26.3684 40.8948C26.2398 41.1531 25.9825 41.3252 25.6823 41.3252Z" fill="#012515"/>
</svg>
